<?xml version="1.0" encoding="utf-8" standalone="no"?>
<!DOCTYPE svg PUBLIC "-//W3C//DTD SVG 1.1//EN"
  "http://www.w3.org/Graphics/SVG/1.1/DTD/svg11.dtd">
<svg xmlns:xlink="http://www.w3.org/1999/xlink" width="1008pt" height="432pt" viewBox="0 0 1008 432" xmlns="http://www.w3.org/2000/svg" version="1.1">
 <metadata>
  <rdf:RDF xmlns:dc="http://purl.org/dc/elements/1.1/" xmlns:cc="http://creativecommons.org/ns#" xmlns:rdf="http://www.w3.org/1999/02/22-rdf-syntax-ns#">
   <cc:Work>
    <dc:type rdf:resource="http://purl.org/dc/dcmitype/StillImage"/>
    <dc:date>2025-12-10T20:06:45.379537</dc:date>
    <dc:format>image/svg+xml</dc:format>
    <dc:creator>
     <cc:Agent>
      <dc:title>Matplotlib v3.10.0, https://matplotlib.org/</dc:title>
     </cc:Agent>
    </dc:creator>
   </cc:Work>
  </rdf:RDF>
 </metadata>
 <defs>
  <style type="text/css">*{stroke-linejoin: round; stroke-linecap: butt}</style>
 </defs>
 <g id="figure_1">
  <g id="patch_1">
   <path d="M 0 432 
L 1008 432 
L 1008 0 
L 0 0 
z
" style="fill: #ffffff"/>
  </g>
  <g id="axes_1">
   <g id="patch_2">
    <path d="M 126 384.48 
L 907.2 384.48 
L 907.2 51.84 
L 126 51.84 
z
" style="fill: #ffffff"/>
   </g>
   <g id="matplotlib.axis_1">
    <g id="xtick_1">
     <g id="line2d_1">
      <defs>
       <path id="mf5b282ec2f" d="M 0 0 
L 0 3.5 
" style="stroke: #000000; stroke-width: 0.8"/>
      </defs>
      <g>
       <use xlink:href="#mf5b282ec2f" x="145.53" y="384.48" style="stroke: #000000; stroke-width: 0.8"/>
      </g>
     </g>
     <g id="text_1">
      <!-- W -->
      <g transform="translate(138.912188 400.598125) scale(0.12 -0.12)">
       <defs>
        <path id="DejaVuSans-Bold-57" d="M 191 4666 
L 1344 4666 
L 2150 1275 
L 2950 4666 
L 4109 4666 
L 4909 1275 
L 5716 4666 
L 6859 4666 
L 5759 0 
L 4372 0 
L 3525 3547 
L 2688 0 
L 1300 0 
L 191 4666 
z
" transform="scale(0.015625)"/>
       </defs>
       <use xlink:href="#DejaVuSans-Bold-57"/>
      </g>
     </g>
    </g>
    <g id="xtick_2">
     <g id="line2d_2">
      <g>
       <use xlink:href="#mf5b282ec2f" x="184.59" y="384.48" style="stroke: #000000; stroke-width: 0.8"/>
      </g>
     </g>
     <g id="text_2">
      <!-- F -->
      <g transform="translate(180.49125 400.598125) scale(0.12 -0.12)">
       <defs>
        <path id="DejaVuSans-Bold-46" d="M 588 4666 
L 3834 4666 
L 3834 3756 
L 1791 3756 
L 1791 2888 
L 3713 2888 
L 3713 1978 
L 1791 1978 
L 1791 0 
L 588 0 
L 588 4666 
z
" transform="scale(0.015625)"/>
       </defs>
       <use xlink:href="#DejaVuSans-Bold-46"/>
      </g>
     </g>
    </g>
    <g id="xtick_3">
     <g id="line2d_3">
      <g>
       <use xlink:href="#mf5b282ec2f" x="223.65" y="384.48" style="stroke: #000000; stroke-width: 0.8"/>
      </g>
     </g>
     <g id="text_3">
      <!-- C -->
      <g transform="translate(219.246563 400.598125) scale(0.12 -0.12)">
       <defs>
        <path id="DejaVuSans-Bold-43" d="M 4288 256 
Q 3956 84 3597 -3 
Q 3238 -91 2847 -91 
Q 1681 -91 1000 561 
Q 319 1213 319 2328 
Q 319 3447 1000 4098 
Q 1681 4750 2847 4750 
Q 3238 4750 3597 4662 
Q 3956 4575 4288 4403 
L 4288 3438 
Q 3953 3666 3628 3772 
Q 3303 3878 2944 3878 
Q 2300 3878 1931 3465 
Q 1563 3053 1563 2328 
Q 1563 1606 1931 1193 
Q 2300 781 2944 781 
Q 3303 781 3628 887 
Q 3953 994 4288 1222 
L 4288 256 
z
" transform="scale(0.015625)"/>
       </defs>
       <use xlink:href="#DejaVuSans-Bold-43"/>
      </g>
     </g>
    </g>
    <g id="xtick_4">
     <g id="line2d_4">
      <g>
       <use xlink:href="#mf5b282ec2f" x="262.71" y="384.48" style="stroke: #000000; stroke-width: 0.8"/>
      </g>
     </g>
     <g id="text_4">
      <!-- L -->
      <g transform="translate(258.886875 400.598125) scale(0.12 -0.12)">
       <defs>
        <path id="DejaVuSans-Bold-4c" d="M 588 4666 
L 1791 4666 
L 1791 909 
L 3903 909 
L 3903 0 
L 588 0 
L 588 4666 
z
" transform="scale(0.015625)"/>
       </defs>
       <use xlink:href="#DejaVuSans-Bold-4c"/>
      </g>
     </g>
    </g>
    <g id="xtick_5">
     <g id="line2d_5">
      <g>
       <use xlink:href="#mf5b282ec2f" x="301.77" y="384.48" style="stroke: #000000; stroke-width: 0.8"/>
      </g>
     </g>
     <g id="text_5">
      <!-- Y -->
      <g transform="translate(297.425625 400.598125) scale(0.12 -0.12)">
       <defs>
        <path id="DejaVuSans-Bold-59" d="M -63 4666 
L 1253 4666 
L 2316 3003 
L 3378 4666 
L 4697 4666 
L 2919 1966 
L 2919 0 
L 1716 0 
L 1716 1966 
L -63 4666 
z
" transform="scale(0.015625)"/>
       </defs>
       <use xlink:href="#DejaVuSans-Bold-59"/>
      </g>
     </g>
    </g>
    <g id="xtick_6">
     <g id="line2d_6">
      <g>
       <use xlink:href="#mf5b282ec2f" x="340.83" y="384.48" style="stroke: #000000; stroke-width: 0.8"/>
      </g>
     </g>
     <g id="text_6">
      <!-- I -->
      <g transform="translate(338.597813 400.598125) scale(0.12 -0.12)">
       <defs>
        <path id="DejaVuSans-Bold-49" d="M 588 4666 
L 1791 4666 
L 1791 0 
L 588 0 
L 588 4666 
z
" transform="scale(0.015625)"/>
       </defs>
       <use xlink:href="#DejaVuSans-Bold-49"/>
      </g>
     </g>
    </g>
    <g id="xtick_7">
     <g id="line2d_7">
      <g>
       <use xlink:href="#mf5b282ec2f" x="379.89" y="384.48" style="stroke: #000000; stroke-width: 0.8"/>
      </g>
     </g>
     <g id="text_7">
      <!-- G -->
      <g transform="translate(374.965312 400.598125) scale(0.12 -0.12)">
       <defs>
        <path id="DejaVuSans-Bold-47" d="M 4781 347 
Q 4331 128 3847 18 
Q 3363 -91 2847 -91 
Q 1681 -91 1000 561 
Q 319 1213 319 2328 
Q 319 3456 1012 4103 
Q 1706 4750 2913 4750 
Q 3378 4750 3804 4662 
Q 4231 4575 4609 4403 
L 4609 3438 
Q 4219 3659 3833 3768 
Q 3447 3878 3059 3878 
Q 2341 3878 1952 3476 
Q 1563 3075 1563 2328 
Q 1563 1588 1938 1184 
Q 2313 781 3003 781 
Q 3191 781 3352 804 
Q 3513 828 3641 878 
L 3641 1784 
L 2906 1784 
L 2906 2591 
L 4781 2591 
L 4781 347 
z
" transform="scale(0.015625)"/>
       </defs>
       <use xlink:href="#DejaVuSans-Bold-47"/>
      </g>
     </g>
    </g>
    <g id="xtick_8">
     <g id="line2d_8">
      <g>
       <use xlink:href="#mf5b282ec2f" x="418.95" y="384.48" style="stroke: #000000; stroke-width: 0.8"/>
      </g>
     </g>
     <g id="text_8">
      <!-- M -->
      <g transform="translate(412.979063 400.598125) scale(0.12 -0.12)">
       <defs>
        <path id="DejaVuSans-Bold-4d" d="M 588 4666 
L 2119 4666 
L 3181 2169 
L 4250 4666 
L 5778 4666 
L 5778 0 
L 4641 0 
L 4641 3413 
L 3566 897 
L 2803 897 
L 1728 3413 
L 1728 0 
L 588 0 
L 588 4666 
z
" transform="scale(0.015625)"/>
       </defs>
       <use xlink:href="#DejaVuSans-Bold-4d"/>
      </g>
     </g>
    </g>
    <g id="xtick_9">
     <g id="line2d_9">
      <g>
       <use xlink:href="#mf5b282ec2f" x="458.01" y="384.48" style="stroke: #000000; stroke-width: 0.8"/>
      </g>
     </g>
     <g id="text_9">
      <!-- V -->
      <g transform="translate(453.366562 400.598125) scale(0.12 -0.12)">
       <defs>
        <path id="DejaVuSans-Bold-56" d="M 31 4666 
L 1241 4666 
L 2478 1222 
L 3713 4666 
L 4922 4666 
L 3194 0 
L 1759 0 
L 31 4666 
z
" transform="scale(0.015625)"/>
       </defs>
       <use xlink:href="#DejaVuSans-Bold-56"/>
      </g>
     </g>
    </g>
    <g id="xtick_10">
     <g id="line2d_10">
      <g>
       <use xlink:href="#mf5b282ec2f" x="497.07" y="384.48" style="stroke: #000000; stroke-width: 0.8"/>
      </g>
     </g>
     <g id="text_10">
      <!-- P -->
      <g transform="translate(492.672188 400.598125) scale(0.12 -0.12)">
       <defs>
        <path id="DejaVuSans-Bold-50" d="M 588 4666 
L 2584 4666 
Q 3475 4666 3951 4270 
Q 4428 3875 4428 3144 
Q 4428 2409 3951 2014 
Q 3475 1619 2584 1619 
L 1791 1619 
L 1791 0 
L 588 0 
L 588 4666 
z
M 1791 3794 
L 1791 2491 
L 2456 2491 
Q 2806 2491 2997 2661 
Q 3188 2831 3188 3144 
Q 3188 3456 2997 3625 
Q 2806 3794 2456 3794 
L 1791 3794 
z
" transform="scale(0.015625)"/>
       </defs>
       <use xlink:href="#DejaVuSans-Bold-50"/>
      </g>
     </g>
    </g>
    <g id="xtick_11">
     <g id="line2d_11">
      <g>
       <use xlink:href="#mf5b282ec2f" x="536.13" y="384.48" style="stroke: #000000; stroke-width: 0.8"/>
      </g>
     </g>
     <g id="text_11">
      <!-- T -->
      <g transform="translate(532.036875 400.598125) scale(0.12 -0.12)">
       <defs>
        <path id="DejaVuSans-Bold-54" d="M 31 4666 
L 4331 4666 
L 4331 3756 
L 2784 3756 
L 2784 0 
L 1581 0 
L 1581 3756 
L 31 3756 
L 31 4666 
z
" transform="scale(0.015625)"/>
       </defs>
       <use xlink:href="#DejaVuSans-Bold-54"/>
      </g>
     </g>
    </g>
    <g id="xtick_12">
     <g id="line2d_12">
      <g>
       <use xlink:href="#mf5b282ec2f" x="575.19" y="384.48" style="stroke: #000000; stroke-width: 0.8"/>
      </g>
     </g>
     <g id="text_12">
      <!-- A -->
      <g transform="translate(570.546563 400.598125) scale(0.12 -0.12)">
       <defs>
        <path id="DejaVuSans-Bold-41" d="M 3419 850 
L 1538 850 
L 1241 0 
L 31 0 
L 1759 4666 
L 3194 4666 
L 4922 0 
L 3713 0 
L 3419 850 
z
M 1838 1716 
L 3116 1716 
L 2478 3572 
L 1838 1716 
z
" transform="scale(0.015625)"/>
       </defs>
       <use xlink:href="#DejaVuSans-Bold-41"/>
      </g>
     </g>
    </g>
    <g id="xtick_13">
     <g id="line2d_13">
      <g>
       <use xlink:href="#mf5b282ec2f" x="614.25" y="384.48" style="stroke: #000000; stroke-width: 0.8"/>
      </g>
     </g>
     <g id="text_13">
      <!-- R -->
      <g transform="translate(609.63 400.598125) scale(0.12 -0.12)">
       <defs>
        <path id="DejaVuSans-Bold-52" d="M 2297 2597 
Q 2675 2597 2839 2737 
Q 3003 2878 3003 3200 
Q 3003 3519 2839 3656 
Q 2675 3794 2297 3794 
L 1791 3794 
L 1791 2597 
L 2297 2597 
z
M 1791 1766 
L 1791 0 
L 588 0 
L 588 4666 
L 2425 4666 
Q 3347 4666 3776 4356 
Q 4206 4047 4206 3378 
Q 4206 2916 3982 2619 
Q 3759 2322 3309 2181 
Q 3556 2125 3751 1926 
Q 3947 1728 4147 1325 
L 4800 0 
L 3519 0 
L 2950 1159 
Q 2778 1509 2601 1637 
Q 2425 1766 2131 1766 
L 1791 1766 
z
" transform="scale(0.015625)"/>
       </defs>
       <use xlink:href="#DejaVuSans-Bold-52"/>
      </g>
     </g>
    </g>
    <g id="xtick_14">
     <g id="line2d_14">
      <g>
       <use xlink:href="#mf5b282ec2f" x="653.31" y="384.48" style="stroke: #000000; stroke-width: 0.8"/>
      </g>
     </g>
     <g id="text_14">
      <!-- D -->
      <g transform="translate(648.329063 400.598125) scale(0.12 -0.12)">
       <defs>
        <path id="DejaVuSans-Bold-44" d="M 1791 3756 
L 1791 909 
L 2222 909 
Q 2959 909 3348 1275 
Q 3738 1641 3738 2338 
Q 3738 3031 3350 3393 
Q 2963 3756 2222 3756 
L 1791 3756 
z
M 588 4666 
L 1856 4666 
Q 2919 4666 3439 4514 
Q 3959 4363 4331 4000 
Q 4659 3684 4818 3271 
Q 4978 2859 4978 2338 
Q 4978 1809 4818 1395 
Q 4659 981 4331 666 
Q 3956 303 3431 151 
Q 2906 0 1856 0 
L 588 0 
L 588 4666 
z
" transform="scale(0.015625)"/>
       </defs>
       <use xlink:href="#DejaVuSans-Bold-44"/>
      </g>
     </g>
    </g>
    <g id="xtick_15">
     <g id="line2d_15">
      <g>
       <use xlink:href="#mf5b282ec2f" x="692.37" y="384.48" style="stroke: #000000; stroke-width: 0.8"/>
      </g>
     </g>
     <g id="text_15">
      <!-- E -->
      <g transform="translate(688.27125 400.598125) scale(0.12 -0.12)">
       <defs>
        <path id="DejaVuSans-Bold-45" d="M 588 4666 
L 3834 4666 
L 3834 3756 
L 1791 3756 
L 1791 2888 
L 3713 2888 
L 3713 1978 
L 1791 1978 
L 1791 909 
L 3903 909 
L 3903 0 
L 588 0 
L 588 4666 
z
" transform="scale(0.015625)"/>
       </defs>
       <use xlink:href="#DejaVuSans-Bold-45"/>
      </g>
     </g>
    </g>
    <g id="xtick_16">
     <g id="line2d_16">
      <g>
       <use xlink:href="#mf5b282ec2f" x="731.43" y="384.48" style="stroke: #000000; stroke-width: 0.8"/>
      </g>
     </g>
     <g id="text_16">
      <!-- N -->
      <g transform="translate(726.40875 400.598125) scale(0.12 -0.12)">
       <defs>
        <path id="DejaVuSans-Bold-4e" d="M 588 4666 
L 1931 4666 
L 3628 1466 
L 3628 4666 
L 4769 4666 
L 4769 0 
L 3425 0 
L 1728 3200 
L 1728 0 
L 588 0 
L 588 4666 
z
" transform="scale(0.015625)"/>
       </defs>
       <use xlink:href="#DejaVuSans-Bold-4e"/>
      </g>
     </g>
    </g>
    <g id="xtick_17">
     <g id="line2d_17">
      <g>
       <use xlink:href="#mf5b282ec2f" x="770.49" y="384.48" style="stroke: #000000; stroke-width: 0.8"/>
      </g>
     </g>
     <g id="text_17">
      <!-- S -->
      <g transform="translate(766.169062 400.598125) scale(0.12 -0.12)">
       <defs>
        <path id="DejaVuSans-Bold-53" d="M 3834 4519 
L 3834 3531 
Q 3450 3703 3084 3790 
Q 2719 3878 2394 3878 
Q 1963 3878 1756 3759 
Q 1550 3641 1550 3391 
Q 1550 3203 1689 3098 
Q 1828 2994 2194 2919 
L 2706 2816 
Q 3484 2659 3812 2340 
Q 4141 2022 4141 1434 
Q 4141 663 3683 286 
Q 3225 -91 2284 -91 
Q 1841 -91 1394 -6 
Q 947 78 500 244 
L 500 1259 
Q 947 1022 1364 901 
Q 1781 781 2169 781 
Q 2563 781 2772 912 
Q 2981 1044 2981 1288 
Q 2981 1506 2839 1625 
Q 2697 1744 2272 1838 
L 1806 1941 
Q 1106 2091 782 2419 
Q 459 2747 459 3303 
Q 459 4000 909 4375 
Q 1359 4750 2203 4750 
Q 2588 4750 2994 4692 
Q 3400 4634 3834 4519 
z
" transform="scale(0.015625)"/>
       </defs>
       <use xlink:href="#DejaVuSans-Bold-53"/>
      </g>
     </g>
    </g>
    <g id="xtick_18">
     <g id="line2d_18">
      <g>
       <use xlink:href="#mf5b282ec2f" x="809.55" y="384.48" style="stroke: #000000; stroke-width: 0.8"/>
      </g>
     </g>
     <g id="text_18">
      <!-- K -->
      <g transform="translate(804.900937 400.598125) scale(0.12 -0.12)">
       <defs>
        <path id="DejaVuSans-Bold-4b" d="M 588 4666 
L 1791 4666 
L 1791 2963 
L 3525 4666 
L 4922 4666 
L 2675 2456 
L 5153 0 
L 3647 0 
L 1791 1838 
L 1791 0 
L 588 0 
L 588 4666 
z
" transform="scale(0.015625)"/>
       </defs>
       <use xlink:href="#DejaVuSans-Bold-4b"/>
      </g>
     </g>
    </g>
    <g id="xtick_19">
     <g id="line2d_19">
      <g>
       <use xlink:href="#mf5b282ec2f" x="848.61" y="384.48" style="stroke: #000000; stroke-width: 0.8"/>
      </g>
     </g>
     <g id="text_19">
      <!-- Q -->
      <g transform="translate(843.509063 400.598125) scale(0.12 -0.12)">
       <defs>
        <path id="DejaVuSans-Bold-51" d="M 2847 -84 
L 2753 -84 
Q 1600 -84 959 553 
Q 319 1191 319 2328 
Q 319 3463 958 4106 
Q 1597 4750 2719 4750 
Q 3853 4750 4486 4112 
Q 5119 3475 5119 2328 
Q 5119 1541 4783 972 
Q 4447 403 3816 116 
L 4756 -934 
L 3609 -934 
L 2847 -84 
z
M 2719 3878 
Q 2169 3878 1866 3472 
Q 1563 3066 1563 2328 
Q 1563 1578 1859 1179 
Q 2156 781 2719 781 
Q 3272 781 3575 1187 
Q 3878 1594 3878 2328 
Q 3878 3066 3575 3472 
Q 3272 3878 2719 3878 
z
" transform="scale(0.015625)"/>
       </defs>
       <use xlink:href="#DejaVuSans-Bold-51"/>
      </g>
     </g>
    </g>
    <g id="xtick_20">
     <g id="line2d_20">
      <g>
       <use xlink:href="#mf5b282ec2f" x="887.67" y="384.48" style="stroke: #000000; stroke-width: 0.8"/>
      </g>
     </g>
     <g id="text_20">
      <!-- H -->
      <g transform="translate(882.64875 400.598125) scale(0.12 -0.12)">
       <defs>
        <path id="DejaVuSans-Bold-48" d="M 588 4666 
L 1791 4666 
L 1791 2888 
L 3566 2888 
L 3566 4666 
L 4769 4666 
L 4769 0 
L 3566 0 
L 3566 1978 
L 1791 1978 
L 1791 0 
L 588 0 
L 588 4666 
z
" transform="scale(0.015625)"/>
       </defs>
       <use xlink:href="#DejaVuSans-Bold-48"/>
      </g>
     </g>
    </g>
    <g id="text_21">
     <!-- Amino Acid -->
     <g transform="translate(472.282344 417.731562) scale(0.14 -0.14)">
      <defs>
       <path id="DejaVuSans-Bold-6d" d="M 3781 2919 
Q 3994 3244 4286 3414 
Q 4578 3584 4928 3584 
Q 5531 3584 5847 3212 
Q 6163 2841 6163 2131 
L 6163 0 
L 5038 0 
L 5038 1825 
Q 5041 1866 5042 1909 
Q 5044 1953 5044 2034 
Q 5044 2406 4934 2573 
Q 4825 2741 4581 2741 
Q 4263 2741 4089 2478 
Q 3916 2216 3909 1719 
L 3909 0 
L 2784 0 
L 2784 1825 
Q 2784 2406 2684 2573 
Q 2584 2741 2328 2741 
Q 2006 2741 1831 2477 
Q 1656 2213 1656 1722 
L 1656 0 
L 531 0 
L 531 3500 
L 1656 3500 
L 1656 2988 
Q 1863 3284 2130 3434 
Q 2397 3584 2719 3584 
Q 3081 3584 3359 3409 
Q 3638 3234 3781 2919 
z
" transform="scale(0.015625)"/>
       <path id="DejaVuSans-Bold-69" d="M 538 3500 
L 1656 3500 
L 1656 0 
L 538 0 
L 538 3500 
z
M 538 4863 
L 1656 4863 
L 1656 3950 
L 538 3950 
L 538 4863 
z
" transform="scale(0.015625)"/>
       <path id="DejaVuSans-Bold-6e" d="M 4056 2131 
L 4056 0 
L 2931 0 
L 2931 347 
L 2931 1631 
Q 2931 2084 2911 2256 
Q 2891 2428 2841 2509 
Q 2775 2619 2662 2680 
Q 2550 2741 2406 2741 
Q 2056 2741 1856 2470 
Q 1656 2200 1656 1722 
L 1656 0 
L 538 0 
L 538 3500 
L 1656 3500 
L 1656 2988 
Q 1909 3294 2193 3439 
Q 2478 3584 2822 3584 
Q 3428 3584 3742 3212 
Q 4056 2841 4056 2131 
z
" transform="scale(0.015625)"/>
       <path id="DejaVuSans-Bold-6f" d="M 2203 2784 
Q 1831 2784 1636 2517 
Q 1441 2250 1441 1747 
Q 1441 1244 1636 976 
Q 1831 709 2203 709 
Q 2569 709 2762 976 
Q 2956 1244 2956 1747 
Q 2956 2250 2762 2517 
Q 2569 2784 2203 2784 
z
M 2203 3584 
Q 3106 3584 3614 3096 
Q 4122 2609 4122 1747 
Q 4122 884 3614 396 
Q 3106 -91 2203 -91 
Q 1297 -91 786 396 
Q 275 884 275 1747 
Q 275 2609 786 3096 
Q 1297 3584 2203 3584 
z
" transform="scale(0.015625)"/>
       <path id="DejaVuSans-Bold-20" transform="scale(0.015625)"/>
       <path id="DejaVuSans-Bold-63" d="M 3366 3391 
L 3366 2478 
Q 3138 2634 2908 2709 
Q 2678 2784 2431 2784 
Q 1963 2784 1702 2511 
Q 1441 2238 1441 1747 
Q 1441 1256 1702 982 
Q 1963 709 2431 709 
Q 2694 709 2930 787 
Q 3166 866 3366 1019 
L 3366 103 
Q 3103 6 2833 -42 
Q 2563 -91 2291 -91 
Q 1344 -91 809 395 
Q 275 881 275 1747 
Q 275 2613 809 3098 
Q 1344 3584 2291 3584 
Q 2566 3584 2833 3536 
Q 3100 3488 3366 3391 
z
" transform="scale(0.015625)"/>
       <path id="DejaVuSans-Bold-64" d="M 2919 2988 
L 2919 4863 
L 4044 4863 
L 4044 0 
L 2919 0 
L 2919 506 
Q 2688 197 2409 53 
Q 2131 -91 1766 -91 
Q 1119 -91 703 423 
Q 288 938 288 1747 
Q 288 2556 703 3070 
Q 1119 3584 1766 3584 
Q 2128 3584 2408 3439 
Q 2688 3294 2919 2988 
z
M 2181 722 
Q 2541 722 2730 984 
Q 2919 1247 2919 1747 
Q 2919 2247 2730 2509 
Q 2541 2772 2181 2772 
Q 1825 2772 1636 2509 
Q 1447 2247 1447 1747 
Q 1447 1247 1636 984 
Q 1825 722 2181 722 
z
" transform="scale(0.015625)"/>
      </defs>
      <use xlink:href="#DejaVuSans-Bold-41"/>
      <use xlink:href="#DejaVuSans-Bold-6d" transform="translate(77.392578 0)"/>
      <use xlink:href="#DejaVuSans-Bold-69" transform="translate(181.591797 0)"/>
      <use xlink:href="#DejaVuSans-Bold-6e" transform="translate(215.869141 0)"/>
      <use xlink:href="#DejaVuSans-Bold-6f" transform="translate(287.060547 0)"/>
      <use xlink:href="#DejaVuSans-Bold-20" transform="translate(355.761719 0)"/>
      <use xlink:href="#DejaVuSans-Bold-41" transform="translate(390.576172 0)"/>
      <use xlink:href="#DejaVuSans-Bold-63" transform="translate(467.96875 0)"/>
      <use xlink:href="#DejaVuSans-Bold-69" transform="translate(527.246094 0)"/>
      <use xlink:href="#DejaVuSans-Bold-64" transform="translate(561.523438 0)"/>
     </g>
    </g>
   </g>
   <g id="matplotlib.axis_2">
    <g id="ytick_1">
     <g id="line2d_21">
      <path d="M 126 369.36 
L 907.2 369.36 
" clip-path="url(#p981a3ef4a5)" style="fill: none; stroke: #b0b0b0; stroke-opacity: 0.3; stroke-width: 0.8; stroke-linecap: square"/>
     </g>
     <g id="line2d_22">
      <defs>
       <path id="mc7a6c0bf85" d="M 0 0 
L -3.5 0 
" style="stroke: #000000; stroke-width: 0.8"/>
      </defs>
      <g>
       <use xlink:href="#mc7a6c0bf85" x="126" y="369.36" style="stroke: #000000; stroke-width: 0.8"/>
      </g>
     </g>
     <g id="text_22">
      <!-- 0 -->
      <g transform="translate(110.650625 373.919062) scale(0.12 -0.12)">
       <defs>
        <path id="DejaVuSans-Bold-30" d="M 2944 2338 
Q 2944 3213 2780 3570 
Q 2616 3928 2228 3928 
Q 1841 3928 1675 3570 
Q 1509 3213 1509 2338 
Q 1509 1453 1675 1090 
Q 1841 728 2228 728 
Q 2613 728 2778 1090 
Q 2944 1453 2944 2338 
z
M 4147 2328 
Q 4147 1169 3647 539 
Q 3147 -91 2228 -91 
Q 1306 -91 806 539 
Q 306 1169 306 2328 
Q 306 3491 806 4120 
Q 1306 4750 2228 4750 
Q 3147 4750 3647 4120 
Q 4147 3491 4147 2328 
z
" transform="scale(0.015625)"/>
       </defs>
       <use xlink:href="#DejaVuSans-Bold-30"/>
      </g>
     </g>
    </g>
    <g id="ytick_2">
     <g id="line2d_23">
      <path d="M 126 308.88 
L 907.2 308.88 
" clip-path="url(#p981a3ef4a5)" style="fill: none; stroke: #b0b0b0; stroke-opacity: 0.3; stroke-width: 0.8; stroke-linecap: square"/>
     </g>
     <g id="line2d_24">
      <g>
       <use xlink:href="#mc7a6c0bf85" x="126" y="308.88" style="stroke: #000000; stroke-width: 0.8"/>
      </g>
     </g>
     <g id="text_23">
      <!-- 2 -->
      <g transform="translate(110.650625 313.439062) scale(0.12 -0.12)">
       <defs>
        <path id="DejaVuSans-Bold-32" d="M 1844 884 
L 3897 884 
L 3897 0 
L 506 0 
L 506 884 
L 2209 2388 
Q 2438 2594 2547 2791 
Q 2656 2988 2656 3200 
Q 2656 3528 2436 3728 
Q 2216 3928 1850 3928 
Q 1569 3928 1234 3808 
Q 900 3688 519 3450 
L 519 4475 
Q 925 4609 1322 4679 
Q 1719 4750 2100 4750 
Q 2938 4750 3402 4381 
Q 3866 4013 3866 3353 
Q 3866 2972 3669 2642 
Q 3472 2313 2841 1759 
L 1844 884 
z
" transform="scale(0.015625)"/>
       </defs>
       <use xlink:href="#DejaVuSans-Bold-32"/>
      </g>
     </g>
    </g>
    <g id="ytick_3">
     <g id="line2d_25">
      <path d="M 126 248.4 
L 907.2 248.4 
" clip-path="url(#p981a3ef4a5)" style="fill: none; stroke: #b0b0b0; stroke-opacity: 0.3; stroke-width: 0.8; stroke-linecap: square"/>
     </g>
     <g id="line2d_26">
      <g>
       <use xlink:href="#mc7a6c0bf85" x="126" y="248.4" style="stroke: #000000; stroke-width: 0.8"/>
      </g>
     </g>
     <g id="text_24">
      <!-- 4 -->
      <g transform="translate(110.650625 252.959062) scale(0.12 -0.12)">
       <defs>
        <path id="DejaVuSans-Bold-34" d="M 2356 3675 
L 1038 1722 
L 2356 1722 
L 2356 3675 
z
M 2156 4666 
L 3494 4666 
L 3494 1722 
L 4159 1722 
L 4159 850 
L 3494 850 
L 3494 0 
L 2356 0 
L 2356 850 
L 288 850 
L 288 1881 
L 2156 4666 
z
" transform="scale(0.015625)"/>
       </defs>
       <use xlink:href="#DejaVuSans-Bold-34"/>
      </g>
     </g>
    </g>
    <g id="ytick_4">
     <g id="line2d_27">
      <path d="M 126 187.92 
L 907.2 187.92 
" clip-path="url(#p981a3ef4a5)" style="fill: none; stroke: #b0b0b0; stroke-opacity: 0.3; stroke-width: 0.8; stroke-linecap: square"/>
     </g>
     <g id="line2d_28">
      <g>
       <use xlink:href="#mc7a6c0bf85" x="126" y="187.92" style="stroke: #000000; stroke-width: 0.8"/>
      </g>
     </g>
     <g id="text_25">
      <!-- 6 -->
      <g transform="translate(110.650625 192.479062) scale(0.12 -0.12)">
       <defs>
        <path id="DejaVuSans-Bold-36" d="M 2316 2303 
Q 2000 2303 1842 2098 
Q 1684 1894 1684 1484 
Q 1684 1075 1842 870 
Q 2000 666 2316 666 
Q 2634 666 2792 870 
Q 2950 1075 2950 1484 
Q 2950 1894 2792 2098 
Q 2634 2303 2316 2303 
z
M 3803 4544 
L 3803 3681 
Q 3506 3822 3243 3889 
Q 2981 3956 2731 3956 
Q 2194 3956 1894 3657 
Q 1594 3359 1544 2772 
Q 1750 2925 1990 3001 
Q 2231 3078 2516 3078 
Q 3231 3078 3670 2659 
Q 4109 2241 4109 1563 
Q 4109 813 3618 361 
Q 3128 -91 2303 -91 
Q 1394 -91 895 523 
Q 397 1138 397 2266 
Q 397 3422 980 4083 
Q 1563 4744 2578 4744 
Q 2900 4744 3203 4694 
Q 3506 4644 3803 4544 
z
" transform="scale(0.015625)"/>
       </defs>
       <use xlink:href="#DejaVuSans-Bold-36"/>
      </g>
     </g>
    </g>
    <g id="ytick_5">
     <g id="line2d_29">
      <path d="M 126 127.44 
L 907.2 127.44 
" clip-path="url(#p981a3ef4a5)" style="fill: none; stroke: #b0b0b0; stroke-opacity: 0.3; stroke-width: 0.8; stroke-linecap: square"/>
     </g>
     <g id="line2d_30">
      <g>
       <use xlink:href="#mc7a6c0bf85" x="126" y="127.44" style="stroke: #000000; stroke-width: 0.8"/>
      </g>
     </g>
     <g id="text_26">
      <!-- 8 -->
      <g transform="translate(110.650625 131.999062) scale(0.12 -0.12)">
       <defs>
        <path id="DejaVuSans-Bold-38" d="M 2228 2088 
Q 1891 2088 1709 1903 
Q 1528 1719 1528 1375 
Q 1528 1031 1709 848 
Q 1891 666 2228 666 
Q 2563 666 2741 848 
Q 2919 1031 2919 1375 
Q 2919 1722 2741 1905 
Q 2563 2088 2228 2088 
z
M 1350 2484 
Q 925 2613 709 2878 
Q 494 3144 494 3541 
Q 494 4131 934 4440 
Q 1375 4750 2228 4750 
Q 3075 4750 3515 4442 
Q 3956 4134 3956 3541 
Q 3956 3144 3739 2878 
Q 3522 2613 3097 2484 
Q 3572 2353 3814 2058 
Q 4056 1763 4056 1313 
Q 4056 619 3595 264 
Q 3134 -91 2228 -91 
Q 1319 -91 855 264 
Q 391 619 391 1313 
Q 391 1763 633 2058 
Q 875 2353 1350 2484 
z
M 1631 3419 
Q 1631 3141 1786 2991 
Q 1941 2841 2228 2841 
Q 2509 2841 2662 2991 
Q 2816 3141 2816 3419 
Q 2816 3697 2662 3845 
Q 2509 3994 2228 3994 
Q 1941 3994 1786 3844 
Q 1631 3694 1631 3419 
z
" transform="scale(0.015625)"/>
       </defs>
       <use xlink:href="#DejaVuSans-Bold-38"/>
      </g>
     </g>
    </g>
    <g id="ytick_6">
     <g id="line2d_31">
      <path d="M 126 66.96 
L 907.2 66.96 
" clip-path="url(#p981a3ef4a5)" style="fill: none; stroke: #b0b0b0; stroke-opacity: 0.3; stroke-width: 0.8; stroke-linecap: square"/>
     </g>
     <g id="line2d_32">
      <g>
       <use xlink:href="#mc7a6c0bf85" x="126" y="66.96" style="stroke: #000000; stroke-width: 0.8"/>
      </g>
     </g>
     <g id="text_27">
      <!-- 10 -->
      <g transform="translate(102.30125 71.519062) scale(0.12 -0.12)">
       <defs>
        <path id="DejaVuSans-Bold-31" d="M 750 831 
L 1813 831 
L 1813 3847 
L 722 3622 
L 722 4441 
L 1806 4666 
L 2950 4666 
L 2950 831 
L 4013 831 
L 4013 0 
L 750 0 
L 750 831 
z
" transform="scale(0.015625)"/>
       </defs>
       <use xlink:href="#DejaVuSans-Bold-31"/>
       <use xlink:href="#DejaVuSans-Bold-30" transform="translate(69.580078 0)"/>
      </g>
     </g>
    </g>
    <g id="text_28">
     <!-- RCS Score -->
     <g transform="translate(95.389687 258.496406) rotate(-90) scale(0.14 -0.14)">
      <defs>
       <path id="DejaVuSans-Bold-72" d="M 3138 2547 
Q 2991 2616 2845 2648 
Q 2700 2681 2553 2681 
Q 2122 2681 1889 2404 
Q 1656 2128 1656 1613 
L 1656 0 
L 538 0 
L 538 3500 
L 1656 3500 
L 1656 2925 
Q 1872 3269 2151 3426 
Q 2431 3584 2822 3584 
Q 2878 3584 2943 3579 
Q 3009 3575 3134 3559 
L 3138 2547 
z
" transform="scale(0.015625)"/>
       <path id="DejaVuSans-Bold-65" d="M 4031 1759 
L 4031 1441 
L 1416 1441 
Q 1456 1047 1700 850 
Q 1944 653 2381 653 
Q 2734 653 3104 758 
Q 3475 863 3866 1075 
L 3866 213 
Q 3469 63 3072 -14 
Q 2675 -91 2278 -91 
Q 1328 -91 801 392 
Q 275 875 275 1747 
Q 275 2603 792 3093 
Q 1309 3584 2216 3584 
Q 3041 3584 3536 3087 
Q 4031 2591 4031 1759 
z
M 2881 2131 
Q 2881 2450 2695 2645 
Q 2509 2841 2209 2841 
Q 1884 2841 1681 2658 
Q 1478 2475 1428 2131 
L 2881 2131 
z
" transform="scale(0.015625)"/>
      </defs>
      <use xlink:href="#DejaVuSans-Bold-52"/>
      <use xlink:href="#DejaVuSans-Bold-43" transform="translate(77.001953 0)"/>
      <use xlink:href="#DejaVuSans-Bold-53" transform="translate(152.265625 0)"/>
      <use xlink:href="#DejaVuSans-Bold-20" transform="translate(224.287109 0)"/>
      <use xlink:href="#DejaVuSans-Bold-53" transform="translate(259.101562 0)"/>
      <use xlink:href="#DejaVuSans-Bold-63" transform="translate(331.123047 0)"/>
      <use xlink:href="#DejaVuSans-Bold-6f" transform="translate(390.400391 0)"/>
      <use xlink:href="#DejaVuSans-Bold-72" transform="translate(459.101562 0)"/>
      <use xlink:href="#DejaVuSans-Bold-65" transform="translate(508.417969 0)"/>
     </g>
    </g>
   </g>
   <g id="patch_3">
    <path d="M 129.906 256.805703 
L 161.154 256.805703 
L 161.154 109.726698 
L 129.906 109.726698 
L 129.906 256.805703 
z
" clip-path="url(#p981a3ef4a5)" style="fill: #451d5b; stroke: #242424; stroke-linejoin: miter"/>
   </g>
   <g id="line2d_33">
    <path d="M 145.53 256.805703 
L 145.53 332.231321 
" clip-path="url(#p981a3ef4a5)" style="fill: none; stroke: #242424"/>
   </g>
   <g id="line2d_34">
    <path d="M 145.53 109.726698 
L 145.53 66.96 
" clip-path="url(#p981a3ef4a5)" style="fill: none; stroke: #242424"/>
   </g>
   <g id="line2d_35">
    <path d="M 137.718 332.231321 
L 153.342 332.231321 
" clip-path="url(#p981a3ef4a5)" style="fill: none; stroke: #242424; stroke-linecap: square"/>
   </g>
   <g id="line2d_36">
    <path d="M 137.718 66.96 
L 153.342 66.96 
" clip-path="url(#p981a3ef4a5)" style="fill: none; stroke: #242424; stroke-linecap: square"/>
   </g>
   <g id="patch_4">
    <path d="M 168.966 266.944718 
L 200.214 266.944718 
L 200.214 147.130366 
L 168.966 147.130366 
L 168.966 266.944718 
z
" clip-path="url(#p981a3ef4a5)" style="fill: #492d6a; stroke: #242424; stroke-linejoin: miter"/>
   </g>
   <g id="line2d_37">
    <path d="M 184.59 266.944718 
L 184.59 347.117061 
" clip-path="url(#p981a3ef4a5)" style="fill: none; stroke: #242424"/>
   </g>
   <g id="line2d_38">
    <path d="M 184.59 147.130366 
L 184.59 66.96 
" clip-path="url(#p981a3ef4a5)" style="fill: none; stroke: #242424"/>
   </g>
   <g id="line2d_39">
    <path d="M 176.778 347.117061 
L 192.402 347.117061 
" clip-path="url(#p981a3ef4a5)" style="fill: none; stroke: #242424; stroke-linecap: square"/>
   </g>
   <g id="line2d_40">
    <path d="M 176.778 66.96 
L 192.402 66.96 
" clip-path="url(#p981a3ef4a5)" style="fill: none; stroke: #242424; stroke-linecap: square"/>
   </g>
   <g id="patch_5">
    <path d="M 208.026 270.177822 
L 239.274 270.177822 
L 239.274 125.487365 
L 208.026 125.487365 
L 208.026 270.177822 
z
" clip-path="url(#p981a3ef4a5)" style="fill: #4b3b75; stroke: #242424; stroke-linejoin: miter"/>
   </g>
   <g id="line2d_41">
    <path d="M 223.65 270.177822 
L 223.65 369.36 
" clip-path="url(#p981a3ef4a5)" style="fill: none; stroke: #242424"/>
   </g>
   <g id="line2d_42">
    <path d="M 223.65 125.487365 
L 223.65 66.96 
" clip-path="url(#p981a3ef4a5)" style="fill: none; stroke: #242424"/>
   </g>
   <g id="line2d_43">
    <path d="M 215.838 369.36 
L 231.462 369.36 
" clip-path="url(#p981a3ef4a5)" style="fill: none; stroke: #242424; stroke-linecap: square"/>
   </g>
   <g id="line2d_44">
    <path d="M 215.838 66.96 
L 231.462 66.96 
" clip-path="url(#p981a3ef4a5)" style="fill: none; stroke: #242424; stroke-linecap: square"/>
   </g>
   <g id="patch_6">
    <path d="M 247.086 269.522098 
L 278.334 269.522098 
L 278.334 163.270725 
L 247.086 163.270725 
L 247.086 269.522098 
z
" clip-path="url(#p981a3ef4a5)" style="fill: #4a497d; stroke: #242424; stroke-linejoin: miter"/>
   </g>
   <g id="line2d_45">
    <path d="M 262.71 269.522098 
L 262.71 369.36 
" clip-path="url(#p981a3ef4a5)" style="fill: none; stroke: #242424"/>
   </g>
   <g id="line2d_46">
    <path d="M 262.71 163.270725 
L 262.71 66.96 
" clip-path="url(#p981a3ef4a5)" style="fill: none; stroke: #242424"/>
   </g>
   <g id="line2d_47">
    <path d="M 254.898 369.36 
L 270.522 369.36 
" clip-path="url(#p981a3ef4a5)" style="fill: none; stroke: #242424; stroke-linecap: square"/>
   </g>
   <g id="line2d_48">
    <path d="M 254.898 66.96 
L 270.522 66.96 
" clip-path="url(#p981a3ef4a5)" style="fill: none; stroke: #242424; stroke-linecap: square"/>
   </g>
   <g id="patch_7">
    <path d="M 286.146 279.354873 
L 317.394 279.354873 
L 317.394 156.438496 
L 286.146 156.438496 
L 286.146 279.354873 
z
" clip-path="url(#p981a3ef4a5)" style="fill: #465380; stroke: #242424; stroke-linejoin: miter"/>
   </g>
   <g id="line2d_49">
    <path d="M 301.77 279.354873 
L 301.77 369.36 
" clip-path="url(#p981a3ef4a5)" style="fill: none; stroke: #242424"/>
   </g>
   <g id="line2d_50">
    <path d="M 301.77 156.438496 
L 301.77 66.96 
" clip-path="url(#p981a3ef4a5)" style="fill: none; stroke: #242424"/>
   </g>
   <g id="line2d_51">
    <path d="M 293.958 369.36 
L 309.582 369.36 
" clip-path="url(#p981a3ef4a5)" style="fill: none; stroke: #242424; stroke-linecap: square"/>
   </g>
   <g id="line2d_52">
    <path d="M 293.958 66.96 
L 309.582 66.96 
" clip-path="url(#p981a3ef4a5)" style="fill: none; stroke: #242424; stroke-linecap: square"/>
   </g>
   <g id="patch_8">
    <path d="M 325.206 273.938496 
L 356.454 273.938496 
L 356.454 176.084855 
L 325.206 176.084855 
L 325.206 273.938496 
z
" clip-path="url(#p981a3ef4a5)" style="fill: #415d82; stroke: #242424; stroke-linejoin: miter"/>
   </g>
   <g id="line2d_53">
    <path d="M 340.83 273.938496 
L 340.83 356.122999 
" clip-path="url(#p981a3ef4a5)" style="fill: none; stroke: #242424"/>
   </g>
   <g id="line2d_54">
    <path d="M 340.83 176.084855 
L 340.83 71.985818 
" clip-path="url(#p981a3ef4a5)" style="fill: none; stroke: #242424"/>
   </g>
   <g id="line2d_55">
    <path d="M 333.018 356.122999 
L 348.642 356.122999 
" clip-path="url(#p981a3ef4a5)" style="fill: none; stroke: #242424; stroke-linecap: square"/>
   </g>
   <g id="line2d_56">
    <path d="M 333.018 71.985818 
L 348.642 71.985818 
" clip-path="url(#p981a3ef4a5)" style="fill: none; stroke: #242424; stroke-linecap: square"/>
   </g>
   <g id="patch_9">
    <path d="M 364.266 287.58035 
L 395.514 287.58035 
L 395.514 149.17676 
L 364.266 149.17676 
L 364.266 287.58035 
z
" clip-path="url(#p981a3ef4a5)" style="fill: #3c6682; stroke: #242424; stroke-linejoin: miter"/>
   </g>
   <g id="line2d_57">
    <path d="M 379.89 287.58035 
L 379.89 369.36 
" clip-path="url(#p981a3ef4a5)" style="fill: none; stroke: #242424"/>
   </g>
   <g id="line2d_58">
    <path d="M 379.89 149.17676 
L 379.89 66.96 
" clip-path="url(#p981a3ef4a5)" style="fill: none; stroke: #242424"/>
   </g>
   <g id="line2d_59">
    <path d="M 372.078 369.36 
L 387.702 369.36 
" clip-path="url(#p981a3ef4a5)" style="fill: none; stroke: #242424; stroke-linecap: square"/>
   </g>
   <g id="line2d_60">
    <path d="M 372.078 66.96 
L 387.702 66.96 
" clip-path="url(#p981a3ef4a5)" style="fill: none; stroke: #242424; stroke-linecap: square"/>
   </g>
   <g id="patch_10">
    <path d="M 403.326 289.445485 
L 434.574 289.445485 
L 434.574 183.248455 
L 403.326 183.248455 
L 403.326 289.445485 
z
" clip-path="url(#p981a3ef4a5)" style="fill: #386e82; stroke: #242424; stroke-linejoin: miter"/>
   </g>
   <g id="line2d_61">
    <path d="M 418.95 289.445485 
L 418.95 369.36 
" clip-path="url(#p981a3ef4a5)" style="fill: none; stroke: #242424"/>
   </g>
   <g id="line2d_62">
    <path d="M 418.95 183.248455 
L 418.95 67.429807 
" clip-path="url(#p981a3ef4a5)" style="fill: none; stroke: #242424"/>
   </g>
   <g id="line2d_63">
    <path d="M 411.138 369.36 
L 426.762 369.36 
" clip-path="url(#p981a3ef4a5)" style="fill: none; stroke: #242424; stroke-linecap: square"/>
   </g>
   <g id="line2d_64">
    <path d="M 411.138 67.429807 
L 426.762 67.429807 
" clip-path="url(#p981a3ef4a5)" style="fill: none; stroke: #242424; stroke-linecap: square"/>
   </g>
   <g id="patch_11">
    <path d="M 442.386 285.492493 
L 473.634 285.492493 
L 473.634 188.249284 
L 442.386 188.249284 
L 442.386 285.492493 
z
" clip-path="url(#p981a3ef4a5)" style="fill: #347681; stroke: #242424; stroke-linejoin: miter"/>
   </g>
   <g id="line2d_65">
    <path d="M 458.01 285.492493 
L 458.01 369.36 
" clip-path="url(#p981a3ef4a5)" style="fill: none; stroke: #242424"/>
   </g>
   <g id="line2d_66">
    <path d="M 458.01 188.249284 
L 458.01 72.114278 
" clip-path="url(#p981a3ef4a5)" style="fill: none; stroke: #242424"/>
   </g>
   <g id="line2d_67">
    <path d="M 450.198 369.36 
L 465.822 369.36 
" clip-path="url(#p981a3ef4a5)" style="fill: none; stroke: #242424; stroke-linecap: square"/>
   </g>
   <g id="line2d_68">
    <path d="M 450.198 72.114278 
L 465.822 72.114278 
" clip-path="url(#p981a3ef4a5)" style="fill: none; stroke: #242424; stroke-linecap: square"/>
   </g>
   <g id="patch_12">
    <path d="M 481.446 294.602258 
L 512.694 294.602258 
L 512.694 175.518949 
L 481.446 175.518949 
L 481.446 294.602258 
z
" clip-path="url(#p981a3ef4a5)" style="fill: #307e80; stroke: #242424; stroke-linejoin: miter"/>
   </g>
   <g id="line2d_69">
    <path d="M 497.07 294.602258 
L 497.07 355.305725 
" clip-path="url(#p981a3ef4a5)" style="fill: none; stroke: #242424"/>
   </g>
   <g id="line2d_70">
    <path d="M 497.07 175.518949 
L 497.07 66.96 
" clip-path="url(#p981a3ef4a5)" style="fill: none; stroke: #242424"/>
   </g>
   <g id="line2d_71">
    <path d="M 489.258 355.305725 
L 504.882 355.305725 
" clip-path="url(#p981a3ef4a5)" style="fill: none; stroke: #242424; stroke-linecap: square"/>
   </g>
   <g id="line2d_72">
    <path d="M 489.258 66.96 
L 504.882 66.96 
" clip-path="url(#p981a3ef4a5)" style="fill: none; stroke: #242424; stroke-linecap: square"/>
   </g>
   <g id="patch_13">
    <path d="M 520.506 300.844929 
L 551.754 300.844929 
L 551.754 199.339615 
L 520.506 199.339615 
L 520.506 300.844929 
z
" clip-path="url(#p981a3ef4a5)" style="fill: #2e877f; stroke: #242424; stroke-linejoin: miter"/>
   </g>
   <g id="line2d_73">
    <path d="M 536.13 300.844929 
L 536.13 369.36 
" clip-path="url(#p981a3ef4a5)" style="fill: none; stroke: #242424"/>
   </g>
   <g id="line2d_74">
    <path d="M 536.13 199.339615 
L 536.13 66.96 
" clip-path="url(#p981a3ef4a5)" style="fill: none; stroke: #242424"/>
   </g>
   <g id="line2d_75">
    <path d="M 528.318 369.36 
L 543.942 369.36 
" clip-path="url(#p981a3ef4a5)" style="fill: none; stroke: #242424; stroke-linecap: square"/>
   </g>
   <g id="line2d_76">
    <path d="M 528.318 66.96 
L 543.942 66.96 
" clip-path="url(#p981a3ef4a5)" style="fill: none; stroke: #242424; stroke-linecap: square"/>
   </g>
   <g id="patch_14">
    <path d="M 559.566 298.75974 
L 590.814 298.75974 
L 590.814 188.433146 
L 559.566 188.433146 
L 559.566 298.75974 
z
" clip-path="url(#p981a3ef4a5)" style="fill: #2f917e; stroke: #242424; stroke-linejoin: miter"/>
   </g>
   <g id="line2d_77">
    <path d="M 575.19 298.75974 
L 575.19 369.36 
" clip-path="url(#p981a3ef4a5)" style="fill: none; stroke: #242424"/>
   </g>
   <g id="line2d_78">
    <path d="M 575.19 188.433146 
L 575.19 66.96 
" clip-path="url(#p981a3ef4a5)" style="fill: none; stroke: #242424"/>
   </g>
   <g id="line2d_79">
    <path d="M 567.378 369.36 
L 583.002 369.36 
" clip-path="url(#p981a3ef4a5)" style="fill: none; stroke: #242424; stroke-linecap: square"/>
   </g>
   <g id="line2d_80">
    <path d="M 567.378 66.96 
L 583.002 66.96 
" clip-path="url(#p981a3ef4a5)" style="fill: none; stroke: #242424; stroke-linecap: square"/>
   </g>
   <g id="patch_15">
    <path d="M 598.626 302.841803 
L 629.874 302.841803 
L 629.874 181.230562 
L 598.626 181.230562 
L 598.626 302.841803 
z
" clip-path="url(#p981a3ef4a5)" style="fill: #379c7b; stroke: #242424; stroke-linejoin: miter"/>
   </g>
   <g id="line2d_81">
    <path d="M 614.25 302.841803 
L 614.25 369.36 
" clip-path="url(#p981a3ef4a5)" style="fill: none; stroke: #242424"/>
   </g>
   <g id="line2d_82">
    <path d="M 614.25 181.230562 
L 614.25 66.96 
" clip-path="url(#p981a3ef4a5)" style="fill: none; stroke: #242424"/>
   </g>
   <g id="line2d_83">
    <path d="M 606.438 369.36 
L 622.062 369.36 
" clip-path="url(#p981a3ef4a5)" style="fill: none; stroke: #242424; stroke-linecap: square"/>
   </g>
   <g id="line2d_84">
    <path d="M 606.438 66.96 
L 622.062 66.96 
" clip-path="url(#p981a3ef4a5)" style="fill: none; stroke: #242424; stroke-linecap: square"/>
   </g>
   <g id="patch_16">
    <path d="M 637.686 298.721241 
L 668.934 298.721241 
L 668.934 186.41101 
L 637.686 186.41101 
L 637.686 298.721241 
z
" clip-path="url(#p981a3ef4a5)" style="fill: #45a778; stroke: #242424; stroke-linejoin: miter"/>
   </g>
   <g id="line2d_85">
    <path d="M 653.31 298.721241 
L 653.31 369.36 
" clip-path="url(#p981a3ef4a5)" style="fill: none; stroke: #242424"/>
   </g>
   <g id="line2d_86">
    <path d="M 653.31 186.41101 
L 653.31 66.96 
" clip-path="url(#p981a3ef4a5)" style="fill: none; stroke: #242424"/>
   </g>
   <g id="line2d_87">
    <path d="M 645.498 369.36 
L 661.122 369.36 
" clip-path="url(#p981a3ef4a5)" style="fill: none; stroke: #242424; stroke-linecap: square"/>
   </g>
   <g id="line2d_88">
    <path d="M 645.498 66.96 
L 661.122 66.96 
" clip-path="url(#p981a3ef4a5)" style="fill: none; stroke: #242424; stroke-linecap: square"/>
   </g>
   <g id="patch_17">
    <path d="M 676.746 302.863964 
L 707.994 302.863964 
L 707.994 207.044532 
L 676.746 207.044532 
L 676.746 302.863964 
z
" clip-path="url(#p981a3ef4a5)" style="fill: #59b273; stroke: #242424; stroke-linejoin: miter"/>
   </g>
   <g id="line2d_89">
    <path d="M 692.37 302.863964 
L 692.37 369.36 
" clip-path="url(#p981a3ef4a5)" style="fill: none; stroke: #242424"/>
   </g>
   <g id="line2d_90">
    <path d="M 692.37 207.044532 
L 692.37 66.96 
" clip-path="url(#p981a3ef4a5)" style="fill: none; stroke: #242424"/>
   </g>
   <g id="line2d_91">
    <path d="M 684.558 369.36 
L 700.182 369.36 
" clip-path="url(#p981a3ef4a5)" style="fill: none; stroke: #242424; stroke-linecap: square"/>
   </g>
   <g id="line2d_92">
    <path d="M 684.558 66.96 
L 700.182 66.96 
" clip-path="url(#p981a3ef4a5)" style="fill: none; stroke: #242424; stroke-linecap: square"/>
   </g>
   <g id="patch_18">
    <path d="M 715.806 307.062642 
L 747.054 307.062642 
L 747.054 198.201455 
L 715.806 198.201455 
L 715.806 307.062642 
z
" clip-path="url(#p981a3ef4a5)" style="fill: #71be6b; stroke: #242424; stroke-linejoin: miter"/>
   </g>
   <g id="line2d_93">
    <path d="M 731.43 307.062642 
L 731.43 369.36 
" clip-path="url(#p981a3ef4a5)" style="fill: none; stroke: #242424"/>
   </g>
   <g id="line2d_94">
    <path d="M 731.43 198.201455 
L 731.43 77.59502 
" clip-path="url(#p981a3ef4a5)" style="fill: none; stroke: #242424"/>
   </g>
   <g id="line2d_95">
    <path d="M 723.618 369.36 
L 739.242 369.36 
" clip-path="url(#p981a3ef4a5)" style="fill: none; stroke: #242424; stroke-linecap: square"/>
   </g>
   <g id="line2d_96">
    <path d="M 723.618 77.59502 
L 739.242 77.59502 
" clip-path="url(#p981a3ef4a5)" style="fill: none; stroke: #242424; stroke-linecap: square"/>
   </g>
   <g id="patch_19">
    <path d="M 754.866 309.167651 
L 786.114 309.167651 
L 786.114 214.498841 
L 754.866 214.498841 
L 754.866 309.167651 
z
" clip-path="url(#p981a3ef4a5)" style="fill: #85c25d; stroke: #242424; stroke-linejoin: miter"/>
   </g>
   <g id="line2d_97">
    <path d="M 770.49 309.167651 
L 770.49 369.36 
" clip-path="url(#p981a3ef4a5)" style="fill: none; stroke: #242424"/>
   </g>
   <g id="line2d_98">
    <path d="M 770.49 214.498841 
L 770.49 78.64075 
" clip-path="url(#p981a3ef4a5)" style="fill: none; stroke: #242424"/>
   </g>
   <g id="line2d_99">
    <path d="M 762.678 369.36 
L 778.302 369.36 
" clip-path="url(#p981a3ef4a5)" style="fill: none; stroke: #242424; stroke-linecap: square"/>
   </g>
   <g id="line2d_100">
    <path d="M 762.678 78.64075 
L 778.302 78.64075 
" clip-path="url(#p981a3ef4a5)" style="fill: none; stroke: #242424; stroke-linecap: square"/>
   </g>
   <g id="patch_20">
    <path d="M 793.926 307.437473 
L 825.174 307.437473 
L 825.174 216.13257 
L 793.926 216.13257 
L 793.926 307.437473 
z
" clip-path="url(#p981a3ef4a5)" style="fill: #9ac64d; stroke: #242424; stroke-linejoin: miter"/>
   </g>
   <g id="line2d_101">
    <path d="M 809.55 307.437473 
L 809.55 369.36 
" clip-path="url(#p981a3ef4a5)" style="fill: none; stroke: #242424"/>
   </g>
   <g id="line2d_102">
    <path d="M 809.55 216.13257 
L 809.55 82.985172 
" clip-path="url(#p981a3ef4a5)" style="fill: none; stroke: #242424"/>
   </g>
   <g id="line2d_103">
    <path d="M 801.738 369.36 
L 817.362 369.36 
" clip-path="url(#p981a3ef4a5)" style="fill: none; stroke: #242424; stroke-linecap: square"/>
   </g>
   <g id="line2d_104">
    <path d="M 801.738 82.985172 
L 817.362 82.985172 
" clip-path="url(#p981a3ef4a5)" style="fill: none; stroke: #242424; stroke-linecap: square"/>
   </g>
   <g id="patch_21">
    <path d="M 832.986 304.828063 
L 864.234 304.828063 
L 864.234 217.674617 
L 832.986 217.674617 
L 832.986 304.828063 
z
" clip-path="url(#p981a3ef4a5)" style="fill: #b0c83c; stroke: #242424; stroke-linejoin: miter"/>
   </g>
   <g id="line2d_105">
    <path d="M 848.61 304.828063 
L 848.61 369.36 
" clip-path="url(#p981a3ef4a5)" style="fill: none; stroke: #242424"/>
   </g>
   <g id="line2d_106">
    <path d="M 848.61 217.674617 
L 848.61 88.112997 
" clip-path="url(#p981a3ef4a5)" style="fill: none; stroke: #242424"/>
   </g>
   <g id="line2d_107">
    <path d="M 840.798 369.36 
L 856.422 369.36 
" clip-path="url(#p981a3ef4a5)" style="fill: none; stroke: #242424; stroke-linecap: square"/>
   </g>
   <g id="line2d_108">
    <path d="M 840.798 88.112997 
L 856.422 88.112997 
" clip-path="url(#p981a3ef4a5)" style="fill: none; stroke: #242424; stroke-linecap: square"/>
   </g>
   <g id="patch_22">
    <path d="M 872.046 312.570028 
L 903.294 312.570028 
L 903.294 210.319124 
L 872.046 210.319124 
L 872.046 312.570028 
z
" clip-path="url(#p981a3ef4a5)" style="fill: #c7ca32; stroke: #242424; stroke-linejoin: miter"/>
   </g>
   <g id="line2d_109">
    <path d="M 887.67 312.570028 
L 887.67 369.36 
" clip-path="url(#p981a3ef4a5)" style="fill: none; stroke: #242424"/>
   </g>
   <g id="line2d_110">
    <path d="M 887.67 210.319124 
L 887.67 66.96 
" clip-path="url(#p981a3ef4a5)" style="fill: none; stroke: #242424"/>
   </g>
   <g id="line2d_111">
    <path d="M 879.858 369.36 
L 895.482 369.36 
" clip-path="url(#p981a3ef4a5)" style="fill: none; stroke: #242424; stroke-linecap: square"/>
   </g>
   <g id="line2d_112">
    <path d="M 879.858 66.96 
L 895.482 66.96 
" clip-path="url(#p981a3ef4a5)" style="fill: none; stroke: #242424; stroke-linecap: square"/>
   </g>
   <g id="line2d_113">
    <path d="M 129.906 187.943676 
L 161.154 187.943676 
" clip-path="url(#p981a3ef4a5)" style="fill: none; stroke: #242424"/>
   </g>
   <g id="line2d_114">
    <path d="M 168.966 207.408194 
L 200.214 207.408194 
" clip-path="url(#p981a3ef4a5)" style="fill: none; stroke: #242424"/>
   </g>
   <g id="line2d_115">
    <path d="M 208.026 213.111019 
L 239.274 213.111019 
" clip-path="url(#p981a3ef4a5)" style="fill: none; stroke: #242424"/>
   </g>
   <g id="line2d_116">
    <path d="M 247.086 215.191349 
L 278.334 215.191349 
" clip-path="url(#p981a3ef4a5)" style="fill: none; stroke: #242424"/>
   </g>
   <g id="line2d_117">
    <path d="M 286.146 218.89366 
L 317.394 218.89366 
" clip-path="url(#p981a3ef4a5)" style="fill: none; stroke: #242424"/>
   </g>
   <g id="line2d_118">
    <path d="M 325.206 223.792699 
L 356.454 223.792699 
" clip-path="url(#p981a3ef4a5)" style="fill: none; stroke: #242424"/>
   </g>
   <g id="line2d_119">
    <path d="M 364.266 228.749479 
L 395.514 228.749479 
" clip-path="url(#p981a3ef4a5)" style="fill: none; stroke: #242424"/>
   </g>
   <g id="line2d_120">
    <path d="M 403.326 237.293406 
L 434.574 237.293406 
" clip-path="url(#p981a3ef4a5)" style="fill: none; stroke: #242424"/>
   </g>
   <g id="line2d_121">
    <path d="M 442.386 238.926667 
L 473.634 238.926667 
" clip-path="url(#p981a3ef4a5)" style="fill: none; stroke: #242424"/>
   </g>
   <g id="line2d_122">
    <path d="M 481.446 251.844757 
L 512.694 251.844757 
" clip-path="url(#p981a3ef4a5)" style="fill: none; stroke: #242424"/>
   </g>
   <g id="line2d_123">
    <path d="M 520.506 256.81679 
L 551.754 256.81679 
" clip-path="url(#p981a3ef4a5)" style="fill: none; stroke: #242424"/>
   </g>
   <g id="line2d_124">
    <path d="M 559.566 258.160278 
L 590.814 258.160278 
" clip-path="url(#p981a3ef4a5)" style="fill: none; stroke: #242424"/>
   </g>
   <g id="line2d_125">
    <path d="M 598.626 261.784663 
L 629.874 261.784663 
" clip-path="url(#p981a3ef4a5)" style="fill: none; stroke: #242424"/>
   </g>
   <g id="line2d_126">
    <path d="M 637.686 262.073625 
L 668.934 262.073625 
" clip-path="url(#p981a3ef4a5)" style="fill: none; stroke: #242424"/>
   </g>
   <g id="line2d_127">
    <path d="M 676.746 269.84617 
L 707.994 269.84617 
" clip-path="url(#p981a3ef4a5)" style="fill: none; stroke: #242424"/>
   </g>
   <g id="line2d_128">
    <path d="M 715.806 270.634247 
L 747.054 270.634247 
" clip-path="url(#p981a3ef4a5)" style="fill: none; stroke: #242424"/>
   </g>
   <g id="line2d_129">
    <path d="M 754.866 272.40287 
L 786.114 272.40287 
" clip-path="url(#p981a3ef4a5)" style="fill: none; stroke: #242424"/>
   </g>
   <g id="line2d_130">
    <path d="M 793.926 272.994358 
L 825.174 272.994358 
" clip-path="url(#p981a3ef4a5)" style="fill: none; stroke: #242424"/>
   </g>
   <g id="line2d_131">
    <path d="M 832.986 278.28848 
L 864.234 278.28848 
" clip-path="url(#p981a3ef4a5)" style="fill: none; stroke: #242424"/>
   </g>
   <g id="line2d_132">
    <path d="M 872.046 279.99569 
L 903.294 279.99569 
" clip-path="url(#p981a3ef4a5)" style="fill: none; stroke: #242424"/>
   </g>
   <g id="patch_23">
    <path d="M 126 384.48 
L 126 51.84 
" style="fill: none; stroke: #000000; stroke-width: 0.8; stroke-linejoin: miter; stroke-linecap: square"/>
   </g>
   <g id="patch_24">
    <path d="M 907.2 384.48 
L 907.2 51.84 
" style="fill: none; stroke: #000000; stroke-width: 0.8; stroke-linejoin: miter; stroke-linecap: square"/>
   </g>
   <g id="patch_25">
    <path d="M 126 384.48 
L 907.2 384.48 
" style="fill: none; stroke: #000000; stroke-width: 0.8; stroke-linejoin: miter; stroke-linecap: square"/>
   </g>
   <g id="patch_26">
    <path d="M 126 51.84 
L 907.2 51.84 
" style="fill: none; stroke: #000000; stroke-width: 0.8; stroke-linejoin: miter; stroke-linecap: square"/>
   </g>
   <g id="text_29">
    <!-- Chemical Consistency: RCS Scores by Amino Acid -->
    <g transform="translate(294.62625 45.84) scale(0.16 -0.16)">
     <defs>
      <path id="DejaVuSans-Bold-68" d="M 4056 2131 
L 4056 0 
L 2931 0 
L 2931 347 
L 2931 1625 
Q 2931 2084 2911 2256 
Q 2891 2428 2841 2509 
Q 2775 2619 2662 2680 
Q 2550 2741 2406 2741 
Q 2056 2741 1856 2470 
Q 1656 2200 1656 1722 
L 1656 0 
L 538 0 
L 538 4863 
L 1656 4863 
L 1656 2988 
Q 1909 3294 2193 3439 
Q 2478 3584 2822 3584 
Q 3428 3584 3742 3212 
Q 4056 2841 4056 2131 
z
" transform="scale(0.015625)"/>
      <path id="DejaVuSans-Bold-61" d="M 2106 1575 
Q 1756 1575 1579 1456 
Q 1403 1338 1403 1106 
Q 1403 894 1545 773 
Q 1688 653 1941 653 
Q 2256 653 2472 879 
Q 2688 1106 2688 1447 
L 2688 1575 
L 2106 1575 
z
M 3816 1997 
L 3816 0 
L 2688 0 
L 2688 519 
Q 2463 200 2181 54 
Q 1900 -91 1497 -91 
Q 953 -91 614 226 
Q 275 544 275 1050 
Q 275 1666 698 1953 
Q 1122 2241 2028 2241 
L 2688 2241 
L 2688 2328 
Q 2688 2594 2478 2717 
Q 2269 2841 1825 2841 
Q 1466 2841 1156 2769 
Q 847 2697 581 2553 
L 581 3406 
Q 941 3494 1303 3539 
Q 1666 3584 2028 3584 
Q 2975 3584 3395 3211 
Q 3816 2838 3816 1997 
z
" transform="scale(0.015625)"/>
      <path id="DejaVuSans-Bold-6c" d="M 538 4863 
L 1656 4863 
L 1656 0 
L 538 0 
L 538 4863 
z
" transform="scale(0.015625)"/>
      <path id="DejaVuSans-Bold-73" d="M 3272 3391 
L 3272 2541 
Q 2913 2691 2578 2766 
Q 2244 2841 1947 2841 
Q 1628 2841 1473 2761 
Q 1319 2681 1319 2516 
Q 1319 2381 1436 2309 
Q 1553 2238 1856 2203 
L 2053 2175 
Q 2913 2066 3209 1816 
Q 3506 1566 3506 1031 
Q 3506 472 3093 190 
Q 2681 -91 1863 -91 
Q 1516 -91 1145 -36 
Q 775 19 384 128 
L 384 978 
Q 719 816 1070 734 
Q 1422 653 1784 653 
Q 2113 653 2278 743 
Q 2444 834 2444 1013 
Q 2444 1163 2330 1236 
Q 2216 1309 1875 1350 
L 1678 1375 
Q 931 1469 631 1722 
Q 331 1975 331 2491 
Q 331 3047 712 3315 
Q 1094 3584 1881 3584 
Q 2191 3584 2531 3537 
Q 2872 3491 3272 3391 
z
" transform="scale(0.015625)"/>
      <path id="DejaVuSans-Bold-74" d="M 1759 4494 
L 1759 3500 
L 2913 3500 
L 2913 2700 
L 1759 2700 
L 1759 1216 
Q 1759 972 1856 886 
Q 1953 800 2241 800 
L 2816 800 
L 2816 0 
L 1856 0 
Q 1194 0 917 276 
Q 641 553 641 1216 
L 641 2700 
L 84 2700 
L 84 3500 
L 641 3500 
L 641 4494 
L 1759 4494 
z
" transform="scale(0.015625)"/>
      <path id="DejaVuSans-Bold-79" d="M 78 3500 
L 1197 3500 
L 2138 1125 
L 2938 3500 
L 4056 3500 
L 2584 -331 
Q 2363 -916 2067 -1148 
Q 1772 -1381 1288 -1381 
L 641 -1381 
L 641 -647 
L 991 -647 
Q 1275 -647 1404 -556 
Q 1534 -466 1606 -231 
L 1638 -134 
L 78 3500 
z
" transform="scale(0.015625)"/>
      <path id="DejaVuSans-Bold-3a" d="M 716 3500 
L 1844 3500 
L 1844 2291 
L 716 2291 
L 716 3500 
z
M 716 1209 
L 1844 1209 
L 1844 0 
L 716 0 
L 716 1209 
z
" transform="scale(0.015625)"/>
      <path id="DejaVuSans-Bold-62" d="M 2400 722 
Q 2759 722 2948 984 
Q 3138 1247 3138 1747 
Q 3138 2247 2948 2509 
Q 2759 2772 2400 2772 
Q 2041 2772 1848 2508 
Q 1656 2244 1656 1747 
Q 1656 1250 1848 986 
Q 2041 722 2400 722 
z
M 1656 2988 
Q 1888 3294 2169 3439 
Q 2450 3584 2816 3584 
Q 3463 3584 3878 3070 
Q 4294 2556 4294 1747 
Q 4294 938 3878 423 
Q 3463 -91 2816 -91 
Q 2450 -91 2169 54 
Q 1888 200 1656 506 
L 1656 0 
L 538 0 
L 538 4863 
L 1656 4863 
L 1656 2988 
z
" transform="scale(0.015625)"/>
     </defs>
     <use xlink:href="#DejaVuSans-Bold-43"/>
     <use xlink:href="#DejaVuSans-Bold-68" transform="translate(73.388672 0)"/>
     <use xlink:href="#DejaVuSans-Bold-65" transform="translate(144.580078 0)"/>
     <use xlink:href="#DejaVuSans-Bold-6d" transform="translate(212.402344 0)"/>
     <use xlink:href="#DejaVuSans-Bold-69" transform="translate(316.601562 0)"/>
     <use xlink:href="#DejaVuSans-Bold-63" transform="translate(350.878906 0)"/>
     <use xlink:href="#DejaVuSans-Bold-61" transform="translate(410.15625 0)"/>
     <use xlink:href="#DejaVuSans-Bold-6c" transform="translate(477.636719 0)"/>
     <use xlink:href="#DejaVuSans-Bold-20" transform="translate(511.914062 0)"/>
     <use xlink:href="#DejaVuSans-Bold-43" transform="translate(546.728516 0)"/>
     <use xlink:href="#DejaVuSans-Bold-6f" transform="translate(620.117188 0)"/>
     <use xlink:href="#DejaVuSans-Bold-6e" transform="translate(688.818359 0)"/>
     <use xlink:href="#DejaVuSans-Bold-73" transform="translate(760.009766 0)"/>
     <use xlink:href="#DejaVuSans-Bold-69" transform="translate(819.53125 0)"/>
     <use xlink:href="#DejaVuSans-Bold-73" transform="translate(853.808594 0)"/>
     <use xlink:href="#DejaVuSans-Bold-74" transform="translate(913.330078 0)"/>
     <use xlink:href="#DejaVuSans-Bold-65" transform="translate(961.132812 0)"/>
     <use xlink:href="#DejaVuSans-Bold-6e" transform="translate(1028.955078 0)"/>
     <use xlink:href="#DejaVuSans-Bold-63" transform="translate(1100.146484 0)"/>
     <use xlink:href="#DejaVuSans-Bold-79" transform="translate(1159.423828 0)"/>
     <use xlink:href="#DejaVuSans-Bold-3a" transform="translate(1224.609375 0)"/>
     <use xlink:href="#DejaVuSans-Bold-20" transform="translate(1264.599609 0)"/>
     <use xlink:href="#DejaVuSans-Bold-52" transform="translate(1299.414062 0)"/>
     <use xlink:href="#DejaVuSans-Bold-43" transform="translate(1376.416016 0)"/>
     <use xlink:href="#DejaVuSans-Bold-53" transform="translate(1451.679688 0)"/>
     <use xlink:href="#DejaVuSans-Bold-20" transform="translate(1523.701172 0)"/>
     <use xlink:href="#DejaVuSans-Bold-53" transform="translate(1558.515625 0)"/>
     <use xlink:href="#DejaVuSans-Bold-63" transform="translate(1630.537109 0)"/>
     <use xlink:href="#DejaVuSans-Bold-6f" transform="translate(1689.814453 0)"/>
     <use xlink:href="#DejaVuSans-Bold-72" transform="translate(1758.515625 0)"/>
     <use xlink:href="#DejaVuSans-Bold-65" transform="translate(1807.832031 0)"/>
     <use xlink:href="#DejaVuSans-Bold-73" transform="translate(1875.654297 0)"/>
     <use xlink:href="#DejaVuSans-Bold-20" transform="translate(1935.175781 0)"/>
     <use xlink:href="#DejaVuSans-Bold-62" transform="translate(1969.990234 0)"/>
     <use xlink:href="#DejaVuSans-Bold-79" transform="translate(2041.572266 0)"/>
     <use xlink:href="#DejaVuSans-Bold-20" transform="translate(2106.757812 0)"/>
     <use xlink:href="#DejaVuSans-Bold-41" transform="translate(2141.572266 0)"/>
     <use xlink:href="#DejaVuSans-Bold-6d" transform="translate(2218.964844 0)"/>
     <use xlink:href="#DejaVuSans-Bold-69" transform="translate(2323.164062 0)"/>
     <use xlink:href="#DejaVuSans-Bold-6e" transform="translate(2357.441406 0)"/>
     <use xlink:href="#DejaVuSans-Bold-6f" transform="translate(2428.632812 0)"/>
     <use xlink:href="#DejaVuSans-Bold-20" transform="translate(2497.333984 0)"/>
     <use xlink:href="#DejaVuSans-Bold-41" transform="translate(2532.148438 0)"/>
     <use xlink:href="#DejaVuSans-Bold-63" transform="translate(2609.541016 0)"/>
     <use xlink:href="#DejaVuSans-Bold-69" transform="translate(2668.818359 0)"/>
     <use xlink:href="#DejaVuSans-Bold-64" transform="translate(2703.095703 0)"/>
    </g>
   </g>
  </g>
 </g>
 <defs>
  <clipPath id="p981a3ef4a5">
   <rect x="126" y="51.84" width="781.2" height="332.64"/>
  </clipPath>
 </defs>
</svg>
