<?xml version="1.0" encoding="utf-8" standalone="no"?>
<!DOCTYPE svg PUBLIC "-//W3C//DTD SVG 1.1//EN"
  "http://www.w3.org/Graphics/SVG/1.1/DTD/svg11.dtd">
<svg xmlns:xlink="http://www.w3.org/1999/xlink" width="720pt" height="432pt" viewBox="0 0 720 432" xmlns="http://www.w3.org/2000/svg" version="1.1">
 <metadata>
  <rdf:RDF xmlns:dc="http://purl.org/dc/elements/1.1/" xmlns:cc="http://creativecommons.org/ns#" xmlns:rdf="http://www.w3.org/1999/02/22-rdf-syntax-ns#">
   <cc:Work>
    <dc:type rdf:resource="http://purl.org/dc/dcmitype/StillImage"/>
    <dc:date>2025-12-10T20:06:43.845501</dc:date>
    <dc:format>image/svg+xml</dc:format>
    <dc:creator>
     <cc:Agent>
      <dc:title>Matplotlib v3.10.0, https://matplotlib.org/</dc:title>
     </cc:Agent>
    </dc:creator>
   </cc:Work>
  </rdf:RDF>
 </metadata>
 <defs>
  <style type="text/css">*{stroke-linejoin: round; stroke-linecap: butt}</style>
 </defs>
 <g id="figure_1">
  <g id="patch_1">
   <path d="M 0 432 
L 720 432 
L 720 0 
L 0 0 
z
" style="fill: #ffffff"/>
  </g>
  <g id="axes_1">
   <g id="patch_2">
    <path d="M 90 384.48 
L 648 384.48 
L 648 51.84 
L 90 51.84 
z
" style="fill: #ffffff"/>
   </g>
   <g id="patch_3">
    <path d="M 115.363636 152802.996944 
L 125.509091 152802.996944 
L 125.509091 212.491529 
L 115.363636 212.491529 
z
" clip-path="url(#p3a91dbe9c3)" style="fill: #800080; fill-opacity: 0.6; stroke: #000000; stroke-linejoin: miter"/>
   </g>
   <g id="patch_4">
    <path d="M 125.509091 152802.996944 
L 135.654545 152802.996944 
L 135.654545 299.919318 
L 125.509091 299.919318 
z
" clip-path="url(#p3a91dbe9c3)" style="fill: #800080; fill-opacity: 0.6; stroke: #000000; stroke-linejoin: miter"/>
   </g>
   <g id="patch_5">
    <path d="M 135.654545 152802.996944 
L 145.8 152802.996944 
L 145.8 254.070967 
L 135.654545 254.070967 
z
" clip-path="url(#p3a91dbe9c3)" style="fill: #800080; fill-opacity: 0.6; stroke: #000000; stroke-linejoin: miter"/>
   </g>
   <g id="patch_6">
    <path d="M 145.8 152802.996944 
L 155.945455 152802.996944 
L 155.945455 221.956961 
L 145.8 221.956961 
z
" clip-path="url(#p3a91dbe9c3)" style="fill: #800080; fill-opacity: 0.6; stroke: #000000; stroke-linejoin: miter"/>
   </g>
   <g id="patch_7">
    <path d="M 155.945455 152802.996944 
L 166.090909 152802.996944 
L 166.090909 198.262946 
L 155.945455 198.262946 
z
" clip-path="url(#p3a91dbe9c3)" style="fill: #800080; fill-opacity: 0.6; stroke: #000000; stroke-linejoin: miter"/>
   </g>
   <g id="patch_8">
    <path d="M 166.090909 152802.996944 
L 176.236364 152802.996944 
L 176.236364 159.939199 
L 166.090909 159.939199 
z
" clip-path="url(#p3a91dbe9c3)" style="fill: #800080; fill-opacity: 0.6; stroke: #000000; stroke-linejoin: miter"/>
   </g>
   <g id="patch_9">
    <path d="M 176.236364 152802.996944 
L 186.381818 152802.996944 
L 186.381818 126.31012 
L 176.236364 126.31012 
z
" clip-path="url(#p3a91dbe9c3)" style="fill: #800080; fill-opacity: 0.6; stroke: #000000; stroke-linejoin: miter"/>
   </g>
   <g id="patch_10">
    <path d="M 186.381818 152802.996944 
L 196.527273 152802.996944 
L 196.527273 121.01568 
L 186.381818 121.01568 
z
" clip-path="url(#p3a91dbe9c3)" style="fill: #800080; fill-opacity: 0.6; stroke: #000000; stroke-linejoin: miter"/>
   </g>
   <g id="patch_11">
    <path d="M 196.527273 152802.996944 
L 206.672727 152802.996944 
L 206.672727 113.102112 
L 196.527273 113.102112 
z
" clip-path="url(#p3a91dbe9c3)" style="fill: #800080; fill-opacity: 0.6; stroke: #000000; stroke-linejoin: miter"/>
   </g>
   <g id="patch_12">
    <path d="M 206.672727 152802.996944 
L 216.818182 152802.996944 
L 216.818182 107.822772 
L 206.672727 107.822772 
z
" clip-path="url(#p3a91dbe9c3)" style="fill: #800080; fill-opacity: 0.6; stroke: #000000; stroke-linejoin: miter"/>
   </g>
   <g id="patch_13">
    <path d="M 216.818182 152802.996944 
L 226.963636 152802.996944 
L 226.963636 104.98501 
L 216.818182 104.98501 
z
" clip-path="url(#p3a91dbe9c3)" style="fill: #800080; fill-opacity: 0.6; stroke: #000000; stroke-linejoin: miter"/>
   </g>
   <g id="patch_14">
    <path d="M 226.963636 152802.996944 
L 237.109091 152802.996944 
L 237.109091 96.828732 
L 226.963636 96.828732 
z
" clip-path="url(#p3a91dbe9c3)" style="fill: #800080; fill-opacity: 0.6; stroke: #000000; stroke-linejoin: miter"/>
   </g>
   <g id="patch_15">
    <path d="M 237.109091 152802.996944 
L 247.254545 152802.996944 
L 247.254545 106.211578 
L 237.109091 106.211578 
z
" clip-path="url(#p3a91dbe9c3)" style="fill: #800080; fill-opacity: 0.6; stroke: #000000; stroke-linejoin: miter"/>
   </g>
   <g id="patch_16">
    <path d="M 247.254545 152802.996944 
L 257.4 152802.996944 
L 257.4 113.891915 
L 247.254545 113.891915 
z
" clip-path="url(#p3a91dbe9c3)" style="fill: #800080; fill-opacity: 0.6; stroke: #000000; stroke-linejoin: miter"/>
   </g>
   <g id="patch_17">
    <path d="M 257.4 152802.996944 
L 267.545455 152802.996944 
L 267.545455 111.3588 
L 257.4 111.3588 
z
" clip-path="url(#p3a91dbe9c3)" style="fill: #800080; fill-opacity: 0.6; stroke: #000000; stroke-linejoin: miter"/>
   </g>
   <g id="patch_18">
    <path d="M 267.545455 152802.996944 
L 277.690909 152802.996944 
L 277.690909 110.977559 
L 267.545455 110.977559 
z
" clip-path="url(#p3a91dbe9c3)" style="fill: #800080; fill-opacity: 0.6; stroke: #000000; stroke-linejoin: miter"/>
   </g>
   <g id="patch_19">
    <path d="M 277.690909 152802.996944 
L 287.836364 152802.996944 
L 287.836364 113.891915 
L 277.690909 113.891915 
z
" clip-path="url(#p3a91dbe9c3)" style="fill: #800080; fill-opacity: 0.6; stroke: #000000; stroke-linejoin: miter"/>
   </g>
   <g id="patch_20">
    <path d="M 287.836364 152802.996944 
L 297.981818 152802.996944 
L 297.981818 113.495835 
L 287.836364 113.495835 
z
" clip-path="url(#p3a91dbe9c3)" style="fill: #800080; fill-opacity: 0.6; stroke: #000000; stroke-linejoin: miter"/>
   </g>
   <g id="patch_21">
    <path d="M 297.981818 152802.996944 
L 308.127273 152802.996944 
L 308.127273 128.255707 
L 297.981818 128.255707 
z
" clip-path="url(#p3a91dbe9c3)" style="fill: #800080; fill-opacity: 0.6; stroke: #000000; stroke-linejoin: miter"/>
   </g>
   <g id="patch_22">
    <path d="M 308.127273 152802.996944 
L 318.272727 152802.996944 
L 318.272727 125.832535 
L 308.127273 125.832535 
z
" clip-path="url(#p3a91dbe9c3)" style="fill: #800080; fill-opacity: 0.6; stroke: #000000; stroke-linejoin: miter"/>
   </g>
   <g id="patch_23">
    <path d="M 318.272727 152802.996944 
L 328.418182 152802.996944 
L 328.418182 128.255707 
L 318.272727 128.255707 
z
" clip-path="url(#p3a91dbe9c3)" style="fill: #800080; fill-opacity: 0.6; stroke: #000000; stroke-linejoin: miter"/>
   </g>
   <g id="patch_24">
    <path d="M 328.418182 152802.996944 
L 338.563636 152802.996944 
L 338.563636 138.369814 
L 328.418182 138.369814 
z
" clip-path="url(#p3a91dbe9c3)" style="fill: #800080; fill-opacity: 0.6; stroke: #000000; stroke-linejoin: miter"/>
   </g>
   <g id="patch_25">
    <path d="M 338.563636 152802.996944 
L 348.709091 152802.996944 
L 348.709091 132.327465 
L 338.563636 132.327465 
z
" clip-path="url(#p3a91dbe9c3)" style="fill: #800080; fill-opacity: 0.6; stroke: #000000; stroke-linejoin: miter"/>
   </g>
   <g id="patch_26">
    <path d="M 348.709091 152802.996944 
L 358.854545 152802.996944 
L 358.854545 130.26026 
L 348.709091 130.26026 
z
" clip-path="url(#p3a91dbe9c3)" style="fill: #800080; fill-opacity: 0.6; stroke: #000000; stroke-linejoin: miter"/>
   </g>
   <g id="patch_27">
    <path d="M 358.854545 152802.996944 
L 369 152802.996944 
L 369 132.854521 
L 358.854545 132.854521 
z
" clip-path="url(#p3a91dbe9c3)" style="fill: #800080; fill-opacity: 0.6; stroke: #000000; stroke-linejoin: miter"/>
   </g>
   <g id="patch_28">
    <path d="M 369 152802.996944 
L 379.145455 152802.996944 
L 379.145455 143.1391 
L 369 143.1391 
z
" clip-path="url(#p3a91dbe9c3)" style="fill: #800080; fill-opacity: 0.6; stroke: #000000; stroke-linejoin: miter"/>
   </g>
   <g id="patch_29">
    <path d="M 379.145455 152802.996944 
L 389.290909 152802.996944 
L 389.290909 135.830881 
L 379.145455 135.830881 
z
" clip-path="url(#p3a91dbe9c3)" style="fill: #800080; fill-opacity: 0.6; stroke: #000000; stroke-linejoin: miter"/>
   </g>
   <g id="patch_30">
    <path d="M 389.290909 152802.996944 
L 399.436364 152802.996944 
L 399.436364 148.950706 
L 389.290909 148.950706 
z
" clip-path="url(#p3a91dbe9c3)" style="fill: #800080; fill-opacity: 0.6; stroke: #000000; stroke-linejoin: miter"/>
   </g>
   <g id="patch_31">
    <path d="M 399.436364 152802.996944 
L 409.581818 152802.996944 
L 409.581818 149.289045 
L 399.436364 149.289045 
z
" clip-path="url(#p3a91dbe9c3)" style="fill: #800080; fill-opacity: 0.6; stroke: #000000; stroke-linejoin: miter"/>
   </g>
   <g id="patch_32">
    <path d="M 409.581818 152802.996944 
L 419.727273 152802.996944 
L 419.727273 152.771174 
L 409.581818 152.771174 
z
" clip-path="url(#p3a91dbe9c3)" style="fill: #800080; fill-opacity: 0.6; stroke: #000000; stroke-linejoin: miter"/>
   </g>
   <g id="patch_33">
    <path d="M 419.727273 152802.996944 
L 429.872727 152802.996944 
L 429.872727 147.284492 
L 419.727273 147.284492 
z
" clip-path="url(#p3a91dbe9c3)" style="fill: #800080; fill-opacity: 0.6; stroke: #000000; stroke-linejoin: miter"/>
   </g>
   <g id="patch_34">
    <path d="M 429.872727 152802.996944 
L 440.018182 152802.996944 
L 440.018182 148.950706 
L 429.872727 148.950706 
z
" clip-path="url(#p3a91dbe9c3)" style="fill: #800080; fill-opacity: 0.6; stroke: #000000; stroke-linejoin: miter"/>
   </g>
   <g id="patch_35">
    <path d="M 440.018182 152802.996944 
L 450.163636 152802.996944 
L 450.163636 149.97096 
L 440.018182 149.97096 
z
" clip-path="url(#p3a91dbe9c3)" style="fill: #800080; fill-opacity: 0.6; stroke: #000000; stroke-linejoin: miter"/>
   </g>
   <g id="patch_36">
    <path d="M 450.163636 152802.996944 
L 460.309091 152802.996944 
L 460.309091 156.825909 
L 450.163636 156.825909 
z
" clip-path="url(#p3a91dbe9c3)" style="fill: #800080; fill-opacity: 0.6; stroke: #000000; stroke-linejoin: miter"/>
   </g>
   <g id="patch_37">
    <path d="M 460.309091 152802.996944 
L 470.454545 152802.996944 
L 470.454545 160.740968 
L 460.309091 160.740968 
z
" clip-path="url(#p3a91dbe9c3)" style="fill: #800080; fill-opacity: 0.6; stroke: #000000; stroke-linejoin: miter"/>
   </g>
   <g id="patch_38">
    <path d="M 470.454545 152802.996944 
L 480.6 152802.996944 
L 480.6 163.206292 
L 470.454545 163.206292 
z
" clip-path="url(#p3a91dbe9c3)" style="fill: #800080; fill-opacity: 0.6; stroke: #000000; stroke-linejoin: miter"/>
   </g>
   <g id="patch_39">
    <path d="M 480.6 152802.996944 
L 490.745455 152802.996944 
L 490.745455 167.97949 
L 480.6 167.97949 
z
" clip-path="url(#p3a91dbe9c3)" style="fill: #800080; fill-opacity: 0.6; stroke: #000000; stroke-linejoin: miter"/>
   </g>
   <g id="patch_40">
    <path d="M 490.745455 152802.996944 
L 500.890909 152802.996944 
L 500.890909 159.147031 
L 490.745455 159.147031 
z
" clip-path="url(#p3a91dbe9c3)" style="fill: #800080; fill-opacity: 0.6; stroke: #000000; stroke-linejoin: miter"/>
   </g>
   <g id="patch_41">
    <path d="M 500.890909 152802.996944 
L 511.036364 152802.996944 
L 511.036364 172.639529 
L 500.890909 172.639529 
z
" clip-path="url(#p3a91dbe9c3)" style="fill: #800080; fill-opacity: 0.6; stroke: #000000; stroke-linejoin: miter"/>
   </g>
   <g id="patch_42">
    <path d="M 511.036364 152802.996944 
L 521.181818 152802.996944 
L 521.181818 175.098741 
L 511.036364 175.098741 
z
" clip-path="url(#p3a91dbe9c3)" style="fill: #800080; fill-opacity: 0.6; stroke: #000000; stroke-linejoin: miter"/>
   </g>
   <g id="patch_43">
    <path d="M 521.181818 152802.996944 
L 531.327273 152802.996944 
L 531.327273 177.652926 
L 521.181818 177.652926 
z
" clip-path="url(#p3a91dbe9c3)" style="fill: #800080; fill-opacity: 0.6; stroke: #000000; stroke-linejoin: miter"/>
   </g>
   <g id="patch_44">
    <path d="M 531.327273 152802.996944 
L 541.472727 152802.996944 
L 541.472727 171.680886 
L 531.327273 171.680886 
z
" clip-path="url(#p3a91dbe9c3)" style="fill: #800080; fill-opacity: 0.6; stroke: #000000; stroke-linejoin: miter"/>
   </g>
   <g id="patch_45">
    <path d="M 541.472727 152802.996944 
L 551.618182 152802.996944 
L 551.618182 176.619387 
L 541.472727 176.619387 
z
" clip-path="url(#p3a91dbe9c3)" style="fill: #800080; fill-opacity: 0.6; stroke: #000000; stroke-linejoin: miter"/>
   </g>
   <g id="patch_46">
    <path d="M 551.618182 152802.996944 
L 561.763636 152802.996944 
L 561.763636 180.854125 
L 551.618182 180.854125 
z
" clip-path="url(#p3a91dbe9c3)" style="fill: #800080; fill-opacity: 0.6; stroke: #000000; stroke-linejoin: miter"/>
   </g>
   <g id="patch_47">
    <path d="M 561.763636 152802.996944 
L 571.909091 152802.996944 
L 571.909091 183.077702 
L 561.763636 183.077702 
z
" clip-path="url(#p3a91dbe9c3)" style="fill: #800080; fill-opacity: 0.6; stroke: #000000; stroke-linejoin: miter"/>
   </g>
   <g id="patch_48">
    <path d="M 571.909091 152802.996944 
L 582.054545 152802.996944 
L 582.054545 189.608536 
L 571.909091 189.608536 
z
" clip-path="url(#p3a91dbe9c3)" style="fill: #800080; fill-opacity: 0.6; stroke: #000000; stroke-linejoin: miter"/>
   </g>
   <g id="patch_49">
    <path d="M 582.054545 152802.996944 
L 592.2 152802.996944 
L 592.2 197.555505 
L 582.054545 197.555505 
z
" clip-path="url(#p3a91dbe9c3)" style="fill: #800080; fill-opacity: 0.6; stroke: #000000; stroke-linejoin: miter"/>
   </g>
   <g id="patch_50">
    <path d="M 592.2 152802.996944 
L 602.345455 152802.996944 
L 602.345455 203.438953 
L 592.2 203.438953 
z
" clip-path="url(#p3a91dbe9c3)" style="fill: #800080; fill-opacity: 0.6; stroke: #000000; stroke-linejoin: miter"/>
   </g>
   <g id="patch_51">
    <path d="M 602.345455 152802.996944 
L 612.490909 152802.996944 
L 612.490909 201.170896 
L 602.345455 201.170896 
z
" clip-path="url(#p3a91dbe9c3)" style="fill: #800080; fill-opacity: 0.6; stroke: #000000; stroke-linejoin: miter"/>
   </g>
   <g id="patch_52">
    <path d="M 612.490909 152802.996944 
L 622.636364 152802.996944 
L 622.636364 188.372142 
L 612.490909 188.372142 
z
" clip-path="url(#p3a91dbe9c3)" style="fill: #800080; fill-opacity: 0.6; stroke: #000000; stroke-linejoin: miter"/>
   </g>
   <g id="patch_53">
    <path d="M 115.363636 152802.996944 
L 125.509091 152802.996944 
L 125.509091 66.96 
L 115.363636 66.96 
z
" clip-path="url(#p3a91dbe9c3)" style="fill: #008000; fill-opacity: 0.4; stroke: #000000; stroke-linejoin: miter"/>
   </g>
   <g id="patch_54">
    <path d="M 125.509091 152802.996944 
L 135.654545 152802.996944 
L 135.654545 104.294192 
L 125.509091 104.294192 
z
" clip-path="url(#p3a91dbe9c3)" style="fill: #008000; fill-opacity: 0.4; stroke: #000000; stroke-linejoin: miter"/>
   </g>
   <g id="patch_55">
    <path d="M 135.654545 152802.996944 
L 145.8 152802.996944 
L 145.8 111.3588 
L 135.654545 111.3588 
z
" clip-path="url(#p3a91dbe9c3)" style="fill: #008000; fill-opacity: 0.4; stroke: #000000; stroke-linejoin: miter"/>
   </g>
   <g id="patch_56">
    <path d="M 145.8 152802.996944 
L 155.945455 152802.996944 
L 155.945455 102.598069 
L 145.8 102.598069 
z
" clip-path="url(#p3a91dbe9c3)" style="fill: #008000; fill-opacity: 0.4; stroke: #000000; stroke-linejoin: miter"/>
   </g>
   <g id="patch_57">
    <path d="M 155.945455 152802.996944 
L 166.090909 152802.996944 
L 166.090909 111.550248 
L 155.945455 111.550248 
z
" clip-path="url(#p3a91dbe9c3)" style="fill: #008000; fill-opacity: 0.4; stroke: #000000; stroke-linejoin: miter"/>
   </g>
   <g id="patch_58">
    <path d="M 166.090909 152802.996944 
L 176.236364 152802.996944 
L 176.236364 121.237272 
L 166.090909 121.237272 
z
" clip-path="url(#p3a91dbe9c3)" style="fill: #008000; fill-opacity: 0.4; stroke: #000000; stroke-linejoin: miter"/>
   </g>
   <g id="patch_59">
    <path d="M 176.236364 152802.996944 
L 186.381818 152802.996944 
L 186.381818 135.830881 
L 176.236364 135.830881 
z
" clip-path="url(#p3a91dbe9c3)" style="fill: #008000; fill-opacity: 0.4; stroke: #000000; stroke-linejoin: miter"/>
   </g>
   <g id="patch_60">
    <path d="M 186.381818 152802.996944 
L 196.527273 152802.996944 
L 196.527273 128.255707 
L 186.381818 128.255707 
z
" clip-path="url(#p3a91dbe9c3)" style="fill: #008000; fill-opacity: 0.4; stroke: #000000; stroke-linejoin: miter"/>
   </g>
   <g id="patch_61">
    <path d="M 196.527273 152802.996944 
L 206.672727 152802.996944 
L 206.672727 140.711481 
L 196.527273 140.711481 
z
" clip-path="url(#p3a91dbe9c3)" style="fill: #008000; fill-opacity: 0.4; stroke: #000000; stroke-linejoin: miter"/>
   </g>
   <g id="patch_62">
    <path d="M 206.672727 152802.996944 
L 216.818182 152802.996944 
L 216.818182 142.83073 
L 206.672727 142.83073 
z
" clip-path="url(#p3a91dbe9c3)" style="fill: #008000; fill-opacity: 0.4; stroke: #000000; stroke-linejoin: miter"/>
   </g>
   <g id="patch_63">
    <path d="M 216.818182 152802.996944 
L 226.963636 152802.996944 
L 226.963636 147.614394 
L 216.818182 147.614394 
z
" clip-path="url(#p3a91dbe9c3)" style="fill: #008000; fill-opacity: 0.4; stroke: #000000; stroke-linejoin: miter"/>
   </g>
   <g id="patch_64">
    <path d="M 226.963636 152802.996944 
L 237.109091 152802.996944 
L 237.109091 150.659979 
L 226.963636 150.659979 
z
" clip-path="url(#p3a91dbe9c3)" style="fill: #008000; fill-opacity: 0.4; stroke: #000000; stroke-linejoin: miter"/>
   </g>
   <g id="patch_65">
    <path d="M 237.109091 152802.996944 
L 247.254545 152802.996944 
L 247.254545 159.541929 
L 237.109091 159.541929 
z
" clip-path="url(#p3a91dbe9c3)" style="fill: #008000; fill-opacity: 0.4; stroke: #000000; stroke-linejoin: miter"/>
   </g>
   <g id="patch_66">
    <path d="M 247.254545 152802.996944 
L 257.4 152802.996944 
L 257.4 161.962145 
L 247.254545 161.962145 
z
" clip-path="url(#p3a91dbe9c3)" style="fill: #008000; fill-opacity: 0.4; stroke: #000000; stroke-linejoin: miter"/>
   </g>
   <g id="patch_67">
    <path d="M 257.4 152802.996944 
L 267.545455 152802.996944 
L 267.545455 172.158471 
L 257.4 172.158471 
z
" clip-path="url(#p3a91dbe9c3)" style="fill: #008000; fill-opacity: 0.4; stroke: #000000; stroke-linejoin: miter"/>
   </g>
   <g id="patch_68">
    <path d="M 267.545455 152802.996944 
L 277.690909 152802.996944 
L 277.690909 187.762504 
L 267.545455 187.762504 
z
" clip-path="url(#p3a91dbe9c3)" style="fill: #008000; fill-opacity: 0.4; stroke: #000000; stroke-linejoin: miter"/>
   </g>
   <g id="patch_69">
    <path d="M 277.690909 152802.996944 
L 287.836364 152802.996944 
L 287.836364 171.680886 
L 277.690909 171.680886 
z
" clip-path="url(#p3a91dbe9c3)" style="fill: #008000; fill-opacity: 0.4; stroke: #000000; stroke-linejoin: miter"/>
   </g>
   <g id="patch_70">
    <path d="M 287.836364 152802.996944 
L 297.981818 152802.996944 
L 297.981818 196.162923 
L 287.836364 196.162923 
z
" clip-path="url(#p3a91dbe9c3)" style="fill: #008000; fill-opacity: 0.4; stroke: #000000; stroke-linejoin: miter"/>
   </g>
   <g id="patch_71">
    <path d="M 297.981818 152802.996944 
L 308.127273 152802.996944 
L 308.127273 196.162923 
L 297.981818 196.162923 
z
" clip-path="url(#p3a91dbe9c3)" style="fill: #008000; fill-opacity: 0.4; stroke: #000000; stroke-linejoin: miter"/>
   </g>
   <g id="patch_72">
    <path d="M 308.127273 152802.996944 
L 318.272727 152802.996944 
L 318.272727 185.966597 
L 308.127273 185.966597 
z
" clip-path="url(#p3a91dbe9c3)" style="fill: #008000; fill-opacity: 0.4; stroke: #000000; stroke-linejoin: miter"/>
   </g>
   <g id="patch_73">
    <path d="M 318.272727 152802.996944 
L 328.418182 152802.996944 
L 328.418182 205.787549 
L 318.272727 205.787549 
z
" clip-path="url(#p3a91dbe9c3)" style="fill: #008000; fill-opacity: 0.4; stroke: #000000; stroke-linejoin: miter"/>
   </g>
   <g id="patch_74">
    <path d="M 328.418182 152802.996944 
L 338.563636 152802.996944 
L 338.563636 209.897268 
L 328.418182 209.897268 
z
" clip-path="url(#p3a91dbe9c3)" style="fill: #008000; fill-opacity: 0.4; stroke: #000000; stroke-linejoin: miter"/>
   </g>
   <g id="patch_75">
    <path d="M 338.563636 152802.996944 
L 348.709091 152802.996944 
L 348.709091 224.024167 
L 338.563636 224.024167 
z
" clip-path="url(#p3a91dbe9c3)" style="fill: #008000; fill-opacity: 0.4; stroke: #000000; stroke-linejoin: miter"/>
   </g>
   <g id="patch_76">
    <path d="M 348.709091 152802.996944 
L 358.854545 152802.996944 
L 358.854545 228.363111 
L 348.709091 228.363111 
z
" clip-path="url(#p3a91dbe9c3)" style="fill: #008000; fill-opacity: 0.4; stroke: #000000; stroke-linejoin: miter"/>
   </g>
   <g id="patch_77">
    <path d="M 358.854545 152802.996944 
L 369 152802.996944 
L 369 230.644206 
L 358.854545 230.644206 
z
" clip-path="url(#p3a91dbe9c3)" style="fill: #008000; fill-opacity: 0.4; stroke: #000000; stroke-linejoin: miter"/>
   </g>
   <g id="patch_78">
    <path d="M 369 152802.996944 
L 379.145455 152802.996944 
L 379.145455 240.647407 
L 369 240.647407 
z
" clip-path="url(#p3a91dbe9c3)" style="fill: #008000; fill-opacity: 0.4; stroke: #000000; stroke-linejoin: miter"/>
   </g>
   <g id="patch_79">
    <path d="M 379.145455 152802.996944 
L 389.290909 152802.996944 
L 389.290909 255.745618 
L 379.145455 255.745618 
z
" clip-path="url(#p3a91dbe9c3)" style="fill: #008000; fill-opacity: 0.4; stroke: #000000; stroke-linejoin: miter"/>
   </g>
   <g id="patch_80">
    <path d="M 389.290909 152802.996944 
L 399.436364 152802.996944 
L 399.436364 243.403855 
L 389.290909 243.403855 
z
" clip-path="url(#p3a91dbe9c3)" style="fill: #008000; fill-opacity: 0.4; stroke: #000000; stroke-linejoin: miter"/>
   </g>
   <g id="patch_81">
    <path d="M 399.436364 152802.996944 
L 409.581818 152802.996944 
L 409.581818 259.227748 
L 399.436364 259.227748 
z
" clip-path="url(#p3a91dbe9c3)" style="fill: #008000; fill-opacity: 0.4; stroke: #000000; stroke-linejoin: miter"/>
   </g>
   <g id="patch_82">
    <path d="M 409.581818 152802.996944 
L 419.727273 152802.996944 
L 419.727273 242.011274 
L 409.581818 242.011274 
z
" clip-path="url(#p3a91dbe9c3)" style="fill: #008000; fill-opacity: 0.4; stroke: #000000; stroke-linejoin: miter"/>
   </g>
   <g id="patch_83">
    <path d="M 419.727273 152802.996944 
L 429.872727 152802.996944 
L 429.872727 268.830839 
L 419.727273 268.830839 
z
" clip-path="url(#p3a91dbe9c3)" style="fill: #008000; fill-opacity: 0.4; stroke: #000000; stroke-linejoin: miter"/>
   </g>
   <g id="patch_84">
    <path d="M 429.872727 152802.996944 
L 440.018182 152802.996944 
L 440.018182 250.843733 
L 429.872727 250.843733 
z
" clip-path="url(#p3a91dbe9c3)" style="fill: #008000; fill-opacity: 0.4; stroke: #000000; stroke-linejoin: miter"/>
   </g>
   <g id="patch_85">
    <path d="M 440.018182 152802.996944 
L 450.163636 152802.996944 
L 450.163636 270.930863 
L 440.018182 270.930863 
z
" clip-path="url(#p3a91dbe9c3)" style="fill: #008000; fill-opacity: 0.4; stroke: #000000; stroke-linejoin: miter"/>
   </g>
   <g id="patch_86">
    <path d="M 450.163636 152802.996944 
L 460.309091 152802.996944 
L 460.309091 261.040058 
L 450.163636 261.040058 
z
" clip-path="url(#p3a91dbe9c3)" style="fill: #008000; fill-opacity: 0.4; stroke: #000000; stroke-linejoin: miter"/>
   </g>
   <g id="patch_87">
    <path d="M 460.309091 152802.996944 
L 470.454545 152802.996944 
L 470.454545 290.674738 
L 460.309091 290.674738 
z
" clip-path="url(#p3a91dbe9c3)" style="fill: #008000; fill-opacity: 0.4; stroke: #000000; stroke-linejoin: miter"/>
   </g>
   <g id="patch_88">
    <path d="M 470.454545 152802.996944 
L 480.6 152802.996944 
L 480.6 285.159446 
L 470.454545 285.159446 
z
" clip-path="url(#p3a91dbe9c3)" style="fill: #008000; fill-opacity: 0.4; stroke: #000000; stroke-linejoin: miter"/>
   </g>
   <g id="patch_89">
    <path d="M 480.6 152802.996944 
L 490.745455 152802.996944 
L 490.745455 293.615008 
L 480.6 293.615008 
z
" clip-path="url(#p3a91dbe9c3)" style="fill: #008000; fill-opacity: 0.4; stroke: #000000; stroke-linejoin: miter"/>
   </g>
   <g id="patch_90">
    <path d="M 490.745455 152802.996944 
L 500.890909 152802.996944 
L 500.890909 296.692083 
L 490.745455 296.692083 
z
" clip-path="url(#p3a91dbe9c3)" style="fill: #008000; fill-opacity: 0.4; stroke: #000000; stroke-linejoin: miter"/>
   </g>
   <g id="patch_91">
    <path d="M 500.890909 152802.996944 
L 511.036364 152802.996944 
L 511.036364 318.948103 
L 500.890909 318.948103 
z
" clip-path="url(#p3a91dbe9c3)" style="fill: #008000; fill-opacity: 0.4; stroke: #000000; stroke-linejoin: miter"/>
   </g>
   <g id="patch_92">
    <path d="M 511.036364 152802.996944 
L 521.181818 152802.996944 
L 521.181818 303.312123 
L 511.036364 303.312123 
z
" clip-path="url(#p3a91dbe9c3)" style="fill: #008000; fill-opacity: 0.4; stroke: #000000; stroke-linejoin: miter"/>
   </g>
   <g id="patch_93">
    <path d="M 521.181818 152802.996944 
L 531.327273 152802.996944 
L 531.327273 339.463359 
L 521.181818 339.463359 
z
" clip-path="url(#p3a91dbe9c3)" style="fill: #008000; fill-opacity: 0.4; stroke: #000000; stroke-linejoin: miter"/>
   </g>
   <g id="patch_94">
    <path d="M 531.327273 152802.996944 
L 541.472727 152802.996944 
L 541.472727 285.159446 
L 531.327273 285.159446 
z
" clip-path="url(#p3a91dbe9c3)" style="fill: #008000; fill-opacity: 0.4; stroke: #000000; stroke-linejoin: miter"/>
   </g>
   <g id="patch_95">
    <path d="M 541.472727 152802.996944 
L 551.618182 152802.996944 
L 551.618182 345.767669 
L 541.472727 345.767669 
z
" clip-path="url(#p3a91dbe9c3)" style="fill: #008000; fill-opacity: 0.4; stroke: #000000; stroke-linejoin: miter"/>
   </g>
   <g id="patch_96">
    <path d="M 551.618182 152802.996944 
L 561.763636 152802.996944 
L 561.763636 328.413535 
L 551.618182 328.413535 
z
" clip-path="url(#p3a91dbe9c3)" style="fill: #008000; fill-opacity: 0.4; stroke: #000000; stroke-linejoin: miter"/>
   </g>
   <g id="patch_97">
    <path d="M 561.763636 152802.996944 
L 571.909091 152802.996944 
L 571.909091 333.707975 
L 561.763636 333.707975 
z
" clip-path="url(#p3a91dbe9c3)" style="fill: #008000; fill-opacity: 0.4; stroke: #000000; stroke-linejoin: miter"/>
   </g>
   <g id="patch_98">
    <path d="M 571.909091 152802.996944 
L 582.054545 152802.996944 
L 582.054545 352.73676 
L 571.909091 352.73676 
z
" clip-path="url(#p3a91dbe9c3)" style="fill: #008000; fill-opacity: 0.4; stroke: #000000; stroke-linejoin: miter"/>
   </g>
   <g id="patch_99">
    <path d="M 582.054545 152802.996944 
L 592.2 152802.996944 
L 592.2 345.767669 
L 582.054545 345.767669 
z
" clip-path="url(#p3a91dbe9c3)" style="fill: #008000; fill-opacity: 0.4; stroke: #000000; stroke-linejoin: miter"/>
   </g>
   <g id="patch_100">
    <path d="M 592.2 152802.996944 
L 602.345455 152802.996944 
L 602.345455 369.36 
L 592.2 369.36 
z
" clip-path="url(#p3a91dbe9c3)" style="fill: #008000; fill-opacity: 0.4; stroke: #000000; stroke-linejoin: miter"/>
   </g>
   <g id="patch_101">
    <path d="M 602.345455 152802.996944 
L 612.490909 152802.996944 
L 612.490909 352.73676 
L 602.345455 352.73676 
z
" clip-path="url(#p3a91dbe9c3)" style="fill: #008000; fill-opacity: 0.4; stroke: #000000; stroke-linejoin: miter"/>
   </g>
   <g id="patch_102">
    <path d="M 612.490909 152802.996944 
L 622.636364 152802.996944 
L 622.636364 224.024167 
L 612.490909 224.024167 
z
" clip-path="url(#p3a91dbe9c3)" style="fill: #008000; fill-opacity: 0.4; stroke: #000000; stroke-linejoin: miter"/>
   </g>
   <g id="matplotlib.axis_1">
    <g id="xtick_1">
     <g id="line2d_1">
      <path d="M 115.363636 384.48 
L 115.363636 51.84 
" clip-path="url(#p3a91dbe9c3)" style="fill: none; stroke: #b0b0b0; stroke-opacity: 0.3; stroke-width: 0.8; stroke-linecap: square"/>
     </g>
     <g id="line2d_2">
      <defs>
       <path id="m228a386a0e" d="M 0 0 
L 0 3.5 
" style="stroke: #000000; stroke-width: 0.8"/>
      </defs>
      <g>
       <use xlink:href="#m228a386a0e" x="115.363636" y="384.48" style="stroke: #000000; stroke-width: 0.8"/>
      </g>
     </g>
     <g id="text_1">
      <!-- 0 -->
      <g transform="translate(111.188949 400.598125) scale(0.12 -0.12)">
       <defs>
        <path id="DejaVuSans-Bold-30" d="M 2944 2338 
Q 2944 3213 2780 3570 
Q 2616 3928 2228 3928 
Q 1841 3928 1675 3570 
Q 1509 3213 1509 2338 
Q 1509 1453 1675 1090 
Q 1841 728 2228 728 
Q 2613 728 2778 1090 
Q 2944 1453 2944 2338 
z
M 4147 2328 
Q 4147 1169 3647 539 
Q 3147 -91 2228 -91 
Q 1306 -91 806 539 
Q 306 1169 306 2328 
Q 306 3491 806 4120 
Q 1306 4750 2228 4750 
Q 3147 4750 3647 4120 
Q 4147 3491 4147 2328 
z
" transform="scale(0.015625)"/>
       </defs>
       <use xlink:href="#DejaVuSans-Bold-30"/>
      </g>
     </g>
    </g>
    <g id="xtick_2">
     <g id="line2d_3">
      <path d="M 216.818182 384.48 
L 216.818182 51.84 
" clip-path="url(#p3a91dbe9c3)" style="fill: none; stroke: #b0b0b0; stroke-opacity: 0.3; stroke-width: 0.8; stroke-linecap: square"/>
     </g>
     <g id="line2d_4">
      <g>
       <use xlink:href="#m228a386a0e" x="216.818182" y="384.48" style="stroke: #000000; stroke-width: 0.8"/>
      </g>
     </g>
     <g id="text_2">
      <!-- 2 -->
      <g transform="translate(212.643494 400.598125) scale(0.12 -0.12)">
       <defs>
        <path id="DejaVuSans-Bold-32" d="M 1844 884 
L 3897 884 
L 3897 0 
L 506 0 
L 506 884 
L 2209 2388 
Q 2438 2594 2547 2791 
Q 2656 2988 2656 3200 
Q 2656 3528 2436 3728 
Q 2216 3928 1850 3928 
Q 1569 3928 1234 3808 
Q 900 3688 519 3450 
L 519 4475 
Q 925 4609 1322 4679 
Q 1719 4750 2100 4750 
Q 2938 4750 3402 4381 
Q 3866 4013 3866 3353 
Q 3866 2972 3669 2642 
Q 3472 2313 2841 1759 
L 1844 884 
z
" transform="scale(0.015625)"/>
       </defs>
       <use xlink:href="#DejaVuSans-Bold-32"/>
      </g>
     </g>
    </g>
    <g id="xtick_3">
     <g id="line2d_5">
      <path d="M 318.272727 384.48 
L 318.272727 51.84 
" clip-path="url(#p3a91dbe9c3)" style="fill: none; stroke: #b0b0b0; stroke-opacity: 0.3; stroke-width: 0.8; stroke-linecap: square"/>
     </g>
     <g id="line2d_6">
      <g>
       <use xlink:href="#m228a386a0e" x="318.272727" y="384.48" style="stroke: #000000; stroke-width: 0.8"/>
      </g>
     </g>
     <g id="text_3">
      <!-- 4 -->
      <g transform="translate(314.09804 400.598125) scale(0.12 -0.12)">
       <defs>
        <path id="DejaVuSans-Bold-34" d="M 2356 3675 
L 1038 1722 
L 2356 1722 
L 2356 3675 
z
M 2156 4666 
L 3494 4666 
L 3494 1722 
L 4159 1722 
L 4159 850 
L 3494 850 
L 3494 0 
L 2356 0 
L 2356 850 
L 288 850 
L 288 1881 
L 2156 4666 
z
" transform="scale(0.015625)"/>
       </defs>
       <use xlink:href="#DejaVuSans-Bold-34"/>
      </g>
     </g>
    </g>
    <g id="xtick_4">
     <g id="line2d_7">
      <path d="M 419.727273 384.48 
L 419.727273 51.84 
" clip-path="url(#p3a91dbe9c3)" style="fill: none; stroke: #b0b0b0; stroke-opacity: 0.3; stroke-width: 0.8; stroke-linecap: square"/>
     </g>
     <g id="line2d_8">
      <g>
       <use xlink:href="#m228a386a0e" x="419.727273" y="384.48" style="stroke: #000000; stroke-width: 0.8"/>
      </g>
     </g>
     <g id="text_4">
      <!-- 6 -->
      <g transform="translate(415.552585 400.598125) scale(0.12 -0.12)">
       <defs>
        <path id="DejaVuSans-Bold-36" d="M 2316 2303 
Q 2000 2303 1842 2098 
Q 1684 1894 1684 1484 
Q 1684 1075 1842 870 
Q 2000 666 2316 666 
Q 2634 666 2792 870 
Q 2950 1075 2950 1484 
Q 2950 1894 2792 2098 
Q 2634 2303 2316 2303 
z
M 3803 4544 
L 3803 3681 
Q 3506 3822 3243 3889 
Q 2981 3956 2731 3956 
Q 2194 3956 1894 3657 
Q 1594 3359 1544 2772 
Q 1750 2925 1990 3001 
Q 2231 3078 2516 3078 
Q 3231 3078 3670 2659 
Q 4109 2241 4109 1563 
Q 4109 813 3618 361 
Q 3128 -91 2303 -91 
Q 1394 -91 895 523 
Q 397 1138 397 2266 
Q 397 3422 980 4083 
Q 1563 4744 2578 4744 
Q 2900 4744 3203 4694 
Q 3506 4644 3803 4544 
z
" transform="scale(0.015625)"/>
       </defs>
       <use xlink:href="#DejaVuSans-Bold-36"/>
      </g>
     </g>
    </g>
    <g id="xtick_5">
     <g id="line2d_9">
      <path d="M 521.181818 384.48 
L 521.181818 51.84 
" clip-path="url(#p3a91dbe9c3)" style="fill: none; stroke: #b0b0b0; stroke-opacity: 0.3; stroke-width: 0.8; stroke-linecap: square"/>
     </g>
     <g id="line2d_10">
      <g>
       <use xlink:href="#m228a386a0e" x="521.181818" y="384.48" style="stroke: #000000; stroke-width: 0.8"/>
      </g>
     </g>
     <g id="text_5">
      <!-- 8 -->
      <g transform="translate(517.007131 400.598125) scale(0.12 -0.12)">
       <defs>
        <path id="DejaVuSans-Bold-38" d="M 2228 2088 
Q 1891 2088 1709 1903 
Q 1528 1719 1528 1375 
Q 1528 1031 1709 848 
Q 1891 666 2228 666 
Q 2563 666 2741 848 
Q 2919 1031 2919 1375 
Q 2919 1722 2741 1905 
Q 2563 2088 2228 2088 
z
M 1350 2484 
Q 925 2613 709 2878 
Q 494 3144 494 3541 
Q 494 4131 934 4440 
Q 1375 4750 2228 4750 
Q 3075 4750 3515 4442 
Q 3956 4134 3956 3541 
Q 3956 3144 3739 2878 
Q 3522 2613 3097 2484 
Q 3572 2353 3814 2058 
Q 4056 1763 4056 1313 
Q 4056 619 3595 264 
Q 3134 -91 2228 -91 
Q 1319 -91 855 264 
Q 391 619 391 1313 
Q 391 1763 633 2058 
Q 875 2353 1350 2484 
z
M 1631 3419 
Q 1631 3141 1786 2991 
Q 1941 2841 2228 2841 
Q 2509 2841 2662 2991 
Q 2816 3141 2816 3419 
Q 2816 3697 2662 3845 
Q 2509 3994 2228 3994 
Q 1941 3994 1786 3844 
Q 1631 3694 1631 3419 
z
" transform="scale(0.015625)"/>
       </defs>
       <use xlink:href="#DejaVuSans-Bold-38"/>
      </g>
     </g>
    </g>
    <g id="xtick_6">
     <g id="line2d_11">
      <path d="M 622.636364 384.48 
L 622.636364 51.84 
" clip-path="url(#p3a91dbe9c3)" style="fill: none; stroke: #b0b0b0; stroke-opacity: 0.3; stroke-width: 0.8; stroke-linecap: square"/>
     </g>
     <g id="line2d_12">
      <g>
       <use xlink:href="#m228a386a0e" x="622.636364" y="384.48" style="stroke: #000000; stroke-width: 0.8"/>
      </g>
     </g>
     <g id="text_6">
      <!-- 10 -->
      <g transform="translate(614.286989 400.598125) scale(0.12 -0.12)">
       <defs>
        <path id="DejaVuSans-Bold-31" d="M 750 831 
L 1813 831 
L 1813 3847 
L 722 3622 
L 722 4441 
L 1806 4666 
L 2950 4666 
L 2950 831 
L 4013 831 
L 4013 0 
L 750 0 
L 750 831 
z
" transform="scale(0.015625)"/>
       </defs>
       <use xlink:href="#DejaVuSans-Bold-31"/>
       <use xlink:href="#DejaVuSans-Bold-30" transform="translate(69.580078 0)"/>
      </g>
     </g>
    </g>
    <g id="text_7">
     <!-- Score (0-10) -->
     <g transform="translate(320.448438 417.731562) scale(0.14 -0.14)">
      <defs>
       <path id="DejaVuSans-Bold-53" d="M 3834 4519 
L 3834 3531 
Q 3450 3703 3084 3790 
Q 2719 3878 2394 3878 
Q 1963 3878 1756 3759 
Q 1550 3641 1550 3391 
Q 1550 3203 1689 3098 
Q 1828 2994 2194 2919 
L 2706 2816 
Q 3484 2659 3812 2340 
Q 4141 2022 4141 1434 
Q 4141 663 3683 286 
Q 3225 -91 2284 -91 
Q 1841 -91 1394 -6 
Q 947 78 500 244 
L 500 1259 
Q 947 1022 1364 901 
Q 1781 781 2169 781 
Q 2563 781 2772 912 
Q 2981 1044 2981 1288 
Q 2981 1506 2839 1625 
Q 2697 1744 2272 1838 
L 1806 1941 
Q 1106 2091 782 2419 
Q 459 2747 459 3303 
Q 459 4000 909 4375 
Q 1359 4750 2203 4750 
Q 2588 4750 2994 4692 
Q 3400 4634 3834 4519 
z
" transform="scale(0.015625)"/>
       <path id="DejaVuSans-Bold-63" d="M 3366 3391 
L 3366 2478 
Q 3138 2634 2908 2709 
Q 2678 2784 2431 2784 
Q 1963 2784 1702 2511 
Q 1441 2238 1441 1747 
Q 1441 1256 1702 982 
Q 1963 709 2431 709 
Q 2694 709 2930 787 
Q 3166 866 3366 1019 
L 3366 103 
Q 3103 6 2833 -42 
Q 2563 -91 2291 -91 
Q 1344 -91 809 395 
Q 275 881 275 1747 
Q 275 2613 809 3098 
Q 1344 3584 2291 3584 
Q 2566 3584 2833 3536 
Q 3100 3488 3366 3391 
z
" transform="scale(0.015625)"/>
       <path id="DejaVuSans-Bold-6f" d="M 2203 2784 
Q 1831 2784 1636 2517 
Q 1441 2250 1441 1747 
Q 1441 1244 1636 976 
Q 1831 709 2203 709 
Q 2569 709 2762 976 
Q 2956 1244 2956 1747 
Q 2956 2250 2762 2517 
Q 2569 2784 2203 2784 
z
M 2203 3584 
Q 3106 3584 3614 3096 
Q 4122 2609 4122 1747 
Q 4122 884 3614 396 
Q 3106 -91 2203 -91 
Q 1297 -91 786 396 
Q 275 884 275 1747 
Q 275 2609 786 3096 
Q 1297 3584 2203 3584 
z
" transform="scale(0.015625)"/>
       <path id="DejaVuSans-Bold-72" d="M 3138 2547 
Q 2991 2616 2845 2648 
Q 2700 2681 2553 2681 
Q 2122 2681 1889 2404 
Q 1656 2128 1656 1613 
L 1656 0 
L 538 0 
L 538 3500 
L 1656 3500 
L 1656 2925 
Q 1872 3269 2151 3426 
Q 2431 3584 2822 3584 
Q 2878 3584 2943 3579 
Q 3009 3575 3134 3559 
L 3138 2547 
z
" transform="scale(0.015625)"/>
       <path id="DejaVuSans-Bold-65" d="M 4031 1759 
L 4031 1441 
L 1416 1441 
Q 1456 1047 1700 850 
Q 1944 653 2381 653 
Q 2734 653 3104 758 
Q 3475 863 3866 1075 
L 3866 213 
Q 3469 63 3072 -14 
Q 2675 -91 2278 -91 
Q 1328 -91 801 392 
Q 275 875 275 1747 
Q 275 2603 792 3093 
Q 1309 3584 2216 3584 
Q 3041 3584 3536 3087 
Q 4031 2591 4031 1759 
z
M 2881 2131 
Q 2881 2450 2695 2645 
Q 2509 2841 2209 2841 
Q 1884 2841 1681 2658 
Q 1478 2475 1428 2131 
L 2881 2131 
z
" transform="scale(0.015625)"/>
       <path id="DejaVuSans-Bold-20" transform="scale(0.015625)"/>
       <path id="DejaVuSans-Bold-28" d="M 2413 -844 
L 1484 -844 
Q 1006 -72 778 623 
Q 550 1319 550 2003 
Q 550 2688 779 3389 
Q 1009 4091 1484 4856 
L 2413 4856 
Q 2013 4116 1813 3408 
Q 1613 2700 1613 2009 
Q 1613 1319 1811 609 
Q 2009 -100 2413 -844 
z
" transform="scale(0.015625)"/>
       <path id="DejaVuSans-Bold-2d" d="M 347 2297 
L 2309 2297 
L 2309 1388 
L 347 1388 
L 347 2297 
z
" transform="scale(0.015625)"/>
       <path id="DejaVuSans-Bold-29" d="M 513 -844 
Q 913 -100 1113 609 
Q 1313 1319 1313 2009 
Q 1313 2700 1113 3408 
Q 913 4116 513 4856 
L 1441 4856 
Q 1916 4091 2145 3389 
Q 2375 2688 2375 2003 
Q 2375 1319 2147 623 
Q 1919 -72 1441 -844 
L 513 -844 
z
" transform="scale(0.015625)"/>
      </defs>
      <use xlink:href="#DejaVuSans-Bold-53"/>
      <use xlink:href="#DejaVuSans-Bold-63" transform="translate(72.021484 0)"/>
      <use xlink:href="#DejaVuSans-Bold-6f" transform="translate(131.298828 0)"/>
      <use xlink:href="#DejaVuSans-Bold-72" transform="translate(200 0)"/>
      <use xlink:href="#DejaVuSans-Bold-65" transform="translate(249.316406 0)"/>
      <use xlink:href="#DejaVuSans-Bold-20" transform="translate(317.138672 0)"/>
      <use xlink:href="#DejaVuSans-Bold-28" transform="translate(351.953125 0)"/>
      <use xlink:href="#DejaVuSans-Bold-30" transform="translate(397.65625 0)"/>
      <use xlink:href="#DejaVuSans-Bold-2d" transform="translate(467.236328 0)"/>
      <use xlink:href="#DejaVuSans-Bold-31" transform="translate(508.740234 0)"/>
      <use xlink:href="#DejaVuSans-Bold-30" transform="translate(578.320312 0)"/>
      <use xlink:href="#DejaVuSans-Bold-29" transform="translate(647.900391 0)"/>
     </g>
    </g>
   </g>
   <g id="matplotlib.axis_2">
    <g id="ytick_1">
     <g id="line2d_13">
      <path d="M 90 345.767669 
L 648 345.767669 
" clip-path="url(#p3a91dbe9c3)" style="fill: none; stroke: #b0b0b0; stroke-opacity: 0.3; stroke-width: 0.8; stroke-linecap: square"/>
     </g>
     <g id="line2d_14">
      <defs>
       <path id="mb234d9cc60" d="M 0 0 
L -3.5 0 
" style="stroke: #000000; stroke-width: 0.8"/>
      </defs>
      <g>
       <use xlink:href="#mb234d9cc60" x="90" y="345.767669" style="stroke: #000000; stroke-width: 0.8"/>
      </g>
     </g>
     <g id="text_8">
      <!-- $\mathdefault{10^{1}}$ -->
      <g transform="translate(59.96 350.326731) scale(0.12 -0.12)">
       <use xlink:href="#DejaVuSans-Bold-31" transform="translate(0 0.684375)"/>
       <use xlink:href="#DejaVuSans-Bold-30" transform="translate(69.580078 0.684375)"/>
       <use xlink:href="#DejaVuSans-Bold-31" transform="translate(140.117188 38.965625) scale(0.7)"/>
      </g>
     </g>
    </g>
    <g id="ytick_2">
     <g id="line2d_15">
      <path d="M 90 193.462744 
L 648 193.462744 
" clip-path="url(#p3a91dbe9c3)" style="fill: none; stroke: #b0b0b0; stroke-opacity: 0.3; stroke-width: 0.8; stroke-linecap: square"/>
     </g>
     <g id="line2d_16">
      <g>
       <use xlink:href="#mb234d9cc60" x="90" y="193.462744" style="stroke: #000000; stroke-width: 0.8"/>
      </g>
     </g>
     <g id="text_9">
      <!-- $\mathdefault{10^{2}}$ -->
      <g transform="translate(59.96 198.021807) scale(0.12 -0.12)">
       <use xlink:href="#DejaVuSans-Bold-31" transform="translate(0 0.765625)"/>
       <use xlink:href="#DejaVuSans-Bold-30" transform="translate(69.580078 0.765625)"/>
       <use xlink:href="#DejaVuSans-Bold-32" transform="translate(140.117188 39.046875) scale(0.7)"/>
      </g>
     </g>
    </g>
    <g id="ytick_3">
     <g id="line2d_17">
      <defs>
       <path id="m60ade8d10a" d="M 0 0 
L -2 0 
" style="stroke: #000000; stroke-width: 0.6"/>
      </defs>
      <g>
       <use xlink:href="#m60ade8d10a" x="90" y="379.556326" style="stroke: #000000; stroke-width: 0.6"/>
      </g>
     </g>
    </g>
    <g id="ytick_4">
     <g id="line2d_18">
      <g>
       <use xlink:href="#m60ade8d10a" x="90" y="369.36" style="stroke: #000000; stroke-width: 0.6"/>
      </g>
     </g>
    </g>
    <g id="ytick_5">
     <g id="line2d_19">
      <g>
       <use xlink:href="#m60ade8d10a" x="90" y="360.527541" style="stroke: #000000; stroke-width: 0.6"/>
      </g>
     </g>
    </g>
    <g id="ytick_6">
     <g id="line2d_20">
      <g>
       <use xlink:href="#m60ade8d10a" x="90" y="352.73676" style="stroke: #000000; stroke-width: 0.6"/>
      </g>
     </g>
    </g>
    <g id="ytick_7">
     <g id="line2d_21">
      <g>
       <use xlink:href="#m60ade8d10a" x="90" y="299.919318" style="stroke: #000000; stroke-width: 0.6"/>
      </g>
     </g>
    </g>
    <g id="ytick_8">
     <g id="line2d_22">
      <g>
       <use xlink:href="#m60ade8d10a" x="90" y="273.099752" style="stroke: #000000; stroke-width: 0.6"/>
      </g>
     </g>
    </g>
    <g id="ytick_9">
     <g id="line2d_23">
      <g>
       <use xlink:href="#m60ade8d10a" x="90" y="254.070967" style="stroke: #000000; stroke-width: 0.6"/>
      </g>
     </g>
    </g>
    <g id="ytick_10">
     <g id="line2d_24">
      <g>
       <use xlink:href="#m60ade8d10a" x="90" y="239.311095" style="stroke: #000000; stroke-width: 0.6"/>
      </g>
     </g>
    </g>
    <g id="ytick_11">
     <g id="line2d_25">
      <g>
       <use xlink:href="#m60ade8d10a" x="90" y="227.251401" style="stroke: #000000; stroke-width: 0.6"/>
      </g>
     </g>
    </g>
    <g id="ytick_12">
     <g id="line2d_26">
      <g>
       <use xlink:href="#m60ade8d10a" x="90" y="217.055076" style="stroke: #000000; stroke-width: 0.6"/>
      </g>
     </g>
    </g>
    <g id="ytick_13">
     <g id="line2d_27">
      <g>
       <use xlink:href="#m60ade8d10a" x="90" y="208.222617" style="stroke: #000000; stroke-width: 0.6"/>
      </g>
     </g>
    </g>
    <g id="ytick_14">
     <g id="line2d_28">
      <g>
       <use xlink:href="#m60ade8d10a" x="90" y="200.431835" style="stroke: #000000; stroke-width: 0.6"/>
      </g>
     </g>
    </g>
    <g id="ytick_15">
     <g id="line2d_29">
      <g>
       <use xlink:href="#m60ade8d10a" x="90" y="147.614394" style="stroke: #000000; stroke-width: 0.6"/>
      </g>
     </g>
    </g>
    <g id="ytick_16">
     <g id="line2d_30">
      <g>
       <use xlink:href="#m60ade8d10a" x="90" y="120.794828" style="stroke: #000000; stroke-width: 0.6"/>
      </g>
     </g>
    </g>
    <g id="ytick_17">
     <g id="line2d_31">
      <g>
       <use xlink:href="#m60ade8d10a" x="90" y="101.766043" style="stroke: #000000; stroke-width: 0.6"/>
      </g>
     </g>
    </g>
    <g id="ytick_18">
     <g id="line2d_32">
      <g>
       <use xlink:href="#m60ade8d10a" x="90" y="87.006171" style="stroke: #000000; stroke-width: 0.6"/>
      </g>
     </g>
    </g>
    <g id="ytick_19">
     <g id="line2d_33">
      <g>
       <use xlink:href="#m60ade8d10a" x="90" y="74.946477" style="stroke: #000000; stroke-width: 0.6"/>
      </g>
     </g>
    </g>
    <g id="ytick_20">
     <g id="line2d_34">
      <g>
       <use xlink:href="#m60ade8d10a" x="90" y="64.750151" style="stroke: #000000; stroke-width: 0.6"/>
      </g>
     </g>
    </g>
    <g id="ytick_21">
     <g id="line2d_35">
      <g>
       <use xlink:href="#m60ade8d10a" x="90" y="55.917692" style="stroke: #000000; stroke-width: 0.6"/>
      </g>
     </g>
    </g>
    <g id="text_10">
     <!-- Frequency (Log Scale) -->
     <g transform="translate(52.939062 305.7475) rotate(-90) scale(0.14 -0.14)">
      <defs>
       <path id="DejaVuSans-Bold-46" d="M 588 4666 
L 3834 4666 
L 3834 3756 
L 1791 3756 
L 1791 2888 
L 3713 2888 
L 3713 1978 
L 1791 1978 
L 1791 0 
L 588 0 
L 588 4666 
z
" transform="scale(0.015625)"/>
       <path id="DejaVuSans-Bold-71" d="M 2181 2772 
Q 1825 2772 1636 2509 
Q 1447 2247 1447 1747 
Q 1447 1247 1636 984 
Q 1825 722 2181 722 
Q 2541 722 2730 984 
Q 2919 1247 2919 1747 
Q 2919 2247 2730 2509 
Q 2541 2772 2181 2772 
z
M 2919 506 
Q 2688 197 2409 53 
Q 2131 -91 1766 -91 
Q 1119 -91 703 423 
Q 288 938 288 1747 
Q 288 2556 703 3067 
Q 1119 3578 1766 3578 
Q 2131 3578 2409 3434 
Q 2688 3291 2919 2981 
L 2919 3500 
L 4044 3500 
L 4044 -1331 
L 2919 -1331 
L 2919 506 
z
" transform="scale(0.015625)"/>
       <path id="DejaVuSans-Bold-75" d="M 500 1363 
L 500 3500 
L 1625 3500 
L 1625 3150 
Q 1625 2866 1622 2436 
Q 1619 2006 1619 1863 
Q 1619 1441 1641 1255 
Q 1663 1069 1716 984 
Q 1784 875 1895 815 
Q 2006 756 2150 756 
Q 2500 756 2700 1025 
Q 2900 1294 2900 1772 
L 2900 3500 
L 4019 3500 
L 4019 0 
L 2900 0 
L 2900 506 
Q 2647 200 2364 54 
Q 2081 -91 1741 -91 
Q 1134 -91 817 281 
Q 500 653 500 1363 
z
" transform="scale(0.015625)"/>
       <path id="DejaVuSans-Bold-6e" d="M 4056 2131 
L 4056 0 
L 2931 0 
L 2931 347 
L 2931 1631 
Q 2931 2084 2911 2256 
Q 2891 2428 2841 2509 
Q 2775 2619 2662 2680 
Q 2550 2741 2406 2741 
Q 2056 2741 1856 2470 
Q 1656 2200 1656 1722 
L 1656 0 
L 538 0 
L 538 3500 
L 1656 3500 
L 1656 2988 
Q 1909 3294 2193 3439 
Q 2478 3584 2822 3584 
Q 3428 3584 3742 3212 
Q 4056 2841 4056 2131 
z
" transform="scale(0.015625)"/>
       <path id="DejaVuSans-Bold-79" d="M 78 3500 
L 1197 3500 
L 2138 1125 
L 2938 3500 
L 4056 3500 
L 2584 -331 
Q 2363 -916 2067 -1148 
Q 1772 -1381 1288 -1381 
L 641 -1381 
L 641 -647 
L 991 -647 
Q 1275 -647 1404 -556 
Q 1534 -466 1606 -231 
L 1638 -134 
L 78 3500 
z
" transform="scale(0.015625)"/>
       <path id="DejaVuSans-Bold-4c" d="M 588 4666 
L 1791 4666 
L 1791 909 
L 3903 909 
L 3903 0 
L 588 0 
L 588 4666 
z
" transform="scale(0.015625)"/>
       <path id="DejaVuSans-Bold-67" d="M 2919 594 
Q 2688 288 2409 144 
Q 2131 0 1766 0 
Q 1125 0 706 504 
Q 288 1009 288 1791 
Q 288 2575 706 3076 
Q 1125 3578 1766 3578 
Q 2131 3578 2409 3434 
Q 2688 3291 2919 2981 
L 2919 3500 
L 4044 3500 
L 4044 353 
Q 4044 -491 3511 -936 
Q 2978 -1381 1966 -1381 
Q 1638 -1381 1331 -1331 
Q 1025 -1281 716 -1178 
L 716 -306 
Q 1009 -475 1290 -558 
Q 1572 -641 1856 -641 
Q 2406 -641 2662 -400 
Q 2919 -159 2919 353 
L 2919 594 
z
M 2181 2772 
Q 1834 2772 1640 2515 
Q 1447 2259 1447 1791 
Q 1447 1309 1634 1061 
Q 1822 813 2181 813 
Q 2531 813 2725 1069 
Q 2919 1325 2919 1791 
Q 2919 2259 2725 2515 
Q 2531 2772 2181 2772 
z
" transform="scale(0.015625)"/>
       <path id="DejaVuSans-Bold-61" d="M 2106 1575 
Q 1756 1575 1579 1456 
Q 1403 1338 1403 1106 
Q 1403 894 1545 773 
Q 1688 653 1941 653 
Q 2256 653 2472 879 
Q 2688 1106 2688 1447 
L 2688 1575 
L 2106 1575 
z
M 3816 1997 
L 3816 0 
L 2688 0 
L 2688 519 
Q 2463 200 2181 54 
Q 1900 -91 1497 -91 
Q 953 -91 614 226 
Q 275 544 275 1050 
Q 275 1666 698 1953 
Q 1122 2241 2028 2241 
L 2688 2241 
L 2688 2328 
Q 2688 2594 2478 2717 
Q 2269 2841 1825 2841 
Q 1466 2841 1156 2769 
Q 847 2697 581 2553 
L 581 3406 
Q 941 3494 1303 3539 
Q 1666 3584 2028 3584 
Q 2975 3584 3395 3211 
Q 3816 2838 3816 1997 
z
" transform="scale(0.015625)"/>
       <path id="DejaVuSans-Bold-6c" d="M 538 4863 
L 1656 4863 
L 1656 0 
L 538 0 
L 538 4863 
z
" transform="scale(0.015625)"/>
      </defs>
      <use xlink:href="#DejaVuSans-Bold-46"/>
      <use xlink:href="#DejaVuSans-Bold-72" transform="translate(61.935547 0)"/>
      <use xlink:href="#DejaVuSans-Bold-65" transform="translate(111.251953 0)"/>
      <use xlink:href="#DejaVuSans-Bold-71" transform="translate(179.074219 0)"/>
      <use xlink:href="#DejaVuSans-Bold-75" transform="translate(250.65625 0)"/>
      <use xlink:href="#DejaVuSans-Bold-65" transform="translate(321.847656 0)"/>
      <use xlink:href="#DejaVuSans-Bold-6e" transform="translate(389.669922 0)"/>
      <use xlink:href="#DejaVuSans-Bold-63" transform="translate(460.861328 0)"/>
      <use xlink:href="#DejaVuSans-Bold-79" transform="translate(520.138672 0)"/>
      <use xlink:href="#DejaVuSans-Bold-20" transform="translate(585.324219 0)"/>
      <use xlink:href="#DejaVuSans-Bold-28" transform="translate(620.138672 0)"/>
      <use xlink:href="#DejaVuSans-Bold-4c" transform="translate(665.841797 0)"/>
      <use xlink:href="#DejaVuSans-Bold-6f" transform="translate(729.5625 0)"/>
      <use xlink:href="#DejaVuSans-Bold-67" transform="translate(798.263672 0)"/>
      <use xlink:href="#DejaVuSans-Bold-20" transform="translate(869.845703 0)"/>
      <use xlink:href="#DejaVuSans-Bold-53" transform="translate(904.660156 0)"/>
      <use xlink:href="#DejaVuSans-Bold-63" transform="translate(976.681641 0)"/>
      <use xlink:href="#DejaVuSans-Bold-61" transform="translate(1035.958984 0)"/>
      <use xlink:href="#DejaVuSans-Bold-6c" transform="translate(1103.439453 0)"/>
      <use xlink:href="#DejaVuSans-Bold-65" transform="translate(1137.716797 0)"/>
      <use xlink:href="#DejaVuSans-Bold-29" transform="translate(1205.539062 0)"/>
     </g>
    </g>
   </g>
   <g id="line2d_36">
    <path d="M 115.363636 281.599982 
L 120.461855 270.814507 
L 128.109182 255.16666 
L 133.207401 244.108712 
L 138.305619 232.182803 
L 143.403837 219.490269 
L 156.149383 186.993337 
L 161.247602 174.811907 
L 166.34582 163.570013 
L 168.894929 158.357884 
L 171.444038 153.436285 
L 173.993148 148.81209 
L 176.542257 144.487568 
L 179.091366 140.460935 
L 181.640475 136.726901 
L 184.189584 133.277229 
L 186.738693 130.101295 
L 189.287803 127.186667 
L 191.836912 124.519694 
L 194.386021 122.086101 
L 196.93513 119.871555 
L 199.484239 117.862212 
L 202.033349 116.045183 
L 204.582458 114.408914 
L 207.131567 112.94345 
L 209.680676 111.640548 
L 212.229785 110.49365 
L 214.778894 109.497692 
L 217.328004 108.648772 
L 219.877113 107.943705 
L 222.426222 107.379486 
L 224.975331 106.952733 
L 227.52444 106.659132 
L 230.07355 106.492969 
L 235.171768 106.511166 
L 240.269986 106.924851 
L 245.368205 107.626776 
L 253.015532 108.972442 
L 270.859296 112.395705 
L 278.506624 114.098557 
L 283.604842 115.43337 
L 288.703061 116.952744 
L 296.350388 119.535433 
L 316.743262 126.781698 
L 321.84148 128.307455 
L 326.939698 129.620717 
L 332.037917 130.710527 
L 337.136135 131.597919 
L 344.783463 132.67658 
L 354.979899 134.098316 
L 360.078118 134.991731 
L 365.176336 136.075444 
L 370.274555 137.356268 
L 377.921882 139.579282 
L 393.216537 144.302393 
L 398.314756 145.677726 
L 403.412974 146.849946 
L 408.511192 147.797225 
L 413.609411 148.537621 
L 421.256738 149.39466 
L 431.453175 150.545573 
L 436.551393 151.324067 
L 441.649612 152.312153 
L 446.74783 153.520448 
L 451.846048 154.923435 
L 459.493376 157.268962 
L 472.238922 161.22425 
L 479.886249 163.331356 
L 487.533577 165.210018 
L 510.47556 170.465676 
L 520.671996 172.631749 
L 541.06487 176.733771 
L 546.163088 178.022655 
L 551.261307 179.514564 
L 556.359525 181.222098 
L 561.457743 183.139486 
L 566.555962 185.251731 
L 571.65418 187.544945 
L 576.752398 190.017386 
L 581.850617 192.692147 
L 586.948835 195.631829 
L 592.047053 198.953158 
L 594.596163 200.810908 
L 597.145272 202.837238 
L 599.694381 205.065075 
L 602.24349 207.530954 
L 604.792599 210.274481 
L 607.341709 213.337708 
L 609.890818 216.76443 
L 612.439927 220.59948 
L 614.989036 224.888036 
L 617.538145 229.674991 
L 620.087254 235.0044 
L 622.636364 240.919021 
L 622.636364 240.919021 
" clip-path="url(#p3a91dbe9c3)" style="fill: none; stroke: #800080; stroke-width: 1.5; stroke-linecap: square"/>
   </g>
   <g id="line2d_37">
    <path d="M 115.363636 133.10369 
L 117.912746 128.261553 
L 120.461855 124.093828 
L 123.010964 120.558894 
L 125.560073 117.613268 
L 128.109182 115.212121 
L 130.658291 113.309917 
L 133.207401 111.861161 
L 135.75651 110.821197 
L 138.305619 110.147022 
L 140.854728 109.798026 
L 143.403837 109.736599 
L 145.952947 109.928545 
L 148.502056 110.343238 
L 151.051165 110.953541 
L 153.600274 111.73547 
L 156.149383 112.667684 
L 161.247602 114.907074 
L 166.34582 117.530559 
L 173.993148 121.896287 
L 186.738693 129.34049 
L 194.386021 133.501312 
L 202.033349 137.394309 
L 227.52444 150.027619 
L 235.171768 154.132351 
L 242.819095 158.488405 
L 253.015532 164.631185 
L 265.761078 172.402534 
L 273.408406 176.818619 
L 281.055733 180.938675 
L 288.703061 184.786104 
L 309.095934 194.739129 
L 314.194153 197.501375 
L 319.292371 200.4963 
L 324.390589 203.745527 
L 329.488808 207.233311 
L 337.136135 212.796008 
L 352.43079 224.165001 
L 360.078118 229.527825 
L 365.176336 232.893902 
L 370.274555 236.063639 
L 375.372773 239.009675 
L 380.470991 241.701742 
L 385.56921 244.114888 
L 390.667428 246.24212 
L 395.765646 248.10438 
L 400.863865 249.751884 
L 408.511192 251.97891 
L 418.707629 254.898918 
L 426.354957 257.354074 
L 431.453175 259.235956 
L 436.551393 261.387214 
L 441.649612 263.862012 
L 446.74783 266.689501 
L 451.846048 269.855524 
L 456.944267 273.291819 
L 474.788031 285.655178 
L 479.886249 288.866042 
L 487.533577 293.384791 
L 500.279123 300.560749 
L 507.92645 304.657418 
L 513.024669 307.192192 
L 518.122887 309.531291 
L 525.770215 312.767012 
L 533.417542 316.017482 
L 538.515761 318.416816 
L 543.613979 321.109605 
L 548.712197 324.109031 
L 556.359525 329.00756 
L 561.457743 332.288563 
L 566.555962 335.277634 
L 569.105071 336.556671 
L 571.65418 337.626311 
L 574.203289 338.433122 
L 576.752398 338.92297 
L 579.301508 339.044715 
L 581.850617 338.755235 
L 584.399726 338.025396 
L 586.948835 336.846113 
L 589.497944 335.233338 
L 592.047053 333.230811 
L 594.596163 330.909763 
L 599.694381 325.711613 
L 604.792599 320.576896 
L 607.341709 318.350319 
L 609.890818 316.511517 
L 612.439927 315.168804 
L 614.989036 314.418618 
L 617.538145 314.345135 
L 620.087254 315.020725 
L 622.636364 316.506888 
L 622.636364 316.506888 
" clip-path="url(#p3a91dbe9c3)" style="fill: none; stroke: #008000; stroke-width: 1.5; stroke-linecap: square"/>
   </g>
   <g id="patch_103">
    <path d="M 90 384.48 
L 90 51.84 
" style="fill: none; stroke: #000000; stroke-width: 0.8; stroke-linejoin: miter; stroke-linecap: square"/>
   </g>
   <g id="patch_104">
    <path d="M 648 384.48 
L 648 51.84 
" style="fill: none; stroke: #000000; stroke-width: 0.8; stroke-linejoin: miter; stroke-linecap: square"/>
   </g>
   <g id="patch_105">
    <path d="M 90 384.48 
L 648 384.48 
" style="fill: none; stroke: #000000; stroke-width: 0.8; stroke-linejoin: miter; stroke-linecap: square"/>
   </g>
   <g id="patch_106">
    <path d="M 90 51.84 
L 648 51.84 
" style="fill: none; stroke: #000000; stroke-width: 0.8; stroke-linejoin: miter; stroke-linecap: square"/>
   </g>
   <g id="text_11">
    <!-- Universal Distribution: Rigid Scores -->
    <g transform="translate(207.95875 27.7985) scale(0.16 -0.16)">
     <defs>
      <path id="DejaVuSans-Bold-55" d="M 588 4666 
L 1791 4666 
L 1791 1869 
Q 1791 1291 1980 1042 
Q 2169 794 2597 794 
Q 3028 794 3217 1042 
Q 3406 1291 3406 1869 
L 3406 4666 
L 4609 4666 
L 4609 1869 
Q 4609 878 4112 393 
Q 3616 -91 2597 -91 
Q 1581 -91 1084 393 
Q 588 878 588 1869 
L 588 4666 
z
" transform="scale(0.015625)"/>
      <path id="DejaVuSans-Bold-69" d="M 538 3500 
L 1656 3500 
L 1656 0 
L 538 0 
L 538 3500 
z
M 538 4863 
L 1656 4863 
L 1656 3950 
L 538 3950 
L 538 4863 
z
" transform="scale(0.015625)"/>
      <path id="DejaVuSans-Bold-76" d="M 97 3500 
L 1216 3500 
L 2088 1081 
L 2956 3500 
L 4078 3500 
L 2700 0 
L 1472 0 
L 97 3500 
z
" transform="scale(0.015625)"/>
      <path id="DejaVuSans-Bold-73" d="M 3272 3391 
L 3272 2541 
Q 2913 2691 2578 2766 
Q 2244 2841 1947 2841 
Q 1628 2841 1473 2761 
Q 1319 2681 1319 2516 
Q 1319 2381 1436 2309 
Q 1553 2238 1856 2203 
L 2053 2175 
Q 2913 2066 3209 1816 
Q 3506 1566 3506 1031 
Q 3506 472 3093 190 
Q 2681 -91 1863 -91 
Q 1516 -91 1145 -36 
Q 775 19 384 128 
L 384 978 
Q 719 816 1070 734 
Q 1422 653 1784 653 
Q 2113 653 2278 743 
Q 2444 834 2444 1013 
Q 2444 1163 2330 1236 
Q 2216 1309 1875 1350 
L 1678 1375 
Q 931 1469 631 1722 
Q 331 1975 331 2491 
Q 331 3047 712 3315 
Q 1094 3584 1881 3584 
Q 2191 3584 2531 3537 
Q 2872 3491 3272 3391 
z
" transform="scale(0.015625)"/>
      <path id="DejaVuSans-Bold-44" d="M 1791 3756 
L 1791 909 
L 2222 909 
Q 2959 909 3348 1275 
Q 3738 1641 3738 2338 
Q 3738 3031 3350 3393 
Q 2963 3756 2222 3756 
L 1791 3756 
z
M 588 4666 
L 1856 4666 
Q 2919 4666 3439 4514 
Q 3959 4363 4331 4000 
Q 4659 3684 4818 3271 
Q 4978 2859 4978 2338 
Q 4978 1809 4818 1395 
Q 4659 981 4331 666 
Q 3956 303 3431 151 
Q 2906 0 1856 0 
L 588 0 
L 588 4666 
z
" transform="scale(0.015625)"/>
      <path id="DejaVuSans-Bold-74" d="M 1759 4494 
L 1759 3500 
L 2913 3500 
L 2913 2700 
L 1759 2700 
L 1759 1216 
Q 1759 972 1856 886 
Q 1953 800 2241 800 
L 2816 800 
L 2816 0 
L 1856 0 
Q 1194 0 917 276 
Q 641 553 641 1216 
L 641 2700 
L 84 2700 
L 84 3500 
L 641 3500 
L 641 4494 
L 1759 4494 
z
" transform="scale(0.015625)"/>
      <path id="DejaVuSans-Bold-62" d="M 2400 722 
Q 2759 722 2948 984 
Q 3138 1247 3138 1747 
Q 3138 2247 2948 2509 
Q 2759 2772 2400 2772 
Q 2041 2772 1848 2508 
Q 1656 2244 1656 1747 
Q 1656 1250 1848 986 
Q 2041 722 2400 722 
z
M 1656 2988 
Q 1888 3294 2169 3439 
Q 2450 3584 2816 3584 
Q 3463 3584 3878 3070 
Q 4294 2556 4294 1747 
Q 4294 938 3878 423 
Q 3463 -91 2816 -91 
Q 2450 -91 2169 54 
Q 1888 200 1656 506 
L 1656 0 
L 538 0 
L 538 4863 
L 1656 4863 
L 1656 2988 
z
" transform="scale(0.015625)"/>
      <path id="DejaVuSans-Bold-3a" d="M 716 3500 
L 1844 3500 
L 1844 2291 
L 716 2291 
L 716 3500 
z
M 716 1209 
L 1844 1209 
L 1844 0 
L 716 0 
L 716 1209 
z
" transform="scale(0.015625)"/>
      <path id="DejaVuSans-Bold-52" d="M 2297 2597 
Q 2675 2597 2839 2737 
Q 3003 2878 3003 3200 
Q 3003 3519 2839 3656 
Q 2675 3794 2297 3794 
L 1791 3794 
L 1791 2597 
L 2297 2597 
z
M 1791 1766 
L 1791 0 
L 588 0 
L 588 4666 
L 2425 4666 
Q 3347 4666 3776 4356 
Q 4206 4047 4206 3378 
Q 4206 2916 3982 2619 
Q 3759 2322 3309 2181 
Q 3556 2125 3751 1926 
Q 3947 1728 4147 1325 
L 4800 0 
L 3519 0 
L 2950 1159 
Q 2778 1509 2601 1637 
Q 2425 1766 2131 1766 
L 1791 1766 
z
" transform="scale(0.015625)"/>
      <path id="DejaVuSans-Bold-64" d="M 2919 2988 
L 2919 4863 
L 4044 4863 
L 4044 0 
L 2919 0 
L 2919 506 
Q 2688 197 2409 53 
Q 2131 -91 1766 -91 
Q 1119 -91 703 423 
Q 288 938 288 1747 
Q 288 2556 703 3070 
Q 1119 3584 1766 3584 
Q 2128 3584 2408 3439 
Q 2688 3294 2919 2988 
z
M 2181 722 
Q 2541 722 2730 984 
Q 2919 1247 2919 1747 
Q 2919 2247 2730 2509 
Q 2541 2772 2181 2772 
Q 1825 2772 1636 2509 
Q 1447 2247 1447 1747 
Q 1447 1247 1636 984 
Q 1825 722 2181 722 
z
" transform="scale(0.015625)"/>
     </defs>
     <use xlink:href="#DejaVuSans-Bold-55"/>
     <use xlink:href="#DejaVuSans-Bold-6e" transform="translate(81.201172 0)"/>
     <use xlink:href="#DejaVuSans-Bold-69" transform="translate(152.392578 0)"/>
     <use xlink:href="#DejaVuSans-Bold-76" transform="translate(186.669922 0)"/>
     <use xlink:href="#DejaVuSans-Bold-65" transform="translate(251.855469 0)"/>
     <use xlink:href="#DejaVuSans-Bold-72" transform="translate(319.677734 0)"/>
     <use xlink:href="#DejaVuSans-Bold-73" transform="translate(368.994141 0)"/>
     <use xlink:href="#DejaVuSans-Bold-61" transform="translate(428.515625 0)"/>
     <use xlink:href="#DejaVuSans-Bold-6c" transform="translate(495.996094 0)"/>
     <use xlink:href="#DejaVuSans-Bold-20" transform="translate(530.273438 0)"/>
     <use xlink:href="#DejaVuSans-Bold-44" transform="translate(565.087891 0)"/>
     <use xlink:href="#DejaVuSans-Bold-69" transform="translate(648.095703 0)"/>
     <use xlink:href="#DejaVuSans-Bold-73" transform="translate(682.373047 0)"/>
     <use xlink:href="#DejaVuSans-Bold-74" transform="translate(741.894531 0)"/>
     <use xlink:href="#DejaVuSans-Bold-72" transform="translate(789.697266 0)"/>
     <use xlink:href="#DejaVuSans-Bold-69" transform="translate(839.013672 0)"/>
     <use xlink:href="#DejaVuSans-Bold-62" transform="translate(873.291016 0)"/>
     <use xlink:href="#DejaVuSans-Bold-75" transform="translate(944.873047 0)"/>
     <use xlink:href="#DejaVuSans-Bold-74" transform="translate(1016.064453 0)"/>
     <use xlink:href="#DejaVuSans-Bold-69" transform="translate(1063.867188 0)"/>
     <use xlink:href="#DejaVuSans-Bold-6f" transform="translate(1098.144531 0)"/>
     <use xlink:href="#DejaVuSans-Bold-6e" transform="translate(1166.845703 0)"/>
     <use xlink:href="#DejaVuSans-Bold-3a" transform="translate(1238.037109 0)"/>
     <use xlink:href="#DejaVuSans-Bold-20" transform="translate(1278.027344 0)"/>
     <use xlink:href="#DejaVuSans-Bold-52" transform="translate(1312.841797 0)"/>
     <use xlink:href="#DejaVuSans-Bold-69" transform="translate(1389.84375 0)"/>
     <use xlink:href="#DejaVuSans-Bold-67" transform="translate(1424.121094 0)"/>
     <use xlink:href="#DejaVuSans-Bold-69" transform="translate(1495.703125 0)"/>
     <use xlink:href="#DejaVuSans-Bold-64" transform="translate(1529.980469 0)"/>
     <use xlink:href="#DejaVuSans-Bold-20" transform="translate(1601.5625 0)"/>
     <use xlink:href="#DejaVuSans-Bold-53" transform="translate(1636.376953 0)"/>
     <use xlink:href="#DejaVuSans-Bold-63" transform="translate(1708.398438 0)"/>
     <use xlink:href="#DejaVuSans-Bold-6f" transform="translate(1767.675781 0)"/>
     <use xlink:href="#DejaVuSans-Bold-72" transform="translate(1836.376953 0)"/>
     <use xlink:href="#DejaVuSans-Bold-65" transform="translate(1885.693359 0)"/>
     <use xlink:href="#DejaVuSans-Bold-73" transform="translate(1953.515625 0)"/>
    </g>
    <!-- (N = ~200,000 Residues) -->
    <g transform="translate(256.095 45.84) scale(0.16 -0.16)">
     <defs>
      <path id="DejaVuSans-Bold-4e" d="M 588 4666 
L 1931 4666 
L 3628 1466 
L 3628 4666 
L 4769 4666 
L 4769 0 
L 3425 0 
L 1728 3200 
L 1728 0 
L 588 0 
L 588 4666 
z
" transform="scale(0.015625)"/>
      <path id="DejaVuSans-Bold-3d" d="M 678 3084 
L 4684 3084 
L 4684 2350 
L 678 2350 
L 678 3084 
z
M 678 1663 
L 4684 1663 
L 4684 922 
L 678 922 
L 678 1663 
z
" transform="scale(0.015625)"/>
      <path id="DejaVuSans-Bold-7e" d="M 4684 2656 
L 4684 1894 
Q 4353 1644 4073 1536 
Q 3794 1428 3494 1428 
Q 3159 1428 2713 1609 
Q 2669 1628 2644 1638 
Q 2622 1647 2575 1666 
Q 2091 1856 1797 1856 
Q 1522 1856 1253 1736 
Q 984 1616 678 1356 
L 678 2119 
Q 1013 2369 1291 2476 
Q 1569 2584 1869 2584 
Q 2203 2584 2650 2403 
Q 2697 2384 2719 2375 
Q 2741 2366 2788 2347 
Q 3272 2156 3566 2156 
Q 3834 2156 4098 2273 
Q 4363 2391 4684 2656 
z
" transform="scale(0.015625)"/>
      <path id="DejaVuSans-Bold-2c" d="M 653 1209 
L 1778 1209 
L 1778 256 
L 1006 -909 
L 341 -909 
L 653 256 
L 653 1209 
z
" transform="scale(0.015625)"/>
     </defs>
     <use xlink:href="#DejaVuSans-Bold-28"/>
     <use xlink:href="#DejaVuSans-Bold-4e" transform="translate(45.703125 0)"/>
     <use xlink:href="#DejaVuSans-Bold-20" transform="translate(129.394531 0)"/>
     <use xlink:href="#DejaVuSans-Bold-3d" transform="translate(164.208984 0)"/>
     <use xlink:href="#DejaVuSans-Bold-20" transform="translate(247.998047 0)"/>
     <use xlink:href="#DejaVuSans-Bold-7e" transform="translate(282.8125 0)"/>
     <use xlink:href="#DejaVuSans-Bold-32" transform="translate(366.601562 0)"/>
     <use xlink:href="#DejaVuSans-Bold-30" transform="translate(436.181641 0)"/>
     <use xlink:href="#DejaVuSans-Bold-30" transform="translate(505.761719 0)"/>
     <use xlink:href="#DejaVuSans-Bold-2c" transform="translate(575.341797 0)"/>
     <use xlink:href="#DejaVuSans-Bold-30" transform="translate(613.330078 0)"/>
     <use xlink:href="#DejaVuSans-Bold-30" transform="translate(682.910156 0)"/>
     <use xlink:href="#DejaVuSans-Bold-30" transform="translate(752.490234 0)"/>
     <use xlink:href="#DejaVuSans-Bold-20" transform="translate(822.070312 0)"/>
     <use xlink:href="#DejaVuSans-Bold-52" transform="translate(856.884766 0)"/>
     <use xlink:href="#DejaVuSans-Bold-65" transform="translate(933.886719 0)"/>
     <use xlink:href="#DejaVuSans-Bold-73" transform="translate(1001.708984 0)"/>
     <use xlink:href="#DejaVuSans-Bold-69" transform="translate(1061.230469 0)"/>
     <use xlink:href="#DejaVuSans-Bold-64" transform="translate(1095.507812 0)"/>
     <use xlink:href="#DejaVuSans-Bold-75" transform="translate(1167.089844 0)"/>
     <use xlink:href="#DejaVuSans-Bold-65" transform="translate(1238.28125 0)"/>
     <use xlink:href="#DejaVuSans-Bold-73" transform="translate(1306.103516 0)"/>
     <use xlink:href="#DejaVuSans-Bold-29" transform="translate(1365.625 0)"/>
    </g>
   </g>
   <g id="legend_1">
    <g id="patch_107">
     <path d="M 446.56125 96.76125 
L 639.6 96.76125 
Q 642 96.76125 642 94.36125 
L 642 60.24 
Q 642 57.84 639.6 57.84 
L 446.56125 57.84 
Q 444.16125 57.84 444.16125 60.24 
L 444.16125 94.36125 
Q 444.16125 96.76125 446.56125 96.76125 
z
" style="fill: #ffffff; opacity: 0.8; stroke: #cccccc; stroke-linejoin: miter"/>
    </g>
    <g id="patch_108">
     <path d="M 448.96125 71.758125 
L 472.96125 71.758125 
L 472.96125 63.358125 
L 448.96125 63.358125 
z
" style="fill: #800080; fill-opacity: 0.6; stroke: #000000; stroke-linejoin: miter"/>
    </g>
    <g id="text_12">
     <!-- RCS (Core) -->
     <g transform="translate(482.56125 71.758125) scale(0.12 -0.12)">
      <defs>
       <path id="DejaVuSans-Bold-43" d="M 4288 256 
Q 3956 84 3597 -3 
Q 3238 -91 2847 -91 
Q 1681 -91 1000 561 
Q 319 1213 319 2328 
Q 319 3447 1000 4098 
Q 1681 4750 2847 4750 
Q 3238 4750 3597 4662 
Q 3956 4575 4288 4403 
L 4288 3438 
Q 3953 3666 3628 3772 
Q 3303 3878 2944 3878 
Q 2300 3878 1931 3465 
Q 1563 3053 1563 2328 
Q 1563 1606 1931 1193 
Q 2300 781 2944 781 
Q 3303 781 3628 887 
Q 3953 994 4288 1222 
L 4288 256 
z
" transform="scale(0.015625)"/>
      </defs>
      <use xlink:href="#DejaVuSans-Bold-52"/>
      <use xlink:href="#DejaVuSans-Bold-43" transform="translate(77.001953 0)"/>
      <use xlink:href="#DejaVuSans-Bold-53" transform="translate(152.265625 0)"/>
      <use xlink:href="#DejaVuSans-Bold-20" transform="translate(224.287109 0)"/>
      <use xlink:href="#DejaVuSans-Bold-28" transform="translate(259.101562 0)"/>
      <use xlink:href="#DejaVuSans-Bold-43" transform="translate(304.804688 0)"/>
      <use xlink:href="#DejaVuSans-Bold-6f" transform="translate(378.193359 0)"/>
      <use xlink:href="#DejaVuSans-Bold-72" transform="translate(446.894531 0)"/>
      <use xlink:href="#DejaVuSans-Bold-65" transform="translate(496.210938 0)"/>
      <use xlink:href="#DejaVuSans-Bold-29" transform="translate(564.033203 0)"/>
     </g>
    </g>
    <g id="patch_109">
     <path d="M 448.96125 89.371875 
L 472.96125 89.371875 
L 472.96125 80.971875 
L 448.96125 80.971875 
z
" style="fill: #008000; fill-opacity: 0.4; stroke: #000000; stroke-linejoin: miter"/>
    </g>
    <g id="text_13">
     <!-- RCopS (Rigid Network) -->
     <g transform="translate(482.56125 89.371875) scale(0.12 -0.12)">
      <defs>
       <path id="DejaVuSans-Bold-70" d="M 1656 506 
L 1656 -1331 
L 538 -1331 
L 538 3500 
L 1656 3500 
L 1656 2988 
Q 1888 3294 2169 3439 
Q 2450 3584 2816 3584 
Q 3463 3584 3878 3070 
Q 4294 2556 4294 1747 
Q 4294 938 3878 423 
Q 3463 -91 2816 -91 
Q 2450 -91 2169 54 
Q 1888 200 1656 506 
z
M 2400 2772 
Q 2041 2772 1848 2508 
Q 1656 2244 1656 1747 
Q 1656 1250 1848 986 
Q 2041 722 2400 722 
Q 2759 722 2948 984 
Q 3138 1247 3138 1747 
Q 3138 2247 2948 2509 
Q 2759 2772 2400 2772 
z
" transform="scale(0.015625)"/>
       <path id="DejaVuSans-Bold-77" d="M 225 3500 
L 1313 3500 
L 1900 1088 
L 2491 3500 
L 3425 3500 
L 4013 1113 
L 4603 3500 
L 5691 3500 
L 4769 0 
L 3547 0 
L 2956 2406 
L 2369 0 
L 1147 0 
L 225 3500 
z
" transform="scale(0.015625)"/>
       <path id="DejaVuSans-Bold-6b" d="M 538 4863 
L 1656 4863 
L 1656 2216 
L 2944 3500 
L 4244 3500 
L 2534 1894 
L 4378 0 
L 3022 0 
L 1656 1459 
L 1656 0 
L 538 0 
L 538 4863 
z
" transform="scale(0.015625)"/>
      </defs>
      <use xlink:href="#DejaVuSans-Bold-52"/>
      <use xlink:href="#DejaVuSans-Bold-43" transform="translate(77.001953 0)"/>
      <use xlink:href="#DejaVuSans-Bold-6f" transform="translate(150.390625 0)"/>
      <use xlink:href="#DejaVuSans-Bold-70" transform="translate(219.091797 0)"/>
      <use xlink:href="#DejaVuSans-Bold-53" transform="translate(290.673828 0)"/>
      <use xlink:href="#DejaVuSans-Bold-20" transform="translate(362.695312 0)"/>
      <use xlink:href="#DejaVuSans-Bold-28" transform="translate(397.509766 0)"/>
      <use xlink:href="#DejaVuSans-Bold-52" transform="translate(443.212891 0)"/>
      <use xlink:href="#DejaVuSans-Bold-69" transform="translate(520.214844 0)"/>
      <use xlink:href="#DejaVuSans-Bold-67" transform="translate(554.492188 0)"/>
      <use xlink:href="#DejaVuSans-Bold-69" transform="translate(626.074219 0)"/>
      <use xlink:href="#DejaVuSans-Bold-64" transform="translate(660.351562 0)"/>
      <use xlink:href="#DejaVuSans-Bold-20" transform="translate(731.933594 0)"/>
      <use xlink:href="#DejaVuSans-Bold-4e" transform="translate(766.748047 0)"/>
      <use xlink:href="#DejaVuSans-Bold-65" transform="translate(850.439453 0)"/>
      <use xlink:href="#DejaVuSans-Bold-74" transform="translate(918.261719 0)"/>
      <use xlink:href="#DejaVuSans-Bold-77" transform="translate(966.064453 0)"/>
      <use xlink:href="#DejaVuSans-Bold-6f" transform="translate(1058.447266 0)"/>
      <use xlink:href="#DejaVuSans-Bold-72" transform="translate(1127.148438 0)"/>
      <use xlink:href="#DejaVuSans-Bold-6b" transform="translate(1176.464844 0)"/>
      <use xlink:href="#DejaVuSans-Bold-29" transform="translate(1242.96875 0)"/>
     </g>
    </g>
   </g>
  </g>
 </g>
 <defs>
  <clipPath id="p3a91dbe9c3">
   <rect x="90" y="51.84" width="558" height="332.64"/>
  </clipPath>
 </defs>
</svg>
