<?xml version="1.0" encoding="utf-8" standalone="no"?>
<!DOCTYPE svg PUBLIC "-//W3C//DTD SVG 1.1//EN"
  "http://www.w3.org/Graphics/SVG/1.1/DTD/svg11.dtd">
<svg xmlns:xlink="http://www.w3.org/1999/xlink" width="720pt" height="432pt" viewBox="0 0 720 432" xmlns="http://www.w3.org/2000/svg" version="1.1">
 <metadata>
  <rdf:RDF xmlns:dc="http://purl.org/dc/elements/1.1/" xmlns:cc="http://creativecommons.org/ns#" xmlns:rdf="http://www.w3.org/1999/02/22-rdf-syntax-ns#">
   <cc:Work>
    <dc:type rdf:resource="http://purl.org/dc/dcmitype/StillImage"/>
    <dc:date>2025-12-10T20:06:43.130829</dc:date>
    <dc:format>image/svg+xml</dc:format>
    <dc:creator>
     <cc:Agent>
      <dc:title>Matplotlib v3.10.0, https://matplotlib.org/</dc:title>
     </cc:Agent>
    </dc:creator>
   </cc:Work>
  </rdf:RDF>
 </metadata>
 <defs>
  <style type="text/css">*{stroke-linejoin: round; stroke-linecap: butt}</style>
 </defs>
 <g id="figure_1">
  <g id="patch_1">
   <path d="M 0 432 
L 720 432 
L 720 0 
L 0 0 
z
" style="fill: #ffffff"/>
  </g>
  <g id="axes_1">
   <g id="patch_2">
    <path d="M 90 384.48 
L 648 384.48 
L 648 51.84 
L 90 51.84 
z
" style="fill: #ffffff"/>
   </g>
   <g id="patch_3">
    <path d="M 115.363636 102111.042957 
L 125.509091 102111.042957 
L 125.509091 70.81206 
L 115.363636 70.81206 
z
" clip-path="url(#p66c9d16700)" style="fill: #ffa500; fill-opacity: 0.6; stroke: #000000; stroke-linejoin: miter"/>
   </g>
   <g id="patch_4">
    <path d="M 125.509091 102111.042957 
L 135.654545 102111.042957 
L 135.654545 66.96 
L 125.509091 66.96 
z
" clip-path="url(#p66c9d16700)" style="fill: #ffa500; fill-opacity: 0.6; stroke: #000000; stroke-linejoin: miter"/>
   </g>
   <g id="patch_5">
    <path d="M 135.654545 102111.042957 
L 145.8 102111.042957 
L 145.8 80.013612 
L 135.654545 80.013612 
z
" clip-path="url(#p66c9d16700)" style="fill: #ffa500; fill-opacity: 0.6; stroke: #000000; stroke-linejoin: miter"/>
   </g>
   <g id="patch_6">
    <path d="M 145.8 102111.042957 
L 155.945455 102111.042957 
L 155.945455 92.647652 
L 145.8 92.647652 
z
" clip-path="url(#p66c9d16700)" style="fill: #ffa500; fill-opacity: 0.6; stroke: #000000; stroke-linejoin: miter"/>
   </g>
   <g id="patch_7">
    <path d="M 155.945455 102111.042957 
L 166.090909 102111.042957 
L 166.090909 106.104129 
L 155.945455 106.104129 
z
" clip-path="url(#p66c9d16700)" style="fill: #ffa500; fill-opacity: 0.6; stroke: #000000; stroke-linejoin: miter"/>
   </g>
   <g id="patch_8">
    <path d="M 166.090909 102111.042957 
L 176.236364 102111.042957 
L 176.236364 119.520395 
L 166.090909 119.520395 
z
" clip-path="url(#p66c9d16700)" style="fill: #ffa500; fill-opacity: 0.6; stroke: #000000; stroke-linejoin: miter"/>
   </g>
   <g id="patch_9">
    <path d="M 176.236364 102111.042957 
L 186.381818 102111.042957 
L 186.381818 132.641844 
L 176.236364 132.641844 
z
" clip-path="url(#p66c9d16700)" style="fill: #ffa500; fill-opacity: 0.6; stroke: #000000; stroke-linejoin: miter"/>
   </g>
   <g id="patch_10">
    <path d="M 186.381818 102111.042957 
L 196.527273 102111.042957 
L 196.527273 142.759271 
L 186.381818 142.759271 
z
" clip-path="url(#p66c9d16700)" style="fill: #ffa500; fill-opacity: 0.6; stroke: #000000; stroke-linejoin: miter"/>
   </g>
   <g id="patch_11">
    <path d="M 196.527273 102111.042957 
L 206.672727 102111.042957 
L 206.672727 155.03343 
L 196.527273 155.03343 
z
" clip-path="url(#p66c9d16700)" style="fill: #ffa500; fill-opacity: 0.6; stroke: #000000; stroke-linejoin: miter"/>
   </g>
   <g id="patch_12">
    <path d="M 206.672727 102111.042957 
L 216.818182 102111.042957 
L 216.818182 156.793526 
L 206.672727 156.793526 
z
" clip-path="url(#p66c9d16700)" style="fill: #ffa500; fill-opacity: 0.6; stroke: #000000; stroke-linejoin: miter"/>
   </g>
   <g id="patch_13">
    <path d="M 216.818182 102111.042957 
L 226.963636 102111.042957 
L 226.963636 171.085467 
L 216.818182 171.085467 
z
" clip-path="url(#p66c9d16700)" style="fill: #ffa500; fill-opacity: 0.6; stroke: #000000; stroke-linejoin: miter"/>
   </g>
   <g id="patch_14">
    <path d="M 226.963636 102111.042957 
L 237.109091 102111.042957 
L 237.109091 170.838001 
L 226.963636 170.838001 
z
" clip-path="url(#p66c9d16700)" style="fill: #ffa500; fill-opacity: 0.6; stroke: #000000; stroke-linejoin: miter"/>
   </g>
   <g id="patch_15">
    <path d="M 237.109091 102111.042957 
L 247.254545 102111.042957 
L 247.254545 173.377352 
L 237.109091 173.377352 
z
" clip-path="url(#p66c9d16700)" style="fill: #ffa500; fill-opacity: 0.6; stroke: #000000; stroke-linejoin: miter"/>
   </g>
   <g id="patch_16">
    <path d="M 247.254545 102111.042957 
L 257.4 102111.042957 
L 257.4 193.567296 
L 247.254545 193.567296 
z
" clip-path="url(#p66c9d16700)" style="fill: #ffa500; fill-opacity: 0.6; stroke: #000000; stroke-linejoin: miter"/>
   </g>
   <g id="patch_17">
    <path d="M 257.4 102111.042957 
L 267.545455 102111.042957 
L 267.545455 194.823473 
L 257.4 194.823473 
z
" clip-path="url(#p66c9d16700)" style="fill: #ffa500; fill-opacity: 0.6; stroke: #000000; stroke-linejoin: miter"/>
   </g>
   <g id="patch_18">
    <path d="M 267.545455 102111.042957 
L 277.690909 102111.042957 
L 277.690909 201.703548 
L 267.545455 201.703548 
z
" clip-path="url(#p66c9d16700)" style="fill: #ffa500; fill-opacity: 0.6; stroke: #000000; stroke-linejoin: miter"/>
   </g>
   <g id="patch_19">
    <path d="M 277.690909 102111.042957 
L 287.836364 102111.042957 
L 287.836364 221.38618 
L 277.690909 221.38618 
z
" clip-path="url(#p66c9d16700)" style="fill: #ffa500; fill-opacity: 0.6; stroke: #000000; stroke-linejoin: miter"/>
   </g>
   <g id="patch_20">
    <path d="M 287.836364 102111.042957 
L 297.981818 102111.042957 
L 297.981818 224.600147 
L 287.836364 224.600147 
z
" clip-path="url(#p66c9d16700)" style="fill: #ffa500; fill-opacity: 0.6; stroke: #000000; stroke-linejoin: miter"/>
   </g>
   <g id="patch_21">
    <path d="M 297.981818 102111.042957 
L 308.127273 102111.042957 
L 308.127273 222.963939 
L 297.981818 222.963939 
z
" clip-path="url(#p66c9d16700)" style="fill: #ffa500; fill-opacity: 0.6; stroke: #000000; stroke-linejoin: miter"/>
   </g>
   <g id="patch_22">
    <path d="M 308.127273 102111.042957 
L 318.272727 102111.042957 
L 318.272727 230.857212 
L 308.127273 230.857212 
z
" clip-path="url(#p66c9d16700)" style="fill: #ffa500; fill-opacity: 0.6; stroke: #000000; stroke-linejoin: miter"/>
   </g>
   <g id="patch_23">
    <path d="M 318.272727 102111.042957 
L 328.418182 102111.042957 
L 328.418182 219.862838 
L 318.272727 219.862838 
z
" clip-path="url(#p66c9d16700)" style="fill: #ffa500; fill-opacity: 0.6; stroke: #000000; stroke-linejoin: miter"/>
   </g>
   <g id="patch_24">
    <path d="M 328.418182 102111.042957 
L 338.563636 102111.042957 
L 338.563636 242.929276 
L 328.418182 242.929276 
z
" clip-path="url(#p66c9d16700)" style="fill: #ffa500; fill-opacity: 0.6; stroke: #000000; stroke-linejoin: miter"/>
   </g>
   <g id="patch_25">
    <path d="M 338.563636 102111.042957 
L 348.709091 102111.042957 
L 348.709091 237.030854 
L 338.563636 237.030854 
z
" clip-path="url(#p66c9d16700)" style="fill: #ffa500; fill-opacity: 0.6; stroke: #000000; stroke-linejoin: miter"/>
   </g>
   <g id="patch_26">
    <path d="M 348.709091 102111.042957 
L 358.854545 102111.042957 
L 358.854545 241.684897 
L 348.709091 241.684897 
z
" clip-path="url(#p66c9d16700)" style="fill: #ffa500; fill-opacity: 0.6; stroke: #000000; stroke-linejoin: miter"/>
   </g>
   <g id="patch_27">
    <path d="M 358.854545 102111.042957 
L 369 102111.042957 
L 369 257.792115 
L 358.854545 257.792115 
z
" clip-path="url(#p66c9d16700)" style="fill: #ffa500; fill-opacity: 0.6; stroke: #000000; stroke-linejoin: miter"/>
   </g>
   <g id="patch_28">
    <path d="M 369 102111.042957 
L 379.145455 102111.042957 
L 379.145455 256.059635 
L 369 256.059635 
z
" clip-path="url(#p66c9d16700)" style="fill: #ffa500; fill-opacity: 0.6; stroke: #000000; stroke-linejoin: miter"/>
   </g>
   <g id="patch_29">
    <path d="M 379.145455 102111.042957 
L 389.290909 102111.042957 
L 389.290909 263.438841 
L 379.145455 263.438841 
z
" clip-path="url(#p66c9d16700)" style="fill: #ffa500; fill-opacity: 0.6; stroke: #000000; stroke-linejoin: miter"/>
   </g>
   <g id="patch_30">
    <path d="M 389.290909 102111.042957 
L 399.436364 102111.042957 
L 399.436364 261.475293 
L 389.290909 261.475293 
z
" clip-path="url(#p66c9d16700)" style="fill: #ffa500; fill-opacity: 0.6; stroke: #000000; stroke-linejoin: miter"/>
   </g>
   <g id="patch_31">
    <path d="M 399.436364 102111.042957 
L 409.581818 102111.042957 
L 409.581818 280.356587 
L 399.436364 280.356587 
z
" clip-path="url(#p66c9d16700)" style="fill: #ffa500; fill-opacity: 0.6; stroke: #000000; stroke-linejoin: miter"/>
   </g>
   <g id="patch_32">
    <path d="M 409.581818 102111.042957 
L 419.727273 102111.042957 
L 419.727273 290.213408 
L 409.581818 290.213408 
z
" clip-path="url(#p66c9d16700)" style="fill: #ffa500; fill-opacity: 0.6; stroke: #000000; stroke-linejoin: miter"/>
   </g>
   <g id="patch_33">
    <path d="M 419.727273 102111.042957 
L 429.872727 102111.042957 
L 429.872727 280.356587 
L 419.727273 280.356587 
z
" clip-path="url(#p66c9d16700)" style="fill: #ffa500; fill-opacity: 0.6; stroke: #000000; stroke-linejoin: miter"/>
   </g>
   <g id="patch_34">
    <path d="M 429.872727 102111.042957 
L 440.018182 102111.042957 
L 440.018182 265.493749 
L 429.872727 265.493749 
z
" clip-path="url(#p66c9d16700)" style="fill: #ffa500; fill-opacity: 0.6; stroke: #000000; stroke-linejoin: miter"/>
   </g>
   <g id="patch_35">
    <path d="M 440.018182 102111.042957 
L 450.163636 102111.042957 
L 450.163636 280.356587 
L 440.018182 280.356587 
z
" clip-path="url(#p66c9d16700)" style="fill: #ffa500; fill-opacity: 0.6; stroke: #000000; stroke-linejoin: miter"/>
   </g>
   <g id="patch_36">
    <path d="M 450.163636 102111.042957 
L 460.309091 102111.042957 
L 460.309091 294.056922 
L 450.163636 294.056922 
z
" clip-path="url(#p66c9d16700)" style="fill: #ffa500; fill-opacity: 0.6; stroke: #000000; stroke-linejoin: miter"/>
   </g>
   <g id="patch_37">
    <path d="M 460.309091 102111.042957 
L 470.454545 102111.042957 
L 470.454545 280.356587 
L 460.309091 280.356587 
z
" clip-path="url(#p66c9d16700)" style="fill: #ffa500; fill-opacity: 0.6; stroke: #000000; stroke-linejoin: miter"/>
   </g>
   <g id="patch_38">
    <path d="M 470.454545 102111.042957 
L 480.6 102111.042957 
L 480.6 294.056922 
L 470.454545 294.056922 
z
" clip-path="url(#p66c9d16700)" style="fill: #ffa500; fill-opacity: 0.6; stroke: #000000; stroke-linejoin: miter"/>
   </g>
   <g id="patch_39">
    <path d="M 480.6 102111.042957 
L 490.745455 102111.042957 
L 490.745455 283.404178 
L 480.6 283.404178 
z
" clip-path="url(#p66c9d16700)" style="fill: #ffa500; fill-opacity: 0.6; stroke: #000000; stroke-linejoin: miter"/>
   </g>
   <g id="patch_40">
    <path d="M 490.745455 102111.042957 
L 500.890909 102111.042957 
L 500.890909 294.056922 
L 490.745455 294.056922 
z
" clip-path="url(#p66c9d16700)" style="fill: #ffa500; fill-opacity: 0.6; stroke: #000000; stroke-linejoin: miter"/>
   </g>
   <g id="patch_41">
    <path d="M 500.890909 102111.042957 
L 511.036364 102111.042957 
L 511.036364 298.267017 
L 500.890909 298.267017 
z
" clip-path="url(#p66c9d16700)" style="fill: #ffa500; fill-opacity: 0.6; stroke: #000000; stroke-linejoin: miter"/>
   </g>
   <g id="patch_42">
    <path d="M 511.036364 102111.042957 
L 521.181818 102111.042957 
L 521.181818 314.02226 
L 511.036364 314.02226 
z
" clip-path="url(#p66c9d16700)" style="fill: #ffa500; fill-opacity: 0.6; stroke: #000000; stroke-linejoin: miter"/>
   </g>
   <g id="patch_43">
    <path d="M 521.181818 102111.042957 
L 531.327273 102111.042957 
L 531.327273 320.831489 
L 521.181818 320.831489 
z
" clip-path="url(#p66c9d16700)" style="fill: #ffa500; fill-opacity: 0.6; stroke: #000000; stroke-linejoin: miter"/>
   </g>
   <g id="patch_44">
    <path d="M 531.327273 102111.042957 
L 541.472727 102111.042957 
L 541.472727 314.02226 
L 531.327273 314.02226 
z
" clip-path="url(#p66c9d16700)" style="fill: #ffa500; fill-opacity: 0.6; stroke: #000000; stroke-linejoin: miter"/>
   </g>
   <g id="patch_45">
    <path d="M 541.472727 102111.042957 
L 551.618182 102111.042957 
L 551.618182 308.123837 
L 541.472727 308.123837 
z
" clip-path="url(#p66c9d16700)" style="fill: #ffa500; fill-opacity: 0.6; stroke: #000000; stroke-linejoin: miter"/>
   </g>
   <g id="patch_46">
    <path d="M 551.618182 102111.042957 
L 561.763636 102111.042957 
L 561.763636 298.267017 
L 551.618182 298.267017 
z
" clip-path="url(#p66c9d16700)" style="fill: #ffa500; fill-opacity: 0.6; stroke: #000000; stroke-linejoin: miter"/>
   </g>
   <g id="patch_47">
    <path d="M 561.763636 102111.042957 
L 571.909091 102111.042957 
L 571.909091 314.02226 
L 561.763636 314.02226 
z
" clip-path="url(#p66c9d16700)" style="fill: #ffa500; fill-opacity: 0.6; stroke: #000000; stroke-linejoin: miter"/>
   </g>
   <g id="patch_48">
    <path d="M 571.909091 102111.042957 
L 582.054545 102111.042957 
L 582.054545 351.449571 
L 571.909091 351.449571 
z
" clip-path="url(#p66c9d16700)" style="fill: #ffa500; fill-opacity: 0.6; stroke: #000000; stroke-linejoin: miter"/>
   </g>
   <g id="patch_49">
    <path d="M 582.054545 102111.042957 
L 592.2 102111.042957 
L 592.2 328.885098 
L 582.054545 328.885098 
z
" clip-path="url(#p66c9d16700)" style="fill: #ffa500; fill-opacity: 0.6; stroke: #000000; stroke-linejoin: miter"/>
   </g>
   <g id="patch_50">
    <path d="M 592.2 102111.042957 
L 602.345455 102111.042957 
L 602.345455 369.36 
L 592.2 369.36 
z
" clip-path="url(#p66c9d16700)" style="fill: #ffa500; fill-opacity: 0.6; stroke: #000000; stroke-linejoin: miter"/>
   </g>
   <g id="patch_51">
    <path d="M 602.345455 102111.042957 
L 612.490909 102111.042957 
L 612.490909 351.449571 
L 602.345455 351.449571 
z
" clip-path="url(#p66c9d16700)" style="fill: #ffa500; fill-opacity: 0.6; stroke: #000000; stroke-linejoin: miter"/>
   </g>
   <g id="patch_52">
    <path d="M 612.490909 102111.042957 
L 622.636364 102111.042957 
L 622.636364 217.672014 
L 612.490909 217.672014 
z
" clip-path="url(#p66c9d16700)" style="fill: #ffa500; fill-opacity: 0.6; stroke: #000000; stroke-linejoin: miter"/>
   </g>
   <g id="patch_53">
    <path d="M 115.363636 102111.042957 
L 125.509091 102111.042957 
L 125.509091 97.719283 
L 115.363636 97.719283 
z
" clip-path="url(#p66c9d16700)" style="fill: #00ffff; fill-opacity: 0.4; stroke: #000000; stroke-linejoin: miter"/>
   </g>
   <g id="patch_54">
    <path d="M 125.509091 102111.042957 
L 135.654545 102111.042957 
L 135.654545 109.233219 
L 125.509091 109.233219 
z
" clip-path="url(#p66c9d16700)" style="fill: #00ffff; fill-opacity: 0.4; stroke: #000000; stroke-linejoin: miter"/>
   </g>
   <g id="patch_55">
    <path d="M 135.654545 102111.042957 
L 145.8 102111.042957 
L 145.8 116.246857 
L 135.654545 116.246857 
z
" clip-path="url(#p66c9d16700)" style="fill: #00ffff; fill-opacity: 0.4; stroke: #000000; stroke-linejoin: miter"/>
   </g>
   <g id="patch_56">
    <path d="M 145.8 102111.042957 
L 155.945455 102111.042957 
L 155.945455 128.763698 
L 145.8 128.763698 
z
" clip-path="url(#p66c9d16700)" style="fill: #00ffff; fill-opacity: 0.4; stroke: #000000; stroke-linejoin: miter"/>
   </g>
   <g id="patch_57">
    <path d="M 155.945455 102111.042957 
L 166.090909 102111.042957 
L 166.090909 129.242279 
L 155.945455 129.242279 
z
" clip-path="url(#p66c9d16700)" style="fill: #00ffff; fill-opacity: 0.4; stroke: #000000; stroke-linejoin: miter"/>
   </g>
   <g id="patch_58">
    <path d="M 166.090909 102111.042957 
L 176.236364 102111.042957 
L 176.236364 144.220752 
L 166.090909 144.220752 
z
" clip-path="url(#p66c9d16700)" style="fill: #00ffff; fill-opacity: 0.4; stroke: #000000; stroke-linejoin: miter"/>
   </g>
   <g id="patch_59">
    <path d="M 176.236364 102111.042957 
L 186.381818 102111.042957 
L 186.381818 156.793526 
L 176.236364 156.793526 
z
" clip-path="url(#p66c9d16700)" style="fill: #00ffff; fill-opacity: 0.4; stroke: #000000; stroke-linejoin: miter"/>
   </g>
   <g id="patch_60">
    <path d="M 186.381818 102111.042957 
L 196.527273 102111.042957 
L 196.527273 166.159287 
L 186.381818 166.159287 
z
" clip-path="url(#p66c9d16700)" style="fill: #00ffff; fill-opacity: 0.4; stroke: #000000; stroke-linejoin: miter"/>
   </g>
   <g id="patch_61">
    <path d="M 196.527273 102111.042957 
L 206.672727 102111.042957 
L 206.672727 166.159287 
L 196.527273 166.159287 
z
" clip-path="url(#p66c9d16700)" style="fill: #00ffff; fill-opacity: 0.4; stroke: #000000; stroke-linejoin: miter"/>
   </g>
   <g id="patch_62">
    <path d="M 206.672727 102111.042957 
L 216.818182 102111.042957 
L 216.818182 176.630789 
L 206.672727 176.630789 
z
" clip-path="url(#p66c9d16700)" style="fill: #00ffff; fill-opacity: 0.4; stroke: #000000; stroke-linejoin: miter"/>
   </g>
   <g id="patch_63">
    <path d="M 216.818182 102111.042957 
L 226.963636 102111.042957 
L 226.963636 181.066542 
L 216.818182 181.066542 
z
" clip-path="url(#p66c9d16700)" style="fill: #00ffff; fill-opacity: 0.4; stroke: #000000; stroke-linejoin: miter"/>
   </g>
   <g id="patch_64">
    <path d="M 226.963636 102111.042957 
L 237.109091 102111.042957 
L 237.109091 189.620695 
L 226.963636 189.620695 
z
" clip-path="url(#p66c9d16700)" style="fill: #00ffff; fill-opacity: 0.4; stroke: #000000; stroke-linejoin: miter"/>
   </g>
   <g id="patch_65">
    <path d="M 237.109091 102111.042957 
L 247.254545 102111.042957 
L 247.254545 195.681219 
L 237.109091 195.681219 
z
" clip-path="url(#p66c9d16700)" style="fill: #00ffff; fill-opacity: 0.4; stroke: #000000; stroke-linejoin: miter"/>
   </g>
   <g id="patch_66">
    <path d="M 247.254545 102111.042957 
L 257.4 102111.042957 
L 257.4 196.999901 
L 247.254545 196.999901 
z
" clip-path="url(#p66c9d16700)" style="fill: #00ffff; fill-opacity: 0.4; stroke: #000000; stroke-linejoin: miter"/>
   </g>
   <g id="patch_67">
    <path d="M 257.4 102111.042957 
L 267.545455 102111.042957 
L 267.545455 216.269593 
L 257.4 216.269593 
z
" clip-path="url(#p66c9d16700)" style="fill: #00ffff; fill-opacity: 0.4; stroke: #000000; stroke-linejoin: miter"/>
   </g>
   <g id="patch_68">
    <path d="M 267.545455 102111.042957 
L 277.690909 102111.042957 
L 277.690909 213.591649 
L 267.545455 213.591649 
z
" clip-path="url(#p66c9d16700)" style="fill: #00ffff; fill-opacity: 0.4; stroke: #000000; stroke-linejoin: miter"/>
   </g>
   <g id="patch_69">
    <path d="M 277.690909 102111.042957 
L 287.836364 102111.042957 
L 287.836364 228.977245 
L 277.690909 228.977245 
z
" clip-path="url(#p66c9d16700)" style="fill: #00ffff; fill-opacity: 0.4; stroke: #000000; stroke-linejoin: miter"/>
   </g>
   <g id="patch_70">
    <path d="M 287.836364 102111.042957 
L 297.981818 102111.042957 
L 297.981818 220.617942 
L 287.836364 220.617942 
z
" clip-path="url(#p66c9d16700)" style="fill: #00ffff; fill-opacity: 0.4; stroke: #000000; stroke-linejoin: miter"/>
   </g>
   <g id="patch_71">
    <path d="M 297.981818 102111.042957 
L 308.127273 102111.042957 
L 308.127273 233.836265 
L 297.981818 233.836265 
z
" clip-path="url(#p66c9d16700)" style="fill: #00ffff; fill-opacity: 0.4; stroke: #000000; stroke-linejoin: miter"/>
   </g>
   <g id="patch_72">
    <path d="M 308.127273 102111.042957 
L 318.272727 102111.042957 
L 318.272727 237.030854 
L 308.127273 237.030854 
z
" clip-path="url(#p66c9d16700)" style="fill: #00ffff; fill-opacity: 0.4; stroke: #000000; stroke-linejoin: miter"/>
   </g>
   <g id="patch_73">
    <path d="M 318.272727 102111.042957 
L 328.418182 102111.042957 
L 328.418182 244.20973 
L 318.272727 244.20973 
z
" clip-path="url(#p66c9d16700)" style="fill: #00ffff; fill-opacity: 0.4; stroke: #000000; stroke-linejoin: miter"/>
   </g>
   <g id="patch_74">
    <path d="M 328.418182 102111.042957 
L 338.563636 102111.042957 
L 338.563636 233.836265 
L 328.418182 233.836265 
z
" clip-path="url(#p66c9d16700)" style="fill: #00ffff; fill-opacity: 0.4; stroke: #000000; stroke-linejoin: miter"/>
   </g>
   <g id="patch_75">
    <path d="M 338.563636 102111.042957 
L 348.709091 102111.042957 
L 348.709091 246.887674 
L 338.563636 246.887674 
z
" clip-path="url(#p66c9d16700)" style="fill: #00ffff; fill-opacity: 0.4; stroke: #000000; stroke-linejoin: miter"/>
   </g>
   <g id="patch_76">
    <path d="M 348.709091 102111.042957 
L 358.854545 102111.042957 
L 358.854545 245.528412 
L 348.709091 245.528412 
z
" clip-path="url(#p66c9d16700)" style="fill: #00ffff; fill-opacity: 0.4; stroke: #000000; stroke-linejoin: miter"/>
   </g>
   <g id="patch_77">
    <path d="M 358.854545 102111.042957 
L 369 102111.042957 
L 369 259.595326 
L 358.854545 259.595326 
z
" clip-path="url(#p66c9d16700)" style="fill: #00ffff; fill-opacity: 0.4; stroke: #000000; stroke-linejoin: miter"/>
   </g>
   <g id="patch_78">
    <path d="M 369 102111.042957 
L 379.145455 102111.042957 
L 379.145455 261.475293 
L 369 261.475293 
z
" clip-path="url(#p66c9d16700)" style="fill: #00ffff; fill-opacity: 0.4; stroke: #000000; stroke-linejoin: miter"/>
   </g>
   <g id="patch_79">
    <path d="M 379.145455 102111.042957 
L 389.290909 102111.042957 
L 389.290909 274.827811 
L 379.145455 274.827811 
z
" clip-path="url(#p66c9d16700)" style="fill: #00ffff; fill-opacity: 0.4; stroke: #000000; stroke-linejoin: miter"/>
   </g>
   <g id="patch_80">
    <path d="M 389.290909 102111.042957 
L 399.436364 102111.042957 
L 399.436364 277.505756 
L 389.290909 277.505756 
z
" clip-path="url(#p66c9d16700)" style="fill: #00ffff; fill-opacity: 0.4; stroke: #000000; stroke-linejoin: miter"/>
   </g>
   <g id="patch_81">
    <path d="M 399.436364 102111.042957 
L 409.581818 102111.042957 
L 409.581818 283.404178 
L 399.436364 283.404178 
z
" clip-path="url(#p66c9d16700)" style="fill: #00ffff; fill-opacity: 0.4; stroke: #000000; stroke-linejoin: miter"/>
   </g>
   <g id="patch_82">
    <path d="M 409.581818 102111.042957 
L 419.727273 102111.042957 
L 419.727273 277.505756 
L 409.581818 277.505756 
z
" clip-path="url(#p66c9d16700)" style="fill: #00ffff; fill-opacity: 0.4; stroke: #000000; stroke-linejoin: miter"/>
   </g>
   <g id="patch_83">
    <path d="M 419.727273 102111.042957 
L 429.872727 102111.042957 
L 429.872727 286.677717 
L 419.727273 286.677717 
z
" clip-path="url(#p66c9d16700)" style="fill: #00ffff; fill-opacity: 0.4; stroke: #000000; stroke-linejoin: miter"/>
   </g>
   <g id="patch_84">
    <path d="M 429.872727 102111.042957 
L 440.018182 102111.042957 
L 440.018182 290.213408 
L 429.872727 290.213408 
z
" clip-path="url(#p66c9d16700)" style="fill: #00ffff; fill-opacity: 0.4; stroke: #000000; stroke-linejoin: miter"/>
   </g>
   <g id="patch_85">
    <path d="M 440.018182 102111.042957 
L 450.163636 102111.042957 
L 450.163636 290.213408 
L 440.018182 290.213408 
z
" clip-path="url(#p66c9d16700)" style="fill: #00ffff; fill-opacity: 0.4; stroke: #000000; stroke-linejoin: miter"/>
   </g>
   <g id="patch_86">
    <path d="M 450.163636 102111.042957 
L 460.309091 102111.042957 
L 460.309091 308.123837 
L 450.163636 308.123837 
z
" clip-path="url(#p66c9d16700)" style="fill: #00ffff; fill-opacity: 0.4; stroke: #000000; stroke-linejoin: miter"/>
   </g>
   <g id="patch_87">
    <path d="M 460.309091 102111.042957 
L 470.454545 102111.042957 
L 470.454545 308.123837 
L 460.309091 308.123837 
z
" clip-path="url(#p66c9d16700)" style="fill: #00ffff; fill-opacity: 0.4; stroke: #000000; stroke-linejoin: miter"/>
   </g>
   <g id="patch_88">
    <path d="M 470.454545 102111.042957 
L 480.6 102111.042957 
L 480.6 294.056922 
L 470.454545 294.056922 
z
" clip-path="url(#p66c9d16700)" style="fill: #00ffff; fill-opacity: 0.4; stroke: #000000; stroke-linejoin: miter"/>
   </g>
   <g id="patch_89">
    <path d="M 480.6 102111.042957 
L 490.745455 102111.042957 
L 490.745455 308.123837 
L 480.6 308.123837 
z
" clip-path="url(#p66c9d16700)" style="fill: #00ffff; fill-opacity: 0.4; stroke: #000000; stroke-linejoin: miter"/>
   </g>
   <g id="patch_90">
    <path d="M 490.745455 102111.042957 
L 500.890909 102111.042957 
L 500.890909 308.123837 
L 490.745455 308.123837 
z
" clip-path="url(#p66c9d16700)" style="fill: #00ffff; fill-opacity: 0.4; stroke: #000000; stroke-linejoin: miter"/>
   </g>
   <g id="patch_91">
    <path d="M 500.890909 102111.042957 
L 511.036364 102111.042957 
L 511.036364 308.123837 
L 500.890909 308.123837 
z
" clip-path="url(#p66c9d16700)" style="fill: #00ffff; fill-opacity: 0.4; stroke: #000000; stroke-linejoin: miter"/>
   </g>
   <g id="patch_92">
    <path d="M 511.036364 102111.042957 
L 521.181818 102111.042957 
L 521.181818 338.741919 
L 511.036364 338.741919 
z
" clip-path="url(#p66c9d16700)" style="fill: #00ffff; fill-opacity: 0.4; stroke: #000000; stroke-linejoin: miter"/>
   </g>
   <g id="patch_93">
    <path d="M 521.181818 102111.042957 
L 531.327273 102111.042957 
L 531.327273 314.02226 
L 521.181818 314.02226 
z
" clip-path="url(#p66c9d16700)" style="fill: #00ffff; fill-opacity: 0.4; stroke: #000000; stroke-linejoin: miter"/>
   </g>
   <g id="patch_94">
    <path d="M 531.327273 102111.042957 
L 541.472727 102111.042957 
L 541.472727 308.123837 
L 531.327273 308.123837 
z
" clip-path="url(#p66c9d16700)" style="fill: #00ffff; fill-opacity: 0.4; stroke: #000000; stroke-linejoin: miter"/>
   </g>
   <g id="patch_95">
    <path d="M 541.472727 102111.042957 
L 551.618182 102111.042957 
L 551.618182 320.831489 
L 541.472727 320.831489 
z
" clip-path="url(#p66c9d16700)" style="fill: #00ffff; fill-opacity: 0.4; stroke: #000000; stroke-linejoin: miter"/>
   </g>
   <g id="patch_96">
    <path d="M 551.618182 102111.042957 
L 561.763636 102111.042957 
L 561.763636 338.741919 
L 551.618182 338.741919 
z
" clip-path="url(#p66c9d16700)" style="fill: #00ffff; fill-opacity: 0.4; stroke: #000000; stroke-linejoin: miter"/>
   </g>
   <g id="patch_97">
    <path d="M 561.763636 102111.042957 
L 571.909091 102111.042957 
L 571.909091 338.741919 
L 561.763636 338.741919 
z
" clip-path="url(#p66c9d16700)" style="fill: #00ffff; fill-opacity: 0.4; stroke: #000000; stroke-linejoin: miter"/>
   </g>
   <g id="patch_98">
    <path d="M 571.909091 102111.042957 
L 582.054545 102111.042957 
L 582.054545 298.267017 
L 571.909091 298.267017 
z
" clip-path="url(#p66c9d16700)" style="fill: #00ffff; fill-opacity: 0.4; stroke: #000000; stroke-linejoin: miter"/>
   </g>
   <g id="patch_99">
    <path d="M 582.054545 102111.042957 
L 592.2 102111.042957 
L 592.2 314.02226 
L 582.054545 314.02226 
z
" clip-path="url(#p66c9d16700)" style="fill: #00ffff; fill-opacity: 0.4; stroke: #000000; stroke-linejoin: miter"/>
   </g>
   <g id="patch_100">
    <path d="M 592.2 102111.042957 
L 602.345455 102111.042957 
L 602.345455 369.36 
L 592.2 369.36 
z
" clip-path="url(#p66c9d16700)" style="fill: #00ffff; fill-opacity: 0.4; stroke: #000000; stroke-linejoin: miter"/>
   </g>
   <g id="patch_101">
    <path d="M 602.345455 102111.042957 
L 612.490909 102111.042957 
L 612.490909 338.741919 
L 602.345455 338.741919 
z
" clip-path="url(#p66c9d16700)" style="fill: #00ffff; fill-opacity: 0.4; stroke: #000000; stroke-linejoin: miter"/>
   </g>
   <g id="patch_102">
    <path d="M 612.490909 102111.042957 
L 622.636364 102111.042957 
L 622.636364 220.617942 
L 612.490909 220.617942 
z
" clip-path="url(#p66c9d16700)" style="fill: #00ffff; fill-opacity: 0.4; stroke: #000000; stroke-linejoin: miter"/>
   </g>
   <g id="matplotlib.axis_1">
    <g id="xtick_1">
     <g id="line2d_1">
      <path d="M 115.363636 384.48 
L 115.363636 51.84 
" clip-path="url(#p66c9d16700)" style="fill: none; stroke: #b0b0b0; stroke-opacity: 0.3; stroke-width: 0.8; stroke-linecap: square"/>
     </g>
     <g id="line2d_2">
      <defs>
       <path id="m380579599c" d="M 0 0 
L 0 3.5 
" style="stroke: #000000; stroke-width: 0.8"/>
      </defs>
      <g>
       <use xlink:href="#m380579599c" x="115.363636" y="384.48" style="stroke: #000000; stroke-width: 0.8"/>
      </g>
     </g>
     <g id="text_1">
      <!-- 0 -->
      <g transform="translate(111.188949 400.598125) scale(0.12 -0.12)">
       <defs>
        <path id="DejaVuSans-Bold-30" d="M 2944 2338 
Q 2944 3213 2780 3570 
Q 2616 3928 2228 3928 
Q 1841 3928 1675 3570 
Q 1509 3213 1509 2338 
Q 1509 1453 1675 1090 
Q 1841 728 2228 728 
Q 2613 728 2778 1090 
Q 2944 1453 2944 2338 
z
M 4147 2328 
Q 4147 1169 3647 539 
Q 3147 -91 2228 -91 
Q 1306 -91 806 539 
Q 306 1169 306 2328 
Q 306 3491 806 4120 
Q 1306 4750 2228 4750 
Q 3147 4750 3647 4120 
Q 4147 3491 4147 2328 
z
" transform="scale(0.015625)"/>
       </defs>
       <use xlink:href="#DejaVuSans-Bold-30"/>
      </g>
     </g>
    </g>
    <g id="xtick_2">
     <g id="line2d_3">
      <path d="M 216.818182 384.48 
L 216.818182 51.84 
" clip-path="url(#p66c9d16700)" style="fill: none; stroke: #b0b0b0; stroke-opacity: 0.3; stroke-width: 0.8; stroke-linecap: square"/>
     </g>
     <g id="line2d_4">
      <g>
       <use xlink:href="#m380579599c" x="216.818182" y="384.48" style="stroke: #000000; stroke-width: 0.8"/>
      </g>
     </g>
     <g id="text_2">
      <!-- 2 -->
      <g transform="translate(212.643494 400.598125) scale(0.12 -0.12)">
       <defs>
        <path id="DejaVuSans-Bold-32" d="M 1844 884 
L 3897 884 
L 3897 0 
L 506 0 
L 506 884 
L 2209 2388 
Q 2438 2594 2547 2791 
Q 2656 2988 2656 3200 
Q 2656 3528 2436 3728 
Q 2216 3928 1850 3928 
Q 1569 3928 1234 3808 
Q 900 3688 519 3450 
L 519 4475 
Q 925 4609 1322 4679 
Q 1719 4750 2100 4750 
Q 2938 4750 3402 4381 
Q 3866 4013 3866 3353 
Q 3866 2972 3669 2642 
Q 3472 2313 2841 1759 
L 1844 884 
z
" transform="scale(0.015625)"/>
       </defs>
       <use xlink:href="#DejaVuSans-Bold-32"/>
      </g>
     </g>
    </g>
    <g id="xtick_3">
     <g id="line2d_5">
      <path d="M 318.272727 384.48 
L 318.272727 51.84 
" clip-path="url(#p66c9d16700)" style="fill: none; stroke: #b0b0b0; stroke-opacity: 0.3; stroke-width: 0.8; stroke-linecap: square"/>
     </g>
     <g id="line2d_6">
      <g>
       <use xlink:href="#m380579599c" x="318.272727" y="384.48" style="stroke: #000000; stroke-width: 0.8"/>
      </g>
     </g>
     <g id="text_3">
      <!-- 4 -->
      <g transform="translate(314.09804 400.598125) scale(0.12 -0.12)">
       <defs>
        <path id="DejaVuSans-Bold-34" d="M 2356 3675 
L 1038 1722 
L 2356 1722 
L 2356 3675 
z
M 2156 4666 
L 3494 4666 
L 3494 1722 
L 4159 1722 
L 4159 850 
L 3494 850 
L 3494 0 
L 2356 0 
L 2356 850 
L 288 850 
L 288 1881 
L 2156 4666 
z
" transform="scale(0.015625)"/>
       </defs>
       <use xlink:href="#DejaVuSans-Bold-34"/>
      </g>
     </g>
    </g>
    <g id="xtick_4">
     <g id="line2d_7">
      <path d="M 419.727273 384.48 
L 419.727273 51.84 
" clip-path="url(#p66c9d16700)" style="fill: none; stroke: #b0b0b0; stroke-opacity: 0.3; stroke-width: 0.8; stroke-linecap: square"/>
     </g>
     <g id="line2d_8">
      <g>
       <use xlink:href="#m380579599c" x="419.727273" y="384.48" style="stroke: #000000; stroke-width: 0.8"/>
      </g>
     </g>
     <g id="text_4">
      <!-- 6 -->
      <g transform="translate(415.552585 400.598125) scale(0.12 -0.12)">
       <defs>
        <path id="DejaVuSans-Bold-36" d="M 2316 2303 
Q 2000 2303 1842 2098 
Q 1684 1894 1684 1484 
Q 1684 1075 1842 870 
Q 2000 666 2316 666 
Q 2634 666 2792 870 
Q 2950 1075 2950 1484 
Q 2950 1894 2792 2098 
Q 2634 2303 2316 2303 
z
M 3803 4544 
L 3803 3681 
Q 3506 3822 3243 3889 
Q 2981 3956 2731 3956 
Q 2194 3956 1894 3657 
Q 1594 3359 1544 2772 
Q 1750 2925 1990 3001 
Q 2231 3078 2516 3078 
Q 3231 3078 3670 2659 
Q 4109 2241 4109 1563 
Q 4109 813 3618 361 
Q 3128 -91 2303 -91 
Q 1394 -91 895 523 
Q 397 1138 397 2266 
Q 397 3422 980 4083 
Q 1563 4744 2578 4744 
Q 2900 4744 3203 4694 
Q 3506 4644 3803 4544 
z
" transform="scale(0.015625)"/>
       </defs>
       <use xlink:href="#DejaVuSans-Bold-36"/>
      </g>
     </g>
    </g>
    <g id="xtick_5">
     <g id="line2d_9">
      <path d="M 521.181818 384.48 
L 521.181818 51.84 
" clip-path="url(#p66c9d16700)" style="fill: none; stroke: #b0b0b0; stroke-opacity: 0.3; stroke-width: 0.8; stroke-linecap: square"/>
     </g>
     <g id="line2d_10">
      <g>
       <use xlink:href="#m380579599c" x="521.181818" y="384.48" style="stroke: #000000; stroke-width: 0.8"/>
      </g>
     </g>
     <g id="text_5">
      <!-- 8 -->
      <g transform="translate(517.007131 400.598125) scale(0.12 -0.12)">
       <defs>
        <path id="DejaVuSans-Bold-38" d="M 2228 2088 
Q 1891 2088 1709 1903 
Q 1528 1719 1528 1375 
Q 1528 1031 1709 848 
Q 1891 666 2228 666 
Q 2563 666 2741 848 
Q 2919 1031 2919 1375 
Q 2919 1722 2741 1905 
Q 2563 2088 2228 2088 
z
M 1350 2484 
Q 925 2613 709 2878 
Q 494 3144 494 3541 
Q 494 4131 934 4440 
Q 1375 4750 2228 4750 
Q 3075 4750 3515 4442 
Q 3956 4134 3956 3541 
Q 3956 3144 3739 2878 
Q 3522 2613 3097 2484 
Q 3572 2353 3814 2058 
Q 4056 1763 4056 1313 
Q 4056 619 3595 264 
Q 3134 -91 2228 -91 
Q 1319 -91 855 264 
Q 391 619 391 1313 
Q 391 1763 633 2058 
Q 875 2353 1350 2484 
z
M 1631 3419 
Q 1631 3141 1786 2991 
Q 1941 2841 2228 2841 
Q 2509 2841 2662 2991 
Q 2816 3141 2816 3419 
Q 2816 3697 2662 3845 
Q 2509 3994 2228 3994 
Q 1941 3994 1786 3844 
Q 1631 3694 1631 3419 
z
" transform="scale(0.015625)"/>
       </defs>
       <use xlink:href="#DejaVuSans-Bold-38"/>
      </g>
     </g>
    </g>
    <g id="xtick_6">
     <g id="line2d_11">
      <path d="M 622.636364 384.48 
L 622.636364 51.84 
" clip-path="url(#p66c9d16700)" style="fill: none; stroke: #b0b0b0; stroke-opacity: 0.3; stroke-width: 0.8; stroke-linecap: square"/>
     </g>
     <g id="line2d_12">
      <g>
       <use xlink:href="#m380579599c" x="622.636364" y="384.48" style="stroke: #000000; stroke-width: 0.8"/>
      </g>
     </g>
     <g id="text_6">
      <!-- 10 -->
      <g transform="translate(614.286989 400.598125) scale(0.12 -0.12)">
       <defs>
        <path id="DejaVuSans-Bold-31" d="M 750 831 
L 1813 831 
L 1813 3847 
L 722 3622 
L 722 4441 
L 1806 4666 
L 2950 4666 
L 2950 831 
L 4013 831 
L 4013 0 
L 750 0 
L 750 831 
z
" transform="scale(0.015625)"/>
       </defs>
       <use xlink:href="#DejaVuSans-Bold-31"/>
       <use xlink:href="#DejaVuSans-Bold-30" transform="translate(69.580078 0)"/>
      </g>
     </g>
    </g>
    <g id="text_7">
     <!-- Score (0-10) -->
     <g transform="translate(320.448438 417.731562) scale(0.14 -0.14)">
      <defs>
       <path id="DejaVuSans-Bold-53" d="M 3834 4519 
L 3834 3531 
Q 3450 3703 3084 3790 
Q 2719 3878 2394 3878 
Q 1963 3878 1756 3759 
Q 1550 3641 1550 3391 
Q 1550 3203 1689 3098 
Q 1828 2994 2194 2919 
L 2706 2816 
Q 3484 2659 3812 2340 
Q 4141 2022 4141 1434 
Q 4141 663 3683 286 
Q 3225 -91 2284 -91 
Q 1841 -91 1394 -6 
Q 947 78 500 244 
L 500 1259 
Q 947 1022 1364 901 
Q 1781 781 2169 781 
Q 2563 781 2772 912 
Q 2981 1044 2981 1288 
Q 2981 1506 2839 1625 
Q 2697 1744 2272 1838 
L 1806 1941 
Q 1106 2091 782 2419 
Q 459 2747 459 3303 
Q 459 4000 909 4375 
Q 1359 4750 2203 4750 
Q 2588 4750 2994 4692 
Q 3400 4634 3834 4519 
z
" transform="scale(0.015625)"/>
       <path id="DejaVuSans-Bold-63" d="M 3366 3391 
L 3366 2478 
Q 3138 2634 2908 2709 
Q 2678 2784 2431 2784 
Q 1963 2784 1702 2511 
Q 1441 2238 1441 1747 
Q 1441 1256 1702 982 
Q 1963 709 2431 709 
Q 2694 709 2930 787 
Q 3166 866 3366 1019 
L 3366 103 
Q 3103 6 2833 -42 
Q 2563 -91 2291 -91 
Q 1344 -91 809 395 
Q 275 881 275 1747 
Q 275 2613 809 3098 
Q 1344 3584 2291 3584 
Q 2566 3584 2833 3536 
Q 3100 3488 3366 3391 
z
" transform="scale(0.015625)"/>
       <path id="DejaVuSans-Bold-6f" d="M 2203 2784 
Q 1831 2784 1636 2517 
Q 1441 2250 1441 1747 
Q 1441 1244 1636 976 
Q 1831 709 2203 709 
Q 2569 709 2762 976 
Q 2956 1244 2956 1747 
Q 2956 2250 2762 2517 
Q 2569 2784 2203 2784 
z
M 2203 3584 
Q 3106 3584 3614 3096 
Q 4122 2609 4122 1747 
Q 4122 884 3614 396 
Q 3106 -91 2203 -91 
Q 1297 -91 786 396 
Q 275 884 275 1747 
Q 275 2609 786 3096 
Q 1297 3584 2203 3584 
z
" transform="scale(0.015625)"/>
       <path id="DejaVuSans-Bold-72" d="M 3138 2547 
Q 2991 2616 2845 2648 
Q 2700 2681 2553 2681 
Q 2122 2681 1889 2404 
Q 1656 2128 1656 1613 
L 1656 0 
L 538 0 
L 538 3500 
L 1656 3500 
L 1656 2925 
Q 1872 3269 2151 3426 
Q 2431 3584 2822 3584 
Q 2878 3584 2943 3579 
Q 3009 3575 3134 3559 
L 3138 2547 
z
" transform="scale(0.015625)"/>
       <path id="DejaVuSans-Bold-65" d="M 4031 1759 
L 4031 1441 
L 1416 1441 
Q 1456 1047 1700 850 
Q 1944 653 2381 653 
Q 2734 653 3104 758 
Q 3475 863 3866 1075 
L 3866 213 
Q 3469 63 3072 -14 
Q 2675 -91 2278 -91 
Q 1328 -91 801 392 
Q 275 875 275 1747 
Q 275 2603 792 3093 
Q 1309 3584 2216 3584 
Q 3041 3584 3536 3087 
Q 4031 2591 4031 1759 
z
M 2881 2131 
Q 2881 2450 2695 2645 
Q 2509 2841 2209 2841 
Q 1884 2841 1681 2658 
Q 1478 2475 1428 2131 
L 2881 2131 
z
" transform="scale(0.015625)"/>
       <path id="DejaVuSans-Bold-20" transform="scale(0.015625)"/>
       <path id="DejaVuSans-Bold-28" d="M 2413 -844 
L 1484 -844 
Q 1006 -72 778 623 
Q 550 1319 550 2003 
Q 550 2688 779 3389 
Q 1009 4091 1484 4856 
L 2413 4856 
Q 2013 4116 1813 3408 
Q 1613 2700 1613 2009 
Q 1613 1319 1811 609 
Q 2009 -100 2413 -844 
z
" transform="scale(0.015625)"/>
       <path id="DejaVuSans-Bold-2d" d="M 347 2297 
L 2309 2297 
L 2309 1388 
L 347 1388 
L 347 2297 
z
" transform="scale(0.015625)"/>
       <path id="DejaVuSans-Bold-29" d="M 513 -844 
Q 913 -100 1113 609 
Q 1313 1319 1313 2009 
Q 1313 2700 1113 3408 
Q 913 4116 513 4856 
L 1441 4856 
Q 1916 4091 2145 3389 
Q 2375 2688 2375 2003 
Q 2375 1319 2147 623 
Q 1919 -72 1441 -844 
L 513 -844 
z
" transform="scale(0.015625)"/>
      </defs>
      <use xlink:href="#DejaVuSans-Bold-53"/>
      <use xlink:href="#DejaVuSans-Bold-63" transform="translate(72.021484 0)"/>
      <use xlink:href="#DejaVuSans-Bold-6f" transform="translate(131.298828 0)"/>
      <use xlink:href="#DejaVuSans-Bold-72" transform="translate(200 0)"/>
      <use xlink:href="#DejaVuSans-Bold-65" transform="translate(249.316406 0)"/>
      <use xlink:href="#DejaVuSans-Bold-20" transform="translate(317.138672 0)"/>
      <use xlink:href="#DejaVuSans-Bold-28" transform="translate(351.953125 0)"/>
      <use xlink:href="#DejaVuSans-Bold-30" transform="translate(397.65625 0)"/>
      <use xlink:href="#DejaVuSans-Bold-2d" transform="translate(467.236328 0)"/>
      <use xlink:href="#DejaVuSans-Bold-31" transform="translate(508.740234 0)"/>
      <use xlink:href="#DejaVuSans-Bold-30" transform="translate(578.320312 0)"/>
      <use xlink:href="#DejaVuSans-Bold-29" transform="translate(647.900391 0)"/>
     </g>
    </g>
   </g>
   <g id="matplotlib.axis_2">
    <g id="ytick_1">
     <g id="line2d_13">
      <path d="M 90 298.267017 
L 648 298.267017 
" clip-path="url(#p66c9d16700)" style="fill: none; stroke: #b0b0b0; stroke-opacity: 0.3; stroke-width: 0.8; stroke-linecap: square"/>
     </g>
     <g id="line2d_14">
      <defs>
       <path id="mdc7c139cd0" d="M 0 0 
L -3.5 0 
" style="stroke: #000000; stroke-width: 0.8"/>
      </defs>
      <g>
       <use xlink:href="#mdc7c139cd0" x="90" y="298.267017" style="stroke: #000000; stroke-width: 0.8"/>
      </g>
     </g>
     <g id="text_8">
      <!-- $\mathdefault{10^{1}}$ -->
      <g transform="translate(59.96 302.826079) scale(0.12 -0.12)">
       <use xlink:href="#DejaVuSans-Bold-31" transform="translate(0 0.684375)"/>
       <use xlink:href="#DejaVuSans-Bold-30" transform="translate(69.580078 0.684375)"/>
       <use xlink:href="#DejaVuSans-Bold-31" transform="translate(140.117188 38.965625) scale(0.7)"/>
      </g>
     </g>
    </g>
    <g id="ytick_2">
     <g id="line2d_15">
      <path d="M 90 196.555952 
L 648 196.555952 
" clip-path="url(#p66c9d16700)" style="fill: none; stroke: #b0b0b0; stroke-opacity: 0.3; stroke-width: 0.8; stroke-linecap: square"/>
     </g>
     <g id="line2d_16">
      <g>
       <use xlink:href="#mdc7c139cd0" x="90" y="196.555952" style="stroke: #000000; stroke-width: 0.8"/>
      </g>
     </g>
     <g id="text_9">
      <!-- $\mathdefault{10^{2}}$ -->
      <g transform="translate(59.96 201.115014) scale(0.12 -0.12)">
       <use xlink:href="#DejaVuSans-Bold-31" transform="translate(0 0.765625)"/>
       <use xlink:href="#DejaVuSans-Bold-30" transform="translate(69.580078 0.765625)"/>
       <use xlink:href="#DejaVuSans-Bold-32" transform="translate(140.117188 39.046875) scale(0.7)"/>
      </g>
     </g>
    </g>
    <g id="ytick_3">
     <g id="line2d_17">
      <path d="M 90 94.844887 
L 648 94.844887 
" clip-path="url(#p66c9d16700)" style="fill: none; stroke: #b0b0b0; stroke-opacity: 0.3; stroke-width: 0.8; stroke-linecap: square"/>
     </g>
     <g id="line2d_18">
      <g>
       <use xlink:href="#mdc7c139cd0" x="90" y="94.844887" style="stroke: #000000; stroke-width: 0.8"/>
      </g>
     </g>
     <g id="text_10">
      <!-- $\mathdefault{10^{3}}$ -->
      <g transform="translate(59.96 99.403949) scale(0.12 -0.12)">
       <defs>
        <path id="DejaVuSans-Bold-33" d="M 2981 2516 
Q 3453 2394 3698 2092 
Q 3944 1791 3944 1325 
Q 3944 631 3412 270 
Q 2881 -91 1863 -91 
Q 1503 -91 1142 -33 
Q 781 25 428 141 
L 428 1069 
Q 766 900 1098 814 
Q 1431 728 1753 728 
Q 2231 728 2486 893 
Q 2741 1059 2741 1369 
Q 2741 1688 2480 1852 
Q 2219 2016 1709 2016 
L 1228 2016 
L 1228 2791 
L 1734 2791 
Q 2188 2791 2409 2933 
Q 2631 3075 2631 3366 
Q 2631 3634 2415 3781 
Q 2200 3928 1806 3928 
Q 1516 3928 1219 3862 
Q 922 3797 628 3669 
L 628 4550 
Q 984 4650 1334 4700 
Q 1684 4750 2022 4750 
Q 2931 4750 3382 4451 
Q 3834 4153 3834 3553 
Q 3834 3144 3618 2883 
Q 3403 2622 2981 2516 
z
" transform="scale(0.015625)"/>
       </defs>
       <use xlink:href="#DejaVuSans-Bold-31" transform="translate(0 0.765625)"/>
       <use xlink:href="#DejaVuSans-Bold-30" transform="translate(69.580078 0.765625)"/>
       <use xlink:href="#DejaVuSans-Bold-33" transform="translate(140.117188 39.046875) scale(0.7)"/>
      </g>
     </g>
    </g>
    <g id="ytick_4">
     <g id="line2d_19">
      <defs>
       <path id="md874bfbfe5" d="M 0 0 
L -2 0 
" style="stroke: #000000; stroke-width: 0.6"/>
      </defs>
      <g>
       <use xlink:href="#md874bfbfe5" x="90" y="369.36" style="stroke: #000000; stroke-width: 0.6"/>
      </g>
     </g>
    </g>
    <g id="ytick_5">
     <g id="line2d_20">
      <g>
       <use xlink:href="#md874bfbfe5" x="90" y="351.449571" style="stroke: #000000; stroke-width: 0.6"/>
      </g>
     </g>
    </g>
    <g id="ytick_6">
     <g id="line2d_21">
      <g>
       <use xlink:href="#md874bfbfe5" x="90" y="338.741919" style="stroke: #000000; stroke-width: 0.6"/>
      </g>
     </g>
    </g>
    <g id="ytick_7">
     <g id="line2d_22">
      <g>
       <use xlink:href="#md874bfbfe5" x="90" y="328.885098" style="stroke: #000000; stroke-width: 0.6"/>
      </g>
     </g>
    </g>
    <g id="ytick_8">
     <g id="line2d_23">
      <g>
       <use xlink:href="#md874bfbfe5" x="90" y="320.831489" style="stroke: #000000; stroke-width: 0.6"/>
      </g>
     </g>
    </g>
    <g id="ytick_9">
     <g id="line2d_24">
      <g>
       <use xlink:href="#md874bfbfe5" x="90" y="314.02226" style="stroke: #000000; stroke-width: 0.6"/>
      </g>
     </g>
    </g>
    <g id="ytick_10">
     <g id="line2d_25">
      <g>
       <use xlink:href="#md874bfbfe5" x="90" y="308.123837" style="stroke: #000000; stroke-width: 0.6"/>
      </g>
     </g>
    </g>
    <g id="ytick_11">
     <g id="line2d_26">
      <g>
       <use xlink:href="#md874bfbfe5" x="90" y="302.92106" style="stroke: #000000; stroke-width: 0.6"/>
      </g>
     </g>
    </g>
    <g id="ytick_12">
     <g id="line2d_27">
      <g>
       <use xlink:href="#md874bfbfe5" x="90" y="267.648935" style="stroke: #000000; stroke-width: 0.6"/>
      </g>
     </g>
    </g>
    <g id="ytick_13">
     <g id="line2d_28">
      <g>
       <use xlink:href="#md874bfbfe5" x="90" y="249.738506" style="stroke: #000000; stroke-width: 0.6"/>
      </g>
     </g>
    </g>
    <g id="ytick_14">
     <g id="line2d_29">
      <g>
       <use xlink:href="#md874bfbfe5" x="90" y="237.030854" style="stroke: #000000; stroke-width: 0.6"/>
      </g>
     </g>
    </g>
    <g id="ytick_15">
     <g id="line2d_30">
      <g>
       <use xlink:href="#md874bfbfe5" x="90" y="227.174033" style="stroke: #000000; stroke-width: 0.6"/>
      </g>
     </g>
    </g>
    <g id="ytick_16">
     <g id="line2d_31">
      <g>
       <use xlink:href="#md874bfbfe5" x="90" y="219.120424" style="stroke: #000000; stroke-width: 0.6"/>
      </g>
     </g>
    </g>
    <g id="ytick_17">
     <g id="line2d_32">
      <g>
       <use xlink:href="#md874bfbfe5" x="90" y="212.311195" style="stroke: #000000; stroke-width: 0.6"/>
      </g>
     </g>
    </g>
    <g id="ytick_18">
     <g id="line2d_33">
      <g>
       <use xlink:href="#md874bfbfe5" x="90" y="206.412772" style="stroke: #000000; stroke-width: 0.6"/>
      </g>
     </g>
    </g>
    <g id="ytick_19">
     <g id="line2d_34">
      <g>
       <use xlink:href="#md874bfbfe5" x="90" y="201.209995" style="stroke: #000000; stroke-width: 0.6"/>
      </g>
     </g>
    </g>
    <g id="ytick_20">
     <g id="line2d_35">
      <g>
       <use xlink:href="#md874bfbfe5" x="90" y="165.93787" style="stroke: #000000; stroke-width: 0.6"/>
      </g>
     </g>
    </g>
    <g id="ytick_21">
     <g id="line2d_36">
      <g>
       <use xlink:href="#md874bfbfe5" x="90" y="148.027441" style="stroke: #000000; stroke-width: 0.6"/>
      </g>
     </g>
    </g>
    <g id="ytick_22">
     <g id="line2d_37">
      <g>
       <use xlink:href="#md874bfbfe5" x="90" y="135.319789" style="stroke: #000000; stroke-width: 0.6"/>
      </g>
     </g>
    </g>
    <g id="ytick_23">
     <g id="line2d_38">
      <g>
       <use xlink:href="#md874bfbfe5" x="90" y="125.462968" style="stroke: #000000; stroke-width: 0.6"/>
      </g>
     </g>
    </g>
    <g id="ytick_24">
     <g id="line2d_39">
      <g>
       <use xlink:href="#md874bfbfe5" x="90" y="117.409359" style="stroke: #000000; stroke-width: 0.6"/>
      </g>
     </g>
    </g>
    <g id="ytick_25">
     <g id="line2d_40">
      <g>
       <use xlink:href="#md874bfbfe5" x="90" y="110.60013" style="stroke: #000000; stroke-width: 0.6"/>
      </g>
     </g>
    </g>
    <g id="ytick_26">
     <g id="line2d_41">
      <g>
       <use xlink:href="#md874bfbfe5" x="90" y="104.701707" style="stroke: #000000; stroke-width: 0.6"/>
      </g>
     </g>
    </g>
    <g id="ytick_27">
     <g id="line2d_42">
      <g>
       <use xlink:href="#md874bfbfe5" x="90" y="99.49893" style="stroke: #000000; stroke-width: 0.6"/>
      </g>
     </g>
    </g>
    <g id="ytick_28">
     <g id="line2d_43">
      <g>
       <use xlink:href="#md874bfbfe5" x="90" y="64.226805" style="stroke: #000000; stroke-width: 0.6"/>
      </g>
     </g>
    </g>
    <g id="text_11">
     <!-- Frequency (Log Scale) -->
     <g transform="translate(52.939062 305.7475) rotate(-90) scale(0.14 -0.14)">
      <defs>
       <path id="DejaVuSans-Bold-46" d="M 588 4666 
L 3834 4666 
L 3834 3756 
L 1791 3756 
L 1791 2888 
L 3713 2888 
L 3713 1978 
L 1791 1978 
L 1791 0 
L 588 0 
L 588 4666 
z
" transform="scale(0.015625)"/>
       <path id="DejaVuSans-Bold-71" d="M 2181 2772 
Q 1825 2772 1636 2509 
Q 1447 2247 1447 1747 
Q 1447 1247 1636 984 
Q 1825 722 2181 722 
Q 2541 722 2730 984 
Q 2919 1247 2919 1747 
Q 2919 2247 2730 2509 
Q 2541 2772 2181 2772 
z
M 2919 506 
Q 2688 197 2409 53 
Q 2131 -91 1766 -91 
Q 1119 -91 703 423 
Q 288 938 288 1747 
Q 288 2556 703 3067 
Q 1119 3578 1766 3578 
Q 2131 3578 2409 3434 
Q 2688 3291 2919 2981 
L 2919 3500 
L 4044 3500 
L 4044 -1331 
L 2919 -1331 
L 2919 506 
z
" transform="scale(0.015625)"/>
       <path id="DejaVuSans-Bold-75" d="M 500 1363 
L 500 3500 
L 1625 3500 
L 1625 3150 
Q 1625 2866 1622 2436 
Q 1619 2006 1619 1863 
Q 1619 1441 1641 1255 
Q 1663 1069 1716 984 
Q 1784 875 1895 815 
Q 2006 756 2150 756 
Q 2500 756 2700 1025 
Q 2900 1294 2900 1772 
L 2900 3500 
L 4019 3500 
L 4019 0 
L 2900 0 
L 2900 506 
Q 2647 200 2364 54 
Q 2081 -91 1741 -91 
Q 1134 -91 817 281 
Q 500 653 500 1363 
z
" transform="scale(0.015625)"/>
       <path id="DejaVuSans-Bold-6e" d="M 4056 2131 
L 4056 0 
L 2931 0 
L 2931 347 
L 2931 1631 
Q 2931 2084 2911 2256 
Q 2891 2428 2841 2509 
Q 2775 2619 2662 2680 
Q 2550 2741 2406 2741 
Q 2056 2741 1856 2470 
Q 1656 2200 1656 1722 
L 1656 0 
L 538 0 
L 538 3500 
L 1656 3500 
L 1656 2988 
Q 1909 3294 2193 3439 
Q 2478 3584 2822 3584 
Q 3428 3584 3742 3212 
Q 4056 2841 4056 2131 
z
" transform="scale(0.015625)"/>
       <path id="DejaVuSans-Bold-79" d="M 78 3500 
L 1197 3500 
L 2138 1125 
L 2938 3500 
L 4056 3500 
L 2584 -331 
Q 2363 -916 2067 -1148 
Q 1772 -1381 1288 -1381 
L 641 -1381 
L 641 -647 
L 991 -647 
Q 1275 -647 1404 -556 
Q 1534 -466 1606 -231 
L 1638 -134 
L 78 3500 
z
" transform="scale(0.015625)"/>
       <path id="DejaVuSans-Bold-4c" d="M 588 4666 
L 1791 4666 
L 1791 909 
L 3903 909 
L 3903 0 
L 588 0 
L 588 4666 
z
" transform="scale(0.015625)"/>
       <path id="DejaVuSans-Bold-67" d="M 2919 594 
Q 2688 288 2409 144 
Q 2131 0 1766 0 
Q 1125 0 706 504 
Q 288 1009 288 1791 
Q 288 2575 706 3076 
Q 1125 3578 1766 3578 
Q 2131 3578 2409 3434 
Q 2688 3291 2919 2981 
L 2919 3500 
L 4044 3500 
L 4044 353 
Q 4044 -491 3511 -936 
Q 2978 -1381 1966 -1381 
Q 1638 -1381 1331 -1331 
Q 1025 -1281 716 -1178 
L 716 -306 
Q 1009 -475 1290 -558 
Q 1572 -641 1856 -641 
Q 2406 -641 2662 -400 
Q 2919 -159 2919 353 
L 2919 594 
z
M 2181 2772 
Q 1834 2772 1640 2515 
Q 1447 2259 1447 1791 
Q 1447 1309 1634 1061 
Q 1822 813 2181 813 
Q 2531 813 2725 1069 
Q 2919 1325 2919 1791 
Q 2919 2259 2725 2515 
Q 2531 2772 2181 2772 
z
" transform="scale(0.015625)"/>
       <path id="DejaVuSans-Bold-61" d="M 2106 1575 
Q 1756 1575 1579 1456 
Q 1403 1338 1403 1106 
Q 1403 894 1545 773 
Q 1688 653 1941 653 
Q 2256 653 2472 879 
Q 2688 1106 2688 1447 
L 2688 1575 
L 2106 1575 
z
M 3816 1997 
L 3816 0 
L 2688 0 
L 2688 519 
Q 2463 200 2181 54 
Q 1900 -91 1497 -91 
Q 953 -91 614 226 
Q 275 544 275 1050 
Q 275 1666 698 1953 
Q 1122 2241 2028 2241 
L 2688 2241 
L 2688 2328 
Q 2688 2594 2478 2717 
Q 2269 2841 1825 2841 
Q 1466 2841 1156 2769 
Q 847 2697 581 2553 
L 581 3406 
Q 941 3494 1303 3539 
Q 1666 3584 2028 3584 
Q 2975 3584 3395 3211 
Q 3816 2838 3816 1997 
z
" transform="scale(0.015625)"/>
       <path id="DejaVuSans-Bold-6c" d="M 538 4863 
L 1656 4863 
L 1656 0 
L 538 0 
L 538 4863 
z
" transform="scale(0.015625)"/>
      </defs>
      <use xlink:href="#DejaVuSans-Bold-46"/>
      <use xlink:href="#DejaVuSans-Bold-72" transform="translate(61.935547 0)"/>
      <use xlink:href="#DejaVuSans-Bold-65" transform="translate(111.251953 0)"/>
      <use xlink:href="#DejaVuSans-Bold-71" transform="translate(179.074219 0)"/>
      <use xlink:href="#DejaVuSans-Bold-75" transform="translate(250.65625 0)"/>
      <use xlink:href="#DejaVuSans-Bold-65" transform="translate(321.847656 0)"/>
      <use xlink:href="#DejaVuSans-Bold-6e" transform="translate(389.669922 0)"/>
      <use xlink:href="#DejaVuSans-Bold-63" transform="translate(460.861328 0)"/>
      <use xlink:href="#DejaVuSans-Bold-79" transform="translate(520.138672 0)"/>
      <use xlink:href="#DejaVuSans-Bold-20" transform="translate(585.324219 0)"/>
      <use xlink:href="#DejaVuSans-Bold-28" transform="translate(620.138672 0)"/>
      <use xlink:href="#DejaVuSans-Bold-4c" transform="translate(665.841797 0)"/>
      <use xlink:href="#DejaVuSans-Bold-6f" transform="translate(729.5625 0)"/>
      <use xlink:href="#DejaVuSans-Bold-67" transform="translate(798.263672 0)"/>
      <use xlink:href="#DejaVuSans-Bold-20" transform="translate(869.845703 0)"/>
      <use xlink:href="#DejaVuSans-Bold-53" transform="translate(904.660156 0)"/>
      <use xlink:href="#DejaVuSans-Bold-63" transform="translate(976.681641 0)"/>
      <use xlink:href="#DejaVuSans-Bold-61" transform="translate(1035.958984 0)"/>
      <use xlink:href="#DejaVuSans-Bold-6c" transform="translate(1103.439453 0)"/>
      <use xlink:href="#DejaVuSans-Bold-65" transform="translate(1137.716797 0)"/>
      <use xlink:href="#DejaVuSans-Bold-29" transform="translate(1205.539062 0)"/>
     </g>
    </g>
   </g>
   <g id="line2d_44">
    <path d="M 115.363636 101.30151 
L 117.912746 94.335777 
L 120.461855 88.695338 
L 123.010964 84.305588 
L 125.560073 81.083614 
L 128.109182 78.938266 
L 130.658291 77.770765 
L 133.207401 77.475991 
L 135.75651 77.944561 
L 138.305619 79.065686 
L 140.854728 80.730644 
L 143.403837 82.836519 
L 145.952947 85.289687 
L 148.502056 88.008535 
L 153.600274 93.984483 
L 158.698492 100.375009 
L 179.091366 126.503699 
L 184.189584 132.631047 
L 189.287803 138.456788 
L 194.386021 143.92406 
L 199.484239 148.946377 
L 204.582458 153.44671 
L 209.680676 157.427798 
L 214.778894 160.982421 
L 219.877113 164.232705 
L 237.720877 175.162819 
L 242.819095 178.906077 
L 247.917314 183.070877 
L 260.66286 193.867238 
L 270.859296 202.192507 
L 275.957515 206.687532 
L 286.153952 215.939107 
L 288.703061 218.030904 
L 291.25217 219.938607 
L 293.801279 221.632618 
L 296.350388 223.097802 
L 298.899497 224.332746 
L 301.448607 225.347944 
L 303.997716 226.163797 
L 306.546825 226.80908 
L 311.645043 227.739989 
L 319.292371 228.957923 
L 321.84148 229.516489 
L 324.390589 230.213396 
L 326.939698 231.060226 
L 332.037917 233.142685 
L 347.332572 240.166468 
L 352.43079 242.75807 
L 357.529009 245.820513 
L 365.176336 251.020609 
L 370.274555 254.400908 
L 375.372773 257.484318 
L 390.667428 266.291558 
L 398.314756 271.150132 
L 403.412974 274.356487 
L 405.962083 275.801955 
L 408.511192 277.045181 
L 411.060302 278.011406 
L 413.609411 278.641115 
L 416.15852 278.905077 
L 418.707629 278.815167 
L 421.256738 278.427008 
L 426.354957 277.149044 
L 428.904066 276.495539 
L 431.453175 275.982964 
L 434.002284 275.69866 
L 436.551393 275.699389 
L 439.100503 276.008189 
L 441.649612 276.615114 
L 444.198721 277.481368 
L 446.74783 278.546507 
L 459.493376 284.481852 
L 464.591594 286.347493 
L 467.140704 287.114523 
L 469.689813 287.763644 
L 472.238922 288.288274 
L 474.788031 288.686793 
L 479.886249 289.167373 
L 484.984468 289.520851 
L 487.533577 289.820399 
L 490.082686 290.303756 
L 492.631795 291.03833 
L 495.180905 292.075438 
L 497.730014 293.445524 
L 500.279123 295.155027 
L 502.828232 297.18398 
L 505.377341 299.483762 
L 515.573778 309.398685 
L 518.122887 311.385444 
L 520.671996 312.921973 
L 523.221106 313.94453 
L 525.770215 314.444439 
L 528.319324 314.461261 
L 530.868433 314.066722 
L 533.417542 313.348187 
L 535.966651 312.398628 
L 543.613979 309.15595 
L 546.163088 308.301252 
L 548.712197 307.7397 
L 551.261307 307.562711 
L 553.810416 307.837991 
L 556.359525 308.604258 
L 558.908634 309.870236 
L 561.457743 311.617347 
L 564.006852 313.804669 
L 566.555962 316.374397 
L 569.105071 319.256166 
L 574.203289 325.620577 
L 579.301508 332.077227 
L 581.850617 334.966468 
L 584.399726 337.316999 
L 586.948835 338.775422 
L 589.497944 338.88478 
L 592.047053 337.155049 
L 594.596163 333.233604 
L 597.145272 327.107553 
L 599.694381 319.182353 
L 607.341709 291.80463 
L 609.890818 283.661737 
L 612.439927 276.737629 
L 614.989036 271.273021 
L 617.538145 267.426654 
L 620.087254 265.303152 
L 622.636364 264.972181 
L 622.636364 264.972181 
" clip-path="url(#p66c9d16700)" style="fill: none; stroke: #ffa500; stroke-width: 1.5; stroke-linecap: square"/>
   </g>
   <g id="line2d_45">
    <path d="M 115.363636 135.703857 
L 117.912746 131.34727 
L 120.461855 127.716468 
L 123.010964 124.774866 
L 125.560073 122.48251 
L 128.109182 120.796179 
L 130.658291 119.669647 
L 133.207401 119.054174 
L 135.75651 118.899229 
L 138.305619 119.153476 
L 140.854728 119.765975 
L 143.403837 120.687544 
L 145.952947 121.872146 
L 148.502056 123.278162 
L 151.051165 124.869358 
L 156.149383 128.491817 
L 161.247602 132.563002 
L 166.34582 136.96982 
L 173.993148 143.996937 
L 184.189584 153.462618 
L 189.287803 157.908673 
L 194.386021 162.040923 
L 199.484239 165.866329 
L 207.131567 171.192639 
L 217.328004 177.930636 
L 227.52444 184.439067 
L 242.819095 194.123345 
L 250.466423 199.351643 
L 260.66286 206.759877 
L 268.310187 212.190406 
L 273.408406 215.523296 
L 278.506624 218.564288 
L 283.604842 221.344854 
L 291.25217 225.205871 
L 301.448607 230.093126 
L 306.546825 232.389022 
L 311.645043 234.472788 
L 316.743262 236.262439 
L 321.84148 237.745761 
L 329.488808 239.614779 
L 334.587026 240.892796 
L 339.685244 242.428716 
L 344.783463 244.365628 
L 349.881681 246.763958 
L 354.979899 249.604581 
L 360.078118 252.812829 
L 365.176336 256.28844 
L 375.372773 263.623699 
L 383.020101 269.019511 
L 388.118319 272.311501 
L 393.216537 275.193865 
L 395.765646 276.451389 
L 400.863865 278.592942 
L 405.962083 280.312669 
L 413.609411 282.474551 
L 421.256738 284.668444 
L 426.354957 286.333576 
L 431.453175 288.197845 
L 439.100503 291.318072 
L 449.296939 295.664507 
L 454.395158 297.592141 
L 459.493376 299.151021 
L 464.591594 300.302878 
L 479.886249 303.116752 
L 482.435359 303.834184 
L 484.984468 304.681815 
L 487.533577 305.660037 
L 492.631795 307.95056 
L 502.828232 312.896649 
L 505.377341 313.941693 
L 507.92645 314.826084 
L 510.47556 315.527279 
L 513.024669 316.040742 
L 515.573778 316.38137 
L 520.671996 316.690317 
L 525.770215 316.853441 
L 528.319324 317.019284 
L 530.868433 317.302316 
L 533.417542 317.731433 
L 535.966651 318.318018 
L 538.515761 319.054053 
L 543.613979 320.843911 
L 548.712197 322.673053 
L 551.261307 323.422985 
L 553.810416 323.972018 
L 556.359525 324.272182 
L 558.908634 324.302029 
L 561.457743 324.070289 
L 564.006852 323.613581 
L 569.105071 322.259171 
L 579.301508 319.130055 
L 581.850617 318.24226 
L 584.399726 317.162882 
L 586.948835 315.767991 
L 589.497944 313.935322 
L 592.047053 311.574388 
L 594.596163 308.655095 
L 597.145272 305.22433 
L 599.694381 301.403641 
L 607.341709 289.474065 
L 609.890818 286.000884 
L 612.439927 283.062732 
L 614.989036 280.786796 
L 617.538145 279.272737 
L 620.087254 278.596955 
L 622.636364 278.817227 
L 622.636364 278.817227 
" clip-path="url(#p66c9d16700)" style="fill: none; stroke: #00ffff; stroke-width: 1.5; stroke-linecap: square"/>
   </g>
   <g id="patch_103">
    <path d="M 90 384.48 
L 90 51.84 
" style="fill: none; stroke: #000000; stroke-width: 0.8; stroke-linejoin: miter; stroke-linecap: square"/>
   </g>
   <g id="patch_104">
    <path d="M 648 384.48 
L 648 51.84 
" style="fill: none; stroke: #000000; stroke-width: 0.8; stroke-linejoin: miter; stroke-linecap: square"/>
   </g>
   <g id="patch_105">
    <path d="M 90 384.48 
L 648 384.48 
" style="fill: none; stroke: #000000; stroke-width: 0.8; stroke-linejoin: miter; stroke-linecap: square"/>
   </g>
   <g id="patch_106">
    <path d="M 90 51.84 
L 648 51.84 
" style="fill: none; stroke: #000000; stroke-width: 0.8; stroke-linejoin: miter; stroke-linecap: square"/>
   </g>
   <g id="text_12">
    <!-- Universal Distribution: Dynamic Scores -->
    <g transform="translate(192.285 27.7985) scale(0.16 -0.16)">
     <defs>
      <path id="DejaVuSans-Bold-55" d="M 588 4666 
L 1791 4666 
L 1791 1869 
Q 1791 1291 1980 1042 
Q 2169 794 2597 794 
Q 3028 794 3217 1042 
Q 3406 1291 3406 1869 
L 3406 4666 
L 4609 4666 
L 4609 1869 
Q 4609 878 4112 393 
Q 3616 -91 2597 -91 
Q 1581 -91 1084 393 
Q 588 878 588 1869 
L 588 4666 
z
" transform="scale(0.015625)"/>
      <path id="DejaVuSans-Bold-69" d="M 538 3500 
L 1656 3500 
L 1656 0 
L 538 0 
L 538 3500 
z
M 538 4863 
L 1656 4863 
L 1656 3950 
L 538 3950 
L 538 4863 
z
" transform="scale(0.015625)"/>
      <path id="DejaVuSans-Bold-76" d="M 97 3500 
L 1216 3500 
L 2088 1081 
L 2956 3500 
L 4078 3500 
L 2700 0 
L 1472 0 
L 97 3500 
z
" transform="scale(0.015625)"/>
      <path id="DejaVuSans-Bold-73" d="M 3272 3391 
L 3272 2541 
Q 2913 2691 2578 2766 
Q 2244 2841 1947 2841 
Q 1628 2841 1473 2761 
Q 1319 2681 1319 2516 
Q 1319 2381 1436 2309 
Q 1553 2238 1856 2203 
L 2053 2175 
Q 2913 2066 3209 1816 
Q 3506 1566 3506 1031 
Q 3506 472 3093 190 
Q 2681 -91 1863 -91 
Q 1516 -91 1145 -36 
Q 775 19 384 128 
L 384 978 
Q 719 816 1070 734 
Q 1422 653 1784 653 
Q 2113 653 2278 743 
Q 2444 834 2444 1013 
Q 2444 1163 2330 1236 
Q 2216 1309 1875 1350 
L 1678 1375 
Q 931 1469 631 1722 
Q 331 1975 331 2491 
Q 331 3047 712 3315 
Q 1094 3584 1881 3584 
Q 2191 3584 2531 3537 
Q 2872 3491 3272 3391 
z
" transform="scale(0.015625)"/>
      <path id="DejaVuSans-Bold-44" d="M 1791 3756 
L 1791 909 
L 2222 909 
Q 2959 909 3348 1275 
Q 3738 1641 3738 2338 
Q 3738 3031 3350 3393 
Q 2963 3756 2222 3756 
L 1791 3756 
z
M 588 4666 
L 1856 4666 
Q 2919 4666 3439 4514 
Q 3959 4363 4331 4000 
Q 4659 3684 4818 3271 
Q 4978 2859 4978 2338 
Q 4978 1809 4818 1395 
Q 4659 981 4331 666 
Q 3956 303 3431 151 
Q 2906 0 1856 0 
L 588 0 
L 588 4666 
z
" transform="scale(0.015625)"/>
      <path id="DejaVuSans-Bold-74" d="M 1759 4494 
L 1759 3500 
L 2913 3500 
L 2913 2700 
L 1759 2700 
L 1759 1216 
Q 1759 972 1856 886 
Q 1953 800 2241 800 
L 2816 800 
L 2816 0 
L 1856 0 
Q 1194 0 917 276 
Q 641 553 641 1216 
L 641 2700 
L 84 2700 
L 84 3500 
L 641 3500 
L 641 4494 
L 1759 4494 
z
" transform="scale(0.015625)"/>
      <path id="DejaVuSans-Bold-62" d="M 2400 722 
Q 2759 722 2948 984 
Q 3138 1247 3138 1747 
Q 3138 2247 2948 2509 
Q 2759 2772 2400 2772 
Q 2041 2772 1848 2508 
Q 1656 2244 1656 1747 
Q 1656 1250 1848 986 
Q 2041 722 2400 722 
z
M 1656 2988 
Q 1888 3294 2169 3439 
Q 2450 3584 2816 3584 
Q 3463 3584 3878 3070 
Q 4294 2556 4294 1747 
Q 4294 938 3878 423 
Q 3463 -91 2816 -91 
Q 2450 -91 2169 54 
Q 1888 200 1656 506 
L 1656 0 
L 538 0 
L 538 4863 
L 1656 4863 
L 1656 2988 
z
" transform="scale(0.015625)"/>
      <path id="DejaVuSans-Bold-3a" d="M 716 3500 
L 1844 3500 
L 1844 2291 
L 716 2291 
L 716 3500 
z
M 716 1209 
L 1844 1209 
L 1844 0 
L 716 0 
L 716 1209 
z
" transform="scale(0.015625)"/>
      <path id="DejaVuSans-Bold-6d" d="M 3781 2919 
Q 3994 3244 4286 3414 
Q 4578 3584 4928 3584 
Q 5531 3584 5847 3212 
Q 6163 2841 6163 2131 
L 6163 0 
L 5038 0 
L 5038 1825 
Q 5041 1866 5042 1909 
Q 5044 1953 5044 2034 
Q 5044 2406 4934 2573 
Q 4825 2741 4581 2741 
Q 4263 2741 4089 2478 
Q 3916 2216 3909 1719 
L 3909 0 
L 2784 0 
L 2784 1825 
Q 2784 2406 2684 2573 
Q 2584 2741 2328 2741 
Q 2006 2741 1831 2477 
Q 1656 2213 1656 1722 
L 1656 0 
L 531 0 
L 531 3500 
L 1656 3500 
L 1656 2988 
Q 1863 3284 2130 3434 
Q 2397 3584 2719 3584 
Q 3081 3584 3359 3409 
Q 3638 3234 3781 2919 
z
" transform="scale(0.015625)"/>
     </defs>
     <use xlink:href="#DejaVuSans-Bold-55"/>
     <use xlink:href="#DejaVuSans-Bold-6e" transform="translate(81.201172 0)"/>
     <use xlink:href="#DejaVuSans-Bold-69" transform="translate(152.392578 0)"/>
     <use xlink:href="#DejaVuSans-Bold-76" transform="translate(186.669922 0)"/>
     <use xlink:href="#DejaVuSans-Bold-65" transform="translate(251.855469 0)"/>
     <use xlink:href="#DejaVuSans-Bold-72" transform="translate(319.677734 0)"/>
     <use xlink:href="#DejaVuSans-Bold-73" transform="translate(368.994141 0)"/>
     <use xlink:href="#DejaVuSans-Bold-61" transform="translate(428.515625 0)"/>
     <use xlink:href="#DejaVuSans-Bold-6c" transform="translate(495.996094 0)"/>
     <use xlink:href="#DejaVuSans-Bold-20" transform="translate(530.273438 0)"/>
     <use xlink:href="#DejaVuSans-Bold-44" transform="translate(565.087891 0)"/>
     <use xlink:href="#DejaVuSans-Bold-69" transform="translate(648.095703 0)"/>
     <use xlink:href="#DejaVuSans-Bold-73" transform="translate(682.373047 0)"/>
     <use xlink:href="#DejaVuSans-Bold-74" transform="translate(741.894531 0)"/>
     <use xlink:href="#DejaVuSans-Bold-72" transform="translate(789.697266 0)"/>
     <use xlink:href="#DejaVuSans-Bold-69" transform="translate(839.013672 0)"/>
     <use xlink:href="#DejaVuSans-Bold-62" transform="translate(873.291016 0)"/>
     <use xlink:href="#DejaVuSans-Bold-75" transform="translate(944.873047 0)"/>
     <use xlink:href="#DejaVuSans-Bold-74" transform="translate(1016.064453 0)"/>
     <use xlink:href="#DejaVuSans-Bold-69" transform="translate(1063.867188 0)"/>
     <use xlink:href="#DejaVuSans-Bold-6f" transform="translate(1098.144531 0)"/>
     <use xlink:href="#DejaVuSans-Bold-6e" transform="translate(1166.845703 0)"/>
     <use xlink:href="#DejaVuSans-Bold-3a" transform="translate(1238.037109 0)"/>
     <use xlink:href="#DejaVuSans-Bold-20" transform="translate(1278.027344 0)"/>
     <use xlink:href="#DejaVuSans-Bold-44" transform="translate(1312.841797 0)"/>
     <use xlink:href="#DejaVuSans-Bold-79" transform="translate(1395.849609 0)"/>
     <use xlink:href="#DejaVuSans-Bold-6e" transform="translate(1461.035156 0)"/>
     <use xlink:href="#DejaVuSans-Bold-61" transform="translate(1532.226562 0)"/>
     <use xlink:href="#DejaVuSans-Bold-6d" transform="translate(1599.707031 0)"/>
     <use xlink:href="#DejaVuSans-Bold-69" transform="translate(1703.90625 0)"/>
     <use xlink:href="#DejaVuSans-Bold-63" transform="translate(1738.183594 0)"/>
     <use xlink:href="#DejaVuSans-Bold-20" transform="translate(1797.460938 0)"/>
     <use xlink:href="#DejaVuSans-Bold-53" transform="translate(1832.275391 0)"/>
     <use xlink:href="#DejaVuSans-Bold-63" transform="translate(1904.296875 0)"/>
     <use xlink:href="#DejaVuSans-Bold-6f" transform="translate(1963.574219 0)"/>
     <use xlink:href="#DejaVuSans-Bold-72" transform="translate(2032.275391 0)"/>
     <use xlink:href="#DejaVuSans-Bold-65" transform="translate(2081.591797 0)"/>
     <use xlink:href="#DejaVuSans-Bold-73" transform="translate(2149.414062 0)"/>
    </g>
    <!-- (N = ~200,000 Residues) -->
    <g transform="translate(256.095 45.84) scale(0.16 -0.16)">
     <defs>
      <path id="DejaVuSans-Bold-4e" d="M 588 4666 
L 1931 4666 
L 3628 1466 
L 3628 4666 
L 4769 4666 
L 4769 0 
L 3425 0 
L 1728 3200 
L 1728 0 
L 588 0 
L 588 4666 
z
" transform="scale(0.015625)"/>
      <path id="DejaVuSans-Bold-3d" d="M 678 3084 
L 4684 3084 
L 4684 2350 
L 678 2350 
L 678 3084 
z
M 678 1663 
L 4684 1663 
L 4684 922 
L 678 922 
L 678 1663 
z
" transform="scale(0.015625)"/>
      <path id="DejaVuSans-Bold-7e" d="M 4684 2656 
L 4684 1894 
Q 4353 1644 4073 1536 
Q 3794 1428 3494 1428 
Q 3159 1428 2713 1609 
Q 2669 1628 2644 1638 
Q 2622 1647 2575 1666 
Q 2091 1856 1797 1856 
Q 1522 1856 1253 1736 
Q 984 1616 678 1356 
L 678 2119 
Q 1013 2369 1291 2476 
Q 1569 2584 1869 2584 
Q 2203 2584 2650 2403 
Q 2697 2384 2719 2375 
Q 2741 2366 2788 2347 
Q 3272 2156 3566 2156 
Q 3834 2156 4098 2273 
Q 4363 2391 4684 2656 
z
" transform="scale(0.015625)"/>
      <path id="DejaVuSans-Bold-2c" d="M 653 1209 
L 1778 1209 
L 1778 256 
L 1006 -909 
L 341 -909 
L 653 256 
L 653 1209 
z
" transform="scale(0.015625)"/>
      <path id="DejaVuSans-Bold-52" d="M 2297 2597 
Q 2675 2597 2839 2737 
Q 3003 2878 3003 3200 
Q 3003 3519 2839 3656 
Q 2675 3794 2297 3794 
L 1791 3794 
L 1791 2597 
L 2297 2597 
z
M 1791 1766 
L 1791 0 
L 588 0 
L 588 4666 
L 2425 4666 
Q 3347 4666 3776 4356 
Q 4206 4047 4206 3378 
Q 4206 2916 3982 2619 
Q 3759 2322 3309 2181 
Q 3556 2125 3751 1926 
Q 3947 1728 4147 1325 
L 4800 0 
L 3519 0 
L 2950 1159 
Q 2778 1509 2601 1637 
Q 2425 1766 2131 1766 
L 1791 1766 
z
" transform="scale(0.015625)"/>
      <path id="DejaVuSans-Bold-64" d="M 2919 2988 
L 2919 4863 
L 4044 4863 
L 4044 0 
L 2919 0 
L 2919 506 
Q 2688 197 2409 53 
Q 2131 -91 1766 -91 
Q 1119 -91 703 423 
Q 288 938 288 1747 
Q 288 2556 703 3070 
Q 1119 3584 1766 3584 
Q 2128 3584 2408 3439 
Q 2688 3294 2919 2988 
z
M 2181 722 
Q 2541 722 2730 984 
Q 2919 1247 2919 1747 
Q 2919 2247 2730 2509 
Q 2541 2772 2181 2772 
Q 1825 2772 1636 2509 
Q 1447 2247 1447 1747 
Q 1447 1247 1636 984 
Q 1825 722 2181 722 
z
" transform="scale(0.015625)"/>
     </defs>
     <use xlink:href="#DejaVuSans-Bold-28"/>
     <use xlink:href="#DejaVuSans-Bold-4e" transform="translate(45.703125 0)"/>
     <use xlink:href="#DejaVuSans-Bold-20" transform="translate(129.394531 0)"/>
     <use xlink:href="#DejaVuSans-Bold-3d" transform="translate(164.208984 0)"/>
     <use xlink:href="#DejaVuSans-Bold-20" transform="translate(247.998047 0)"/>
     <use xlink:href="#DejaVuSans-Bold-7e" transform="translate(282.8125 0)"/>
     <use xlink:href="#DejaVuSans-Bold-32" transform="translate(366.601562 0)"/>
     <use xlink:href="#DejaVuSans-Bold-30" transform="translate(436.181641 0)"/>
     <use xlink:href="#DejaVuSans-Bold-30" transform="translate(505.761719 0)"/>
     <use xlink:href="#DejaVuSans-Bold-2c" transform="translate(575.341797 0)"/>
     <use xlink:href="#DejaVuSans-Bold-30" transform="translate(613.330078 0)"/>
     <use xlink:href="#DejaVuSans-Bold-30" transform="translate(682.910156 0)"/>
     <use xlink:href="#DejaVuSans-Bold-30" transform="translate(752.490234 0)"/>
     <use xlink:href="#DejaVuSans-Bold-20" transform="translate(822.070312 0)"/>
     <use xlink:href="#DejaVuSans-Bold-52" transform="translate(856.884766 0)"/>
     <use xlink:href="#DejaVuSans-Bold-65" transform="translate(933.886719 0)"/>
     <use xlink:href="#DejaVuSans-Bold-73" transform="translate(1001.708984 0)"/>
     <use xlink:href="#DejaVuSans-Bold-69" transform="translate(1061.230469 0)"/>
     <use xlink:href="#DejaVuSans-Bold-64" transform="translate(1095.507812 0)"/>
     <use xlink:href="#DejaVuSans-Bold-75" transform="translate(1167.089844 0)"/>
     <use xlink:href="#DejaVuSans-Bold-65" transform="translate(1238.28125 0)"/>
     <use xlink:href="#DejaVuSans-Bold-73" transform="translate(1306.103516 0)"/>
     <use xlink:href="#DejaVuSans-Bold-29" transform="translate(1365.625 0)"/>
    </g>
   </g>
   <g id="legend_1">
    <g id="patch_107">
     <path d="M 492.481875 96.76125 
L 639.6 96.76125 
Q 642 96.76125 642 94.36125 
L 642 60.24 
Q 642 57.84 639.6 57.84 
L 492.481875 57.84 
Q 490.081875 57.84 490.081875 60.24 
L 490.081875 94.36125 
Q 490.081875 96.76125 492.481875 96.76125 
z
" style="fill: #ffffff; opacity: 0.8; stroke: #cccccc; stroke-linejoin: miter"/>
    </g>
    <g id="patch_108">
     <path d="M 494.881875 71.758125 
L 518.881875 71.758125 
L 518.881875 63.358125 
L 494.881875 63.358125 
z
" style="fill: #ffa500; fill-opacity: 0.6; stroke: #000000; stroke-linejoin: miter"/>
    </g>
    <g id="text_13">
     <!-- DCS (Hinges) -->
     <g transform="translate(528.481875 71.758125) scale(0.12 -0.12)">
      <defs>
       <path id="DejaVuSans-Bold-43" d="M 4288 256 
Q 3956 84 3597 -3 
Q 3238 -91 2847 -91 
Q 1681 -91 1000 561 
Q 319 1213 319 2328 
Q 319 3447 1000 4098 
Q 1681 4750 2847 4750 
Q 3238 4750 3597 4662 
Q 3956 4575 4288 4403 
L 4288 3438 
Q 3953 3666 3628 3772 
Q 3303 3878 2944 3878 
Q 2300 3878 1931 3465 
Q 1563 3053 1563 2328 
Q 1563 1606 1931 1193 
Q 2300 781 2944 781 
Q 3303 781 3628 887 
Q 3953 994 4288 1222 
L 4288 256 
z
" transform="scale(0.015625)"/>
       <path id="DejaVuSans-Bold-48" d="M 588 4666 
L 1791 4666 
L 1791 2888 
L 3566 2888 
L 3566 4666 
L 4769 4666 
L 4769 0 
L 3566 0 
L 3566 1978 
L 1791 1978 
L 1791 0 
L 588 0 
L 588 4666 
z
" transform="scale(0.015625)"/>
      </defs>
      <use xlink:href="#DejaVuSans-Bold-44"/>
      <use xlink:href="#DejaVuSans-Bold-43" transform="translate(83.007812 0)"/>
      <use xlink:href="#DejaVuSans-Bold-53" transform="translate(158.271484 0)"/>
      <use xlink:href="#DejaVuSans-Bold-20" transform="translate(230.292969 0)"/>
      <use xlink:href="#DejaVuSans-Bold-28" transform="translate(265.107422 0)"/>
      <use xlink:href="#DejaVuSans-Bold-48" transform="translate(310.810547 0)"/>
      <use xlink:href="#DejaVuSans-Bold-69" transform="translate(394.501953 0)"/>
      <use xlink:href="#DejaVuSans-Bold-6e" transform="translate(428.779297 0)"/>
      <use xlink:href="#DejaVuSans-Bold-67" transform="translate(499.970703 0)"/>
      <use xlink:href="#DejaVuSans-Bold-65" transform="translate(571.552734 0)"/>
      <use xlink:href="#DejaVuSans-Bold-73" transform="translate(639.375 0)"/>
      <use xlink:href="#DejaVuSans-Bold-29" transform="translate(698.896484 0)"/>
     </g>
    </g>
    <g id="patch_109">
     <path d="M 494.881875 89.465625 
L 518.881875 89.465625 
L 518.881875 81.065625 
L 494.881875 81.065625 
z
" style="fill: #00ffff; fill-opacity: 0.4; stroke: #000000; stroke-linejoin: miter"/>
    </g>
    <g id="text_14">
     <!-- DCopS (Buffers) -->
     <g transform="translate(528.481875 89.465625) scale(0.12 -0.12)">
      <defs>
       <path id="DejaVuSans-Bold-70" d="M 1656 506 
L 1656 -1331 
L 538 -1331 
L 538 3500 
L 1656 3500 
L 1656 2988 
Q 1888 3294 2169 3439 
Q 2450 3584 2816 3584 
Q 3463 3584 3878 3070 
Q 4294 2556 4294 1747 
Q 4294 938 3878 423 
Q 3463 -91 2816 -91 
Q 2450 -91 2169 54 
Q 1888 200 1656 506 
z
M 2400 2772 
Q 2041 2772 1848 2508 
Q 1656 2244 1656 1747 
Q 1656 1250 1848 986 
Q 2041 722 2400 722 
Q 2759 722 2948 984 
Q 3138 1247 3138 1747 
Q 3138 2247 2948 2509 
Q 2759 2772 2400 2772 
z
" transform="scale(0.015625)"/>
       <path id="DejaVuSans-Bold-42" d="M 2456 2859 
Q 2741 2859 2887 2984 
Q 3034 3109 3034 3353 
Q 3034 3594 2887 3720 
Q 2741 3847 2456 3847 
L 1791 3847 
L 1791 2859 
L 2456 2859 
z
M 2497 819 
Q 2859 819 3042 972 
Q 3225 1125 3225 1434 
Q 3225 1738 3044 1889 
Q 2863 2041 2497 2041 
L 1791 2041 
L 1791 819 
L 2497 819 
z
M 3616 2497 
Q 4003 2384 4215 2081 
Q 4428 1778 4428 1338 
Q 4428 663 3972 331 
Q 3516 0 2584 0 
L 588 0 
L 588 4666 
L 2394 4666 
Q 3366 4666 3802 4372 
Q 4238 4078 4238 3431 
Q 4238 3091 4078 2852 
Q 3919 2613 3616 2497 
z
" transform="scale(0.015625)"/>
       <path id="DejaVuSans-Bold-66" d="M 2841 4863 
L 2841 4128 
L 2222 4128 
Q 1984 4128 1890 4042 
Q 1797 3956 1797 3744 
L 1797 3500 
L 2753 3500 
L 2753 2700 
L 1797 2700 
L 1797 0 
L 678 0 
L 678 2700 
L 122 2700 
L 122 3500 
L 678 3500 
L 678 3744 
Q 678 4316 997 4589 
Q 1316 4863 1984 4863 
L 2841 4863 
z
" transform="scale(0.015625)"/>
      </defs>
      <use xlink:href="#DejaVuSans-Bold-44"/>
      <use xlink:href="#DejaVuSans-Bold-43" transform="translate(83.007812 0)"/>
      <use xlink:href="#DejaVuSans-Bold-6f" transform="translate(156.396484 0)"/>
      <use xlink:href="#DejaVuSans-Bold-70" transform="translate(225.097656 0)"/>
      <use xlink:href="#DejaVuSans-Bold-53" transform="translate(296.679688 0)"/>
      <use xlink:href="#DejaVuSans-Bold-20" transform="translate(368.701172 0)"/>
      <use xlink:href="#DejaVuSans-Bold-28" transform="translate(403.515625 0)"/>
      <use xlink:href="#DejaVuSans-Bold-42" transform="translate(449.21875 0)"/>
      <use xlink:href="#DejaVuSans-Bold-75" transform="translate(525.439453 0)"/>
      <use xlink:href="#DejaVuSans-Bold-66" transform="translate(596.630859 0)"/>
      <use xlink:href="#DejaVuSans-Bold-66" transform="translate(640.136719 0)"/>
      <use xlink:href="#DejaVuSans-Bold-65" transform="translate(683.642578 0)"/>
      <use xlink:href="#DejaVuSans-Bold-72" transform="translate(751.464844 0)"/>
      <use xlink:href="#DejaVuSans-Bold-73" transform="translate(800.78125 0)"/>
      <use xlink:href="#DejaVuSans-Bold-29" transform="translate(860.302734 0)"/>
     </g>
    </g>
   </g>
  </g>
 </g>
 <defs>
  <clipPath id="p66c9d16700">
   <rect x="90" y="51.84" width="558" height="332.64"/>
  </clipPath>
 </defs>
</svg>
