<?xml version="1.0" encoding="utf-8" standalone="no"?>
<!DOCTYPE svg PUBLIC "-//W3C//DTD SVG 1.1//EN"
  "http://www.w3.org/Graphics/SVG/1.1/DTD/svg11.dtd">
<svg xmlns:xlink="http://www.w3.org/1999/xlink" width="828.608125pt" height="557.731454pt" viewBox="0 0 828.608125 557.731454" xmlns="http://www.w3.org/2000/svg" version="1.1">
 <metadata>
  <rdf:RDF xmlns:dc="http://purl.org/dc/elements/1.1/" xmlns:cc="http://creativecommons.org/ns#" xmlns:rdf="http://www.w3.org/1999/02/22-rdf-syntax-ns#">
   <cc:Work>
    <dc:type rdf:resource="http://purl.org/dc/dcmitype/StillImage"/>
    <dc:date>2025-12-10T19:42:54.474388</dc:date>
    <dc:format>image/svg+xml</dc:format>
    <dc:creator>
     <cc:Agent>
      <dc:title>Matplotlib v3.10.0, https://matplotlib.org/</dc:title>
     </cc:Agent>
    </dc:creator>
   </cc:Work>
  </rdf:RDF>
 </metadata>
 <defs>
  <style type="text/css">*{stroke-linejoin: round; stroke-linecap: butt}</style>
 </defs>
 <g id="figure_1">
  <g id="patch_1">
   <path d="M 0 557.731454 
L 828.608125 557.731454 
L 828.608125 0 
L 0 0 
z
" style="fill: #ffffff"/>
  </g>
  <g id="axes_1">
   <g id="patch_2">
    <path d="M 40.208125 486.794 
L 821.408125 486.794 
L 821.408125 43.274 
L 40.208125 43.274 
z
" style="fill: #ffffff"/>
   </g>
   <g id="patch_3">
    <path d="M 797.972125 486.794 
L 818.804125 486.794 
L 818.804125 319.487208 
L 797.972125 319.487208 
z
" clip-path="url(#p6b6a5d0cfb)" style="fill: #010103"/>
   </g>
   <g id="patch_4">
    <path d="M 745.892125 486.794 
L 766.724125 486.794 
L 766.724125 312.848568 
L 745.892125 312.848568 
z
" clip-path="url(#p6b6a5d0cfb)" style="fill: #080715"/>
   </g>
   <g id="patch_5">
    <path d="M 771.932125 486.794 
L 792.764125 486.794 
L 792.764125 316.830393 
L 771.932125 316.830393 
z
" clip-path="url(#p6b6a5d0cfb)" style="fill: #0c0a1d"/>
   </g>
   <g id="patch_6">
    <path d="M 719.852125 486.794 
L 740.684125 486.794 
L 740.684125 290.569802 
L 719.852125 290.569802 
z
" clip-path="url(#p6b6a5d0cfb)" style="fill: #15112d"/>
   </g>
   <g id="patch_7">
    <path d="M 693.812125 486.794 
L 714.644125 486.794 
L 714.644125 289.416282 
L 693.812125 289.416282 
z
" clip-path="url(#p6b6a5d0cfb)" style="fill: #16122f"/>
   </g>
   <g id="patch_8">
    <path d="M 615.692125 486.794 
L 636.524125 486.794 
L 636.524125 274.462655 
L 615.692125 274.462655 
z
" clip-path="url(#p6b6a5d0cfb)" style="fill: #261948"/>
   </g>
   <g id="patch_9">
    <path d="M 589.652125 486.794 
L 610.484125 486.794 
L 610.484125 271.934795 
L 589.652125 271.934795 
z
" clip-path="url(#p6b6a5d0cfb)" style="fill: #301b57"/>
   </g>
   <g id="patch_10">
    <path d="M 563.612125 486.794 
L 584.444125 486.794 
L 584.444125 268.669733 
L 563.612125 268.669733 
z
" clip-path="url(#p6b6a5d0cfb)" style="fill: #331b5a"/>
   </g>
   <g id="patch_11">
    <path d="M 433.412125 486.794 
L 454.244125 486.794 
L 454.244125 257.154694 
L 433.412125 257.154694 
z
" clip-path="url(#p6b6a5d0cfb)" style="fill: #361b5e"/>
   </g>
   <g id="patch_12">
    <path d="M 667.772125 486.794 
L 688.604125 486.794 
L 688.604125 286.702988 
L 667.772125 286.702988 
z
" clip-path="url(#p6b6a5d0cfb)" style="fill: #361b5e"/>
   </g>
   <g id="patch_13">
    <path d="M 511.532125 486.794 
L 532.364125 486.794 
L 532.364125 261.038306 
L 511.532125 261.038306 
z
" clip-path="url(#p6b6a5d0cfb)" style="fill: #3e1b65"/>
   </g>
   <g id="patch_14">
    <path d="M 485.492125 486.794 
L 506.324125 486.794 
L 506.324125 260.253875 
L 485.492125 260.253875 
z
" clip-path="url(#p6b6a5d0cfb)" style="fill: #4d1f6e"/>
   </g>
   <g id="patch_15">
    <path d="M 459.452125 486.794 
L 480.284125 486.794 
L 480.284125 257.237462 
L 459.452125 257.237462 
z
" clip-path="url(#p6b6a5d0cfb)" style="fill: #4e1f6f"/>
   </g>
   <g id="patch_16">
    <path d="M 641.732125 486.794 
L 662.564125 486.794 
L 662.564125 285.481543 
L 641.732125 285.481543 
z
" clip-path="url(#p6b6a5d0cfb)" style="fill: #562371"/>
   </g>
   <g id="patch_17">
    <path d="M 537.572125 486.794 
L 558.404125 486.794 
L 558.404125 268.469085 
L 537.572125 268.469085 
z
" clip-path="url(#p6b6a5d0cfb)" style="fill: #602874"/>
   </g>
   <g id="patch_18">
    <path d="M 407.372125 486.794 
L 428.204125 486.794 
L 428.204125 197.701969 
L 407.372125 197.701969 
z
" clip-path="url(#p6b6a5d0cfb)" style="fill: #9b4179"/>
   </g>
   <g id="patch_19">
    <path d="M 355.292125 486.794 
L 376.124125 486.794 
L 376.124125 189.723128 
L 355.292125 189.723128 
z
" clip-path="url(#p6b6a5d0cfb)" style="fill: #9c4279"/>
   </g>
   <g id="patch_20">
    <path d="M 381.332125 486.794 
L 402.164125 486.794 
L 402.164125 190.222899 
L 381.332125 190.222899 
z
" clip-path="url(#p6b6a5d0cfb)" style="fill: #ae4a78"/>
   </g>
   <g id="patch_21">
    <path d="M 303.212125 486.794 
L 324.044125 486.794 
L 324.044125 170.404256 
L 303.212125 170.404256 
z
" clip-path="url(#p6b6a5d0cfb)" style="fill: #b34d77"/>
   </g>
   <g id="patch_22">
    <path d="M 329.252125 486.794 
L 350.084125 486.794 
L 350.084125 182.192859 
L 329.252125 182.192859 
z
" clip-path="url(#p6b6a5d0cfb)" style="fill: #bd5276"/>
   </g>
   <g id="patch_23">
    <path d="M 251.132125 486.794 
L 271.964125 486.794 
L 271.964125 140.315239 
L 251.132125 140.315239 
z
" clip-path="url(#p6b6a5d0cfb)" style="fill: #e37d6f"/>
   </g>
   <g id="patch_24">
    <path d="M 225.092125 486.794 
L 245.924125 486.794 
L 245.924125 139.921925 
L 225.092125 139.921925 
z
" clip-path="url(#p6b6a5d0cfb)" style="fill: #e48170"/>
   </g>
   <g id="patch_25">
    <path d="M 277.172125 486.794 
L 298.004125 486.794 
L 298.004125 144.686506 
L 277.172125 144.686506 
z
" clip-path="url(#p6b6a5d0cfb)" style="fill: #e78a72"/>
   </g>
   <g id="patch_26">
    <path d="M 173.012125 486.794 
L 193.844125 486.794 
L 193.844125 98.113599 
L 173.012125 98.113599 
z
" clip-path="url(#p6b6a5d0cfb)" style="fill: #eba37e"/>
   </g>
   <g id="patch_27">
    <path d="M 199.052125 486.794 
L 219.884125 486.794 
L 219.884125 103.929142 
L 199.052125 103.929142 
z
" clip-path="url(#p6b6a5d0cfb)" style="fill: #eeb98e"/>
   </g>
   <g id="patch_28">
    <path d="M 146.972125 486.794 
L 167.804125 486.794 
L 167.804125 90.391979 
L 146.972125 90.391979 
z
" clip-path="url(#p6b6a5d0cfb)" style="fill: #f2daab"/>
   </g>
   <g id="patch_29">
    <path d="M 94.892125 486.794 
L 115.724125 486.794 
L 115.724125 73.239951 
L 94.892125 73.239951 
z
" clip-path="url(#p6b6a5d0cfb)" style="fill: #f2ddae"/>
   </g>
   <g id="patch_30">
    <path d="M 120.932125 486.794 
L 141.764125 486.794 
L 141.764125 80.593997 
L 120.932125 80.593997 
z
" clip-path="url(#p6b6a5d0cfb)" style="fill: #f2dfb0"/>
   </g>
   <g id="patch_31">
    <path d="M 68.852125 486.794 
L 89.684125 486.794 
L 89.684125 66.986358 
L 68.852125 66.986358 
z
" clip-path="url(#p6b6a5d0cfb)" style="fill: #f3e7b8"/>
   </g>
   <g id="patch_32">
    <path d="M 42.812125 486.794 
L 63.644125 486.794 
L 63.644125 64.394 
L 42.812125 64.394 
z
" clip-path="url(#p6b6a5d0cfb)" style="fill: #f4f5c7"/>
   </g>
   <g id="patch_33">
    <path d="M 53.228125 486.794 
L 53.228125 486.794 
L 53.228125 486.794 
L 53.228125 486.794 
z
" clip-path="url(#p6b6a5d0cfb)" style="fill: #090817"/>
   </g>
   <g id="patch_34">
    <path d="M 53.228125 486.794 
L 53.228125 486.794 
L 53.228125 486.794 
L 53.228125 486.794 
z
" clip-path="url(#p6b6a5d0cfb)" style="fill: #4c1e6d"/>
   </g>
   <g id="patch_35">
    <path d="M 53.228125 486.794 
L 53.228125 486.794 
L 53.228125 486.794 
L 53.228125 486.794 
z
" clip-path="url(#p6b6a5d0cfb)" style="fill: #8f3c79"/>
   </g>
   <g id="patch_36">
    <path d="M 53.228125 486.794 
L 53.228125 486.794 
L 53.228125 486.794 
L 53.228125 486.794 
z
" clip-path="url(#p6b6a5d0cfb)" style="fill: #d56571"/>
   </g>
   <g id="patch_37">
    <path d="M 53.228125 486.794 
L 53.228125 486.794 
L 53.228125 486.794 
L 53.228125 486.794 
z
" clip-path="url(#p6b6a5d0cfb)" style="fill: #edb087"/>
   </g>
   <g id="matplotlib.axis_1">
    <g id="xtick_1">
     <g id="line2d_1">
      <defs>
       <path id="m75f24c6b11" d="M 0 0 
L 0 3.5 
" style="stroke: #000000; stroke-width: 0.8"/>
      </defs>
      <g>
       <use xlink:href="#m75f24c6b11" x="53.228125" y="486.794" style="stroke: #000000; stroke-width: 0.8"/>
      </g>
     </g>
     <g id="text_1">
      <!-- Q00987 -->
      <g transform="translate(21.146469 529.778001) rotate(-45) scale(0.1 -0.1)">
       <defs>
        <path id="DejaVuSans-Bold-51" d="M 2847 -84 
L 2753 -84 
Q 1600 -84 959 553 
Q 319 1191 319 2328 
Q 319 3463 958 4106 
Q 1597 4750 2719 4750 
Q 3853 4750 4486 4112 
Q 5119 3475 5119 2328 
Q 5119 1541 4783 972 
Q 4447 403 3816 116 
L 4756 -934 
L 3609 -934 
L 2847 -84 
z
M 2719 3878 
Q 2169 3878 1866 3472 
Q 1563 3066 1563 2328 
Q 1563 1578 1859 1179 
Q 2156 781 2719 781 
Q 3272 781 3575 1187 
Q 3878 1594 3878 2328 
Q 3878 3066 3575 3472 
Q 3272 3878 2719 3878 
z
" transform="scale(0.015625)"/>
        <path id="DejaVuSans-Bold-30" d="M 2944 2338 
Q 2944 3213 2780 3570 
Q 2616 3928 2228 3928 
Q 1841 3928 1675 3570 
Q 1509 3213 1509 2338 
Q 1509 1453 1675 1090 
Q 1841 728 2228 728 
Q 2613 728 2778 1090 
Q 2944 1453 2944 2338 
z
M 4147 2328 
Q 4147 1169 3647 539 
Q 3147 -91 2228 -91 
Q 1306 -91 806 539 
Q 306 1169 306 2328 
Q 306 3491 806 4120 
Q 1306 4750 2228 4750 
Q 3147 4750 3647 4120 
Q 4147 3491 4147 2328 
z
" transform="scale(0.015625)"/>
        <path id="DejaVuSans-Bold-39" d="M 641 103 
L 641 966 
Q 928 831 1190 764 
Q 1453 697 1709 697 
Q 2247 697 2547 995 
Q 2847 1294 2900 1881 
Q 2688 1725 2447 1647 
Q 2206 1569 1925 1569 
Q 1209 1569 770 1986 
Q 331 2403 331 3084 
Q 331 3838 820 4291 
Q 1309 4744 2131 4744 
Q 3044 4744 3544 4128 
Q 4044 3513 4044 2388 
Q 4044 1231 3459 570 
Q 2875 -91 1856 -91 
Q 1528 -91 1228 -42 
Q 928 6 641 103 
z
M 2125 2350 
Q 2441 2350 2600 2554 
Q 2759 2759 2759 3169 
Q 2759 3575 2600 3781 
Q 2441 3988 2125 3988 
Q 1809 3988 1650 3781 
Q 1491 3575 1491 3169 
Q 1491 2759 1650 2554 
Q 1809 2350 2125 2350 
z
" transform="scale(0.015625)"/>
        <path id="DejaVuSans-Bold-38" d="M 2228 2088 
Q 1891 2088 1709 1903 
Q 1528 1719 1528 1375 
Q 1528 1031 1709 848 
Q 1891 666 2228 666 
Q 2563 666 2741 848 
Q 2919 1031 2919 1375 
Q 2919 1722 2741 1905 
Q 2563 2088 2228 2088 
z
M 1350 2484 
Q 925 2613 709 2878 
Q 494 3144 494 3541 
Q 494 4131 934 4440 
Q 1375 4750 2228 4750 
Q 3075 4750 3515 4442 
Q 3956 4134 3956 3541 
Q 3956 3144 3739 2878 
Q 3522 2613 3097 2484 
Q 3572 2353 3814 2058 
Q 4056 1763 4056 1313 
Q 4056 619 3595 264 
Q 3134 -91 2228 -91 
Q 1319 -91 855 264 
Q 391 619 391 1313 
Q 391 1763 633 2058 
Q 875 2353 1350 2484 
z
M 1631 3419 
Q 1631 3141 1786 2991 
Q 1941 2841 2228 2841 
Q 2509 2841 2662 2991 
Q 2816 3141 2816 3419 
Q 2816 3697 2662 3845 
Q 2509 3994 2228 3994 
Q 1941 3994 1786 3844 
Q 1631 3694 1631 3419 
z
" transform="scale(0.015625)"/>
        <path id="DejaVuSans-Bold-37" d="M 428 4666 
L 3944 4666 
L 3944 3988 
L 2125 0 
L 953 0 
L 2675 3781 
L 428 3781 
L 428 4666 
z
" transform="scale(0.015625)"/>
       </defs>
       <use xlink:href="#DejaVuSans-Bold-51"/>
       <use xlink:href="#DejaVuSans-Bold-30" transform="translate(85.009766 0)"/>
       <use xlink:href="#DejaVuSans-Bold-30" transform="translate(154.589844 0)"/>
       <use xlink:href="#DejaVuSans-Bold-39" transform="translate(224.169922 0)"/>
       <use xlink:href="#DejaVuSans-Bold-38" transform="translate(293.75 0)"/>
       <use xlink:href="#DejaVuSans-Bold-37" transform="translate(363.330078 0)"/>
      </g>
     </g>
    </g>
    <g id="xtick_2">
     <g id="line2d_2">
      <g>
       <use xlink:href="#m75f24c6b11" x="79.268125" y="486.794" style="stroke: #000000; stroke-width: 0.8"/>
      </g>
     </g>
     <g id="text_2">
      <!-- Q08380 -->
      <g transform="translate(47.186469 529.778001) rotate(-45) scale(0.1 -0.1)">
       <defs>
        <path id="DejaVuSans-Bold-33" d="M 2981 2516 
Q 3453 2394 3698 2092 
Q 3944 1791 3944 1325 
Q 3944 631 3412 270 
Q 2881 -91 1863 -91 
Q 1503 -91 1142 -33 
Q 781 25 428 141 
L 428 1069 
Q 766 900 1098 814 
Q 1431 728 1753 728 
Q 2231 728 2486 893 
Q 2741 1059 2741 1369 
Q 2741 1688 2480 1852 
Q 2219 2016 1709 2016 
L 1228 2016 
L 1228 2791 
L 1734 2791 
Q 2188 2791 2409 2933 
Q 2631 3075 2631 3366 
Q 2631 3634 2415 3781 
Q 2200 3928 1806 3928 
Q 1516 3928 1219 3862 
Q 922 3797 628 3669 
L 628 4550 
Q 984 4650 1334 4700 
Q 1684 4750 2022 4750 
Q 2931 4750 3382 4451 
Q 3834 4153 3834 3553 
Q 3834 3144 3618 2883 
Q 3403 2622 2981 2516 
z
" transform="scale(0.015625)"/>
       </defs>
       <use xlink:href="#DejaVuSans-Bold-51"/>
       <use xlink:href="#DejaVuSans-Bold-30" transform="translate(85.009766 0)"/>
       <use xlink:href="#DejaVuSans-Bold-38" transform="translate(154.589844 0)"/>
       <use xlink:href="#DejaVuSans-Bold-33" transform="translate(224.169922 0)"/>
       <use xlink:href="#DejaVuSans-Bold-38" transform="translate(293.75 0)"/>
       <use xlink:href="#DejaVuSans-Bold-30" transform="translate(363.330078 0)"/>
      </g>
     </g>
    </g>
    <g id="xtick_3">
     <g id="line2d_3">
      <g>
       <use xlink:href="#m75f24c6b11" x="105.308125" y="486.794" style="stroke: #000000; stroke-width: 0.8"/>
      </g>
     </g>
     <g id="text_3">
      <!-- P37173 -->
      <g transform="translate(74.05511 528.94936) rotate(-45) scale(0.1 -0.1)">
       <defs>
        <path id="DejaVuSans-Bold-50" d="M 588 4666 
L 2584 4666 
Q 3475 4666 3951 4270 
Q 4428 3875 4428 3144 
Q 4428 2409 3951 2014 
Q 3475 1619 2584 1619 
L 1791 1619 
L 1791 0 
L 588 0 
L 588 4666 
z
M 1791 3794 
L 1791 2491 
L 2456 2491 
Q 2806 2491 2997 2661 
Q 3188 2831 3188 3144 
Q 3188 3456 2997 3625 
Q 2806 3794 2456 3794 
L 1791 3794 
z
" transform="scale(0.015625)"/>
        <path id="DejaVuSans-Bold-31" d="M 750 831 
L 1813 831 
L 1813 3847 
L 722 3622 
L 722 4441 
L 1806 4666 
L 2950 4666 
L 2950 831 
L 4013 831 
L 4013 0 
L 750 0 
L 750 831 
z
" transform="scale(0.015625)"/>
       </defs>
       <use xlink:href="#DejaVuSans-Bold-50"/>
       <use xlink:href="#DejaVuSans-Bold-33" transform="translate(73.291016 0)"/>
       <use xlink:href="#DejaVuSans-Bold-37" transform="translate(142.871094 0)"/>
       <use xlink:href="#DejaVuSans-Bold-31" transform="translate(212.451172 0)"/>
       <use xlink:href="#DejaVuSans-Bold-37" transform="translate(282.03125 0)"/>
       <use xlink:href="#DejaVuSans-Bold-33" transform="translate(351.611328 0)"/>
      </g>
     </g>
    </g>
    <g id="xtick_4">
     <g id="line2d_4">
      <g>
       <use xlink:href="#m75f24c6b11" x="131.348125" y="486.794" style="stroke: #000000; stroke-width: 0.8"/>
      </g>
     </g>
     <g id="text_4">
      <!-- O43776 -->
      <g transform="translate(99.266469 529.778001) rotate(-45) scale(0.1 -0.1)">
       <defs>
        <path id="DejaVuSans-Bold-4f" d="M 2719 3878 
Q 2169 3878 1866 3472 
Q 1563 3066 1563 2328 
Q 1563 1594 1866 1187 
Q 2169 781 2719 781 
Q 3272 781 3575 1187 
Q 3878 1594 3878 2328 
Q 3878 3066 3575 3472 
Q 3272 3878 2719 3878 
z
M 2719 4750 
Q 3844 4750 4481 4106 
Q 5119 3463 5119 2328 
Q 5119 1197 4481 553 
Q 3844 -91 2719 -91 
Q 1597 -91 958 553 
Q 319 1197 319 2328 
Q 319 3463 958 4106 
Q 1597 4750 2719 4750 
z
" transform="scale(0.015625)"/>
        <path id="DejaVuSans-Bold-34" d="M 2356 3675 
L 1038 1722 
L 2356 1722 
L 2356 3675 
z
M 2156 4666 
L 3494 4666 
L 3494 1722 
L 4159 1722 
L 4159 850 
L 3494 850 
L 3494 0 
L 2356 0 
L 2356 850 
L 288 850 
L 288 1881 
L 2156 4666 
z
" transform="scale(0.015625)"/>
        <path id="DejaVuSans-Bold-36" d="M 2316 2303 
Q 2000 2303 1842 2098 
Q 1684 1894 1684 1484 
Q 1684 1075 1842 870 
Q 2000 666 2316 666 
Q 2634 666 2792 870 
Q 2950 1075 2950 1484 
Q 2950 1894 2792 2098 
Q 2634 2303 2316 2303 
z
M 3803 4544 
L 3803 3681 
Q 3506 3822 3243 3889 
Q 2981 3956 2731 3956 
Q 2194 3956 1894 3657 
Q 1594 3359 1544 2772 
Q 1750 2925 1990 3001 
Q 2231 3078 2516 3078 
Q 3231 3078 3670 2659 
Q 4109 2241 4109 1563 
Q 4109 813 3618 361 
Q 3128 -91 2303 -91 
Q 1394 -91 895 523 
Q 397 1138 397 2266 
Q 397 3422 980 4083 
Q 1563 4744 2578 4744 
Q 2900 4744 3203 4694 
Q 3506 4644 3803 4544 
z
" transform="scale(0.015625)"/>
       </defs>
       <use xlink:href="#DejaVuSans-Bold-4f"/>
       <use xlink:href="#DejaVuSans-Bold-34" transform="translate(85.009766 0)"/>
       <use xlink:href="#DejaVuSans-Bold-33" transform="translate(154.589844 0)"/>
       <use xlink:href="#DejaVuSans-Bold-37" transform="translate(224.169922 0)"/>
       <use xlink:href="#DejaVuSans-Bold-37" transform="translate(293.75 0)"/>
       <use xlink:href="#DejaVuSans-Bold-36" transform="translate(363.330078 0)"/>
      </g>
     </g>
    </g>
    <g id="xtick_5">
     <g id="line2d_5">
      <g>
       <use xlink:href="#m75f24c6b11" x="157.388125" y="486.794" style="stroke: #000000; stroke-width: 0.8"/>
      </g>
     </g>
     <g id="text_5">
      <!-- Q13188 -->
      <g transform="translate(125.306469 529.778001) rotate(-45) scale(0.1 -0.1)">
       <use xlink:href="#DejaVuSans-Bold-51"/>
       <use xlink:href="#DejaVuSans-Bold-31" transform="translate(85.009766 0)"/>
       <use xlink:href="#DejaVuSans-Bold-33" transform="translate(154.589844 0)"/>
       <use xlink:href="#DejaVuSans-Bold-31" transform="translate(224.169922 0)"/>
       <use xlink:href="#DejaVuSans-Bold-38" transform="translate(293.75 0)"/>
       <use xlink:href="#DejaVuSans-Bold-38" transform="translate(363.330078 0)"/>
      </g>
     </g>
    </g>
    <g id="xtick_6">
     <g id="line2d_6">
      <g>
       <use xlink:href="#m75f24c6b11" x="183.428125" y="486.794" style="stroke: #000000; stroke-width: 0.8"/>
      </g>
     </g>
     <g id="text_6">
      <!-- Q02078 -->
      <g transform="translate(151.346469 529.778001) rotate(-45) scale(0.1 -0.1)">
       <defs>
        <path id="DejaVuSans-Bold-32" d="M 1844 884 
L 3897 884 
L 3897 0 
L 506 0 
L 506 884 
L 2209 2388 
Q 2438 2594 2547 2791 
Q 2656 2988 2656 3200 
Q 2656 3528 2436 3728 
Q 2216 3928 1850 3928 
Q 1569 3928 1234 3808 
Q 900 3688 519 3450 
L 519 4475 
Q 925 4609 1322 4679 
Q 1719 4750 2100 4750 
Q 2938 4750 3402 4381 
Q 3866 4013 3866 3353 
Q 3866 2972 3669 2642 
Q 3472 2313 2841 1759 
L 1844 884 
z
" transform="scale(0.015625)"/>
       </defs>
       <use xlink:href="#DejaVuSans-Bold-51"/>
       <use xlink:href="#DejaVuSans-Bold-30" transform="translate(85.009766 0)"/>
       <use xlink:href="#DejaVuSans-Bold-32" transform="translate(154.589844 0)"/>
       <use xlink:href="#DejaVuSans-Bold-30" transform="translate(224.169922 0)"/>
       <use xlink:href="#DejaVuSans-Bold-37" transform="translate(293.75 0)"/>
       <use xlink:href="#DejaVuSans-Bold-38" transform="translate(363.330078 0)"/>
      </g>
     </g>
    </g>
    <g id="xtick_7">
     <g id="line2d_7">
      <g>
       <use xlink:href="#m75f24c6b11" x="209.468125" y="486.794" style="stroke: #000000; stroke-width: 0.8"/>
      </g>
     </g>
     <g id="text_7">
      <!-- P12931 -->
      <g transform="translate(178.21511 528.94936) rotate(-45) scale(0.1 -0.1)">
       <use xlink:href="#DejaVuSans-Bold-50"/>
       <use xlink:href="#DejaVuSans-Bold-31" transform="translate(73.291016 0)"/>
       <use xlink:href="#DejaVuSans-Bold-32" transform="translate(142.871094 0)"/>
       <use xlink:href="#DejaVuSans-Bold-39" transform="translate(212.451172 0)"/>
       <use xlink:href="#DejaVuSans-Bold-33" transform="translate(282.03125 0)"/>
       <use xlink:href="#DejaVuSans-Bold-31" transform="translate(351.611328 0)"/>
      </g>
     </g>
    </g>
    <g id="xtick_8">
     <g id="line2d_8">
      <g>
       <use xlink:href="#m75f24c6b11" x="235.508125" y="486.794" style="stroke: #000000; stroke-width: 0.8"/>
      </g>
     </g>
     <g id="text_8">
      <!-- Q9BSQ5 -->
      <g transform="translate(201.692953 531.511518) rotate(-45) scale(0.1 -0.1)">
       <defs>
        <path id="DejaVuSans-Bold-42" d="M 2456 2859 
Q 2741 2859 2887 2984 
Q 3034 3109 3034 3353 
Q 3034 3594 2887 3720 
Q 2741 3847 2456 3847 
L 1791 3847 
L 1791 2859 
L 2456 2859 
z
M 2497 819 
Q 2859 819 3042 972 
Q 3225 1125 3225 1434 
Q 3225 1738 3044 1889 
Q 2863 2041 2497 2041 
L 1791 2041 
L 1791 819 
L 2497 819 
z
M 3616 2497 
Q 4003 2384 4215 2081 
Q 4428 1778 4428 1338 
Q 4428 663 3972 331 
Q 3516 0 2584 0 
L 588 0 
L 588 4666 
L 2394 4666 
Q 3366 4666 3802 4372 
Q 4238 4078 4238 3431 
Q 4238 3091 4078 2852 
Q 3919 2613 3616 2497 
z
" transform="scale(0.015625)"/>
        <path id="DejaVuSans-Bold-53" d="M 3834 4519 
L 3834 3531 
Q 3450 3703 3084 3790 
Q 2719 3878 2394 3878 
Q 1963 3878 1756 3759 
Q 1550 3641 1550 3391 
Q 1550 3203 1689 3098 
Q 1828 2994 2194 2919 
L 2706 2816 
Q 3484 2659 3812 2340 
Q 4141 2022 4141 1434 
Q 4141 663 3683 286 
Q 3225 -91 2284 -91 
Q 1841 -91 1394 -6 
Q 947 78 500 244 
L 500 1259 
Q 947 1022 1364 901 
Q 1781 781 2169 781 
Q 2563 781 2772 912 
Q 2981 1044 2981 1288 
Q 2981 1506 2839 1625 
Q 2697 1744 2272 1838 
L 1806 1941 
Q 1106 2091 782 2419 
Q 459 2747 459 3303 
Q 459 4000 909 4375 
Q 1359 4750 2203 4750 
Q 2588 4750 2994 4692 
Q 3400 4634 3834 4519 
z
" transform="scale(0.015625)"/>
        <path id="DejaVuSans-Bold-35" d="M 678 4666 
L 3669 4666 
L 3669 3781 
L 1638 3781 
L 1638 3059 
Q 1775 3097 1914 3117 
Q 2053 3138 2203 3138 
Q 3056 3138 3531 2711 
Q 4006 2284 4006 1522 
Q 4006 766 3489 337 
Q 2972 -91 2053 -91 
Q 1656 -91 1267 -14 
Q 878 63 494 219 
L 494 1166 
Q 875 947 1217 837 
Q 1559 728 1863 728 
Q 2300 728 2551 942 
Q 2803 1156 2803 1522 
Q 2803 1891 2551 2103 
Q 2300 2316 1863 2316 
Q 1603 2316 1309 2248 
Q 1016 2181 678 2041 
L 678 4666 
z
" transform="scale(0.015625)"/>
       </defs>
       <use xlink:href="#DejaVuSans-Bold-51"/>
       <use xlink:href="#DejaVuSans-Bold-39" transform="translate(85.009766 0)"/>
       <use xlink:href="#DejaVuSans-Bold-42" transform="translate(154.589844 0)"/>
       <use xlink:href="#DejaVuSans-Bold-53" transform="translate(230.810547 0)"/>
       <use xlink:href="#DejaVuSans-Bold-51" transform="translate(302.832031 0)"/>
       <use xlink:href="#DejaVuSans-Bold-35" transform="translate(387.841797 0)"/>
      </g>
     </g>
    </g>
    <g id="xtick_9">
     <g id="line2d_9">
      <g>
       <use xlink:href="#m75f24c6b11" x="261.548125" y="486.794" style="stroke: #000000; stroke-width: 0.8"/>
      </g>
     </g>
     <g id="text_9">
      <!-- P26038 -->
      <g transform="translate(230.29511 528.94936) rotate(-45) scale(0.1 -0.1)">
       <use xlink:href="#DejaVuSans-Bold-50"/>
       <use xlink:href="#DejaVuSans-Bold-32" transform="translate(73.291016 0)"/>
       <use xlink:href="#DejaVuSans-Bold-36" transform="translate(142.871094 0)"/>
       <use xlink:href="#DejaVuSans-Bold-30" transform="translate(212.451172 0)"/>
       <use xlink:href="#DejaVuSans-Bold-33" transform="translate(282.03125 0)"/>
       <use xlink:href="#DejaVuSans-Bold-38" transform="translate(351.611328 0)"/>
      </g>
     </g>
    </g>
    <g id="xtick_10">
     <g id="line2d_10">
      <g>
       <use xlink:href="#m75f24c6b11" x="287.588125" y="486.794" style="stroke: #000000; stroke-width: 0.8"/>
      </g>
     </g>
     <g id="text_10">
      <!-- Q15036 -->
      <g transform="translate(255.506469 529.778001) rotate(-45) scale(0.1 -0.1)">
       <use xlink:href="#DejaVuSans-Bold-51"/>
       <use xlink:href="#DejaVuSans-Bold-31" transform="translate(85.009766 0)"/>
       <use xlink:href="#DejaVuSans-Bold-35" transform="translate(154.589844 0)"/>
       <use xlink:href="#DejaVuSans-Bold-30" transform="translate(224.169922 0)"/>
       <use xlink:href="#DejaVuSans-Bold-33" transform="translate(293.75 0)"/>
       <use xlink:href="#DejaVuSans-Bold-36" transform="translate(363.330078 0)"/>
      </g>
     </g>
    </g>
    <g id="xtick_11">
     <g id="line2d_11">
      <g>
       <use xlink:href="#m75f24c6b11" x="313.628125" y="486.794" style="stroke: #000000; stroke-width: 0.8"/>
      </g>
     </g>
     <g id="text_11">
      <!-- Q9H7Z6 -->
      <g transform="translate(280.341073 530.983397) rotate(-45) scale(0.1 -0.1)">
       <defs>
        <path id="DejaVuSans-Bold-48" d="M 588 4666 
L 1791 4666 
L 1791 2888 
L 3566 2888 
L 3566 4666 
L 4769 4666 
L 4769 0 
L 3566 0 
L 3566 1978 
L 1791 1978 
L 1791 0 
L 588 0 
L 588 4666 
z
" transform="scale(0.015625)"/>
        <path id="DejaVuSans-Bold-5a" d="M 359 4666 
L 4281 4666 
L 4281 3938 
L 1778 909 
L 4353 909 
L 4353 0 
L 288 0 
L 288 728 
L 2791 3756 
L 359 3756 
L 359 4666 
z
" transform="scale(0.015625)"/>
       </defs>
       <use xlink:href="#DejaVuSans-Bold-51"/>
       <use xlink:href="#DejaVuSans-Bold-39" transform="translate(85.009766 0)"/>
       <use xlink:href="#DejaVuSans-Bold-48" transform="translate(154.589844 0)"/>
       <use xlink:href="#DejaVuSans-Bold-37" transform="translate(238.28125 0)"/>
       <use xlink:href="#DejaVuSans-Bold-5a" transform="translate(307.861328 0)"/>
       <use xlink:href="#DejaVuSans-Bold-36" transform="translate(380.371094 0)"/>
      </g>
     </g>
    </g>
    <g id="xtick_12">
     <g id="line2d_12">
      <g>
       <use xlink:href="#m75f24c6b11" x="339.668125" y="486.794" style="stroke: #000000; stroke-width: 0.8"/>
      </g>
     </g>
     <g id="text_12">
      <!-- Q96FJ0 -->
      <g transform="translate(309.965221 527.39925) rotate(-45) scale(0.1 -0.1)">
       <defs>
        <path id="DejaVuSans-Bold-46" d="M 588 4666 
L 3834 4666 
L 3834 3756 
L 1791 3756 
L 1791 2888 
L 3713 2888 
L 3713 1978 
L 1791 1978 
L 1791 0 
L 588 0 
L 588 4666 
z
" transform="scale(0.015625)"/>
        <path id="DejaVuSans-Bold-4a" d="M 588 4666 
L 1791 4666 
L 1791 453 
Q 1791 -419 1317 -850 
Q 844 -1281 -116 -1281 
L -359 -1281 
L -359 -372 
L -172 -372 
Q 203 -372 395 -162 
Q 588 47 588 453 
L 588 4666 
z
" transform="scale(0.015625)"/>
       </defs>
       <use xlink:href="#DejaVuSans-Bold-51"/>
       <use xlink:href="#DejaVuSans-Bold-39" transform="translate(85.009766 0)"/>
       <use xlink:href="#DejaVuSans-Bold-36" transform="translate(154.589844 0)"/>
       <use xlink:href="#DejaVuSans-Bold-46" transform="translate(224.169922 0)"/>
       <use xlink:href="#DejaVuSans-Bold-4a" transform="translate(292.480469 0)"/>
       <use xlink:href="#DejaVuSans-Bold-30" transform="translate(329.6875 0)"/>
      </g>
     </g>
    </g>
    <g id="xtick_13">
     <g id="line2d_13">
      <g>
       <use xlink:href="#m75f24c6b11" x="365.708125" y="486.794" style="stroke: #000000; stroke-width: 0.8"/>
      </g>
     </g>
     <g id="text_13">
      <!-- Q3YBR2 -->
      <g transform="translate(332.432122 530.972349) rotate(-45) scale(0.1 -0.1)">
       <defs>
        <path id="DejaVuSans-Bold-59" d="M -63 4666 
L 1253 4666 
L 2316 3003 
L 3378 4666 
L 4697 4666 
L 2919 1966 
L 2919 0 
L 1716 0 
L 1716 1966 
L -63 4666 
z
" transform="scale(0.015625)"/>
        <path id="DejaVuSans-Bold-52" d="M 2297 2597 
Q 2675 2597 2839 2737 
Q 3003 2878 3003 3200 
Q 3003 3519 2839 3656 
Q 2675 3794 2297 3794 
L 1791 3794 
L 1791 2597 
L 2297 2597 
z
M 1791 1766 
L 1791 0 
L 588 0 
L 588 4666 
L 2425 4666 
Q 3347 4666 3776 4356 
Q 4206 4047 4206 3378 
Q 4206 2916 3982 2619 
Q 3759 2322 3309 2181 
Q 3556 2125 3751 1926 
Q 3947 1728 4147 1325 
L 4800 0 
L 3519 0 
L 2950 1159 
Q 2778 1509 2601 1637 
Q 2425 1766 2131 1766 
L 1791 1766 
z
" transform="scale(0.015625)"/>
       </defs>
       <use xlink:href="#DejaVuSans-Bold-51"/>
       <use xlink:href="#DejaVuSans-Bold-33" transform="translate(85.009766 0)"/>
       <use xlink:href="#DejaVuSans-Bold-59" transform="translate(154.589844 0)"/>
       <use xlink:href="#DejaVuSans-Bold-42" transform="translate(227.001953 0)"/>
       <use xlink:href="#DejaVuSans-Bold-52" transform="translate(303.222656 0)"/>
       <use xlink:href="#DejaVuSans-Bold-32" transform="translate(380.224609 0)"/>
      </g>
     </g>
    </g>
    <g id="xtick_14">
     <g id="line2d_14">
      <g>
       <use xlink:href="#m75f24c6b11" x="391.748125" y="486.794" style="stroke: #000000; stroke-width: 0.8"/>
      </g>
     </g>
     <g id="text_14">
      <!-- Q9H040 -->
      <g transform="translate(358.668786 530.775685) rotate(-45) scale(0.1 -0.1)">
       <use xlink:href="#DejaVuSans-Bold-51"/>
       <use xlink:href="#DejaVuSans-Bold-39" transform="translate(85.009766 0)"/>
       <use xlink:href="#DejaVuSans-Bold-48" transform="translate(154.589844 0)"/>
       <use xlink:href="#DejaVuSans-Bold-30" transform="translate(238.28125 0)"/>
       <use xlink:href="#DejaVuSans-Bold-34" transform="translate(307.861328 0)"/>
       <use xlink:href="#DejaVuSans-Bold-30" transform="translate(377.441406 0)"/>
      </g>
     </g>
    </g>
    <g id="xtick_15">
     <g id="line2d_15">
      <g>
       <use xlink:href="#m75f24c6b11" x="417.788125" y="486.794" style="stroke: #000000; stroke-width: 0.8"/>
      </g>
     </g>
     <g id="text_15">
      <!-- P17752 -->
      <g transform="translate(386.53511 528.94936) rotate(-45) scale(0.1 -0.1)">
       <use xlink:href="#DejaVuSans-Bold-50"/>
       <use xlink:href="#DejaVuSans-Bold-31" transform="translate(73.291016 0)"/>
       <use xlink:href="#DejaVuSans-Bold-37" transform="translate(142.871094 0)"/>
       <use xlink:href="#DejaVuSans-Bold-37" transform="translate(212.451172 0)"/>
       <use xlink:href="#DejaVuSans-Bold-35" transform="translate(282.03125 0)"/>
       <use xlink:href="#DejaVuSans-Bold-32" transform="translate(351.611328 0)"/>
      </g>
     </g>
    </g>
    <g id="xtick_16">
     <g id="line2d_16">
      <g>
       <use xlink:href="#m75f24c6b11" x="443.828125" y="486.794" style="stroke: #000000; stroke-width: 0.8"/>
      </g>
     </g>
     <g id="text_16">
      <!-- Q9H2S1 -->
      <g transform="translate(410.576429 530.948042) rotate(-45) scale(0.1 -0.1)">
       <use xlink:href="#DejaVuSans-Bold-51"/>
       <use xlink:href="#DejaVuSans-Bold-39" transform="translate(85.009766 0)"/>
       <use xlink:href="#DejaVuSans-Bold-48" transform="translate(154.589844 0)"/>
       <use xlink:href="#DejaVuSans-Bold-32" transform="translate(238.28125 0)"/>
       <use xlink:href="#DejaVuSans-Bold-53" transform="translate(307.861328 0)"/>
       <use xlink:href="#DejaVuSans-Bold-31" transform="translate(379.882812 0)"/>
      </g>
     </g>
    </g>
    <g id="xtick_17">
     <g id="line2d_17">
      <g>
       <use xlink:href="#m75f24c6b11" x="469.868125" y="486.794" style="stroke: #000000; stroke-width: 0.8"/>
      </g>
     </g>
     <g id="text_17">
      <!-- P15882 -->
      <g transform="translate(438.61511 528.94936) rotate(-45) scale(0.1 -0.1)">
       <use xlink:href="#DejaVuSans-Bold-50"/>
       <use xlink:href="#DejaVuSans-Bold-31" transform="translate(73.291016 0)"/>
       <use xlink:href="#DejaVuSans-Bold-35" transform="translate(142.871094 0)"/>
       <use xlink:href="#DejaVuSans-Bold-38" transform="translate(212.451172 0)"/>
       <use xlink:href="#DejaVuSans-Bold-38" transform="translate(282.03125 0)"/>
       <use xlink:href="#DejaVuSans-Bold-32" transform="translate(351.611328 0)"/>
      </g>
     </g>
    </g>
    <g id="xtick_18">
     <g id="line2d_18">
      <g>
       <use xlink:href="#m75f24c6b11" x="495.908125" y="486.794" style="stroke: #000000; stroke-width: 0.8"/>
      </g>
     </g>
     <g id="text_18">
      <!-- Q9Y6F1 -->
      <g transform="translate(463.715984 529.888487) rotate(-45) scale(0.1 -0.1)">
       <use xlink:href="#DejaVuSans-Bold-51"/>
       <use xlink:href="#DejaVuSans-Bold-39" transform="translate(85.009766 0)"/>
       <use xlink:href="#DejaVuSans-Bold-59" transform="translate(154.589844 0)"/>
       <use xlink:href="#DejaVuSans-Bold-36" transform="translate(227.001953 0)"/>
       <use xlink:href="#DejaVuSans-Bold-46" transform="translate(296.582031 0)"/>
       <use xlink:href="#DejaVuSans-Bold-31" transform="translate(364.892578 0)"/>
      </g>
     </g>
    </g>
    <g id="xtick_19">
     <g id="line2d_19">
      <g>
       <use xlink:href="#m75f24c6b11" x="521.948125" y="486.794" style="stroke: #000000; stroke-width: 0.8"/>
      </g>
     </g>
     <g id="text_19">
      <!-- P41214 -->
      <g transform="translate(490.69511 528.94936) rotate(-45) scale(0.1 -0.1)">
       <use xlink:href="#DejaVuSans-Bold-50"/>
       <use xlink:href="#DejaVuSans-Bold-34" transform="translate(73.291016 0)"/>
       <use xlink:href="#DejaVuSans-Bold-31" transform="translate(142.871094 0)"/>
       <use xlink:href="#DejaVuSans-Bold-32" transform="translate(212.451172 0)"/>
       <use xlink:href="#DejaVuSans-Bold-31" transform="translate(282.03125 0)"/>
       <use xlink:href="#DejaVuSans-Bold-34" transform="translate(351.611328 0)"/>
      </g>
     </g>
    </g>
    <g id="xtick_20">
     <g id="line2d_20">
      <g>
       <use xlink:href="#m75f24c6b11" x="547.988125" y="486.794" style="stroke: #000000; stroke-width: 0.8"/>
      </g>
     </g>
     <g id="text_20">
      <!-- P48052 -->
      <g transform="translate(516.73511 528.94936) rotate(-45) scale(0.1 -0.1)">
       <use xlink:href="#DejaVuSans-Bold-50"/>
       <use xlink:href="#DejaVuSans-Bold-34" transform="translate(73.291016 0)"/>
       <use xlink:href="#DejaVuSans-Bold-38" transform="translate(142.871094 0)"/>
       <use xlink:href="#DejaVuSans-Bold-30" transform="translate(212.451172 0)"/>
       <use xlink:href="#DejaVuSans-Bold-35" transform="translate(282.03125 0)"/>
       <use xlink:href="#DejaVuSans-Bold-32" transform="translate(351.611328 0)"/>
      </g>
     </g>
    </g>
    <g id="xtick_21">
     <g id="line2d_21">
      <g>
       <use xlink:href="#m75f24c6b11" x="574.028125" y="486.794" style="stroke: #000000; stroke-width: 0.8"/>
      </g>
     </g>
     <g id="text_21">
      <!-- O15091 -->
      <g transform="translate(541.946469 529.778001) rotate(-45) scale(0.1 -0.1)">
       <use xlink:href="#DejaVuSans-Bold-4f"/>
       <use xlink:href="#DejaVuSans-Bold-31" transform="translate(85.009766 0)"/>
       <use xlink:href="#DejaVuSans-Bold-35" transform="translate(154.589844 0)"/>
       <use xlink:href="#DejaVuSans-Bold-30" transform="translate(224.169922 0)"/>
       <use xlink:href="#DejaVuSans-Bold-39" transform="translate(293.75 0)"/>
       <use xlink:href="#DejaVuSans-Bold-31" transform="translate(363.330078 0)"/>
      </g>
     </g>
    </g>
    <g id="xtick_22">
     <g id="line2d_22">
      <g>
       <use xlink:href="#m75f24c6b11" x="600.068125" y="486.794" style="stroke: #000000; stroke-width: 0.8"/>
      </g>
     </g>
     <g id="text_22">
      <!-- P32455 -->
      <g transform="translate(568.81511 528.94936) rotate(-45) scale(0.1 -0.1)">
       <use xlink:href="#DejaVuSans-Bold-50"/>
       <use xlink:href="#DejaVuSans-Bold-33" transform="translate(73.291016 0)"/>
       <use xlink:href="#DejaVuSans-Bold-32" transform="translate(142.871094 0)"/>
       <use xlink:href="#DejaVuSans-Bold-34" transform="translate(212.451172 0)"/>
       <use xlink:href="#DejaVuSans-Bold-35" transform="translate(282.03125 0)"/>
       <use xlink:href="#DejaVuSans-Bold-35" transform="translate(351.611328 0)"/>
      </g>
     </g>
    </g>
    <g id="xtick_23">
     <g id="line2d_23">
      <g>
       <use xlink:href="#m75f24c6b11" x="626.108125" y="486.794" style="stroke: #000000; stroke-width: 0.8"/>
      </g>
     </g>
     <g id="text_23">
      <!-- P01106 -->
      <g transform="translate(594.85511 528.94936) rotate(-45) scale(0.1 -0.1)">
       <use xlink:href="#DejaVuSans-Bold-50"/>
       <use xlink:href="#DejaVuSans-Bold-30" transform="translate(73.291016 0)"/>
       <use xlink:href="#DejaVuSans-Bold-31" transform="translate(142.871094 0)"/>
       <use xlink:href="#DejaVuSans-Bold-31" transform="translate(212.451172 0)"/>
       <use xlink:href="#DejaVuSans-Bold-30" transform="translate(282.03125 0)"/>
       <use xlink:href="#DejaVuSans-Bold-36" transform="translate(351.611328 0)"/>
      </g>
     </g>
    </g>
    <g id="xtick_24">
     <g id="line2d_24">
      <g>
       <use xlink:href="#m75f24c6b11" x="652.148125" y="486.794" style="stroke: #000000; stroke-width: 0.8"/>
      </g>
     </g>
     <g id="text_24">
      <!-- Q14653 -->
      <g transform="translate(620.066469 529.778001) rotate(-45) scale(0.1 -0.1)">
       <use xlink:href="#DejaVuSans-Bold-51"/>
       <use xlink:href="#DejaVuSans-Bold-31" transform="translate(85.009766 0)"/>
       <use xlink:href="#DejaVuSans-Bold-34" transform="translate(154.589844 0)"/>
       <use xlink:href="#DejaVuSans-Bold-36" transform="translate(224.169922 0)"/>
       <use xlink:href="#DejaVuSans-Bold-35" transform="translate(293.75 0)"/>
       <use xlink:href="#DejaVuSans-Bold-33" transform="translate(363.330078 0)"/>
      </g>
     </g>
    </g>
    <g id="xtick_25">
     <g id="line2d_25">
      <g>
       <use xlink:href="#m75f24c6b11" x="678.188125" y="486.794" style="stroke: #000000; stroke-width: 0.8"/>
      </g>
     </g>
     <g id="text_25">
      <!-- P05121 -->
      <g transform="translate(646.93511 528.94936) rotate(-45) scale(0.1 -0.1)">
       <use xlink:href="#DejaVuSans-Bold-50"/>
       <use xlink:href="#DejaVuSans-Bold-30" transform="translate(73.291016 0)"/>
       <use xlink:href="#DejaVuSans-Bold-35" transform="translate(142.871094 0)"/>
       <use xlink:href="#DejaVuSans-Bold-31" transform="translate(212.451172 0)"/>
       <use xlink:href="#DejaVuSans-Bold-32" transform="translate(282.03125 0)"/>
       <use xlink:href="#DejaVuSans-Bold-31" transform="translate(351.611328 0)"/>
      </g>
     </g>
    </g>
    <g id="xtick_26">
     <g id="line2d_26">
      <g>
       <use xlink:href="#m75f24c6b11" x="704.228125" y="486.794" style="stroke: #000000; stroke-width: 0.8"/>
      </g>
     </g>
     <g id="text_26">
      <!-- Q96E29 -->
      <g transform="translate(672.235963 529.688508) rotate(-45) scale(0.1 -0.1)">
       <defs>
        <path id="DejaVuSans-Bold-45" d="M 588 4666 
L 3834 4666 
L 3834 3756 
L 1791 3756 
L 1791 2888 
L 3713 2888 
L 3713 1978 
L 1791 1978 
L 1791 909 
L 3903 909 
L 3903 0 
L 588 0 
L 588 4666 
z
" transform="scale(0.015625)"/>
       </defs>
       <use xlink:href="#DejaVuSans-Bold-51"/>
       <use xlink:href="#DejaVuSans-Bold-39" transform="translate(85.009766 0)"/>
       <use xlink:href="#DejaVuSans-Bold-36" transform="translate(154.589844 0)"/>
       <use xlink:href="#DejaVuSans-Bold-45" transform="translate(224.169922 0)"/>
       <use xlink:href="#DejaVuSans-Bold-32" transform="translate(292.480469 0)"/>
       <use xlink:href="#DejaVuSans-Bold-39" transform="translate(362.060547 0)"/>
      </g>
     </g>
    </g>
    <g id="xtick_27">
     <g id="line2d_27">
      <g>
       <use xlink:href="#m75f24c6b11" x="730.268125" y="486.794" style="stroke: #000000; stroke-width: 0.8"/>
      </g>
     </g>
     <g id="text_27">
      <!-- P13674 -->
      <g transform="translate(699.01511 528.94936) rotate(-45) scale(0.1 -0.1)">
       <use xlink:href="#DejaVuSans-Bold-50"/>
       <use xlink:href="#DejaVuSans-Bold-31" transform="translate(73.291016 0)"/>
       <use xlink:href="#DejaVuSans-Bold-33" transform="translate(142.871094 0)"/>
       <use xlink:href="#DejaVuSans-Bold-36" transform="translate(212.451172 0)"/>
       <use xlink:href="#DejaVuSans-Bold-37" transform="translate(282.03125 0)"/>
       <use xlink:href="#DejaVuSans-Bold-34" transform="translate(351.611328 0)"/>
      </g>
     </g>
    </g>
    <g id="xtick_28">
     <g id="line2d_28">
      <g>
       <use xlink:href="#m75f24c6b11" x="756.308125" y="486.794" style="stroke: #000000; stroke-width: 0.8"/>
      </g>
     </g>
     <g id="text_28">
      <!-- Q07869 -->
      <g transform="translate(724.226469 529.778001) rotate(-45) scale(0.1 -0.1)">
       <use xlink:href="#DejaVuSans-Bold-51"/>
       <use xlink:href="#DejaVuSans-Bold-30" transform="translate(85.009766 0)"/>
       <use xlink:href="#DejaVuSans-Bold-37" transform="translate(154.589844 0)"/>
       <use xlink:href="#DejaVuSans-Bold-38" transform="translate(224.169922 0)"/>
       <use xlink:href="#DejaVuSans-Bold-36" transform="translate(293.75 0)"/>
       <use xlink:href="#DejaVuSans-Bold-39" transform="translate(363.330078 0)"/>
      </g>
     </g>
    </g>
    <g id="xtick_29">
     <g id="line2d_29">
      <g>
       <use xlink:href="#m75f24c6b11" x="782.348125" y="486.794" style="stroke: #000000; stroke-width: 0.8"/>
      </g>
     </g>
     <g id="text_29">
      <!-- P13631 -->
      <g transform="translate(751.09511 528.94936) rotate(-45) scale(0.1 -0.1)">
       <use xlink:href="#DejaVuSans-Bold-50"/>
       <use xlink:href="#DejaVuSans-Bold-31" transform="translate(73.291016 0)"/>
       <use xlink:href="#DejaVuSans-Bold-33" transform="translate(142.871094 0)"/>
       <use xlink:href="#DejaVuSans-Bold-36" transform="translate(212.451172 0)"/>
       <use xlink:href="#DejaVuSans-Bold-33" transform="translate(282.03125 0)"/>
       <use xlink:href="#DejaVuSans-Bold-31" transform="translate(351.611328 0)"/>
      </g>
     </g>
    </g>
    <g id="xtick_30">
     <g id="line2d_30">
      <g>
       <use xlink:href="#m75f24c6b11" x="808.388125" y="486.794" style="stroke: #000000; stroke-width: 0.8"/>
      </g>
     </g>
     <g id="text_30">
      <!-- P17213 -->
      <g transform="translate(777.13511 528.94936) rotate(-45) scale(0.1 -0.1)">
       <use xlink:href="#DejaVuSans-Bold-50"/>
       <use xlink:href="#DejaVuSans-Bold-31" transform="translate(73.291016 0)"/>
       <use xlink:href="#DejaVuSans-Bold-37" transform="translate(142.871094 0)"/>
       <use xlink:href="#DejaVuSans-Bold-32" transform="translate(212.451172 0)"/>
       <use xlink:href="#DejaVuSans-Bold-31" transform="translate(282.03125 0)"/>
       <use xlink:href="#DejaVuSans-Bold-33" transform="translate(351.611328 0)"/>
      </g>
     </g>
    </g>
    <g id="text_31">
     <!-- Protein (UniProt ID) -->
     <g transform="translate(352.4475 547.619891) scale(0.14 -0.14)">
      <defs>
       <path id="DejaVuSans-Bold-72" d="M 3138 2547 
Q 2991 2616 2845 2648 
Q 2700 2681 2553 2681 
Q 2122 2681 1889 2404 
Q 1656 2128 1656 1613 
L 1656 0 
L 538 0 
L 538 3500 
L 1656 3500 
L 1656 2925 
Q 1872 3269 2151 3426 
Q 2431 3584 2822 3584 
Q 2878 3584 2943 3579 
Q 3009 3575 3134 3559 
L 3138 2547 
z
" transform="scale(0.015625)"/>
       <path id="DejaVuSans-Bold-6f" d="M 2203 2784 
Q 1831 2784 1636 2517 
Q 1441 2250 1441 1747 
Q 1441 1244 1636 976 
Q 1831 709 2203 709 
Q 2569 709 2762 976 
Q 2956 1244 2956 1747 
Q 2956 2250 2762 2517 
Q 2569 2784 2203 2784 
z
M 2203 3584 
Q 3106 3584 3614 3096 
Q 4122 2609 4122 1747 
Q 4122 884 3614 396 
Q 3106 -91 2203 -91 
Q 1297 -91 786 396 
Q 275 884 275 1747 
Q 275 2609 786 3096 
Q 1297 3584 2203 3584 
z
" transform="scale(0.015625)"/>
       <path id="DejaVuSans-Bold-74" d="M 1759 4494 
L 1759 3500 
L 2913 3500 
L 2913 2700 
L 1759 2700 
L 1759 1216 
Q 1759 972 1856 886 
Q 1953 800 2241 800 
L 2816 800 
L 2816 0 
L 1856 0 
Q 1194 0 917 276 
Q 641 553 641 1216 
L 641 2700 
L 84 2700 
L 84 3500 
L 641 3500 
L 641 4494 
L 1759 4494 
z
" transform="scale(0.015625)"/>
       <path id="DejaVuSans-Bold-65" d="M 4031 1759 
L 4031 1441 
L 1416 1441 
Q 1456 1047 1700 850 
Q 1944 653 2381 653 
Q 2734 653 3104 758 
Q 3475 863 3866 1075 
L 3866 213 
Q 3469 63 3072 -14 
Q 2675 -91 2278 -91 
Q 1328 -91 801 392 
Q 275 875 275 1747 
Q 275 2603 792 3093 
Q 1309 3584 2216 3584 
Q 3041 3584 3536 3087 
Q 4031 2591 4031 1759 
z
M 2881 2131 
Q 2881 2450 2695 2645 
Q 2509 2841 2209 2841 
Q 1884 2841 1681 2658 
Q 1478 2475 1428 2131 
L 2881 2131 
z
" transform="scale(0.015625)"/>
       <path id="DejaVuSans-Bold-69" d="M 538 3500 
L 1656 3500 
L 1656 0 
L 538 0 
L 538 3500 
z
M 538 4863 
L 1656 4863 
L 1656 3950 
L 538 3950 
L 538 4863 
z
" transform="scale(0.015625)"/>
       <path id="DejaVuSans-Bold-6e" d="M 4056 2131 
L 4056 0 
L 2931 0 
L 2931 347 
L 2931 1631 
Q 2931 2084 2911 2256 
Q 2891 2428 2841 2509 
Q 2775 2619 2662 2680 
Q 2550 2741 2406 2741 
Q 2056 2741 1856 2470 
Q 1656 2200 1656 1722 
L 1656 0 
L 538 0 
L 538 3500 
L 1656 3500 
L 1656 2988 
Q 1909 3294 2193 3439 
Q 2478 3584 2822 3584 
Q 3428 3584 3742 3212 
Q 4056 2841 4056 2131 
z
" transform="scale(0.015625)"/>
       <path id="DejaVuSans-Bold-20" transform="scale(0.015625)"/>
       <path id="DejaVuSans-Bold-28" d="M 2413 -844 
L 1484 -844 
Q 1006 -72 778 623 
Q 550 1319 550 2003 
Q 550 2688 779 3389 
Q 1009 4091 1484 4856 
L 2413 4856 
Q 2013 4116 1813 3408 
Q 1613 2700 1613 2009 
Q 1613 1319 1811 609 
Q 2009 -100 2413 -844 
z
" transform="scale(0.015625)"/>
       <path id="DejaVuSans-Bold-55" d="M 588 4666 
L 1791 4666 
L 1791 1869 
Q 1791 1291 1980 1042 
Q 2169 794 2597 794 
Q 3028 794 3217 1042 
Q 3406 1291 3406 1869 
L 3406 4666 
L 4609 4666 
L 4609 1869 
Q 4609 878 4112 393 
Q 3616 -91 2597 -91 
Q 1581 -91 1084 393 
Q 588 878 588 1869 
L 588 4666 
z
" transform="scale(0.015625)"/>
       <path id="DejaVuSans-Bold-49" d="M 588 4666 
L 1791 4666 
L 1791 0 
L 588 0 
L 588 4666 
z
" transform="scale(0.015625)"/>
       <path id="DejaVuSans-Bold-44" d="M 1791 3756 
L 1791 909 
L 2222 909 
Q 2959 909 3348 1275 
Q 3738 1641 3738 2338 
Q 3738 3031 3350 3393 
Q 2963 3756 2222 3756 
L 1791 3756 
z
M 588 4666 
L 1856 4666 
Q 2919 4666 3439 4514 
Q 3959 4363 4331 4000 
Q 4659 3684 4818 3271 
Q 4978 2859 4978 2338 
Q 4978 1809 4818 1395 
Q 4659 981 4331 666 
Q 3956 303 3431 151 
Q 2906 0 1856 0 
L 588 0 
L 588 4666 
z
" transform="scale(0.015625)"/>
       <path id="DejaVuSans-Bold-29" d="M 513 -844 
Q 913 -100 1113 609 
Q 1313 1319 1313 2009 
Q 1313 2700 1113 3408 
Q 913 4116 513 4856 
L 1441 4856 
Q 1916 4091 2145 3389 
Q 2375 2688 2375 2003 
Q 2375 1319 2147 623 
Q 1919 -72 1441 -844 
L 513 -844 
z
" transform="scale(0.015625)"/>
      </defs>
      <use xlink:href="#DejaVuSans-Bold-50"/>
      <use xlink:href="#DejaVuSans-Bold-72" transform="translate(73.291016 0)"/>
      <use xlink:href="#DejaVuSans-Bold-6f" transform="translate(122.607422 0)"/>
      <use xlink:href="#DejaVuSans-Bold-74" transform="translate(191.308594 0)"/>
      <use xlink:href="#DejaVuSans-Bold-65" transform="translate(239.111328 0)"/>
      <use xlink:href="#DejaVuSans-Bold-69" transform="translate(306.933594 0)"/>
      <use xlink:href="#DejaVuSans-Bold-6e" transform="translate(341.210938 0)"/>
      <use xlink:href="#DejaVuSans-Bold-20" transform="translate(412.402344 0)"/>
      <use xlink:href="#DejaVuSans-Bold-28" transform="translate(447.216797 0)"/>
      <use xlink:href="#DejaVuSans-Bold-55" transform="translate(492.919922 0)"/>
      <use xlink:href="#DejaVuSans-Bold-6e" transform="translate(574.121094 0)"/>
      <use xlink:href="#DejaVuSans-Bold-69" transform="translate(645.3125 0)"/>
      <use xlink:href="#DejaVuSans-Bold-50" transform="translate(679.589844 0)"/>
      <use xlink:href="#DejaVuSans-Bold-72" transform="translate(752.880859 0)"/>
      <use xlink:href="#DejaVuSans-Bold-6f" transform="translate(802.197266 0)"/>
      <use xlink:href="#DejaVuSans-Bold-74" transform="translate(870.898438 0)"/>
      <use xlink:href="#DejaVuSans-Bold-20" transform="translate(918.701172 0)"/>
      <use xlink:href="#DejaVuSans-Bold-49" transform="translate(953.515625 0)"/>
      <use xlink:href="#DejaVuSans-Bold-44" transform="translate(990.722656 0)"/>
      <use xlink:href="#DejaVuSans-Bold-29" transform="translate(1073.730469 0)"/>
     </g>
    </g>
   </g>
   <g id="matplotlib.axis_2">
    <g id="ytick_1">
     <g id="line2d_31">
      <path d="M 40.208125 486.794 
L 821.408125 486.794 
" clip-path="url(#p6b6a5d0cfb)" style="fill: none; stroke: #b0b0b0; stroke-opacity: 0.3; stroke-width: 0.8; stroke-linecap: square"/>
     </g>
     <g id="line2d_32">
      <defs>
       <path id="m13c090fa67" d="M 0 0 
L -3.5 0 
" style="stroke: #000000; stroke-width: 0.8"/>
      </defs>
      <g>
       <use xlink:href="#m13c090fa67" x="40.208125" y="486.794" style="stroke: #000000; stroke-width: 0.8"/>
      </g>
     </g>
     <g id="text_32">
      <!-- 0 -->
      <g transform="translate(24.85875 491.353062) scale(0.12 -0.12)">
       <use xlink:href="#DejaVuSans-Bold-30"/>
      </g>
     </g>
    </g>
    <g id="ytick_2">
     <g id="line2d_33">
      <path d="M 40.208125 429.300181 
L 821.408125 429.300181 
" clip-path="url(#p6b6a5d0cfb)" style="fill: none; stroke: #b0b0b0; stroke-opacity: 0.3; stroke-width: 0.8; stroke-linecap: square"/>
     </g>
     <g id="line2d_34">
      <g>
       <use xlink:href="#m13c090fa67" x="40.208125" y="429.300181" style="stroke: #000000; stroke-width: 0.8"/>
      </g>
     </g>
     <g id="text_33">
      <!-- 1 -->
      <g transform="translate(24.85875 433.859244) scale(0.12 -0.12)">
       <use xlink:href="#DejaVuSans-Bold-31"/>
      </g>
     </g>
    </g>
    <g id="ytick_3">
     <g id="line2d_35">
      <path d="M 40.208125 371.806362 
L 821.408125 371.806362 
" clip-path="url(#p6b6a5d0cfb)" style="fill: none; stroke: #b0b0b0; stroke-opacity: 0.3; stroke-width: 0.8; stroke-linecap: square"/>
     </g>
     <g id="line2d_36">
      <g>
       <use xlink:href="#m13c090fa67" x="40.208125" y="371.806362" style="stroke: #000000; stroke-width: 0.8"/>
      </g>
     </g>
     <g id="text_34">
      <!-- 2 -->
      <g transform="translate(24.85875 376.365425) scale(0.12 -0.12)">
       <use xlink:href="#DejaVuSans-Bold-32"/>
      </g>
     </g>
    </g>
    <g id="ytick_4">
     <g id="line2d_37">
      <path d="M 40.208125 314.312544 
L 821.408125 314.312544 
" clip-path="url(#p6b6a5d0cfb)" style="fill: none; stroke: #b0b0b0; stroke-opacity: 0.3; stroke-width: 0.8; stroke-linecap: square"/>
     </g>
     <g id="line2d_38">
      <g>
       <use xlink:href="#m13c090fa67" x="40.208125" y="314.312544" style="stroke: #000000; stroke-width: 0.8"/>
      </g>
     </g>
     <g id="text_35">
      <!-- 3 -->
      <g transform="translate(24.85875 318.871606) scale(0.12 -0.12)">
       <use xlink:href="#DejaVuSans-Bold-33"/>
      </g>
     </g>
    </g>
    <g id="ytick_5">
     <g id="line2d_39">
      <path d="M 40.208125 256.818725 
L 821.408125 256.818725 
" clip-path="url(#p6b6a5d0cfb)" style="fill: none; stroke: #b0b0b0; stroke-opacity: 0.3; stroke-width: 0.8; stroke-linecap: square"/>
     </g>
     <g id="line2d_40">
      <g>
       <use xlink:href="#m13c090fa67" x="40.208125" y="256.818725" style="stroke: #000000; stroke-width: 0.8"/>
      </g>
     </g>
     <g id="text_36">
      <!-- 4 -->
      <g transform="translate(24.85875 261.377787) scale(0.12 -0.12)">
       <use xlink:href="#DejaVuSans-Bold-34"/>
      </g>
     </g>
    </g>
    <g id="ytick_6">
     <g id="line2d_41">
      <path d="M 40.208125 199.324906 
L 821.408125 199.324906 
" clip-path="url(#p6b6a5d0cfb)" style="fill: none; stroke: #b0b0b0; stroke-opacity: 0.3; stroke-width: 0.8; stroke-linecap: square"/>
     </g>
     <g id="line2d_42">
      <g>
       <use xlink:href="#m13c090fa67" x="40.208125" y="199.324906" style="stroke: #000000; stroke-width: 0.8"/>
      </g>
     </g>
     <g id="text_37">
      <!-- 5 -->
      <g transform="translate(24.85875 203.883969) scale(0.12 -0.12)">
       <use xlink:href="#DejaVuSans-Bold-35"/>
      </g>
     </g>
    </g>
    <g id="ytick_7">
     <g id="line2d_43">
      <path d="M 40.208125 141.831087 
L 821.408125 141.831087 
" clip-path="url(#p6b6a5d0cfb)" style="fill: none; stroke: #b0b0b0; stroke-opacity: 0.3; stroke-width: 0.8; stroke-linecap: square"/>
     </g>
     <g id="line2d_44">
      <g>
       <use xlink:href="#m13c090fa67" x="40.208125" y="141.831087" style="stroke: #000000; stroke-width: 0.8"/>
      </g>
     </g>
     <g id="text_38">
      <!-- 6 -->
      <g transform="translate(24.85875 146.39015) scale(0.12 -0.12)">
       <use xlink:href="#DejaVuSans-Bold-36"/>
      </g>
     </g>
    </g>
    <g id="ytick_8">
     <g id="line2d_45">
      <path d="M 40.208125 84.337269 
L 821.408125 84.337269 
" clip-path="url(#p6b6a5d0cfb)" style="fill: none; stroke: #b0b0b0; stroke-opacity: 0.3; stroke-width: 0.8; stroke-linecap: square"/>
     </g>
     <g id="line2d_46">
      <g>
       <use xlink:href="#m13c090fa67" x="40.208125" y="84.337269" style="stroke: #000000; stroke-width: 0.8"/>
      </g>
     </g>
     <g id="text_39">
      <!-- 7 -->
      <g transform="translate(24.85875 88.896331) scale(0.12 -0.12)">
       <use xlink:href="#DejaVuSans-Bold-37"/>
      </g>
     </g>
    </g>
    <g id="text_40">
     <!-- Average Rigid Conserved Score -->
     <g transform="translate(17.837813 388.780875) rotate(-90) scale(0.14 -0.14)">
      <defs>
       <path id="DejaVuSans-Bold-41" d="M 3419 850 
L 1538 850 
L 1241 0 
L 31 0 
L 1759 4666 
L 3194 4666 
L 4922 0 
L 3713 0 
L 3419 850 
z
M 1838 1716 
L 3116 1716 
L 2478 3572 
L 1838 1716 
z
" transform="scale(0.015625)"/>
       <path id="DejaVuSans-Bold-76" d="M 97 3500 
L 1216 3500 
L 2088 1081 
L 2956 3500 
L 4078 3500 
L 2700 0 
L 1472 0 
L 97 3500 
z
" transform="scale(0.015625)"/>
       <path id="DejaVuSans-Bold-61" d="M 2106 1575 
Q 1756 1575 1579 1456 
Q 1403 1338 1403 1106 
Q 1403 894 1545 773 
Q 1688 653 1941 653 
Q 2256 653 2472 879 
Q 2688 1106 2688 1447 
L 2688 1575 
L 2106 1575 
z
M 3816 1997 
L 3816 0 
L 2688 0 
L 2688 519 
Q 2463 200 2181 54 
Q 1900 -91 1497 -91 
Q 953 -91 614 226 
Q 275 544 275 1050 
Q 275 1666 698 1953 
Q 1122 2241 2028 2241 
L 2688 2241 
L 2688 2328 
Q 2688 2594 2478 2717 
Q 2269 2841 1825 2841 
Q 1466 2841 1156 2769 
Q 847 2697 581 2553 
L 581 3406 
Q 941 3494 1303 3539 
Q 1666 3584 2028 3584 
Q 2975 3584 3395 3211 
Q 3816 2838 3816 1997 
z
" transform="scale(0.015625)"/>
       <path id="DejaVuSans-Bold-67" d="M 2919 594 
Q 2688 288 2409 144 
Q 2131 0 1766 0 
Q 1125 0 706 504 
Q 288 1009 288 1791 
Q 288 2575 706 3076 
Q 1125 3578 1766 3578 
Q 2131 3578 2409 3434 
Q 2688 3291 2919 2981 
L 2919 3500 
L 4044 3500 
L 4044 353 
Q 4044 -491 3511 -936 
Q 2978 -1381 1966 -1381 
Q 1638 -1381 1331 -1331 
Q 1025 -1281 716 -1178 
L 716 -306 
Q 1009 -475 1290 -558 
Q 1572 -641 1856 -641 
Q 2406 -641 2662 -400 
Q 2919 -159 2919 353 
L 2919 594 
z
M 2181 2772 
Q 1834 2772 1640 2515 
Q 1447 2259 1447 1791 
Q 1447 1309 1634 1061 
Q 1822 813 2181 813 
Q 2531 813 2725 1069 
Q 2919 1325 2919 1791 
Q 2919 2259 2725 2515 
Q 2531 2772 2181 2772 
z
" transform="scale(0.015625)"/>
       <path id="DejaVuSans-Bold-64" d="M 2919 2988 
L 2919 4863 
L 4044 4863 
L 4044 0 
L 2919 0 
L 2919 506 
Q 2688 197 2409 53 
Q 2131 -91 1766 -91 
Q 1119 -91 703 423 
Q 288 938 288 1747 
Q 288 2556 703 3070 
Q 1119 3584 1766 3584 
Q 2128 3584 2408 3439 
Q 2688 3294 2919 2988 
z
M 2181 722 
Q 2541 722 2730 984 
Q 2919 1247 2919 1747 
Q 2919 2247 2730 2509 
Q 2541 2772 2181 2772 
Q 1825 2772 1636 2509 
Q 1447 2247 1447 1747 
Q 1447 1247 1636 984 
Q 1825 722 2181 722 
z
" transform="scale(0.015625)"/>
       <path id="DejaVuSans-Bold-43" d="M 4288 256 
Q 3956 84 3597 -3 
Q 3238 -91 2847 -91 
Q 1681 -91 1000 561 
Q 319 1213 319 2328 
Q 319 3447 1000 4098 
Q 1681 4750 2847 4750 
Q 3238 4750 3597 4662 
Q 3956 4575 4288 4403 
L 4288 3438 
Q 3953 3666 3628 3772 
Q 3303 3878 2944 3878 
Q 2300 3878 1931 3465 
Q 1563 3053 1563 2328 
Q 1563 1606 1931 1193 
Q 2300 781 2944 781 
Q 3303 781 3628 887 
Q 3953 994 4288 1222 
L 4288 256 
z
" transform="scale(0.015625)"/>
       <path id="DejaVuSans-Bold-73" d="M 3272 3391 
L 3272 2541 
Q 2913 2691 2578 2766 
Q 2244 2841 1947 2841 
Q 1628 2841 1473 2761 
Q 1319 2681 1319 2516 
Q 1319 2381 1436 2309 
Q 1553 2238 1856 2203 
L 2053 2175 
Q 2913 2066 3209 1816 
Q 3506 1566 3506 1031 
Q 3506 472 3093 190 
Q 2681 -91 1863 -91 
Q 1516 -91 1145 -36 
Q 775 19 384 128 
L 384 978 
Q 719 816 1070 734 
Q 1422 653 1784 653 
Q 2113 653 2278 743 
Q 2444 834 2444 1013 
Q 2444 1163 2330 1236 
Q 2216 1309 1875 1350 
L 1678 1375 
Q 931 1469 631 1722 
Q 331 1975 331 2491 
Q 331 3047 712 3315 
Q 1094 3584 1881 3584 
Q 2191 3584 2531 3537 
Q 2872 3491 3272 3391 
z
" transform="scale(0.015625)"/>
       <path id="DejaVuSans-Bold-63" d="M 3366 3391 
L 3366 2478 
Q 3138 2634 2908 2709 
Q 2678 2784 2431 2784 
Q 1963 2784 1702 2511 
Q 1441 2238 1441 1747 
Q 1441 1256 1702 982 
Q 1963 709 2431 709 
Q 2694 709 2930 787 
Q 3166 866 3366 1019 
L 3366 103 
Q 3103 6 2833 -42 
Q 2563 -91 2291 -91 
Q 1344 -91 809 395 
Q 275 881 275 1747 
Q 275 2613 809 3098 
Q 1344 3584 2291 3584 
Q 2566 3584 2833 3536 
Q 3100 3488 3366 3391 
z
" transform="scale(0.015625)"/>
      </defs>
      <use xlink:href="#DejaVuSans-Bold-41"/>
      <use xlink:href="#DejaVuSans-Bold-76" transform="translate(73.767578 0)"/>
      <use xlink:href="#DejaVuSans-Bold-65" transform="translate(138.953125 0)"/>
      <use xlink:href="#DejaVuSans-Bold-72" transform="translate(206.775391 0)"/>
      <use xlink:href="#DejaVuSans-Bold-61" transform="translate(256.091797 0)"/>
      <use xlink:href="#DejaVuSans-Bold-67" transform="translate(323.572266 0)"/>
      <use xlink:href="#DejaVuSans-Bold-65" transform="translate(395.154297 0)"/>
      <use xlink:href="#DejaVuSans-Bold-20" transform="translate(462.976562 0)"/>
      <use xlink:href="#DejaVuSans-Bold-52" transform="translate(497.791016 0)"/>
      <use xlink:href="#DejaVuSans-Bold-69" transform="translate(574.792969 0)"/>
      <use xlink:href="#DejaVuSans-Bold-67" transform="translate(609.070312 0)"/>
      <use xlink:href="#DejaVuSans-Bold-69" transform="translate(680.652344 0)"/>
      <use xlink:href="#DejaVuSans-Bold-64" transform="translate(714.929688 0)"/>
      <use xlink:href="#DejaVuSans-Bold-20" transform="translate(786.511719 0)"/>
      <use xlink:href="#DejaVuSans-Bold-43" transform="translate(821.326172 0)"/>
      <use xlink:href="#DejaVuSans-Bold-6f" transform="translate(894.714844 0)"/>
      <use xlink:href="#DejaVuSans-Bold-6e" transform="translate(963.416016 0)"/>
      <use xlink:href="#DejaVuSans-Bold-73" transform="translate(1034.607422 0)"/>
      <use xlink:href="#DejaVuSans-Bold-65" transform="translate(1094.128906 0)"/>
      <use xlink:href="#DejaVuSans-Bold-72" transform="translate(1161.951172 0)"/>
      <use xlink:href="#DejaVuSans-Bold-76" transform="translate(1211.267578 0)"/>
      <use xlink:href="#DejaVuSans-Bold-65" transform="translate(1276.453125 0)"/>
      <use xlink:href="#DejaVuSans-Bold-64" transform="translate(1344.275391 0)"/>
      <use xlink:href="#DejaVuSans-Bold-20" transform="translate(1415.857422 0)"/>
      <use xlink:href="#DejaVuSans-Bold-53" transform="translate(1450.671875 0)"/>
      <use xlink:href="#DejaVuSans-Bold-63" transform="translate(1522.693359 0)"/>
      <use xlink:href="#DejaVuSans-Bold-6f" transform="translate(1581.970703 0)"/>
      <use xlink:href="#DejaVuSans-Bold-72" transform="translate(1650.671875 0)"/>
      <use xlink:href="#DejaVuSans-Bold-65" transform="translate(1699.988281 0)"/>
     </g>
    </g>
   </g>
   <g id="line2d_47">
    <path clip-path="url(#p6b6a5d0cfb)" style="fill: none; stroke: #424242; stroke-width: 2.25; stroke-linecap: square"/>
   </g>
   <g id="line2d_48">
    <path clip-path="url(#p6b6a5d0cfb)" style="fill: none; stroke: #424242; stroke-width: 2.25; stroke-linecap: square"/>
   </g>
   <g id="line2d_49">
    <path clip-path="url(#p6b6a5d0cfb)" style="fill: none; stroke: #424242; stroke-width: 2.25; stroke-linecap: square"/>
   </g>
   <g id="line2d_50">
    <path clip-path="url(#p6b6a5d0cfb)" style="fill: none; stroke: #424242; stroke-width: 2.25; stroke-linecap: square"/>
   </g>
   <g id="line2d_51">
    <path clip-path="url(#p6b6a5d0cfb)" style="fill: none; stroke: #424242; stroke-width: 2.25; stroke-linecap: square"/>
   </g>
   <g id="line2d_52">
    <path clip-path="url(#p6b6a5d0cfb)" style="fill: none; stroke: #424242; stroke-width: 2.25; stroke-linecap: square"/>
   </g>
   <g id="line2d_53">
    <path clip-path="url(#p6b6a5d0cfb)" style="fill: none; stroke: #424242; stroke-width: 2.25; stroke-linecap: square"/>
   </g>
   <g id="line2d_54">
    <path clip-path="url(#p6b6a5d0cfb)" style="fill: none; stroke: #424242; stroke-width: 2.25; stroke-linecap: square"/>
   </g>
   <g id="line2d_55">
    <path clip-path="url(#p6b6a5d0cfb)" style="fill: none; stroke: #424242; stroke-width: 2.25; stroke-linecap: square"/>
   </g>
   <g id="line2d_56">
    <path clip-path="url(#p6b6a5d0cfb)" style="fill: none; stroke: #424242; stroke-width: 2.25; stroke-linecap: square"/>
   </g>
   <g id="line2d_57">
    <path clip-path="url(#p6b6a5d0cfb)" style="fill: none; stroke: #424242; stroke-width: 2.25; stroke-linecap: square"/>
   </g>
   <g id="line2d_58">
    <path clip-path="url(#p6b6a5d0cfb)" style="fill: none; stroke: #424242; stroke-width: 2.25; stroke-linecap: square"/>
   </g>
   <g id="line2d_59">
    <path clip-path="url(#p6b6a5d0cfb)" style="fill: none; stroke: #424242; stroke-width: 2.25; stroke-linecap: square"/>
   </g>
   <g id="line2d_60">
    <path clip-path="url(#p6b6a5d0cfb)" style="fill: none; stroke: #424242; stroke-width: 2.25; stroke-linecap: square"/>
   </g>
   <g id="line2d_61">
    <path clip-path="url(#p6b6a5d0cfb)" style="fill: none; stroke: #424242; stroke-width: 2.25; stroke-linecap: square"/>
   </g>
   <g id="line2d_62">
    <path clip-path="url(#p6b6a5d0cfb)" style="fill: none; stroke: #424242; stroke-width: 2.25; stroke-linecap: square"/>
   </g>
   <g id="line2d_63">
    <path clip-path="url(#p6b6a5d0cfb)" style="fill: none; stroke: #424242; stroke-width: 2.25; stroke-linecap: square"/>
   </g>
   <g id="line2d_64">
    <path clip-path="url(#p6b6a5d0cfb)" style="fill: none; stroke: #424242; stroke-width: 2.25; stroke-linecap: square"/>
   </g>
   <g id="line2d_65">
    <path clip-path="url(#p6b6a5d0cfb)" style="fill: none; stroke: #424242; stroke-width: 2.25; stroke-linecap: square"/>
   </g>
   <g id="line2d_66">
    <path clip-path="url(#p6b6a5d0cfb)" style="fill: none; stroke: #424242; stroke-width: 2.25; stroke-linecap: square"/>
   </g>
   <g id="line2d_67">
    <path clip-path="url(#p6b6a5d0cfb)" style="fill: none; stroke: #424242; stroke-width: 2.25; stroke-linecap: square"/>
   </g>
   <g id="line2d_68">
    <path clip-path="url(#p6b6a5d0cfb)" style="fill: none; stroke: #424242; stroke-width: 2.25; stroke-linecap: square"/>
   </g>
   <g id="line2d_69">
    <path clip-path="url(#p6b6a5d0cfb)" style="fill: none; stroke: #424242; stroke-width: 2.25; stroke-linecap: square"/>
   </g>
   <g id="line2d_70">
    <path clip-path="url(#p6b6a5d0cfb)" style="fill: none; stroke: #424242; stroke-width: 2.25; stroke-linecap: square"/>
   </g>
   <g id="line2d_71">
    <path clip-path="url(#p6b6a5d0cfb)" style="fill: none; stroke: #424242; stroke-width: 2.25; stroke-linecap: square"/>
   </g>
   <g id="line2d_72">
    <path clip-path="url(#p6b6a5d0cfb)" style="fill: none; stroke: #424242; stroke-width: 2.25; stroke-linecap: square"/>
   </g>
   <g id="line2d_73">
    <path clip-path="url(#p6b6a5d0cfb)" style="fill: none; stroke: #424242; stroke-width: 2.25; stroke-linecap: square"/>
   </g>
   <g id="line2d_74">
    <path clip-path="url(#p6b6a5d0cfb)" style="fill: none; stroke: #424242; stroke-width: 2.25; stroke-linecap: square"/>
   </g>
   <g id="line2d_75">
    <path clip-path="url(#p6b6a5d0cfb)" style="fill: none; stroke: #424242; stroke-width: 2.25; stroke-linecap: square"/>
   </g>
   <g id="line2d_76">
    <path clip-path="url(#p6b6a5d0cfb)" style="fill: none; stroke: #424242; stroke-width: 2.25; stroke-linecap: square"/>
   </g>
   <g id="patch_38">
    <path d="M 40.208125 486.794 
L 40.208125 43.274 
" style="fill: none; stroke: #000000; stroke-width: 0.8; stroke-linejoin: miter; stroke-linecap: square"/>
   </g>
   <g id="patch_39">
    <path d="M 821.408125 486.794 
L 821.408125 43.274 
" style="fill: none; stroke: #000000; stroke-width: 0.8; stroke-linejoin: miter; stroke-linecap: square"/>
   </g>
   <g id="patch_40">
    <path d="M 40.208125 486.794 
L 821.408125 486.794 
" style="fill: none; stroke: #000000; stroke-width: 0.8; stroke-linejoin: miter; stroke-linecap: square"/>
   </g>
   <g id="patch_41">
    <path d="M 40.208125 43.274 
L 821.408125 43.274 
" style="fill: none; stroke: #000000; stroke-width: 0.8; stroke-linejoin: miter; stroke-linecap: square"/>
   </g>
   <g id="text_41">
    <!-- Protein Landscape: Which Proteins are "Structural Rocks"? -->
    <g transform="translate(164.683125 19.3575) scale(0.16 -0.16)">
     <defs>
      <path id="DejaVuSans-Bold-4c" d="M 588 4666 
L 1791 4666 
L 1791 909 
L 3903 909 
L 3903 0 
L 588 0 
L 588 4666 
z
" transform="scale(0.015625)"/>
      <path id="DejaVuSans-Bold-70" d="M 1656 506 
L 1656 -1331 
L 538 -1331 
L 538 3500 
L 1656 3500 
L 1656 2988 
Q 1888 3294 2169 3439 
Q 2450 3584 2816 3584 
Q 3463 3584 3878 3070 
Q 4294 2556 4294 1747 
Q 4294 938 3878 423 
Q 3463 -91 2816 -91 
Q 2450 -91 2169 54 
Q 1888 200 1656 506 
z
M 2400 2772 
Q 2041 2772 1848 2508 
Q 1656 2244 1656 1747 
Q 1656 1250 1848 986 
Q 2041 722 2400 722 
Q 2759 722 2948 984 
Q 3138 1247 3138 1747 
Q 3138 2247 2948 2509 
Q 2759 2772 2400 2772 
z
" transform="scale(0.015625)"/>
      <path id="DejaVuSans-Bold-3a" d="M 716 3500 
L 1844 3500 
L 1844 2291 
L 716 2291 
L 716 3500 
z
M 716 1209 
L 1844 1209 
L 1844 0 
L 716 0 
L 716 1209 
z
" transform="scale(0.015625)"/>
      <path id="DejaVuSans-Bold-57" d="M 191 4666 
L 1344 4666 
L 2150 1275 
L 2950 4666 
L 4109 4666 
L 4909 1275 
L 5716 4666 
L 6859 4666 
L 5759 0 
L 4372 0 
L 3525 3547 
L 2688 0 
L 1300 0 
L 191 4666 
z
" transform="scale(0.015625)"/>
      <path id="DejaVuSans-Bold-68" d="M 4056 2131 
L 4056 0 
L 2931 0 
L 2931 347 
L 2931 1625 
Q 2931 2084 2911 2256 
Q 2891 2428 2841 2509 
Q 2775 2619 2662 2680 
Q 2550 2741 2406 2741 
Q 2056 2741 1856 2470 
Q 1656 2200 1656 1722 
L 1656 0 
L 538 0 
L 538 4863 
L 1656 4863 
L 1656 2988 
Q 1909 3294 2193 3439 
Q 2478 3584 2822 3584 
Q 3428 3584 3742 3212 
Q 4056 2841 4056 2131 
z
" transform="scale(0.015625)"/>
      <path id="DejaVuSans-Bold-22" d="M 2725 4666 
L 2725 2931 
L 1984 2931 
L 1984 4666 
L 2725 4666 
z
M 1350 4666 
L 1350 2931 
L 609 2931 
L 609 4666 
L 1350 4666 
z
" transform="scale(0.015625)"/>
      <path id="DejaVuSans-Bold-75" d="M 500 1363 
L 500 3500 
L 1625 3500 
L 1625 3150 
Q 1625 2866 1622 2436 
Q 1619 2006 1619 1863 
Q 1619 1441 1641 1255 
Q 1663 1069 1716 984 
Q 1784 875 1895 815 
Q 2006 756 2150 756 
Q 2500 756 2700 1025 
Q 2900 1294 2900 1772 
L 2900 3500 
L 4019 3500 
L 4019 0 
L 2900 0 
L 2900 506 
Q 2647 200 2364 54 
Q 2081 -91 1741 -91 
Q 1134 -91 817 281 
Q 500 653 500 1363 
z
" transform="scale(0.015625)"/>
      <path id="DejaVuSans-Bold-6c" d="M 538 4863 
L 1656 4863 
L 1656 0 
L 538 0 
L 538 4863 
z
" transform="scale(0.015625)"/>
      <path id="DejaVuSans-Bold-6b" d="M 538 4863 
L 1656 4863 
L 1656 2216 
L 2944 3500 
L 4244 3500 
L 2534 1894 
L 4378 0 
L 3022 0 
L 1656 1459 
L 1656 0 
L 538 0 
L 538 4863 
z
" transform="scale(0.015625)"/>
      <path id="DejaVuSans-Bold-3f" d="M 2216 1575 
L 1088 1575 
L 1088 1728 
Q 1088 1984 1191 2182 
Q 1294 2381 1625 2688 
L 1825 2869 
Q 2003 3031 2086 3175 
Q 2169 3319 2169 3463 
Q 2169 3681 2019 3804 
Q 1869 3928 1600 3928 
Q 1347 3928 1053 3823 
Q 759 3719 441 3513 
L 441 4494 
Q 819 4625 1131 4687 
Q 1444 4750 1734 4750 
Q 2497 4750 2897 4439 
Q 3297 4128 3297 3531 
Q 3297 3225 3175 2983 
Q 3053 2741 2759 2463 
L 2559 2284 
Q 2347 2091 2281 1973 
Q 2216 1856 2216 1716 
L 2216 1575 
z
M 1088 1113 
L 2216 1113 
L 2216 0 
L 1088 0 
L 1088 1113 
z
" transform="scale(0.015625)"/>
     </defs>
     <use xlink:href="#DejaVuSans-Bold-50"/>
     <use xlink:href="#DejaVuSans-Bold-72" transform="translate(73.291016 0)"/>
     <use xlink:href="#DejaVuSans-Bold-6f" transform="translate(122.607422 0)"/>
     <use xlink:href="#DejaVuSans-Bold-74" transform="translate(191.308594 0)"/>
     <use xlink:href="#DejaVuSans-Bold-65" transform="translate(239.111328 0)"/>
     <use xlink:href="#DejaVuSans-Bold-69" transform="translate(306.933594 0)"/>
     <use xlink:href="#DejaVuSans-Bold-6e" transform="translate(341.210938 0)"/>
     <use xlink:href="#DejaVuSans-Bold-20" transform="translate(412.402344 0)"/>
     <use xlink:href="#DejaVuSans-Bold-4c" transform="translate(447.216797 0)"/>
     <use xlink:href="#DejaVuSans-Bold-61" transform="translate(510.9375 0)"/>
     <use xlink:href="#DejaVuSans-Bold-6e" transform="translate(578.417969 0)"/>
     <use xlink:href="#DejaVuSans-Bold-64" transform="translate(649.609375 0)"/>
     <use xlink:href="#DejaVuSans-Bold-73" transform="translate(721.191406 0)"/>
     <use xlink:href="#DejaVuSans-Bold-63" transform="translate(780.712891 0)"/>
     <use xlink:href="#DejaVuSans-Bold-61" transform="translate(839.990234 0)"/>
     <use xlink:href="#DejaVuSans-Bold-70" transform="translate(907.470703 0)"/>
     <use xlink:href="#DejaVuSans-Bold-65" transform="translate(979.052734 0)"/>
     <use xlink:href="#DejaVuSans-Bold-3a" transform="translate(1046.875 0)"/>
     <use xlink:href="#DejaVuSans-Bold-20" transform="translate(1086.865234 0)"/>
     <use xlink:href="#DejaVuSans-Bold-57" transform="translate(1121.679688 0)"/>
     <use xlink:href="#DejaVuSans-Bold-68" transform="translate(1231.982422 0)"/>
     <use xlink:href="#DejaVuSans-Bold-69" transform="translate(1303.173828 0)"/>
     <use xlink:href="#DejaVuSans-Bold-63" transform="translate(1337.451172 0)"/>
     <use xlink:href="#DejaVuSans-Bold-68" transform="translate(1396.728516 0)"/>
     <use xlink:href="#DejaVuSans-Bold-20" transform="translate(1467.919922 0)"/>
     <use xlink:href="#DejaVuSans-Bold-50" transform="translate(1502.734375 0)"/>
     <use xlink:href="#DejaVuSans-Bold-72" transform="translate(1576.025391 0)"/>
     <use xlink:href="#DejaVuSans-Bold-6f" transform="translate(1625.341797 0)"/>
     <use xlink:href="#DejaVuSans-Bold-74" transform="translate(1694.042969 0)"/>
     <use xlink:href="#DejaVuSans-Bold-65" transform="translate(1741.845703 0)"/>
     <use xlink:href="#DejaVuSans-Bold-69" transform="translate(1809.667969 0)"/>
     <use xlink:href="#DejaVuSans-Bold-6e" transform="translate(1843.945312 0)"/>
     <use xlink:href="#DejaVuSans-Bold-73" transform="translate(1915.136719 0)"/>
     <use xlink:href="#DejaVuSans-Bold-20" transform="translate(1974.658203 0)"/>
     <use xlink:href="#DejaVuSans-Bold-61" transform="translate(2009.472656 0)"/>
     <use xlink:href="#DejaVuSans-Bold-72" transform="translate(2076.953125 0)"/>
     <use xlink:href="#DejaVuSans-Bold-65" transform="translate(2126.269531 0)"/>
     <use xlink:href="#DejaVuSans-Bold-20" transform="translate(2194.091797 0)"/>
     <use xlink:href="#DejaVuSans-Bold-22" transform="translate(2228.90625 0)"/>
     <use xlink:href="#DejaVuSans-Bold-53" transform="translate(2281.005859 0)"/>
     <use xlink:href="#DejaVuSans-Bold-74" transform="translate(2353.027344 0)"/>
     <use xlink:href="#DejaVuSans-Bold-72" transform="translate(2400.830078 0)"/>
     <use xlink:href="#DejaVuSans-Bold-75" transform="translate(2450.146484 0)"/>
     <use xlink:href="#DejaVuSans-Bold-63" transform="translate(2521.337891 0)"/>
     <use xlink:href="#DejaVuSans-Bold-74" transform="translate(2580.615234 0)"/>
     <use xlink:href="#DejaVuSans-Bold-75" transform="translate(2628.417969 0)"/>
     <use xlink:href="#DejaVuSans-Bold-72" transform="translate(2699.609375 0)"/>
     <use xlink:href="#DejaVuSans-Bold-61" transform="translate(2748.925781 0)"/>
     <use xlink:href="#DejaVuSans-Bold-6c" transform="translate(2816.40625 0)"/>
     <use xlink:href="#DejaVuSans-Bold-20" transform="translate(2850.683594 0)"/>
     <use xlink:href="#DejaVuSans-Bold-52" transform="translate(2885.498047 0)"/>
     <use xlink:href="#DejaVuSans-Bold-6f" transform="translate(2962.5 0)"/>
     <use xlink:href="#DejaVuSans-Bold-63" transform="translate(3031.201172 0)"/>
     <use xlink:href="#DejaVuSans-Bold-6b" transform="translate(3090.478516 0)"/>
     <use xlink:href="#DejaVuSans-Bold-73" transform="translate(3156.982422 0)"/>
     <use xlink:href="#DejaVuSans-Bold-22" transform="translate(3216.503906 0)"/>
     <use xlink:href="#DejaVuSans-Bold-3f" transform="translate(3268.603516 0)"/>
    </g>
    <!-- (Ranked by Mean RCS) -->
    <g transform="translate(328.259375 37.274) scale(0.16 -0.16)">
     <defs>
      <path id="DejaVuSans-Bold-62" d="M 2400 722 
Q 2759 722 2948 984 
Q 3138 1247 3138 1747 
Q 3138 2247 2948 2509 
Q 2759 2772 2400 2772 
Q 2041 2772 1848 2508 
Q 1656 2244 1656 1747 
Q 1656 1250 1848 986 
Q 2041 722 2400 722 
z
M 1656 2988 
Q 1888 3294 2169 3439 
Q 2450 3584 2816 3584 
Q 3463 3584 3878 3070 
Q 4294 2556 4294 1747 
Q 4294 938 3878 423 
Q 3463 -91 2816 -91 
Q 2450 -91 2169 54 
Q 1888 200 1656 506 
L 1656 0 
L 538 0 
L 538 4863 
L 1656 4863 
L 1656 2988 
z
" transform="scale(0.015625)"/>
      <path id="DejaVuSans-Bold-79" d="M 78 3500 
L 1197 3500 
L 2138 1125 
L 2938 3500 
L 4056 3500 
L 2584 -331 
Q 2363 -916 2067 -1148 
Q 1772 -1381 1288 -1381 
L 641 -1381 
L 641 -647 
L 991 -647 
Q 1275 -647 1404 -556 
Q 1534 -466 1606 -231 
L 1638 -134 
L 78 3500 
z
" transform="scale(0.015625)"/>
      <path id="DejaVuSans-Bold-4d" d="M 588 4666 
L 2119 4666 
L 3181 2169 
L 4250 4666 
L 5778 4666 
L 5778 0 
L 4641 0 
L 4641 3413 
L 3566 897 
L 2803 897 
L 1728 3413 
L 1728 0 
L 588 0 
L 588 4666 
z
" transform="scale(0.015625)"/>
     </defs>
     <use xlink:href="#DejaVuSans-Bold-28"/>
     <use xlink:href="#DejaVuSans-Bold-52" transform="translate(45.703125 0)"/>
     <use xlink:href="#DejaVuSans-Bold-61" transform="translate(122.705078 0)"/>
     <use xlink:href="#DejaVuSans-Bold-6e" transform="translate(190.185547 0)"/>
     <use xlink:href="#DejaVuSans-Bold-6b" transform="translate(261.376953 0)"/>
     <use xlink:href="#DejaVuSans-Bold-65" transform="translate(325.255859 0)"/>
     <use xlink:href="#DejaVuSans-Bold-64" transform="translate(393.078125 0)"/>
     <use xlink:href="#DejaVuSans-Bold-20" transform="translate(464.660156 0)"/>
     <use xlink:href="#DejaVuSans-Bold-62" transform="translate(499.474609 0)"/>
     <use xlink:href="#DejaVuSans-Bold-79" transform="translate(571.056641 0)"/>
     <use xlink:href="#DejaVuSans-Bold-20" transform="translate(636.242188 0)"/>
     <use xlink:href="#DejaVuSans-Bold-4d" transform="translate(671.056641 0)"/>
     <use xlink:href="#DejaVuSans-Bold-65" transform="translate(770.568359 0)"/>
     <use xlink:href="#DejaVuSans-Bold-61" transform="translate(838.390625 0)"/>
     <use xlink:href="#DejaVuSans-Bold-6e" transform="translate(905.871094 0)"/>
     <use xlink:href="#DejaVuSans-Bold-20" transform="translate(977.0625 0)"/>
     <use xlink:href="#DejaVuSans-Bold-52" transform="translate(1011.876953 0)"/>
     <use xlink:href="#DejaVuSans-Bold-43" transform="translate(1088.878906 0)"/>
     <use xlink:href="#DejaVuSans-Bold-53" transform="translate(1164.142578 0)"/>
     <use xlink:href="#DejaVuSans-Bold-29" transform="translate(1236.164062 0)"/>
    </g>
   </g>
   <g id="legend_1">
    <g id="patch_42">
     <path d="M 662.220625 158.65025 
L 813.008125 158.65025 
Q 815.408125 158.65025 815.408125 156.25025 
L 815.408125 51.674 
Q 815.408125 49.274 813.008125 49.274 
L 662.220625 49.274 
Q 659.820625 49.274 659.820625 51.674 
L 659.820625 156.25025 
Q 659.820625 158.65025 662.220625 158.65025 
z
" style="fill: #ffffff; opacity: 0.8; stroke: #cccccc; stroke-linejoin: miter"/>
    </g>
    <g id="text_42">
     <!-- High-RCS Density (%) -->
     <g transform="translate(664.620625 63.192125) scale(0.12 -0.12)">
      <defs>
       <path id="DejaVuSans-Bold-2d" d="M 347 2297 
L 2309 2297 
L 2309 1388 
L 347 1388 
L 347 2297 
z
" transform="scale(0.015625)"/>
       <path id="DejaVuSans-Bold-25" d="M 4959 1925 
Q 4738 1925 4616 1733 
Q 4494 1541 4494 1184 
Q 4494 825 4614 633 
Q 4734 441 4959 441 
Q 5184 441 5303 633 
Q 5422 825 5422 1184 
Q 5422 1541 5301 1733 
Q 5181 1925 4959 1925 
z
M 4959 2450 
Q 5541 2450 5875 2112 
Q 6209 1775 6209 1184 
Q 6209 594 5875 251 
Q 5541 -91 4959 -91 
Q 4378 -91 4042 251 
Q 3706 594 3706 1184 
Q 3706 1772 4042 2111 
Q 4378 2450 4959 2450 
z
M 2094 -91 
L 1403 -91 
L 4319 4750 
L 5013 4750 
L 2094 -91 
z
M 1453 4750 
Q 2034 4750 2367 4411 
Q 2700 4072 2700 3481 
Q 2700 2891 2367 2550 
Q 2034 2209 1453 2209 
Q 872 2209 539 2550 
Q 206 2891 206 3481 
Q 206 4072 539 4411 
Q 872 4750 1453 4750 
z
M 1453 4225 
Q 1228 4225 1106 4031 
Q 984 3838 984 3481 
Q 984 3122 1106 2926 
Q 1228 2731 1453 2731 
Q 1678 2731 1798 2926 
Q 1919 3122 1919 3481 
Q 1919 3838 1797 4031 
Q 1675 4225 1453 4225 
z
" transform="scale(0.015625)"/>
      </defs>
      <use xlink:href="#DejaVuSans-Bold-48"/>
      <use xlink:href="#DejaVuSans-Bold-69" transform="translate(83.691406 0)"/>
      <use xlink:href="#DejaVuSans-Bold-67" transform="translate(117.96875 0)"/>
      <use xlink:href="#DejaVuSans-Bold-68" transform="translate(189.550781 0)"/>
      <use xlink:href="#DejaVuSans-Bold-2d" transform="translate(260.742188 0)"/>
      <use xlink:href="#DejaVuSans-Bold-52" transform="translate(302.246094 0)"/>
      <use xlink:href="#DejaVuSans-Bold-43" transform="translate(379.248047 0)"/>
      <use xlink:href="#DejaVuSans-Bold-53" transform="translate(454.511719 0)"/>
      <use xlink:href="#DejaVuSans-Bold-20" transform="translate(526.533203 0)"/>
      <use xlink:href="#DejaVuSans-Bold-44" transform="translate(561.347656 0)"/>
      <use xlink:href="#DejaVuSans-Bold-65" transform="translate(644.355469 0)"/>
      <use xlink:href="#DejaVuSans-Bold-6e" transform="translate(712.177734 0)"/>
      <use xlink:href="#DejaVuSans-Bold-73" transform="translate(783.369141 0)"/>
      <use xlink:href="#DejaVuSans-Bold-69" transform="translate(842.890625 0)"/>
      <use xlink:href="#DejaVuSans-Bold-74" transform="translate(877.167969 0)"/>
      <use xlink:href="#DejaVuSans-Bold-79" transform="translate(924.970703 0)"/>
      <use xlink:href="#DejaVuSans-Bold-20" transform="translate(990.15625 0)"/>
      <use xlink:href="#DejaVuSans-Bold-28" transform="translate(1024.970703 0)"/>
      <use xlink:href="#DejaVuSans-Bold-25" transform="translate(1070.673828 0)"/>
      <use xlink:href="#DejaVuSans-Bold-29" transform="translate(1170.869141 0)"/>
     </g>
    </g>
    <g id="patch_43">
     <path d="M 712.465 80.899625 
L 736.465 80.899625 
L 736.465 72.499625 
L 712.465 72.499625 
z
" style="fill: #090817"/>
    </g>
    <g id="text_43">
     <!-- 15 -->
     <g transform="translate(746.065 80.899625) scale(0.12 -0.12)">
      <use xlink:href="#DejaVuSans-Bold-31"/>
      <use xlink:href="#DejaVuSans-Bold-35" transform="translate(69.580078 0)"/>
     </g>
    </g>
    <g id="patch_44">
     <path d="M 712.465 98.513375 
L 736.465 98.513375 
L 736.465 90.113375 
L 712.465 90.113375 
z
" style="fill: #4c1e6d"/>
    </g>
    <g id="text_44">
     <!-- 30 -->
     <g transform="translate(746.065 98.513375) scale(0.12 -0.12)">
      <use xlink:href="#DejaVuSans-Bold-33"/>
      <use xlink:href="#DejaVuSans-Bold-30" transform="translate(69.580078 0)"/>
     </g>
    </g>
    <g id="patch_45">
     <path d="M 712.465 116.127125 
L 736.465 116.127125 
L 736.465 107.727125 
L 712.465 107.727125 
z
" style="fill: #8f3c79"/>
    </g>
    <g id="text_45">
     <!-- 45 -->
     <g transform="translate(746.065 116.127125) scale(0.12 -0.12)">
      <use xlink:href="#DejaVuSans-Bold-34"/>
      <use xlink:href="#DejaVuSans-Bold-35" transform="translate(69.580078 0)"/>
     </g>
    </g>
    <g id="patch_46">
     <path d="M 712.465 133.740875 
L 736.465 133.740875 
L 736.465 125.340875 
L 712.465 125.340875 
z
" style="fill: #d56571"/>
    </g>
    <g id="text_46">
     <!-- 60 -->
     <g transform="translate(746.065 133.740875) scale(0.12 -0.12)">
      <use xlink:href="#DejaVuSans-Bold-36"/>
      <use xlink:href="#DejaVuSans-Bold-30" transform="translate(69.580078 0)"/>
     </g>
    </g>
    <g id="patch_47">
     <path d="M 712.465 151.354625 
L 736.465 151.354625 
L 736.465 142.954625 
L 712.465 142.954625 
z
" style="fill: #edb087"/>
    </g>
    <g id="text_47">
     <!-- 75 -->
     <g transform="translate(746.065 151.354625) scale(0.12 -0.12)">
      <use xlink:href="#DejaVuSans-Bold-37"/>
      <use xlink:href="#DejaVuSans-Bold-35" transform="translate(69.580078 0)"/>
     </g>
    </g>
   </g>
  </g>
 </g>
 <defs>
  <clipPath id="p6b6a5d0cfb">
   <rect x="40.208125" y="43.274" width="781.2" height="443.52"/>
  </clipPath>
 </defs>
</svg>
