<?xml version="1.0" encoding="utf-8" standalone="no"?>
<!DOCTYPE svg PUBLIC "-//W3C//DTD SVG 1.1//EN"
  "http://www.w3.org/Graphics/SVG/1.1/DTD/svg11.dtd">
<svg xmlns:xlink="http://www.w3.org/1999/xlink" width="864pt" height="432pt" viewBox="0 0 864 432" xmlns="http://www.w3.org/2000/svg" version="1.1">
 <metadata>
  <rdf:RDF xmlns:dc="http://purl.org/dc/elements/1.1/" xmlns:cc="http://creativecommons.org/ns#" xmlns:rdf="http://www.w3.org/1999/02/22-rdf-syntax-ns#">
   <cc:Work>
    <dc:type rdf:resource="http://purl.org/dc/dcmitype/StillImage"/>
    <dc:date>2025-12-10T20:08:13.731976</dc:date>
    <dc:format>image/svg+xml</dc:format>
    <dc:creator>
     <cc:Agent>
      <dc:title>Matplotlib v3.10.0, https://matplotlib.org/</dc:title>
     </cc:Agent>
    </dc:creator>
   </cc:Work>
  </rdf:RDF>
 </metadata>
 <defs>
  <style type="text/css">*{stroke-linejoin: round; stroke-linecap: butt}</style>
 </defs>
 <g id="figure_1">
  <g id="patch_1">
   <path d="M 0 432 
L 864 432 
L 864 0 
L 0 0 
z
" style="fill: #ffffff"/>
  </g>
  <g id="axes_1">
   <g id="patch_2">
    <path d="M 108 384.48 
L 777.6 384.48 
L 777.6 51.84 
L 108 51.84 
z
" style="fill: #ffffff"/>
   </g>
   <g id="patch_3">
    <path d="M 108 57.384 
L 745.714286 57.384 
L 745.714286 101.736 
L 108 101.736 
z
" clip-path="url(#p7965f812a2)" style="fill: #4b3b75"/>
   </g>
   <g id="patch_4">
    <path d="M 108 112.824 
L 745.140974 112.824 
L 745.140974 157.176 
L 108 157.176 
z
" clip-path="url(#p7965f812a2)" style="fill: #415d82"/>
   </g>
   <g id="patch_5">
    <path d="M 108 168.264 
L 387.848155 168.264 
L 387.848155 212.616 
L 108 212.616 
z
" clip-path="url(#p7965f812a2)" style="fill: #347681"/>
   </g>
   <g id="patch_6">
    <path d="M 108 223.704 
L 338.498057 223.704 
L 338.498057 268.056 
L 108 268.056 
z
" clip-path="url(#p7965f812a2)" style="fill: #2f917e"/>
   </g>
   <g id="patch_7">
    <path d="M 108 279.144 
L 337.396555 279.144 
L 337.396555 323.496 
L 108 323.496 
z
" clip-path="url(#p7965f812a2)" style="fill: #59b273"/>
   </g>
   <g id="patch_8">
    <path d="M 108 334.584 
L 332.770862 334.584 
L 332.770862 378.936 
L 108 378.936 
z
" clip-path="url(#p7965f812a2)" style="fill: #9ac64d"/>
   </g>
   <g id="matplotlib.axis_1">
    <g id="xtick_1">
     <g id="line2d_1">
      <path d="M 108 384.48 
L 108 51.84 
" clip-path="url(#p7965f812a2)" style="fill: none; stroke: #b0b0b0; stroke-opacity: 0.3; stroke-width: 0.8; stroke-linecap: square"/>
     </g>
     <g id="line2d_2">
      <defs>
       <path id="m9eda40804f" d="M 0 0 
L 0 3.5 
" style="stroke: #000000; stroke-width: 0.8"/>
      </defs>
      <g>
       <use xlink:href="#m9eda40804f" x="108" y="384.48" style="stroke: #000000; stroke-width: 0.8"/>
      </g>
     </g>
     <g id="text_1">
      <!-- 0.00 -->
      <g transform="translate(93.196875 400.598125) scale(0.12 -0.12)">
       <defs>
        <path id="DejaVuSans-Bold-30" d="M 2944 2338 
Q 2944 3213 2780 3570 
Q 2616 3928 2228 3928 
Q 1841 3928 1675 3570 
Q 1509 3213 1509 2338 
Q 1509 1453 1675 1090 
Q 1841 728 2228 728 
Q 2613 728 2778 1090 
Q 2944 1453 2944 2338 
z
M 4147 2328 
Q 4147 1169 3647 539 
Q 3147 -91 2228 -91 
Q 1306 -91 806 539 
Q 306 1169 306 2328 
Q 306 3491 806 4120 
Q 1306 4750 2228 4750 
Q 3147 4750 3647 4120 
Q 4147 3491 4147 2328 
z
" transform="scale(0.015625)"/>
        <path id="DejaVuSans-Bold-2e" d="M 653 1209 
L 1778 1209 
L 1778 0 
L 653 0 
L 653 1209 
z
" transform="scale(0.015625)"/>
       </defs>
       <use xlink:href="#DejaVuSans-Bold-30"/>
       <use xlink:href="#DejaVuSans-Bold-2e" transform="translate(69.580078 0)"/>
       <use xlink:href="#DejaVuSans-Bold-30" transform="translate(107.568359 0)"/>
       <use xlink:href="#DejaVuSans-Bold-30" transform="translate(177.148438 0)"/>
      </g>
     </g>
    </g>
    <g id="xtick_2">
     <g id="line2d_3">
      <path d="M 219.968444 384.48 
L 219.968444 51.84 
" clip-path="url(#p7965f812a2)" style="fill: none; stroke: #b0b0b0; stroke-opacity: 0.3; stroke-width: 0.8; stroke-linecap: square"/>
     </g>
     <g id="line2d_4">
      <g>
       <use xlink:href="#m9eda40804f" x="219.968444" y="384.48" style="stroke: #000000; stroke-width: 0.8"/>
      </g>
     </g>
     <g id="text_2">
      <!-- 0.05 -->
      <g transform="translate(205.165319 400.598125) scale(0.12 -0.12)">
       <defs>
        <path id="DejaVuSans-Bold-35" d="M 678 4666 
L 3669 4666 
L 3669 3781 
L 1638 3781 
L 1638 3059 
Q 1775 3097 1914 3117 
Q 2053 3138 2203 3138 
Q 3056 3138 3531 2711 
Q 4006 2284 4006 1522 
Q 4006 766 3489 337 
Q 2972 -91 2053 -91 
Q 1656 -91 1267 -14 
Q 878 63 494 219 
L 494 1166 
Q 875 947 1217 837 
Q 1559 728 1863 728 
Q 2300 728 2551 942 
Q 2803 1156 2803 1522 
Q 2803 1891 2551 2103 
Q 2300 2316 1863 2316 
Q 1603 2316 1309 2248 
Q 1016 2181 678 2041 
L 678 4666 
z
" transform="scale(0.015625)"/>
       </defs>
       <use xlink:href="#DejaVuSans-Bold-30"/>
       <use xlink:href="#DejaVuSans-Bold-2e" transform="translate(69.580078 0)"/>
       <use xlink:href="#DejaVuSans-Bold-30" transform="translate(107.568359 0)"/>
       <use xlink:href="#DejaVuSans-Bold-35" transform="translate(177.148438 0)"/>
      </g>
     </g>
    </g>
    <g id="xtick_3">
     <g id="line2d_5">
      <path d="M 331.936889 384.48 
L 331.936889 51.84 
" clip-path="url(#p7965f812a2)" style="fill: none; stroke: #b0b0b0; stroke-opacity: 0.3; stroke-width: 0.8; stroke-linecap: square"/>
     </g>
     <g id="line2d_6">
      <g>
       <use xlink:href="#m9eda40804f" x="331.936889" y="384.48" style="stroke: #000000; stroke-width: 0.8"/>
      </g>
     </g>
     <g id="text_3">
      <!-- 0.10 -->
      <g transform="translate(317.133764 400.598125) scale(0.12 -0.12)">
       <defs>
        <path id="DejaVuSans-Bold-31" d="M 750 831 
L 1813 831 
L 1813 3847 
L 722 3622 
L 722 4441 
L 1806 4666 
L 2950 4666 
L 2950 831 
L 4013 831 
L 4013 0 
L 750 0 
L 750 831 
z
" transform="scale(0.015625)"/>
       </defs>
       <use xlink:href="#DejaVuSans-Bold-30"/>
       <use xlink:href="#DejaVuSans-Bold-2e" transform="translate(69.580078 0)"/>
       <use xlink:href="#DejaVuSans-Bold-31" transform="translate(107.568359 0)"/>
       <use xlink:href="#DejaVuSans-Bold-30" transform="translate(177.148438 0)"/>
      </g>
     </g>
    </g>
    <g id="xtick_4">
     <g id="line2d_7">
      <path d="M 443.905333 384.48 
L 443.905333 51.84 
" clip-path="url(#p7965f812a2)" style="fill: none; stroke: #b0b0b0; stroke-opacity: 0.3; stroke-width: 0.8; stroke-linecap: square"/>
     </g>
     <g id="line2d_8">
      <g>
       <use xlink:href="#m9eda40804f" x="443.905333" y="384.48" style="stroke: #000000; stroke-width: 0.8"/>
      </g>
     </g>
     <g id="text_4">
      <!-- 0.15 -->
      <g transform="translate(429.102208 400.598125) scale(0.12 -0.12)">
       <use xlink:href="#DejaVuSans-Bold-30"/>
       <use xlink:href="#DejaVuSans-Bold-2e" transform="translate(69.580078 0)"/>
       <use xlink:href="#DejaVuSans-Bold-31" transform="translate(107.568359 0)"/>
       <use xlink:href="#DejaVuSans-Bold-35" transform="translate(177.148438 0)"/>
      </g>
     </g>
    </g>
    <g id="xtick_5">
     <g id="line2d_9">
      <path d="M 555.873778 384.48 
L 555.873778 51.84 
" clip-path="url(#p7965f812a2)" style="fill: none; stroke: #b0b0b0; stroke-opacity: 0.3; stroke-width: 0.8; stroke-linecap: square"/>
     </g>
     <g id="line2d_10">
      <g>
       <use xlink:href="#m9eda40804f" x="555.873778" y="384.48" style="stroke: #000000; stroke-width: 0.8"/>
      </g>
     </g>
     <g id="text_5">
      <!-- 0.20 -->
      <g transform="translate(541.070653 400.598125) scale(0.12 -0.12)">
       <defs>
        <path id="DejaVuSans-Bold-32" d="M 1844 884 
L 3897 884 
L 3897 0 
L 506 0 
L 506 884 
L 2209 2388 
Q 2438 2594 2547 2791 
Q 2656 2988 2656 3200 
Q 2656 3528 2436 3728 
Q 2216 3928 1850 3928 
Q 1569 3928 1234 3808 
Q 900 3688 519 3450 
L 519 4475 
Q 925 4609 1322 4679 
Q 1719 4750 2100 4750 
Q 2938 4750 3402 4381 
Q 3866 4013 3866 3353 
Q 3866 2972 3669 2642 
Q 3472 2313 2841 1759 
L 1844 884 
z
" transform="scale(0.015625)"/>
       </defs>
       <use xlink:href="#DejaVuSans-Bold-30"/>
       <use xlink:href="#DejaVuSans-Bold-2e" transform="translate(69.580078 0)"/>
       <use xlink:href="#DejaVuSans-Bold-32" transform="translate(107.568359 0)"/>
       <use xlink:href="#DejaVuSans-Bold-30" transform="translate(177.148438 0)"/>
      </g>
     </g>
    </g>
    <g id="xtick_6">
     <g id="line2d_11">
      <path d="M 667.842222 384.48 
L 667.842222 51.84 
" clip-path="url(#p7965f812a2)" style="fill: none; stroke: #b0b0b0; stroke-opacity: 0.3; stroke-width: 0.8; stroke-linecap: square"/>
     </g>
     <g id="line2d_12">
      <g>
       <use xlink:href="#m9eda40804f" x="667.842222" y="384.48" style="stroke: #000000; stroke-width: 0.8"/>
      </g>
     </g>
     <g id="text_6">
      <!-- 0.25 -->
      <g transform="translate(653.039097 400.598125) scale(0.12 -0.12)">
       <use xlink:href="#DejaVuSans-Bold-30"/>
       <use xlink:href="#DejaVuSans-Bold-2e" transform="translate(69.580078 0)"/>
       <use xlink:href="#DejaVuSans-Bold-32" transform="translate(107.568359 0)"/>
       <use xlink:href="#DejaVuSans-Bold-35" transform="translate(177.148438 0)"/>
      </g>
     </g>
    </g>
    <g id="text_7">
     <!-- Relative Importance (Gini Impurity) -->
     <g transform="translate(302.471875 417.731562) scale(0.14 -0.14)">
      <defs>
       <path id="DejaVuSans-Bold-52" d="M 2297 2597 
Q 2675 2597 2839 2737 
Q 3003 2878 3003 3200 
Q 3003 3519 2839 3656 
Q 2675 3794 2297 3794 
L 1791 3794 
L 1791 2597 
L 2297 2597 
z
M 1791 1766 
L 1791 0 
L 588 0 
L 588 4666 
L 2425 4666 
Q 3347 4666 3776 4356 
Q 4206 4047 4206 3378 
Q 4206 2916 3982 2619 
Q 3759 2322 3309 2181 
Q 3556 2125 3751 1926 
Q 3947 1728 4147 1325 
L 4800 0 
L 3519 0 
L 2950 1159 
Q 2778 1509 2601 1637 
Q 2425 1766 2131 1766 
L 1791 1766 
z
" transform="scale(0.015625)"/>
       <path id="DejaVuSans-Bold-65" d="M 4031 1759 
L 4031 1441 
L 1416 1441 
Q 1456 1047 1700 850 
Q 1944 653 2381 653 
Q 2734 653 3104 758 
Q 3475 863 3866 1075 
L 3866 213 
Q 3469 63 3072 -14 
Q 2675 -91 2278 -91 
Q 1328 -91 801 392 
Q 275 875 275 1747 
Q 275 2603 792 3093 
Q 1309 3584 2216 3584 
Q 3041 3584 3536 3087 
Q 4031 2591 4031 1759 
z
M 2881 2131 
Q 2881 2450 2695 2645 
Q 2509 2841 2209 2841 
Q 1884 2841 1681 2658 
Q 1478 2475 1428 2131 
L 2881 2131 
z
" transform="scale(0.015625)"/>
       <path id="DejaVuSans-Bold-6c" d="M 538 4863 
L 1656 4863 
L 1656 0 
L 538 0 
L 538 4863 
z
" transform="scale(0.015625)"/>
       <path id="DejaVuSans-Bold-61" d="M 2106 1575 
Q 1756 1575 1579 1456 
Q 1403 1338 1403 1106 
Q 1403 894 1545 773 
Q 1688 653 1941 653 
Q 2256 653 2472 879 
Q 2688 1106 2688 1447 
L 2688 1575 
L 2106 1575 
z
M 3816 1997 
L 3816 0 
L 2688 0 
L 2688 519 
Q 2463 200 2181 54 
Q 1900 -91 1497 -91 
Q 953 -91 614 226 
Q 275 544 275 1050 
Q 275 1666 698 1953 
Q 1122 2241 2028 2241 
L 2688 2241 
L 2688 2328 
Q 2688 2594 2478 2717 
Q 2269 2841 1825 2841 
Q 1466 2841 1156 2769 
Q 847 2697 581 2553 
L 581 3406 
Q 941 3494 1303 3539 
Q 1666 3584 2028 3584 
Q 2975 3584 3395 3211 
Q 3816 2838 3816 1997 
z
" transform="scale(0.015625)"/>
       <path id="DejaVuSans-Bold-74" d="M 1759 4494 
L 1759 3500 
L 2913 3500 
L 2913 2700 
L 1759 2700 
L 1759 1216 
Q 1759 972 1856 886 
Q 1953 800 2241 800 
L 2816 800 
L 2816 0 
L 1856 0 
Q 1194 0 917 276 
Q 641 553 641 1216 
L 641 2700 
L 84 2700 
L 84 3500 
L 641 3500 
L 641 4494 
L 1759 4494 
z
" transform="scale(0.015625)"/>
       <path id="DejaVuSans-Bold-69" d="M 538 3500 
L 1656 3500 
L 1656 0 
L 538 0 
L 538 3500 
z
M 538 4863 
L 1656 4863 
L 1656 3950 
L 538 3950 
L 538 4863 
z
" transform="scale(0.015625)"/>
       <path id="DejaVuSans-Bold-76" d="M 97 3500 
L 1216 3500 
L 2088 1081 
L 2956 3500 
L 4078 3500 
L 2700 0 
L 1472 0 
L 97 3500 
z
" transform="scale(0.015625)"/>
       <path id="DejaVuSans-Bold-20" transform="scale(0.015625)"/>
       <path id="DejaVuSans-Bold-49" d="M 588 4666 
L 1791 4666 
L 1791 0 
L 588 0 
L 588 4666 
z
" transform="scale(0.015625)"/>
       <path id="DejaVuSans-Bold-6d" d="M 3781 2919 
Q 3994 3244 4286 3414 
Q 4578 3584 4928 3584 
Q 5531 3584 5847 3212 
Q 6163 2841 6163 2131 
L 6163 0 
L 5038 0 
L 5038 1825 
Q 5041 1866 5042 1909 
Q 5044 1953 5044 2034 
Q 5044 2406 4934 2573 
Q 4825 2741 4581 2741 
Q 4263 2741 4089 2478 
Q 3916 2216 3909 1719 
L 3909 0 
L 2784 0 
L 2784 1825 
Q 2784 2406 2684 2573 
Q 2584 2741 2328 2741 
Q 2006 2741 1831 2477 
Q 1656 2213 1656 1722 
L 1656 0 
L 531 0 
L 531 3500 
L 1656 3500 
L 1656 2988 
Q 1863 3284 2130 3434 
Q 2397 3584 2719 3584 
Q 3081 3584 3359 3409 
Q 3638 3234 3781 2919 
z
" transform="scale(0.015625)"/>
       <path id="DejaVuSans-Bold-70" d="M 1656 506 
L 1656 -1331 
L 538 -1331 
L 538 3500 
L 1656 3500 
L 1656 2988 
Q 1888 3294 2169 3439 
Q 2450 3584 2816 3584 
Q 3463 3584 3878 3070 
Q 4294 2556 4294 1747 
Q 4294 938 3878 423 
Q 3463 -91 2816 -91 
Q 2450 -91 2169 54 
Q 1888 200 1656 506 
z
M 2400 2772 
Q 2041 2772 1848 2508 
Q 1656 2244 1656 1747 
Q 1656 1250 1848 986 
Q 2041 722 2400 722 
Q 2759 722 2948 984 
Q 3138 1247 3138 1747 
Q 3138 2247 2948 2509 
Q 2759 2772 2400 2772 
z
" transform="scale(0.015625)"/>
       <path id="DejaVuSans-Bold-6f" d="M 2203 2784 
Q 1831 2784 1636 2517 
Q 1441 2250 1441 1747 
Q 1441 1244 1636 976 
Q 1831 709 2203 709 
Q 2569 709 2762 976 
Q 2956 1244 2956 1747 
Q 2956 2250 2762 2517 
Q 2569 2784 2203 2784 
z
M 2203 3584 
Q 3106 3584 3614 3096 
Q 4122 2609 4122 1747 
Q 4122 884 3614 396 
Q 3106 -91 2203 -91 
Q 1297 -91 786 396 
Q 275 884 275 1747 
Q 275 2609 786 3096 
Q 1297 3584 2203 3584 
z
" transform="scale(0.015625)"/>
       <path id="DejaVuSans-Bold-72" d="M 3138 2547 
Q 2991 2616 2845 2648 
Q 2700 2681 2553 2681 
Q 2122 2681 1889 2404 
Q 1656 2128 1656 1613 
L 1656 0 
L 538 0 
L 538 3500 
L 1656 3500 
L 1656 2925 
Q 1872 3269 2151 3426 
Q 2431 3584 2822 3584 
Q 2878 3584 2943 3579 
Q 3009 3575 3134 3559 
L 3138 2547 
z
" transform="scale(0.015625)"/>
       <path id="DejaVuSans-Bold-6e" d="M 4056 2131 
L 4056 0 
L 2931 0 
L 2931 347 
L 2931 1631 
Q 2931 2084 2911 2256 
Q 2891 2428 2841 2509 
Q 2775 2619 2662 2680 
Q 2550 2741 2406 2741 
Q 2056 2741 1856 2470 
Q 1656 2200 1656 1722 
L 1656 0 
L 538 0 
L 538 3500 
L 1656 3500 
L 1656 2988 
Q 1909 3294 2193 3439 
Q 2478 3584 2822 3584 
Q 3428 3584 3742 3212 
Q 4056 2841 4056 2131 
z
" transform="scale(0.015625)"/>
       <path id="DejaVuSans-Bold-63" d="M 3366 3391 
L 3366 2478 
Q 3138 2634 2908 2709 
Q 2678 2784 2431 2784 
Q 1963 2784 1702 2511 
Q 1441 2238 1441 1747 
Q 1441 1256 1702 982 
Q 1963 709 2431 709 
Q 2694 709 2930 787 
Q 3166 866 3366 1019 
L 3366 103 
Q 3103 6 2833 -42 
Q 2563 -91 2291 -91 
Q 1344 -91 809 395 
Q 275 881 275 1747 
Q 275 2613 809 3098 
Q 1344 3584 2291 3584 
Q 2566 3584 2833 3536 
Q 3100 3488 3366 3391 
z
" transform="scale(0.015625)"/>
       <path id="DejaVuSans-Bold-28" d="M 2413 -844 
L 1484 -844 
Q 1006 -72 778 623 
Q 550 1319 550 2003 
Q 550 2688 779 3389 
Q 1009 4091 1484 4856 
L 2413 4856 
Q 2013 4116 1813 3408 
Q 1613 2700 1613 2009 
Q 1613 1319 1811 609 
Q 2009 -100 2413 -844 
z
" transform="scale(0.015625)"/>
       <path id="DejaVuSans-Bold-47" d="M 4781 347 
Q 4331 128 3847 18 
Q 3363 -91 2847 -91 
Q 1681 -91 1000 561 
Q 319 1213 319 2328 
Q 319 3456 1012 4103 
Q 1706 4750 2913 4750 
Q 3378 4750 3804 4662 
Q 4231 4575 4609 4403 
L 4609 3438 
Q 4219 3659 3833 3768 
Q 3447 3878 3059 3878 
Q 2341 3878 1952 3476 
Q 1563 3075 1563 2328 
Q 1563 1588 1938 1184 
Q 2313 781 3003 781 
Q 3191 781 3352 804 
Q 3513 828 3641 878 
L 3641 1784 
L 2906 1784 
L 2906 2591 
L 4781 2591 
L 4781 347 
z
" transform="scale(0.015625)"/>
       <path id="DejaVuSans-Bold-75" d="M 500 1363 
L 500 3500 
L 1625 3500 
L 1625 3150 
Q 1625 2866 1622 2436 
Q 1619 2006 1619 1863 
Q 1619 1441 1641 1255 
Q 1663 1069 1716 984 
Q 1784 875 1895 815 
Q 2006 756 2150 756 
Q 2500 756 2700 1025 
Q 2900 1294 2900 1772 
L 2900 3500 
L 4019 3500 
L 4019 0 
L 2900 0 
L 2900 506 
Q 2647 200 2364 54 
Q 2081 -91 1741 -91 
Q 1134 -91 817 281 
Q 500 653 500 1363 
z
" transform="scale(0.015625)"/>
       <path id="DejaVuSans-Bold-79" d="M 78 3500 
L 1197 3500 
L 2138 1125 
L 2938 3500 
L 4056 3500 
L 2584 -331 
Q 2363 -916 2067 -1148 
Q 1772 -1381 1288 -1381 
L 641 -1381 
L 641 -647 
L 991 -647 
Q 1275 -647 1404 -556 
Q 1534 -466 1606 -231 
L 1638 -134 
L 78 3500 
z
" transform="scale(0.015625)"/>
       <path id="DejaVuSans-Bold-29" d="M 513 -844 
Q 913 -100 1113 609 
Q 1313 1319 1313 2009 
Q 1313 2700 1113 3408 
Q 913 4116 513 4856 
L 1441 4856 
Q 1916 4091 2145 3389 
Q 2375 2688 2375 2003 
Q 2375 1319 2147 623 
Q 1919 -72 1441 -844 
L 513 -844 
z
" transform="scale(0.015625)"/>
      </defs>
      <use xlink:href="#DejaVuSans-Bold-52"/>
      <use xlink:href="#DejaVuSans-Bold-65" transform="translate(77.001953 0)"/>
      <use xlink:href="#DejaVuSans-Bold-6c" transform="translate(144.824219 0)"/>
      <use xlink:href="#DejaVuSans-Bold-61" transform="translate(179.101562 0)"/>
      <use xlink:href="#DejaVuSans-Bold-74" transform="translate(246.582031 0)"/>
      <use xlink:href="#DejaVuSans-Bold-69" transform="translate(294.384766 0)"/>
      <use xlink:href="#DejaVuSans-Bold-76" transform="translate(328.662109 0)"/>
      <use xlink:href="#DejaVuSans-Bold-65" transform="translate(393.847656 0)"/>
      <use xlink:href="#DejaVuSans-Bold-20" transform="translate(461.669922 0)"/>
      <use xlink:href="#DejaVuSans-Bold-49" transform="translate(496.484375 0)"/>
      <use xlink:href="#DejaVuSans-Bold-6d" transform="translate(533.691406 0)"/>
      <use xlink:href="#DejaVuSans-Bold-70" transform="translate(637.890625 0)"/>
      <use xlink:href="#DejaVuSans-Bold-6f" transform="translate(709.472656 0)"/>
      <use xlink:href="#DejaVuSans-Bold-72" transform="translate(778.173828 0)"/>
      <use xlink:href="#DejaVuSans-Bold-74" transform="translate(827.490234 0)"/>
      <use xlink:href="#DejaVuSans-Bold-61" transform="translate(875.292969 0)"/>
      <use xlink:href="#DejaVuSans-Bold-6e" transform="translate(942.773438 0)"/>
      <use xlink:href="#DejaVuSans-Bold-63" transform="translate(1013.964844 0)"/>
      <use xlink:href="#DejaVuSans-Bold-65" transform="translate(1073.242188 0)"/>
      <use xlink:href="#DejaVuSans-Bold-20" transform="translate(1141.064453 0)"/>
      <use xlink:href="#DejaVuSans-Bold-28" transform="translate(1175.878906 0)"/>
      <use xlink:href="#DejaVuSans-Bold-47" transform="translate(1221.582031 0)"/>
      <use xlink:href="#DejaVuSans-Bold-69" transform="translate(1303.662109 0)"/>
      <use xlink:href="#DejaVuSans-Bold-6e" transform="translate(1337.939453 0)"/>
      <use xlink:href="#DejaVuSans-Bold-69" transform="translate(1409.130859 0)"/>
      <use xlink:href="#DejaVuSans-Bold-20" transform="translate(1443.408203 0)"/>
      <use xlink:href="#DejaVuSans-Bold-49" transform="translate(1478.222656 0)"/>
      <use xlink:href="#DejaVuSans-Bold-6d" transform="translate(1515.429688 0)"/>
      <use xlink:href="#DejaVuSans-Bold-70" transform="translate(1619.628906 0)"/>
      <use xlink:href="#DejaVuSans-Bold-75" transform="translate(1691.210938 0)"/>
      <use xlink:href="#DejaVuSans-Bold-72" transform="translate(1762.402344 0)"/>
      <use xlink:href="#DejaVuSans-Bold-69" transform="translate(1811.71875 0)"/>
      <use xlink:href="#DejaVuSans-Bold-74" transform="translate(1845.996094 0)"/>
      <use xlink:href="#DejaVuSans-Bold-79" transform="translate(1893.798828 0)"/>
      <use xlink:href="#DejaVuSans-Bold-29" transform="translate(1958.984375 0)"/>
     </g>
    </g>
   </g>
   <g id="matplotlib.axis_2">
    <g id="ytick_1">
     <g id="line2d_13">
      <defs>
       <path id="m7ef498b4ce" d="M 0 0 
L -3.5 0 
" style="stroke: #000000; stroke-width: 0.8"/>
      </defs>
      <g>
       <use xlink:href="#m7ef498b4ce" x="108" y="79.56" style="stroke: #000000; stroke-width: 0.8"/>
      </g>
     </g>
     <g id="text_8">
      <!-- RCS (Rigid-Cons) -->
      <g transform="translate(-13.421875 84.119062) scale(0.12 -0.12)">
       <defs>
        <path id="DejaVuSans-Bold-43" d="M 4288 256 
Q 3956 84 3597 -3 
Q 3238 -91 2847 -91 
Q 1681 -91 1000 561 
Q 319 1213 319 2328 
Q 319 3447 1000 4098 
Q 1681 4750 2847 4750 
Q 3238 4750 3597 4662 
Q 3956 4575 4288 4403 
L 4288 3438 
Q 3953 3666 3628 3772 
Q 3303 3878 2944 3878 
Q 2300 3878 1931 3465 
Q 1563 3053 1563 2328 
Q 1563 1606 1931 1193 
Q 2300 781 2944 781 
Q 3303 781 3628 887 
Q 3953 994 4288 1222 
L 4288 256 
z
" transform="scale(0.015625)"/>
        <path id="DejaVuSans-Bold-53" d="M 3834 4519 
L 3834 3531 
Q 3450 3703 3084 3790 
Q 2719 3878 2394 3878 
Q 1963 3878 1756 3759 
Q 1550 3641 1550 3391 
Q 1550 3203 1689 3098 
Q 1828 2994 2194 2919 
L 2706 2816 
Q 3484 2659 3812 2340 
Q 4141 2022 4141 1434 
Q 4141 663 3683 286 
Q 3225 -91 2284 -91 
Q 1841 -91 1394 -6 
Q 947 78 500 244 
L 500 1259 
Q 947 1022 1364 901 
Q 1781 781 2169 781 
Q 2563 781 2772 912 
Q 2981 1044 2981 1288 
Q 2981 1506 2839 1625 
Q 2697 1744 2272 1838 
L 1806 1941 
Q 1106 2091 782 2419 
Q 459 2747 459 3303 
Q 459 4000 909 4375 
Q 1359 4750 2203 4750 
Q 2588 4750 2994 4692 
Q 3400 4634 3834 4519 
z
" transform="scale(0.015625)"/>
        <path id="DejaVuSans-Bold-67" d="M 2919 594 
Q 2688 288 2409 144 
Q 2131 0 1766 0 
Q 1125 0 706 504 
Q 288 1009 288 1791 
Q 288 2575 706 3076 
Q 1125 3578 1766 3578 
Q 2131 3578 2409 3434 
Q 2688 3291 2919 2981 
L 2919 3500 
L 4044 3500 
L 4044 353 
Q 4044 -491 3511 -936 
Q 2978 -1381 1966 -1381 
Q 1638 -1381 1331 -1331 
Q 1025 -1281 716 -1178 
L 716 -306 
Q 1009 -475 1290 -558 
Q 1572 -641 1856 -641 
Q 2406 -641 2662 -400 
Q 2919 -159 2919 353 
L 2919 594 
z
M 2181 2772 
Q 1834 2772 1640 2515 
Q 1447 2259 1447 1791 
Q 1447 1309 1634 1061 
Q 1822 813 2181 813 
Q 2531 813 2725 1069 
Q 2919 1325 2919 1791 
Q 2919 2259 2725 2515 
Q 2531 2772 2181 2772 
z
" transform="scale(0.015625)"/>
        <path id="DejaVuSans-Bold-64" d="M 2919 2988 
L 2919 4863 
L 4044 4863 
L 4044 0 
L 2919 0 
L 2919 506 
Q 2688 197 2409 53 
Q 2131 -91 1766 -91 
Q 1119 -91 703 423 
Q 288 938 288 1747 
Q 288 2556 703 3070 
Q 1119 3584 1766 3584 
Q 2128 3584 2408 3439 
Q 2688 3294 2919 2988 
z
M 2181 722 
Q 2541 722 2730 984 
Q 2919 1247 2919 1747 
Q 2919 2247 2730 2509 
Q 2541 2772 2181 2772 
Q 1825 2772 1636 2509 
Q 1447 2247 1447 1747 
Q 1447 1247 1636 984 
Q 1825 722 2181 722 
z
" transform="scale(0.015625)"/>
        <path id="DejaVuSans-Bold-2d" d="M 347 2297 
L 2309 2297 
L 2309 1388 
L 347 1388 
L 347 2297 
z
" transform="scale(0.015625)"/>
        <path id="DejaVuSans-Bold-73" d="M 3272 3391 
L 3272 2541 
Q 2913 2691 2578 2766 
Q 2244 2841 1947 2841 
Q 1628 2841 1473 2761 
Q 1319 2681 1319 2516 
Q 1319 2381 1436 2309 
Q 1553 2238 1856 2203 
L 2053 2175 
Q 2913 2066 3209 1816 
Q 3506 1566 3506 1031 
Q 3506 472 3093 190 
Q 2681 -91 1863 -91 
Q 1516 -91 1145 -36 
Q 775 19 384 128 
L 384 978 
Q 719 816 1070 734 
Q 1422 653 1784 653 
Q 2113 653 2278 743 
Q 2444 834 2444 1013 
Q 2444 1163 2330 1236 
Q 2216 1309 1875 1350 
L 1678 1375 
Q 931 1469 631 1722 
Q 331 1975 331 2491 
Q 331 3047 712 3315 
Q 1094 3584 1881 3584 
Q 2191 3584 2531 3537 
Q 2872 3491 3272 3391 
z
" transform="scale(0.015625)"/>
       </defs>
       <use xlink:href="#DejaVuSans-Bold-52"/>
       <use xlink:href="#DejaVuSans-Bold-43" transform="translate(77.001953 0)"/>
       <use xlink:href="#DejaVuSans-Bold-53" transform="translate(152.265625 0)"/>
       <use xlink:href="#DejaVuSans-Bold-20" transform="translate(224.287109 0)"/>
       <use xlink:href="#DejaVuSans-Bold-28" transform="translate(259.101562 0)"/>
       <use xlink:href="#DejaVuSans-Bold-52" transform="translate(304.804688 0)"/>
       <use xlink:href="#DejaVuSans-Bold-69" transform="translate(381.806641 0)"/>
       <use xlink:href="#DejaVuSans-Bold-67" transform="translate(416.083984 0)"/>
       <use xlink:href="#DejaVuSans-Bold-69" transform="translate(487.666016 0)"/>
       <use xlink:href="#DejaVuSans-Bold-64" transform="translate(521.943359 0)"/>
       <use xlink:href="#DejaVuSans-Bold-2d" transform="translate(593.525391 0)"/>
       <use xlink:href="#DejaVuSans-Bold-43" transform="translate(635.029297 0)"/>
       <use xlink:href="#DejaVuSans-Bold-6f" transform="translate(708.417969 0)"/>
       <use xlink:href="#DejaVuSans-Bold-6e" transform="translate(777.119141 0)"/>
       <use xlink:href="#DejaVuSans-Bold-73" transform="translate(848.310547 0)"/>
       <use xlink:href="#DejaVuSans-Bold-29" transform="translate(907.832031 0)"/>
      </g>
     </g>
    </g>
    <g id="ytick_2">
     <g id="line2d_14">
      <g>
       <use xlink:href="#m7ef498b4ce" x="108" y="135" style="stroke: #000000; stroke-width: 0.8"/>
      </g>
     </g>
     <g id="text_9">
      <!-- Raw Conservation -->
      <g transform="translate(-20.951875 139.559062) scale(0.12 -0.12)">
       <defs>
        <path id="DejaVuSans-Bold-77" d="M 225 3500 
L 1313 3500 
L 1900 1088 
L 2491 3500 
L 3425 3500 
L 4013 1113 
L 4603 3500 
L 5691 3500 
L 4769 0 
L 3547 0 
L 2956 2406 
L 2369 0 
L 1147 0 
L 225 3500 
z
" transform="scale(0.015625)"/>
       </defs>
       <use xlink:href="#DejaVuSans-Bold-52"/>
       <use xlink:href="#DejaVuSans-Bold-61" transform="translate(77.001953 0)"/>
       <use xlink:href="#DejaVuSans-Bold-77" transform="translate(144.482422 0)"/>
       <use xlink:href="#DejaVuSans-Bold-20" transform="translate(236.865234 0)"/>
       <use xlink:href="#DejaVuSans-Bold-43" transform="translate(271.679688 0)"/>
       <use xlink:href="#DejaVuSans-Bold-6f" transform="translate(345.068359 0)"/>
       <use xlink:href="#DejaVuSans-Bold-6e" transform="translate(413.769531 0)"/>
       <use xlink:href="#DejaVuSans-Bold-73" transform="translate(484.960938 0)"/>
       <use xlink:href="#DejaVuSans-Bold-65" transform="translate(544.482422 0)"/>
       <use xlink:href="#DejaVuSans-Bold-72" transform="translate(612.304688 0)"/>
       <use xlink:href="#DejaVuSans-Bold-76" transform="translate(661.621094 0)"/>
       <use xlink:href="#DejaVuSans-Bold-61" transform="translate(726.806641 0)"/>
       <use xlink:href="#DejaVuSans-Bold-74" transform="translate(794.287109 0)"/>
       <use xlink:href="#DejaVuSans-Bold-69" transform="translate(842.089844 0)"/>
       <use xlink:href="#DejaVuSans-Bold-6f" transform="translate(876.367188 0)"/>
       <use xlink:href="#DejaVuSans-Bold-6e" transform="translate(945.068359 0)"/>
      </g>
     </g>
    </g>
    <g id="ytick_3">
     <g id="line2d_15">
      <g>
       <use xlink:href="#m7ef498b4ce" x="108" y="190.44" style="stroke: #000000; stroke-width: 0.8"/>
      </g>
     </g>
     <g id="text_10">
      <!-- Raw Dynamics -->
      <g transform="translate(3.09875 194.999063) scale(0.12 -0.12)">
       <defs>
        <path id="DejaVuSans-Bold-44" d="M 1791 3756 
L 1791 909 
L 2222 909 
Q 2959 909 3348 1275 
Q 3738 1641 3738 2338 
Q 3738 3031 3350 3393 
Q 2963 3756 2222 3756 
L 1791 3756 
z
M 588 4666 
L 1856 4666 
Q 2919 4666 3439 4514 
Q 3959 4363 4331 4000 
Q 4659 3684 4818 3271 
Q 4978 2859 4978 2338 
Q 4978 1809 4818 1395 
Q 4659 981 4331 666 
Q 3956 303 3431 151 
Q 2906 0 1856 0 
L 588 0 
L 588 4666 
z
" transform="scale(0.015625)"/>
       </defs>
       <use xlink:href="#DejaVuSans-Bold-52"/>
       <use xlink:href="#DejaVuSans-Bold-61" transform="translate(77.001953 0)"/>
       <use xlink:href="#DejaVuSans-Bold-77" transform="translate(144.482422 0)"/>
       <use xlink:href="#DejaVuSans-Bold-20" transform="translate(236.865234 0)"/>
       <use xlink:href="#DejaVuSans-Bold-44" transform="translate(271.679688 0)"/>
       <use xlink:href="#DejaVuSans-Bold-79" transform="translate(354.6875 0)"/>
       <use xlink:href="#DejaVuSans-Bold-6e" transform="translate(419.873047 0)"/>
       <use xlink:href="#DejaVuSans-Bold-61" transform="translate(491.064453 0)"/>
       <use xlink:href="#DejaVuSans-Bold-6d" transform="translate(558.544922 0)"/>
       <use xlink:href="#DejaVuSans-Bold-69" transform="translate(662.744141 0)"/>
       <use xlink:href="#DejaVuSans-Bold-63" transform="translate(697.021484 0)"/>
       <use xlink:href="#DejaVuSans-Bold-73" transform="translate(756.298828 0)"/>
      </g>
     </g>
    </g>
    <g id="ytick_4">
     <g id="line2d_16">
      <g>
       <use xlink:href="#m7ef498b4ce" x="108" y="245.88" style="stroke: #000000; stroke-width: 0.8"/>
      </g>
     </g>
     <g id="text_11">
      <!-- DCopS (Dynamic-Coup) -->
      <g transform="translate(-55.710625 250.439063) scale(0.12 -0.12)">
       <use xlink:href="#DejaVuSans-Bold-44"/>
       <use xlink:href="#DejaVuSans-Bold-43" transform="translate(83.007812 0)"/>
       <use xlink:href="#DejaVuSans-Bold-6f" transform="translate(156.396484 0)"/>
       <use xlink:href="#DejaVuSans-Bold-70" transform="translate(225.097656 0)"/>
       <use xlink:href="#DejaVuSans-Bold-53" transform="translate(296.679688 0)"/>
       <use xlink:href="#DejaVuSans-Bold-20" transform="translate(368.701172 0)"/>
       <use xlink:href="#DejaVuSans-Bold-28" transform="translate(403.515625 0)"/>
       <use xlink:href="#DejaVuSans-Bold-44" transform="translate(449.21875 0)"/>
       <use xlink:href="#DejaVuSans-Bold-79" transform="translate(532.226562 0)"/>
       <use xlink:href="#DejaVuSans-Bold-6e" transform="translate(597.412109 0)"/>
       <use xlink:href="#DejaVuSans-Bold-61" transform="translate(668.603516 0)"/>
       <use xlink:href="#DejaVuSans-Bold-6d" transform="translate(736.083984 0)"/>
       <use xlink:href="#DejaVuSans-Bold-69" transform="translate(840.283203 0)"/>
       <use xlink:href="#DejaVuSans-Bold-63" transform="translate(874.560547 0)"/>
       <use xlink:href="#DejaVuSans-Bold-2d" transform="translate(933.837891 0)"/>
       <use xlink:href="#DejaVuSans-Bold-43" transform="translate(975.341797 0)"/>
       <use xlink:href="#DejaVuSans-Bold-6f" transform="translate(1048.730469 0)"/>
       <use xlink:href="#DejaVuSans-Bold-75" transform="translate(1117.431641 0)"/>
       <use xlink:href="#DejaVuSans-Bold-70" transform="translate(1188.623047 0)"/>
       <use xlink:href="#DejaVuSans-Bold-29" transform="translate(1260.205078 0)"/>
      </g>
     </g>
    </g>
    <g id="ytick_5">
     <g id="line2d_17">
      <g>
       <use xlink:href="#m7ef498b4ce" x="108" y="301.32" style="stroke: #000000; stroke-width: 0.8"/>
      </g>
     </g>
     <g id="text_12">
      <!-- RCopS (Rigid-Coup) -->
      <g transform="translate(-31.478125 305.879063) scale(0.12 -0.12)">
       <use xlink:href="#DejaVuSans-Bold-52"/>
       <use xlink:href="#DejaVuSans-Bold-43" transform="translate(77.001953 0)"/>
       <use xlink:href="#DejaVuSans-Bold-6f" transform="translate(150.390625 0)"/>
       <use xlink:href="#DejaVuSans-Bold-70" transform="translate(219.091797 0)"/>
       <use xlink:href="#DejaVuSans-Bold-53" transform="translate(290.673828 0)"/>
       <use xlink:href="#DejaVuSans-Bold-20" transform="translate(362.695312 0)"/>
       <use xlink:href="#DejaVuSans-Bold-28" transform="translate(397.509766 0)"/>
       <use xlink:href="#DejaVuSans-Bold-52" transform="translate(443.212891 0)"/>
       <use xlink:href="#DejaVuSans-Bold-69" transform="translate(520.214844 0)"/>
       <use xlink:href="#DejaVuSans-Bold-67" transform="translate(554.492188 0)"/>
       <use xlink:href="#DejaVuSans-Bold-69" transform="translate(626.074219 0)"/>
       <use xlink:href="#DejaVuSans-Bold-64" transform="translate(660.351562 0)"/>
       <use xlink:href="#DejaVuSans-Bold-2d" transform="translate(731.933594 0)"/>
       <use xlink:href="#DejaVuSans-Bold-43" transform="translate(773.4375 0)"/>
       <use xlink:href="#DejaVuSans-Bold-6f" transform="translate(846.826172 0)"/>
       <use xlink:href="#DejaVuSans-Bold-75" transform="translate(915.527344 0)"/>
       <use xlink:href="#DejaVuSans-Bold-70" transform="translate(986.71875 0)"/>
       <use xlink:href="#DejaVuSans-Bold-29" transform="translate(1058.300781 0)"/>
      </g>
     </g>
    </g>
    <g id="ytick_6">
     <g id="line2d_18">
      <g>
       <use xlink:href="#m7ef498b4ce" x="108" y="356.76" style="stroke: #000000; stroke-width: 0.8"/>
      </g>
     </g>
     <g id="text_13">
      <!-- DCS (Dynamic-Cons) -->
      <g transform="translate(-37.654375 361.319063) scale(0.12 -0.12)">
       <use xlink:href="#DejaVuSans-Bold-44"/>
       <use xlink:href="#DejaVuSans-Bold-43" transform="translate(83.007812 0)"/>
       <use xlink:href="#DejaVuSans-Bold-53" transform="translate(158.271484 0)"/>
       <use xlink:href="#DejaVuSans-Bold-20" transform="translate(230.292969 0)"/>
       <use xlink:href="#DejaVuSans-Bold-28" transform="translate(265.107422 0)"/>
       <use xlink:href="#DejaVuSans-Bold-44" transform="translate(310.810547 0)"/>
       <use xlink:href="#DejaVuSans-Bold-79" transform="translate(393.818359 0)"/>
       <use xlink:href="#DejaVuSans-Bold-6e" transform="translate(459.003906 0)"/>
       <use xlink:href="#DejaVuSans-Bold-61" transform="translate(530.195312 0)"/>
       <use xlink:href="#DejaVuSans-Bold-6d" transform="translate(597.675781 0)"/>
       <use xlink:href="#DejaVuSans-Bold-69" transform="translate(701.875 0)"/>
       <use xlink:href="#DejaVuSans-Bold-63" transform="translate(736.152344 0)"/>
       <use xlink:href="#DejaVuSans-Bold-2d" transform="translate(795.429688 0)"/>
       <use xlink:href="#DejaVuSans-Bold-43" transform="translate(836.933594 0)"/>
       <use xlink:href="#DejaVuSans-Bold-6f" transform="translate(910.322266 0)"/>
       <use xlink:href="#DejaVuSans-Bold-6e" transform="translate(979.023438 0)"/>
       <use xlink:href="#DejaVuSans-Bold-73" transform="translate(1050.214844 0)"/>
       <use xlink:href="#DejaVuSans-Bold-29" transform="translate(1109.736328 0)"/>
      </g>
     </g>
    </g>
    <g id="text_14">
     <!-- Feature -->
     <g transform="translate(-62.622187 248.6625) rotate(-90) scale(0.14 -0.14)">
      <defs>
       <path id="DejaVuSans-Bold-46" d="M 588 4666 
L 3834 4666 
L 3834 3756 
L 1791 3756 
L 1791 2888 
L 3713 2888 
L 3713 1978 
L 1791 1978 
L 1791 0 
L 588 0 
L 588 4666 
z
" transform="scale(0.015625)"/>
      </defs>
      <use xlink:href="#DejaVuSans-Bold-46"/>
      <use xlink:href="#DejaVuSans-Bold-65" transform="translate(64.310547 0)"/>
      <use xlink:href="#DejaVuSans-Bold-61" transform="translate(132.132812 0)"/>
      <use xlink:href="#DejaVuSans-Bold-74" transform="translate(199.613281 0)"/>
      <use xlink:href="#DejaVuSans-Bold-75" transform="translate(247.416016 0)"/>
      <use xlink:href="#DejaVuSans-Bold-72" transform="translate(318.607422 0)"/>
      <use xlink:href="#DejaVuSans-Bold-65" transform="translate(367.923828 0)"/>
     </g>
    </g>
   </g>
   <g id="line2d_19">
    <path clip-path="url(#p7965f812a2)" style="fill: none; stroke: #424242; stroke-width: 2.25; stroke-linecap: square"/>
   </g>
   <g id="line2d_20">
    <path clip-path="url(#p7965f812a2)" style="fill: none; stroke: #424242; stroke-width: 2.25; stroke-linecap: square"/>
   </g>
   <g id="line2d_21">
    <path clip-path="url(#p7965f812a2)" style="fill: none; stroke: #424242; stroke-width: 2.25; stroke-linecap: square"/>
   </g>
   <g id="line2d_22">
    <path clip-path="url(#p7965f812a2)" style="fill: none; stroke: #424242; stroke-width: 2.25; stroke-linecap: square"/>
   </g>
   <g id="line2d_23">
    <path clip-path="url(#p7965f812a2)" style="fill: none; stroke: #424242; stroke-width: 2.25; stroke-linecap: square"/>
   </g>
   <g id="line2d_24">
    <path clip-path="url(#p7965f812a2)" style="fill: none; stroke: #424242; stroke-width: 2.25; stroke-linecap: square"/>
   </g>
   <g id="patch_9">
    <path d="M 108 384.48 
L 108 51.84 
" style="fill: none; stroke: #000000; stroke-width: 0.8; stroke-linejoin: miter; stroke-linecap: square"/>
   </g>
   <g id="patch_10">
    <path d="M 777.6 384.48 
L 777.6 51.84 
" style="fill: none; stroke: #000000; stroke-width: 0.8; stroke-linejoin: miter; stroke-linecap: square"/>
   </g>
   <g id="patch_11">
    <path d="M 108 384.48 
L 777.6 384.48 
" style="fill: none; stroke: #000000; stroke-width: 0.8; stroke-linejoin: miter; stroke-linecap: square"/>
   </g>
   <g id="patch_12">
    <path d="M 108 51.84 
L 777.6 51.84 
" style="fill: none; stroke: #000000; stroke-width: 0.8; stroke-linejoin: miter; stroke-linecap: square"/>
   </g>
   <g id="text_15">
    <g id="patch_13">
     <path d="M 347.260938 225.240937 
L 538.339063 225.240937 
L 538.339063 203.462187 
L 347.260938 203.462187 
z
" style="fill: #ffffff; opacity: 0.8; stroke: #000000; stroke-linejoin: miter"/>
    </g>
    <!-- Model Accuracy: 91.3% -->
    <g style="fill: #808080" transform="translate(351.320938 218.16) scale(0.14 -0.14)">
     <defs>
      <path id="DejaVuSans-Bold-4d" d="M 588 4666 
L 2119 4666 
L 3181 2169 
L 4250 4666 
L 5778 4666 
L 5778 0 
L 4641 0 
L 4641 3413 
L 3566 897 
L 2803 897 
L 1728 3413 
L 1728 0 
L 588 0 
L 588 4666 
z
" transform="scale(0.015625)"/>
      <path id="DejaVuSans-Bold-41" d="M 3419 850 
L 1538 850 
L 1241 0 
L 31 0 
L 1759 4666 
L 3194 4666 
L 4922 0 
L 3713 0 
L 3419 850 
z
M 1838 1716 
L 3116 1716 
L 2478 3572 
L 1838 1716 
z
" transform="scale(0.015625)"/>
      <path id="DejaVuSans-Bold-3a" d="M 716 3500 
L 1844 3500 
L 1844 2291 
L 716 2291 
L 716 3500 
z
M 716 1209 
L 1844 1209 
L 1844 0 
L 716 0 
L 716 1209 
z
" transform="scale(0.015625)"/>
      <path id="DejaVuSans-Bold-39" d="M 641 103 
L 641 966 
Q 928 831 1190 764 
Q 1453 697 1709 697 
Q 2247 697 2547 995 
Q 2847 1294 2900 1881 
Q 2688 1725 2447 1647 
Q 2206 1569 1925 1569 
Q 1209 1569 770 1986 
Q 331 2403 331 3084 
Q 331 3838 820 4291 
Q 1309 4744 2131 4744 
Q 3044 4744 3544 4128 
Q 4044 3513 4044 2388 
Q 4044 1231 3459 570 
Q 2875 -91 1856 -91 
Q 1528 -91 1228 -42 
Q 928 6 641 103 
z
M 2125 2350 
Q 2441 2350 2600 2554 
Q 2759 2759 2759 3169 
Q 2759 3575 2600 3781 
Q 2441 3988 2125 3988 
Q 1809 3988 1650 3781 
Q 1491 3575 1491 3169 
Q 1491 2759 1650 2554 
Q 1809 2350 2125 2350 
z
" transform="scale(0.015625)"/>
      <path id="DejaVuSans-Bold-33" d="M 2981 2516 
Q 3453 2394 3698 2092 
Q 3944 1791 3944 1325 
Q 3944 631 3412 270 
Q 2881 -91 1863 -91 
Q 1503 -91 1142 -33 
Q 781 25 428 141 
L 428 1069 
Q 766 900 1098 814 
Q 1431 728 1753 728 
Q 2231 728 2486 893 
Q 2741 1059 2741 1369 
Q 2741 1688 2480 1852 
Q 2219 2016 1709 2016 
L 1228 2016 
L 1228 2791 
L 1734 2791 
Q 2188 2791 2409 2933 
Q 2631 3075 2631 3366 
Q 2631 3634 2415 3781 
Q 2200 3928 1806 3928 
Q 1516 3928 1219 3862 
Q 922 3797 628 3669 
L 628 4550 
Q 984 4650 1334 4700 
Q 1684 4750 2022 4750 
Q 2931 4750 3382 4451 
Q 3834 4153 3834 3553 
Q 3834 3144 3618 2883 
Q 3403 2622 2981 2516 
z
" transform="scale(0.015625)"/>
      <path id="DejaVuSans-Bold-25" d="M 4959 1925 
Q 4738 1925 4616 1733 
Q 4494 1541 4494 1184 
Q 4494 825 4614 633 
Q 4734 441 4959 441 
Q 5184 441 5303 633 
Q 5422 825 5422 1184 
Q 5422 1541 5301 1733 
Q 5181 1925 4959 1925 
z
M 4959 2450 
Q 5541 2450 5875 2112 
Q 6209 1775 6209 1184 
Q 6209 594 5875 251 
Q 5541 -91 4959 -91 
Q 4378 -91 4042 251 
Q 3706 594 3706 1184 
Q 3706 1772 4042 2111 
Q 4378 2450 4959 2450 
z
M 2094 -91 
L 1403 -91 
L 4319 4750 
L 5013 4750 
L 2094 -91 
z
M 1453 4750 
Q 2034 4750 2367 4411 
Q 2700 4072 2700 3481 
Q 2700 2891 2367 2550 
Q 2034 2209 1453 2209 
Q 872 2209 539 2550 
Q 206 2891 206 3481 
Q 206 4072 539 4411 
Q 872 4750 1453 4750 
z
M 1453 4225 
Q 1228 4225 1106 4031 
Q 984 3838 984 3481 
Q 984 3122 1106 2926 
Q 1228 2731 1453 2731 
Q 1678 2731 1798 2926 
Q 1919 3122 1919 3481 
Q 1919 3838 1797 4031 
Q 1675 4225 1453 4225 
z
" transform="scale(0.015625)"/>
     </defs>
     <use xlink:href="#DejaVuSans-Bold-4d"/>
     <use xlink:href="#DejaVuSans-Bold-6f" transform="translate(99.511719 0)"/>
     <use xlink:href="#DejaVuSans-Bold-64" transform="translate(168.212891 0)"/>
     <use xlink:href="#DejaVuSans-Bold-65" transform="translate(239.794922 0)"/>
     <use xlink:href="#DejaVuSans-Bold-6c" transform="translate(307.617188 0)"/>
     <use xlink:href="#DejaVuSans-Bold-20" transform="translate(341.894531 0)"/>
     <use xlink:href="#DejaVuSans-Bold-41" transform="translate(376.708984 0)"/>
     <use xlink:href="#DejaVuSans-Bold-63" transform="translate(454.101562 0)"/>
     <use xlink:href="#DejaVuSans-Bold-63" transform="translate(513.378906 0)"/>
     <use xlink:href="#DejaVuSans-Bold-75" transform="translate(572.65625 0)"/>
     <use xlink:href="#DejaVuSans-Bold-72" transform="translate(643.847656 0)"/>
     <use xlink:href="#DejaVuSans-Bold-61" transform="translate(693.164062 0)"/>
     <use xlink:href="#DejaVuSans-Bold-63" transform="translate(760.644531 0)"/>
     <use xlink:href="#DejaVuSans-Bold-79" transform="translate(819.921875 0)"/>
     <use xlink:href="#DejaVuSans-Bold-3a" transform="translate(885.107422 0)"/>
     <use xlink:href="#DejaVuSans-Bold-20" transform="translate(925.097656 0)"/>
     <use xlink:href="#DejaVuSans-Bold-39" transform="translate(959.912109 0)"/>
     <use xlink:href="#DejaVuSans-Bold-31" transform="translate(1029.492188 0)"/>
     <use xlink:href="#DejaVuSans-Bold-2e" transform="translate(1099.072266 0)"/>
     <use xlink:href="#DejaVuSans-Bold-33" transform="translate(1137.060547 0)"/>
     <use xlink:href="#DejaVuSans-Bold-25" transform="translate(1206.640625 0)"/>
    </g>
   </g>
   <g id="text_16">
    <!-- Feature Importance: Which metric predicts Pathogenicity best? -->
    <g transform="translate(156.29625 45.84) scale(0.16 -0.16)">
     <defs>
      <path id="DejaVuSans-Bold-57" d="M 191 4666 
L 1344 4666 
L 2150 1275 
L 2950 4666 
L 4109 4666 
L 4909 1275 
L 5716 4666 
L 6859 4666 
L 5759 0 
L 4372 0 
L 3525 3547 
L 2688 0 
L 1300 0 
L 191 4666 
z
" transform="scale(0.015625)"/>
      <path id="DejaVuSans-Bold-68" d="M 4056 2131 
L 4056 0 
L 2931 0 
L 2931 347 
L 2931 1625 
Q 2931 2084 2911 2256 
Q 2891 2428 2841 2509 
Q 2775 2619 2662 2680 
Q 2550 2741 2406 2741 
Q 2056 2741 1856 2470 
Q 1656 2200 1656 1722 
L 1656 0 
L 538 0 
L 538 4863 
L 1656 4863 
L 1656 2988 
Q 1909 3294 2193 3439 
Q 2478 3584 2822 3584 
Q 3428 3584 3742 3212 
Q 4056 2841 4056 2131 
z
" transform="scale(0.015625)"/>
      <path id="DejaVuSans-Bold-50" d="M 588 4666 
L 2584 4666 
Q 3475 4666 3951 4270 
Q 4428 3875 4428 3144 
Q 4428 2409 3951 2014 
Q 3475 1619 2584 1619 
L 1791 1619 
L 1791 0 
L 588 0 
L 588 4666 
z
M 1791 3794 
L 1791 2491 
L 2456 2491 
Q 2806 2491 2997 2661 
Q 3188 2831 3188 3144 
Q 3188 3456 2997 3625 
Q 2806 3794 2456 3794 
L 1791 3794 
z
" transform="scale(0.015625)"/>
      <path id="DejaVuSans-Bold-62" d="M 2400 722 
Q 2759 722 2948 984 
Q 3138 1247 3138 1747 
Q 3138 2247 2948 2509 
Q 2759 2772 2400 2772 
Q 2041 2772 1848 2508 
Q 1656 2244 1656 1747 
Q 1656 1250 1848 986 
Q 2041 722 2400 722 
z
M 1656 2988 
Q 1888 3294 2169 3439 
Q 2450 3584 2816 3584 
Q 3463 3584 3878 3070 
Q 4294 2556 4294 1747 
Q 4294 938 3878 423 
Q 3463 -91 2816 -91 
Q 2450 -91 2169 54 
Q 1888 200 1656 506 
L 1656 0 
L 538 0 
L 538 4863 
L 1656 4863 
L 1656 2988 
z
" transform="scale(0.015625)"/>
      <path id="DejaVuSans-Bold-3f" d="M 2216 1575 
L 1088 1575 
L 1088 1728 
Q 1088 1984 1191 2182 
Q 1294 2381 1625 2688 
L 1825 2869 
Q 2003 3031 2086 3175 
Q 2169 3319 2169 3463 
Q 2169 3681 2019 3804 
Q 1869 3928 1600 3928 
Q 1347 3928 1053 3823 
Q 759 3719 441 3513 
L 441 4494 
Q 819 4625 1131 4687 
Q 1444 4750 1734 4750 
Q 2497 4750 2897 4439 
Q 3297 4128 3297 3531 
Q 3297 3225 3175 2983 
Q 3053 2741 2759 2463 
L 2559 2284 
Q 2347 2091 2281 1973 
Q 2216 1856 2216 1716 
L 2216 1575 
z
M 1088 1113 
L 2216 1113 
L 2216 0 
L 1088 0 
L 1088 1113 
z
" transform="scale(0.015625)"/>
     </defs>
     <use xlink:href="#DejaVuSans-Bold-46"/>
     <use xlink:href="#DejaVuSans-Bold-65" transform="translate(64.310547 0)"/>
     <use xlink:href="#DejaVuSans-Bold-61" transform="translate(132.132812 0)"/>
     <use xlink:href="#DejaVuSans-Bold-74" transform="translate(199.613281 0)"/>
     <use xlink:href="#DejaVuSans-Bold-75" transform="translate(247.416016 0)"/>
     <use xlink:href="#DejaVuSans-Bold-72" transform="translate(318.607422 0)"/>
     <use xlink:href="#DejaVuSans-Bold-65" transform="translate(367.923828 0)"/>
     <use xlink:href="#DejaVuSans-Bold-20" transform="translate(435.746094 0)"/>
     <use xlink:href="#DejaVuSans-Bold-49" transform="translate(470.560547 0)"/>
     <use xlink:href="#DejaVuSans-Bold-6d" transform="translate(507.767578 0)"/>
     <use xlink:href="#DejaVuSans-Bold-70" transform="translate(611.966797 0)"/>
     <use xlink:href="#DejaVuSans-Bold-6f" transform="translate(683.548828 0)"/>
     <use xlink:href="#DejaVuSans-Bold-72" transform="translate(752.25 0)"/>
     <use xlink:href="#DejaVuSans-Bold-74" transform="translate(801.566406 0)"/>
     <use xlink:href="#DejaVuSans-Bold-61" transform="translate(849.369141 0)"/>
     <use xlink:href="#DejaVuSans-Bold-6e" transform="translate(916.849609 0)"/>
     <use xlink:href="#DejaVuSans-Bold-63" transform="translate(988.041016 0)"/>
     <use xlink:href="#DejaVuSans-Bold-65" transform="translate(1047.318359 0)"/>
     <use xlink:href="#DejaVuSans-Bold-3a" transform="translate(1115.140625 0)"/>
     <use xlink:href="#DejaVuSans-Bold-20" transform="translate(1155.130859 0)"/>
     <use xlink:href="#DejaVuSans-Bold-57" transform="translate(1189.945312 0)"/>
     <use xlink:href="#DejaVuSans-Bold-68" transform="translate(1300.248047 0)"/>
     <use xlink:href="#DejaVuSans-Bold-69" transform="translate(1371.439453 0)"/>
     <use xlink:href="#DejaVuSans-Bold-63" transform="translate(1405.716797 0)"/>
     <use xlink:href="#DejaVuSans-Bold-68" transform="translate(1464.994141 0)"/>
     <use xlink:href="#DejaVuSans-Bold-20" transform="translate(1536.185547 0)"/>
     <use xlink:href="#DejaVuSans-Bold-6d" transform="translate(1571 0)"/>
     <use xlink:href="#DejaVuSans-Bold-65" transform="translate(1675.199219 0)"/>
     <use xlink:href="#DejaVuSans-Bold-74" transform="translate(1743.021484 0)"/>
     <use xlink:href="#DejaVuSans-Bold-72" transform="translate(1790.824219 0)"/>
     <use xlink:href="#DejaVuSans-Bold-69" transform="translate(1840.140625 0)"/>
     <use xlink:href="#DejaVuSans-Bold-63" transform="translate(1874.417969 0)"/>
     <use xlink:href="#DejaVuSans-Bold-20" transform="translate(1933.695312 0)"/>
     <use xlink:href="#DejaVuSans-Bold-70" transform="translate(1968.509766 0)"/>
     <use xlink:href="#DejaVuSans-Bold-72" transform="translate(2040.091797 0)"/>
     <use xlink:href="#DejaVuSans-Bold-65" transform="translate(2089.408203 0)"/>
     <use xlink:href="#DejaVuSans-Bold-64" transform="translate(2157.230469 0)"/>
     <use xlink:href="#DejaVuSans-Bold-69" transform="translate(2228.8125 0)"/>
     <use xlink:href="#DejaVuSans-Bold-63" transform="translate(2263.089844 0)"/>
     <use xlink:href="#DejaVuSans-Bold-74" transform="translate(2322.367188 0)"/>
     <use xlink:href="#DejaVuSans-Bold-73" transform="translate(2370.169922 0)"/>
     <use xlink:href="#DejaVuSans-Bold-20" transform="translate(2429.691406 0)"/>
     <use xlink:href="#DejaVuSans-Bold-50" transform="translate(2464.505859 0)"/>
     <use xlink:href="#DejaVuSans-Bold-61" transform="translate(2535.171875 0)"/>
     <use xlink:href="#DejaVuSans-Bold-74" transform="translate(2602.652344 0)"/>
     <use xlink:href="#DejaVuSans-Bold-68" transform="translate(2650.455078 0)"/>
     <use xlink:href="#DejaVuSans-Bold-6f" transform="translate(2721.646484 0)"/>
     <use xlink:href="#DejaVuSans-Bold-67" transform="translate(2790.347656 0)"/>
     <use xlink:href="#DejaVuSans-Bold-65" transform="translate(2861.929688 0)"/>
     <use xlink:href="#DejaVuSans-Bold-6e" transform="translate(2929.751953 0)"/>
     <use xlink:href="#DejaVuSans-Bold-69" transform="translate(3000.943359 0)"/>
     <use xlink:href="#DejaVuSans-Bold-63" transform="translate(3035.220703 0)"/>
     <use xlink:href="#DejaVuSans-Bold-69" transform="translate(3094.498047 0)"/>
     <use xlink:href="#DejaVuSans-Bold-74" transform="translate(3128.775391 0)"/>
     <use xlink:href="#DejaVuSans-Bold-79" transform="translate(3176.578125 0)"/>
     <use xlink:href="#DejaVuSans-Bold-20" transform="translate(3241.763672 0)"/>
     <use xlink:href="#DejaVuSans-Bold-62" transform="translate(3276.578125 0)"/>
     <use xlink:href="#DejaVuSans-Bold-65" transform="translate(3348.160156 0)"/>
     <use xlink:href="#DejaVuSans-Bold-73" transform="translate(3415.982422 0)"/>
     <use xlink:href="#DejaVuSans-Bold-74" transform="translate(3475.503906 0)"/>
     <use xlink:href="#DejaVuSans-Bold-3f" transform="translate(3523.306641 0)"/>
    </g>
   </g>
  </g>
 </g>
 <defs>
  <clipPath id="p7965f812a2">
   <rect x="108" y="51.84" width="669.6" height="332.64"/>
  </clipPath>
 </defs>
</svg>
