<?xml version="1.0" encoding="utf-8" standalone="no"?>
<!DOCTYPE svg PUBLIC "-//W3C//DTD SVG 1.1//EN"
  "http://www.w3.org/Graphics/SVG/1.1/DTD/svg11.dtd">
<svg xmlns:xlink="http://www.w3.org/1999/xlink" width="864pt" height="432pt" viewBox="0 0 864 432" xmlns="http://www.w3.org/2000/svg" version="1.1">
 <metadata>
  <rdf:RDF xmlns:dc="http://purl.org/dc/elements/1.1/" xmlns:cc="http://creativecommons.org/ns#" xmlns:rdf="http://www.w3.org/1999/02/22-rdf-syntax-ns#">
   <cc:Work>
    <dc:type rdf:resource="http://purl.org/dc/dcmitype/StillImage"/>
    <dc:date>2025-12-10T19:39:27.343164</dc:date>
    <dc:format>image/svg+xml</dc:format>
    <dc:creator>
     <cc:Agent>
      <dc:title>Matplotlib v3.10.0, https://matplotlib.org/</dc:title>
     </cc:Agent>
    </dc:creator>
   </cc:Work>
  </rdf:RDF>
 </metadata>
 <defs>
  <style type="text/css">*{stroke-linejoin: round; stroke-linecap: butt}</style>
 </defs>
 <g id="figure_1">
  <g id="patch_1">
   <path d="M 0 432 
L 864 432 
L 864 0 
L 0 0 
z
" style="fill: #ffffff"/>
  </g>
  <g id="axes_1">
   <g id="patch_2">
    <path d="M 108 384.48 
L 777.6 384.48 
L 777.6 51.84 
L 108 51.84 
z
" style="fill: #ffffff"/>
   </g>
   <g id="patch_3">
    <path d="M 111.348 384.48 
L 138.132 384.48 
L 138.132 139.413561 
L 111.348 139.413561 
z
" clip-path="url(#pac6666a83e)" style="fill: #090817"/>
   </g>
   <g id="patch_4">
    <path d="M 144.828 384.48 
L 171.612 384.48 
L 171.612 147.163683 
L 144.828 147.163683 
z
" clip-path="url(#pac6666a83e)" style="fill: #16122f"/>
   </g>
   <g id="patch_5">
    <path d="M 178.308 384.48 
L 205.092 384.48 
L 205.092 155.136516 
L 178.308 155.136516 
z
" clip-path="url(#pac6666a83e)" style="fill: #261948"/>
   </g>
   <g id="patch_6">
    <path d="M 211.788 384.48 
L 238.572 384.48 
L 238.572 181.45285 
L 211.788 181.45285 
z
" clip-path="url(#pac6666a83e)" style="fill: #381b5f"/>
   </g>
   <g id="patch_7">
    <path d="M 245.268 384.48 
L 272.052 384.48 
L 272.052 192.440266 
L 245.268 192.440266 
z
" clip-path="url(#pac6666a83e)" style="fill: #491e6c"/>
   </g>
   <g id="patch_8">
    <path d="M 278.748 384.48 
L 305.532 384.48 
L 305.532 219.149279 
L 278.748 219.149279 
z
" clip-path="url(#pac6666a83e)" style="fill: #5a2572"/>
   </g>
   <g id="patch_9">
    <path d="M 312.228 384.48 
L 339.012 384.48 
L 339.012 239.049747 
L 312.228 239.049747 
z
" clip-path="url(#pac6666a83e)" style="fill: #692c75"/>
   </g>
   <g id="patch_10">
    <path d="M 345.708 384.48 
L 372.492 384.48 
L 372.492 242.679938 
L 345.708 242.679938 
z
" clip-path="url(#pac6666a83e)" style="fill: #793276"/>
   </g>
   <g id="patch_11">
    <path d="M 379.188 384.48 
L 405.972 384.48 
L 405.972 257.773766 
L 379.188 257.773766 
z
" clip-path="url(#pac6666a83e)" style="fill: #8a3a78"/>
   </g>
   <g id="patch_12">
    <path d="M 412.668 384.48 
L 439.452 384.48 
L 439.452 258.373978 
L 412.668 258.373978 
z
" clip-path="url(#pac6666a83e)" style="fill: #9c4279"/>
   </g>
   <g id="patch_13">
    <path d="M 446.148 384.48 
L 472.932 384.48 
L 472.932 258.852156 
L 446.148 258.852156 
z
" clip-path="url(#pac6666a83e)" style="fill: #b04b78"/>
   </g>
   <g id="patch_14">
    <path d="M 479.628 384.48 
L 506.412 384.48 
L 506.412 263.067884 
L 479.628 263.067884 
z
" clip-path="url(#pac6666a83e)" style="fill: #c15575"/>
   </g>
   <g id="patch_15">
    <path d="M 513.108 384.48 
L 539.892 384.48 
L 539.892 265.630744 
L 513.108 265.630744 
z
" clip-path="url(#pac6666a83e)" style="fill: #d26272"/>
   </g>
   <g id="patch_16">
    <path d="M 546.588 384.48 
L 573.372 384.48 
L 573.372 269.613386 
L 546.588 269.613386 
z
" clip-path="url(#pac6666a83e)" style="fill: #de7270"/>
   </g>
   <g id="patch_17">
    <path d="M 580.068 384.48 
L 606.852 384.48 
L 606.852 270.881249 
L 580.068 270.881249 
z
" clip-path="url(#pac6666a83e)" style="fill: #e58370"/>
   </g>
   <g id="patch_18">
    <path d="M 613.548 384.48 
L 640.332 384.48 
L 640.332 275.178196 
L 613.548 275.178196 
z
" clip-path="url(#pac6666a83e)" style="fill: #e99777"/>
   </g>
   <g id="patch_19">
    <path d="M 647.028 384.48 
L 673.812 384.48 
L 673.812 280.502181 
L 647.028 280.502181 
z
" clip-path="url(#pac6666a83e)" style="fill: #eca982"/>
   </g>
   <g id="patch_20">
    <path d="M 680.508 384.48 
L 707.292 384.48 
L 707.292 284.678738 
L 680.508 284.678738 
z
" clip-path="url(#pac6666a83e)" style="fill: #efbc91"/>
   </g>
   <g id="patch_21">
    <path d="M 713.988 384.48 
L 740.772 384.48 
L 740.772 289.022656 
L 713.988 289.022656 
z
" clip-path="url(#pac6666a83e)" style="fill: #f1cfa1"/>
   </g>
   <g id="patch_22">
    <path d="M 747.468 384.48 
L 774.252 384.48 
L 774.252 300.415066 
L 747.468 300.415066 
z
" clip-path="url(#pac6666a83e)" style="fill: #f2e2b3"/>
   </g>
   <g id="matplotlib.axis_1">
    <g id="xtick_1">
     <g id="line2d_1">
      <defs>
       <path id="m66ff960337" d="M 0 0 
L 0 3.5 
" style="stroke: #000000; stroke-width: 0.8"/>
      </defs>
      <g>
       <use xlink:href="#m66ff960337" x="124.74" y="384.48" style="stroke: #000000; stroke-width: 0.8"/>
      </g>
     </g>
     <g id="text_1">
      <!-- G -->
      <g transform="translate(119.815313 400.598125) scale(0.12 -0.12)">
       <defs>
        <path id="DejaVuSans-Bold-47" d="M 4781 347 
Q 4331 128 3847 18 
Q 3363 -91 2847 -91 
Q 1681 -91 1000 561 
Q 319 1213 319 2328 
Q 319 3456 1012 4103 
Q 1706 4750 2913 4750 
Q 3378 4750 3804 4662 
Q 4231 4575 4609 4403 
L 4609 3438 
Q 4219 3659 3833 3768 
Q 3447 3878 3059 3878 
Q 2341 3878 1952 3476 
Q 1563 3075 1563 2328 
Q 1563 1588 1938 1184 
Q 2313 781 3003 781 
Q 3191 781 3352 804 
Q 3513 828 3641 878 
L 3641 1784 
L 2906 1784 
L 2906 2591 
L 4781 2591 
L 4781 347 
z
" transform="scale(0.015625)"/>
       </defs>
       <use xlink:href="#DejaVuSans-Bold-47"/>
      </g>
     </g>
    </g>
    <g id="xtick_2">
     <g id="line2d_2">
      <g>
       <use xlink:href="#m66ff960337" x="158.22" y="384.48" style="stroke: #000000; stroke-width: 0.8"/>
      </g>
     </g>
     <g id="text_2">
      <!-- S -->
      <g transform="translate(153.899063 400.598125) scale(0.12 -0.12)">
       <defs>
        <path id="DejaVuSans-Bold-53" d="M 3834 4519 
L 3834 3531 
Q 3450 3703 3084 3790 
Q 2719 3878 2394 3878 
Q 1963 3878 1756 3759 
Q 1550 3641 1550 3391 
Q 1550 3203 1689 3098 
Q 1828 2994 2194 2919 
L 2706 2816 
Q 3484 2659 3812 2340 
Q 4141 2022 4141 1434 
Q 4141 663 3683 286 
Q 3225 -91 2284 -91 
Q 1841 -91 1394 -6 
Q 947 78 500 244 
L 500 1259 
Q 947 1022 1364 901 
Q 1781 781 2169 781 
Q 2563 781 2772 912 
Q 2981 1044 2981 1288 
Q 2981 1506 2839 1625 
Q 2697 1744 2272 1838 
L 1806 1941 
Q 1106 2091 782 2419 
Q 459 2747 459 3303 
Q 459 4000 909 4375 
Q 1359 4750 2203 4750 
Q 2588 4750 2994 4692 
Q 3400 4634 3834 4519 
z
" transform="scale(0.015625)"/>
       </defs>
       <use xlink:href="#DejaVuSans-Bold-53"/>
      </g>
     </g>
    </g>
    <g id="xtick_3">
     <g id="line2d_3">
      <g>
       <use xlink:href="#m66ff960337" x="191.7" y="384.48" style="stroke: #000000; stroke-width: 0.8"/>
      </g>
     </g>
     <g id="text_3">
      <!-- P -->
      <g transform="translate(187.302188 400.598125) scale(0.12 -0.12)">
       <defs>
        <path id="DejaVuSans-Bold-50" d="M 588 4666 
L 2584 4666 
Q 3475 4666 3951 4270 
Q 4428 3875 4428 3144 
Q 4428 2409 3951 2014 
Q 3475 1619 2584 1619 
L 1791 1619 
L 1791 0 
L 588 0 
L 588 4666 
z
M 1791 3794 
L 1791 2491 
L 2456 2491 
Q 2806 2491 2997 2661 
Q 3188 2831 3188 3144 
Q 3188 3456 2997 3625 
Q 2806 3794 2456 3794 
L 1791 3794 
z
" transform="scale(0.015625)"/>
       </defs>
       <use xlink:href="#DejaVuSans-Bold-50"/>
      </g>
     </g>
    </g>
    <g id="xtick_4">
     <g id="line2d_4">
      <g>
       <use xlink:href="#m66ff960337" x="225.18" y="384.48" style="stroke: #000000; stroke-width: 0.8"/>
      </g>
     </g>
     <g id="text_4">
      <!-- N -->
      <g transform="translate(220.15875 400.598125) scale(0.12 -0.12)">
       <defs>
        <path id="DejaVuSans-Bold-4e" d="M 588 4666 
L 1931 4666 
L 3628 1466 
L 3628 4666 
L 4769 4666 
L 4769 0 
L 3425 0 
L 1728 3200 
L 1728 0 
L 588 0 
L 588 4666 
z
" transform="scale(0.015625)"/>
       </defs>
       <use xlink:href="#DejaVuSans-Bold-4e"/>
      </g>
     </g>
    </g>
    <g id="xtick_5">
     <g id="line2d_5">
      <g>
       <use xlink:href="#m66ff960337" x="258.66" y="384.48" style="stroke: #000000; stroke-width: 0.8"/>
      </g>
     </g>
     <g id="text_5">
      <!-- D -->
      <g transform="translate(253.679063 400.598125) scale(0.12 -0.12)">
       <defs>
        <path id="DejaVuSans-Bold-44" d="M 1791 3756 
L 1791 909 
L 2222 909 
Q 2959 909 3348 1275 
Q 3738 1641 3738 2338 
Q 3738 3031 3350 3393 
Q 2963 3756 2222 3756 
L 1791 3756 
z
M 588 4666 
L 1856 4666 
Q 2919 4666 3439 4514 
Q 3959 4363 4331 4000 
Q 4659 3684 4818 3271 
Q 4978 2859 4978 2338 
Q 4978 1809 4818 1395 
Q 4659 981 4331 666 
Q 3956 303 3431 151 
Q 2906 0 1856 0 
L 588 0 
L 588 4666 
z
" transform="scale(0.015625)"/>
       </defs>
       <use xlink:href="#DejaVuSans-Bold-44"/>
      </g>
     </g>
    </g>
    <g id="xtick_6">
     <g id="line2d_6">
      <g>
       <use xlink:href="#m66ff960337" x="292.14" y="384.48" style="stroke: #000000; stroke-width: 0.8"/>
      </g>
     </g>
     <g id="text_6">
      <!-- E -->
      <g transform="translate(288.04125 400.598125) scale(0.12 -0.12)">
       <defs>
        <path id="DejaVuSans-Bold-45" d="M 588 4666 
L 3834 4666 
L 3834 3756 
L 1791 3756 
L 1791 2888 
L 3713 2888 
L 3713 1978 
L 1791 1978 
L 1791 909 
L 3903 909 
L 3903 0 
L 588 0 
L 588 4666 
z
" transform="scale(0.015625)"/>
       </defs>
       <use xlink:href="#DejaVuSans-Bold-45"/>
      </g>
     </g>
    </g>
    <g id="xtick_7">
     <g id="line2d_7">
      <g>
       <use xlink:href="#m66ff960337" x="325.62" y="384.48" style="stroke: #000000; stroke-width: 0.8"/>
      </g>
     </g>
     <g id="text_7">
      <!-- R -->
      <g transform="translate(321 400.598125) scale(0.12 -0.12)">
       <defs>
        <path id="DejaVuSans-Bold-52" d="M 2297 2597 
Q 2675 2597 2839 2737 
Q 3003 2878 3003 3200 
Q 3003 3519 2839 3656 
Q 2675 3794 2297 3794 
L 1791 3794 
L 1791 2597 
L 2297 2597 
z
M 1791 1766 
L 1791 0 
L 588 0 
L 588 4666 
L 2425 4666 
Q 3347 4666 3776 4356 
Q 4206 4047 4206 3378 
Q 4206 2916 3982 2619 
Q 3759 2322 3309 2181 
Q 3556 2125 3751 1926 
Q 3947 1728 4147 1325 
L 4800 0 
L 3519 0 
L 2950 1159 
Q 2778 1509 2601 1637 
Q 2425 1766 2131 1766 
L 1791 1766 
z
" transform="scale(0.015625)"/>
       </defs>
       <use xlink:href="#DejaVuSans-Bold-52"/>
      </g>
     </g>
    </g>
    <g id="xtick_8">
     <g id="line2d_8">
      <g>
       <use xlink:href="#m66ff960337" x="359.1" y="384.48" style="stroke: #000000; stroke-width: 0.8"/>
      </g>
     </g>
     <g id="text_8">
      <!-- M -->
      <g transform="translate(353.129063 400.598125) scale(0.12 -0.12)">
       <defs>
        <path id="DejaVuSans-Bold-4d" d="M 588 4666 
L 2119 4666 
L 3181 2169 
L 4250 4666 
L 5778 4666 
L 5778 0 
L 4641 0 
L 4641 3413 
L 3566 897 
L 2803 897 
L 1728 3413 
L 1728 0 
L 588 0 
L 588 4666 
z
" transform="scale(0.015625)"/>
       </defs>
       <use xlink:href="#DejaVuSans-Bold-4d"/>
      </g>
     </g>
    </g>
    <g id="xtick_9">
     <g id="line2d_9">
      <g>
       <use xlink:href="#m66ff960337" x="392.58" y="384.48" style="stroke: #000000; stroke-width: 0.8"/>
      </g>
     </g>
     <g id="text_9">
      <!-- K -->
      <g transform="translate(387.930938 400.598125) scale(0.12 -0.12)">
       <defs>
        <path id="DejaVuSans-Bold-4b" d="M 588 4666 
L 1791 4666 
L 1791 2963 
L 3525 4666 
L 4922 4666 
L 2675 2456 
L 5153 0 
L 3647 0 
L 1791 1838 
L 1791 0 
L 588 0 
L 588 4666 
z
" transform="scale(0.015625)"/>
       </defs>
       <use xlink:href="#DejaVuSans-Bold-4b"/>
      </g>
     </g>
    </g>
    <g id="xtick_10">
     <g id="line2d_10">
      <g>
       <use xlink:href="#m66ff960337" x="426.06" y="384.48" style="stroke: #000000; stroke-width: 0.8"/>
      </g>
     </g>
     <g id="text_10">
      <!-- Q -->
      <g transform="translate(420.959063 400.598125) scale(0.12 -0.12)">
       <defs>
        <path id="DejaVuSans-Bold-51" d="M 2847 -84 
L 2753 -84 
Q 1600 -84 959 553 
Q 319 1191 319 2328 
Q 319 3463 958 4106 
Q 1597 4750 2719 4750 
Q 3853 4750 4486 4112 
Q 5119 3475 5119 2328 
Q 5119 1541 4783 972 
Q 4447 403 3816 116 
L 4756 -934 
L 3609 -934 
L 2847 -84 
z
M 2719 3878 
Q 2169 3878 1866 3472 
Q 1563 3066 1563 2328 
Q 1563 1578 1859 1179 
Q 2156 781 2719 781 
Q 3272 781 3575 1187 
Q 3878 1594 3878 2328 
Q 3878 3066 3575 3472 
Q 3272 3878 2719 3878 
z
" transform="scale(0.015625)"/>
       </defs>
       <use xlink:href="#DejaVuSans-Bold-51"/>
      </g>
     </g>
    </g>
    <g id="xtick_11">
     <g id="line2d_11">
      <g>
       <use xlink:href="#m66ff960337" x="459.54" y="384.48" style="stroke: #000000; stroke-width: 0.8"/>
      </g>
     </g>
     <g id="text_11">
      <!-- W -->
      <g transform="translate(452.922188 400.598125) scale(0.12 -0.12)">
       <defs>
        <path id="DejaVuSans-Bold-57" d="M 191 4666 
L 1344 4666 
L 2150 1275 
L 2950 4666 
L 4109 4666 
L 4909 1275 
L 5716 4666 
L 6859 4666 
L 5759 0 
L 4372 0 
L 3525 3547 
L 2688 0 
L 1300 0 
L 191 4666 
z
" transform="scale(0.015625)"/>
       </defs>
       <use xlink:href="#DejaVuSans-Bold-57"/>
      </g>
     </g>
    </g>
    <g id="xtick_12">
     <g id="line2d_12">
      <g>
       <use xlink:href="#m66ff960337" x="493.02" y="384.48" style="stroke: #000000; stroke-width: 0.8"/>
      </g>
     </g>
     <g id="text_12">
      <!-- V -->
      <g transform="translate(488.376563 400.598125) scale(0.12 -0.12)">
       <defs>
        <path id="DejaVuSans-Bold-56" d="M 31 4666 
L 1241 4666 
L 2478 1222 
L 3713 4666 
L 4922 4666 
L 3194 0 
L 1759 0 
L 31 4666 
z
" transform="scale(0.015625)"/>
       </defs>
       <use xlink:href="#DejaVuSans-Bold-56"/>
      </g>
     </g>
    </g>
    <g id="xtick_13">
     <g id="line2d_13">
      <g>
       <use xlink:href="#m66ff960337" x="526.5" y="384.48" style="stroke: #000000; stroke-width: 0.8"/>
      </g>
     </g>
     <g id="text_13">
      <!-- T -->
      <g transform="translate(522.406875 400.598125) scale(0.12 -0.12)">
       <defs>
        <path id="DejaVuSans-Bold-54" d="M 31 4666 
L 4331 4666 
L 4331 3756 
L 2784 3756 
L 2784 0 
L 1581 0 
L 1581 3756 
L 31 3756 
L 31 4666 
z
" transform="scale(0.015625)"/>
       </defs>
       <use xlink:href="#DejaVuSans-Bold-54"/>
      </g>
     </g>
    </g>
    <g id="xtick_14">
     <g id="line2d_14">
      <g>
       <use xlink:href="#m66ff960337" x="559.98" y="384.48" style="stroke: #000000; stroke-width: 0.8"/>
      </g>
     </g>
     <g id="text_14">
      <!-- L -->
      <g transform="translate(556.156875 400.598125) scale(0.12 -0.12)">
       <defs>
        <path id="DejaVuSans-Bold-4c" d="M 588 4666 
L 1791 4666 
L 1791 909 
L 3903 909 
L 3903 0 
L 588 0 
L 588 4666 
z
" transform="scale(0.015625)"/>
       </defs>
       <use xlink:href="#DejaVuSans-Bold-4c"/>
      </g>
     </g>
    </g>
    <g id="xtick_15">
     <g id="line2d_15">
      <g>
       <use xlink:href="#m66ff960337" x="593.46" y="384.48" style="stroke: #000000; stroke-width: 0.8"/>
      </g>
     </g>
     <g id="text_15">
      <!-- H -->
      <g transform="translate(588.43875 400.598125) scale(0.12 -0.12)">
       <defs>
        <path id="DejaVuSans-Bold-48" d="M 588 4666 
L 1791 4666 
L 1791 2888 
L 3566 2888 
L 3566 4666 
L 4769 4666 
L 4769 0 
L 3566 0 
L 3566 1978 
L 1791 1978 
L 1791 0 
L 588 0 
L 588 4666 
z
" transform="scale(0.015625)"/>
       </defs>
       <use xlink:href="#DejaVuSans-Bold-48"/>
      </g>
     </g>
    </g>
    <g id="xtick_16">
     <g id="line2d_16">
      <g>
       <use xlink:href="#m66ff960337" x="626.94" y="384.48" style="stroke: #000000; stroke-width: 0.8"/>
      </g>
     </g>
     <g id="text_16">
      <!-- F -->
      <g transform="translate(622.84125 400.598125) scale(0.12 -0.12)">
       <defs>
        <path id="DejaVuSans-Bold-46" d="M 588 4666 
L 3834 4666 
L 3834 3756 
L 1791 3756 
L 1791 2888 
L 3713 2888 
L 3713 1978 
L 1791 1978 
L 1791 0 
L 588 0 
L 588 4666 
z
" transform="scale(0.015625)"/>
       </defs>
       <use xlink:href="#DejaVuSans-Bold-46"/>
      </g>
     </g>
    </g>
    <g id="xtick_17">
     <g id="line2d_17">
      <g>
       <use xlink:href="#m66ff960337" x="660.42" y="384.48" style="stroke: #000000; stroke-width: 0.8"/>
      </g>
     </g>
     <g id="text_17">
      <!-- A -->
      <g transform="translate(655.776563 400.598125) scale(0.12 -0.12)">
       <defs>
        <path id="DejaVuSans-Bold-41" d="M 3419 850 
L 1538 850 
L 1241 0 
L 31 0 
L 1759 4666 
L 3194 4666 
L 4922 0 
L 3713 0 
L 3419 850 
z
M 1838 1716 
L 3116 1716 
L 2478 3572 
L 1838 1716 
z
" transform="scale(0.015625)"/>
       </defs>
       <use xlink:href="#DejaVuSans-Bold-41"/>
      </g>
     </g>
    </g>
    <g id="xtick_18">
     <g id="line2d_18">
      <g>
       <use xlink:href="#m66ff960337" x="693.9" y="384.48" style="stroke: #000000; stroke-width: 0.8"/>
      </g>
     </g>
     <g id="text_18">
      <!-- Y -->
      <g transform="translate(689.555625 400.598125) scale(0.12 -0.12)">
       <defs>
        <path id="DejaVuSans-Bold-59" d="M -63 4666 
L 1253 4666 
L 2316 3003 
L 3378 4666 
L 4697 4666 
L 2919 1966 
L 2919 0 
L 1716 0 
L 1716 1966 
L -63 4666 
z
" transform="scale(0.015625)"/>
       </defs>
       <use xlink:href="#DejaVuSans-Bold-59"/>
      </g>
     </g>
    </g>
    <g id="xtick_19">
     <g id="line2d_19">
      <g>
       <use xlink:href="#m66ff960337" x="727.38" y="384.48" style="stroke: #000000; stroke-width: 0.8"/>
      </g>
     </g>
     <g id="text_19">
      <!-- I -->
      <g transform="translate(725.147813 400.598125) scale(0.12 -0.12)">
       <defs>
        <path id="DejaVuSans-Bold-49" d="M 588 4666 
L 1791 4666 
L 1791 0 
L 588 0 
L 588 4666 
z
" transform="scale(0.015625)"/>
       </defs>
       <use xlink:href="#DejaVuSans-Bold-49"/>
      </g>
     </g>
    </g>
    <g id="xtick_20">
     <g id="line2d_20">
      <g>
       <use xlink:href="#m66ff960337" x="760.86" y="384.48" style="stroke: #000000; stroke-width: 0.8"/>
      </g>
     </g>
     <g id="text_20">
      <!-- C -->
      <g transform="translate(756.456563 400.598125) scale(0.12 -0.12)">
       <defs>
        <path id="DejaVuSans-Bold-43" d="M 4288 256 
Q 3956 84 3597 -3 
Q 3238 -91 2847 -91 
Q 1681 -91 1000 561 
Q 319 1213 319 2328 
Q 319 3447 1000 4098 
Q 1681 4750 2847 4750 
Q 3238 4750 3597 4662 
Q 3956 4575 4288 4403 
L 4288 3438 
Q 3953 3666 3628 3772 
Q 3303 3878 2944 3878 
Q 2300 3878 1931 3465 
Q 1563 3053 1563 2328 
Q 1563 1606 1931 1193 
Q 2300 781 2944 781 
Q 3303 781 3628 887 
Q 3953 994 4288 1222 
L 4288 256 
z
" transform="scale(0.015625)"/>
       </defs>
       <use xlink:href="#DejaVuSans-Bold-43"/>
      </g>
     </g>
    </g>
    <g id="text_21">
     <!-- Amino Acid Type -->
     <g transform="translate(377.779844 417.731562) scale(0.14 -0.14)">
      <defs>
       <path id="DejaVuSans-Bold-6d" d="M 3781 2919 
Q 3994 3244 4286 3414 
Q 4578 3584 4928 3584 
Q 5531 3584 5847 3212 
Q 6163 2841 6163 2131 
L 6163 0 
L 5038 0 
L 5038 1825 
Q 5041 1866 5042 1909 
Q 5044 1953 5044 2034 
Q 5044 2406 4934 2573 
Q 4825 2741 4581 2741 
Q 4263 2741 4089 2478 
Q 3916 2216 3909 1719 
L 3909 0 
L 2784 0 
L 2784 1825 
Q 2784 2406 2684 2573 
Q 2584 2741 2328 2741 
Q 2006 2741 1831 2477 
Q 1656 2213 1656 1722 
L 1656 0 
L 531 0 
L 531 3500 
L 1656 3500 
L 1656 2988 
Q 1863 3284 2130 3434 
Q 2397 3584 2719 3584 
Q 3081 3584 3359 3409 
Q 3638 3234 3781 2919 
z
" transform="scale(0.015625)"/>
       <path id="DejaVuSans-Bold-69" d="M 538 3500 
L 1656 3500 
L 1656 0 
L 538 0 
L 538 3500 
z
M 538 4863 
L 1656 4863 
L 1656 3950 
L 538 3950 
L 538 4863 
z
" transform="scale(0.015625)"/>
       <path id="DejaVuSans-Bold-6e" d="M 4056 2131 
L 4056 0 
L 2931 0 
L 2931 347 
L 2931 1631 
Q 2931 2084 2911 2256 
Q 2891 2428 2841 2509 
Q 2775 2619 2662 2680 
Q 2550 2741 2406 2741 
Q 2056 2741 1856 2470 
Q 1656 2200 1656 1722 
L 1656 0 
L 538 0 
L 538 3500 
L 1656 3500 
L 1656 2988 
Q 1909 3294 2193 3439 
Q 2478 3584 2822 3584 
Q 3428 3584 3742 3212 
Q 4056 2841 4056 2131 
z
" transform="scale(0.015625)"/>
       <path id="DejaVuSans-Bold-6f" d="M 2203 2784 
Q 1831 2784 1636 2517 
Q 1441 2250 1441 1747 
Q 1441 1244 1636 976 
Q 1831 709 2203 709 
Q 2569 709 2762 976 
Q 2956 1244 2956 1747 
Q 2956 2250 2762 2517 
Q 2569 2784 2203 2784 
z
M 2203 3584 
Q 3106 3584 3614 3096 
Q 4122 2609 4122 1747 
Q 4122 884 3614 396 
Q 3106 -91 2203 -91 
Q 1297 -91 786 396 
Q 275 884 275 1747 
Q 275 2609 786 3096 
Q 1297 3584 2203 3584 
z
" transform="scale(0.015625)"/>
       <path id="DejaVuSans-Bold-20" transform="scale(0.015625)"/>
       <path id="DejaVuSans-Bold-63" d="M 3366 3391 
L 3366 2478 
Q 3138 2634 2908 2709 
Q 2678 2784 2431 2784 
Q 1963 2784 1702 2511 
Q 1441 2238 1441 1747 
Q 1441 1256 1702 982 
Q 1963 709 2431 709 
Q 2694 709 2930 787 
Q 3166 866 3366 1019 
L 3366 103 
Q 3103 6 2833 -42 
Q 2563 -91 2291 -91 
Q 1344 -91 809 395 
Q 275 881 275 1747 
Q 275 2613 809 3098 
Q 1344 3584 2291 3584 
Q 2566 3584 2833 3536 
Q 3100 3488 3366 3391 
z
" transform="scale(0.015625)"/>
       <path id="DejaVuSans-Bold-64" d="M 2919 2988 
L 2919 4863 
L 4044 4863 
L 4044 0 
L 2919 0 
L 2919 506 
Q 2688 197 2409 53 
Q 2131 -91 1766 -91 
Q 1119 -91 703 423 
Q 288 938 288 1747 
Q 288 2556 703 3070 
Q 1119 3584 1766 3584 
Q 2128 3584 2408 3439 
Q 2688 3294 2919 2988 
z
M 2181 722 
Q 2541 722 2730 984 
Q 2919 1247 2919 1747 
Q 2919 2247 2730 2509 
Q 2541 2772 2181 2772 
Q 1825 2772 1636 2509 
Q 1447 2247 1447 1747 
Q 1447 1247 1636 984 
Q 1825 722 2181 722 
z
" transform="scale(0.015625)"/>
       <path id="DejaVuSans-Bold-79" d="M 78 3500 
L 1197 3500 
L 2138 1125 
L 2938 3500 
L 4056 3500 
L 2584 -331 
Q 2363 -916 2067 -1148 
Q 1772 -1381 1288 -1381 
L 641 -1381 
L 641 -647 
L 991 -647 
Q 1275 -647 1404 -556 
Q 1534 -466 1606 -231 
L 1638 -134 
L 78 3500 
z
" transform="scale(0.015625)"/>
       <path id="DejaVuSans-Bold-70" d="M 1656 506 
L 1656 -1331 
L 538 -1331 
L 538 3500 
L 1656 3500 
L 1656 2988 
Q 1888 3294 2169 3439 
Q 2450 3584 2816 3584 
Q 3463 3584 3878 3070 
Q 4294 2556 4294 1747 
Q 4294 938 3878 423 
Q 3463 -91 2816 -91 
Q 2450 -91 2169 54 
Q 1888 200 1656 506 
z
M 2400 2772 
Q 2041 2772 1848 2508 
Q 1656 2244 1656 1747 
Q 1656 1250 1848 986 
Q 2041 722 2400 722 
Q 2759 722 2948 984 
Q 3138 1247 3138 1747 
Q 3138 2247 2948 2509 
Q 2759 2772 2400 2772 
z
" transform="scale(0.015625)"/>
       <path id="DejaVuSans-Bold-65" d="M 4031 1759 
L 4031 1441 
L 1416 1441 
Q 1456 1047 1700 850 
Q 1944 653 2381 653 
Q 2734 653 3104 758 
Q 3475 863 3866 1075 
L 3866 213 
Q 3469 63 3072 -14 
Q 2675 -91 2278 -91 
Q 1328 -91 801 392 
Q 275 875 275 1747 
Q 275 2603 792 3093 
Q 1309 3584 2216 3584 
Q 3041 3584 3536 3087 
Q 4031 2591 4031 1759 
z
M 2881 2131 
Q 2881 2450 2695 2645 
Q 2509 2841 2209 2841 
Q 1884 2841 1681 2658 
Q 1478 2475 1428 2131 
L 2881 2131 
z
" transform="scale(0.015625)"/>
      </defs>
      <use xlink:href="#DejaVuSans-Bold-41"/>
      <use xlink:href="#DejaVuSans-Bold-6d" transform="translate(77.392578 0)"/>
      <use xlink:href="#DejaVuSans-Bold-69" transform="translate(181.591797 0)"/>
      <use xlink:href="#DejaVuSans-Bold-6e" transform="translate(215.869141 0)"/>
      <use xlink:href="#DejaVuSans-Bold-6f" transform="translate(287.060547 0)"/>
      <use xlink:href="#DejaVuSans-Bold-20" transform="translate(355.761719 0)"/>
      <use xlink:href="#DejaVuSans-Bold-41" transform="translate(390.576172 0)"/>
      <use xlink:href="#DejaVuSans-Bold-63" transform="translate(467.96875 0)"/>
      <use xlink:href="#DejaVuSans-Bold-69" transform="translate(527.246094 0)"/>
      <use xlink:href="#DejaVuSans-Bold-64" transform="translate(561.523438 0)"/>
      <use xlink:href="#DejaVuSans-Bold-20" transform="translate(633.105469 0)"/>
      <use xlink:href="#DejaVuSans-Bold-54" transform="translate(667.919922 0)"/>
      <use xlink:href="#DejaVuSans-Bold-79" transform="translate(724.257812 0)"/>
      <use xlink:href="#DejaVuSans-Bold-70" transform="translate(789.443359 0)"/>
      <use xlink:href="#DejaVuSans-Bold-65" transform="translate(861.025391 0)"/>
     </g>
    </g>
   </g>
   <g id="matplotlib.axis_2">
    <g id="ytick_1">
     <g id="line2d_21">
      <path d="M 108 384.48 
L 777.6 384.48 
" clip-path="url(#pac6666a83e)" style="fill: none; stroke: #b0b0b0; stroke-opacity: 0.3; stroke-width: 0.8; stroke-linecap: square"/>
     </g>
     <g id="line2d_22">
      <defs>
       <path id="mdee613c0e2" d="M 0 0 
L -3.5 0 
" style="stroke: #000000; stroke-width: 0.8"/>
      </defs>
      <g>
       <use xlink:href="#mdee613c0e2" x="108" y="384.48" style="stroke: #000000; stroke-width: 0.8"/>
      </g>
     </g>
     <g id="text_22">
      <!-- 0.0 -->
      <g transform="translate(79.743125 389.039062) scale(0.12 -0.12)">
       <defs>
        <path id="DejaVuSans-Bold-30" d="M 2944 2338 
Q 2944 3213 2780 3570 
Q 2616 3928 2228 3928 
Q 1841 3928 1675 3570 
Q 1509 3213 1509 2338 
Q 1509 1453 1675 1090 
Q 1841 728 2228 728 
Q 2613 728 2778 1090 
Q 2944 1453 2944 2338 
z
M 4147 2328 
Q 4147 1169 3647 539 
Q 3147 -91 2228 -91 
Q 1306 -91 806 539 
Q 306 1169 306 2328 
Q 306 3491 806 4120 
Q 1306 4750 2228 4750 
Q 3147 4750 3647 4120 
Q 4147 3491 4147 2328 
z
" transform="scale(0.015625)"/>
        <path id="DejaVuSans-Bold-2e" d="M 653 1209 
L 1778 1209 
L 1778 0 
L 653 0 
L 653 1209 
z
" transform="scale(0.015625)"/>
       </defs>
       <use xlink:href="#DejaVuSans-Bold-30"/>
       <use xlink:href="#DejaVuSans-Bold-2e" transform="translate(69.580078 0)"/>
       <use xlink:href="#DejaVuSans-Bold-30" transform="translate(107.568359 0)"/>
      </g>
     </g>
    </g>
    <g id="ytick_2">
     <g id="line2d_23">
      <path d="M 108 335.553597 
L 777.6 335.553597 
" clip-path="url(#pac6666a83e)" style="fill: none; stroke: #b0b0b0; stroke-opacity: 0.3; stroke-width: 0.8; stroke-linecap: square"/>
     </g>
     <g id="line2d_24">
      <g>
       <use xlink:href="#mdee613c0e2" x="108" y="335.553597" style="stroke: #000000; stroke-width: 0.8"/>
      </g>
     </g>
     <g id="text_23">
      <!-- 0.2 -->
      <g transform="translate(79.743125 340.11266) scale(0.12 -0.12)">
       <defs>
        <path id="DejaVuSans-Bold-32" d="M 1844 884 
L 3897 884 
L 3897 0 
L 506 0 
L 506 884 
L 2209 2388 
Q 2438 2594 2547 2791 
Q 2656 2988 2656 3200 
Q 2656 3528 2436 3728 
Q 2216 3928 1850 3928 
Q 1569 3928 1234 3808 
Q 900 3688 519 3450 
L 519 4475 
Q 925 4609 1322 4679 
Q 1719 4750 2100 4750 
Q 2938 4750 3402 4381 
Q 3866 4013 3866 3353 
Q 3866 2972 3669 2642 
Q 3472 2313 2841 1759 
L 1844 884 
z
" transform="scale(0.015625)"/>
       </defs>
       <use xlink:href="#DejaVuSans-Bold-30"/>
       <use xlink:href="#DejaVuSans-Bold-2e" transform="translate(69.580078 0)"/>
       <use xlink:href="#DejaVuSans-Bold-32" transform="translate(107.568359 0)"/>
      </g>
     </g>
    </g>
    <g id="ytick_3">
     <g id="line2d_25">
      <path d="M 108 286.627195 
L 777.6 286.627195 
" clip-path="url(#pac6666a83e)" style="fill: none; stroke: #b0b0b0; stroke-opacity: 0.3; stroke-width: 0.8; stroke-linecap: square"/>
     </g>
     <g id="line2d_26">
      <g>
       <use xlink:href="#mdee613c0e2" x="108" y="286.627195" style="stroke: #000000; stroke-width: 0.8"/>
      </g>
     </g>
     <g id="text_24">
      <!-- 0.4 -->
      <g transform="translate(79.743125 291.186257) scale(0.12 -0.12)">
       <defs>
        <path id="DejaVuSans-Bold-34" d="M 2356 3675 
L 1038 1722 
L 2356 1722 
L 2356 3675 
z
M 2156 4666 
L 3494 4666 
L 3494 1722 
L 4159 1722 
L 4159 850 
L 3494 850 
L 3494 0 
L 2356 0 
L 2356 850 
L 288 850 
L 288 1881 
L 2156 4666 
z
" transform="scale(0.015625)"/>
       </defs>
       <use xlink:href="#DejaVuSans-Bold-30"/>
       <use xlink:href="#DejaVuSans-Bold-2e" transform="translate(69.580078 0)"/>
       <use xlink:href="#DejaVuSans-Bold-34" transform="translate(107.568359 0)"/>
      </g>
     </g>
    </g>
    <g id="ytick_4">
     <g id="line2d_27">
      <path d="M 108 237.700792 
L 777.6 237.700792 
" clip-path="url(#pac6666a83e)" style="fill: none; stroke: #b0b0b0; stroke-opacity: 0.3; stroke-width: 0.8; stroke-linecap: square"/>
     </g>
     <g id="line2d_28">
      <g>
       <use xlink:href="#mdee613c0e2" x="108" y="237.700792" style="stroke: #000000; stroke-width: 0.8"/>
      </g>
     </g>
     <g id="text_25">
      <!-- 0.6 -->
      <g transform="translate(79.743125 242.259855) scale(0.12 -0.12)">
       <defs>
        <path id="DejaVuSans-Bold-36" d="M 2316 2303 
Q 2000 2303 1842 2098 
Q 1684 1894 1684 1484 
Q 1684 1075 1842 870 
Q 2000 666 2316 666 
Q 2634 666 2792 870 
Q 2950 1075 2950 1484 
Q 2950 1894 2792 2098 
Q 2634 2303 2316 2303 
z
M 3803 4544 
L 3803 3681 
Q 3506 3822 3243 3889 
Q 2981 3956 2731 3956 
Q 2194 3956 1894 3657 
Q 1594 3359 1544 2772 
Q 1750 2925 1990 3001 
Q 2231 3078 2516 3078 
Q 3231 3078 3670 2659 
Q 4109 2241 4109 1563 
Q 4109 813 3618 361 
Q 3128 -91 2303 -91 
Q 1394 -91 895 523 
Q 397 1138 397 2266 
Q 397 3422 980 4083 
Q 1563 4744 2578 4744 
Q 2900 4744 3203 4694 
Q 3506 4644 3803 4544 
z
" transform="scale(0.015625)"/>
       </defs>
       <use xlink:href="#DejaVuSans-Bold-30"/>
       <use xlink:href="#DejaVuSans-Bold-2e" transform="translate(69.580078 0)"/>
       <use xlink:href="#DejaVuSans-Bold-36" transform="translate(107.568359 0)"/>
      </g>
     </g>
    </g>
    <g id="ytick_5">
     <g id="line2d_29">
      <path d="M 108 188.77439 
L 777.6 188.77439 
" clip-path="url(#pac6666a83e)" style="fill: none; stroke: #b0b0b0; stroke-opacity: 0.3; stroke-width: 0.8; stroke-linecap: square"/>
     </g>
     <g id="line2d_30">
      <g>
       <use xlink:href="#mdee613c0e2" x="108" y="188.77439" style="stroke: #000000; stroke-width: 0.8"/>
      </g>
     </g>
     <g id="text_26">
      <!-- 0.8 -->
      <g transform="translate(79.743125 193.333452) scale(0.12 -0.12)">
       <defs>
        <path id="DejaVuSans-Bold-38" d="M 2228 2088 
Q 1891 2088 1709 1903 
Q 1528 1719 1528 1375 
Q 1528 1031 1709 848 
Q 1891 666 2228 666 
Q 2563 666 2741 848 
Q 2919 1031 2919 1375 
Q 2919 1722 2741 1905 
Q 2563 2088 2228 2088 
z
M 1350 2484 
Q 925 2613 709 2878 
Q 494 3144 494 3541 
Q 494 4131 934 4440 
Q 1375 4750 2228 4750 
Q 3075 4750 3515 4442 
Q 3956 4134 3956 3541 
Q 3956 3144 3739 2878 
Q 3522 2613 3097 2484 
Q 3572 2353 3814 2058 
Q 4056 1763 4056 1313 
Q 4056 619 3595 264 
Q 3134 -91 2228 -91 
Q 1319 -91 855 264 
Q 391 619 391 1313 
Q 391 1763 633 2058 
Q 875 2353 1350 2484 
z
M 1631 3419 
Q 1631 3141 1786 2991 
Q 1941 2841 2228 2841 
Q 2509 2841 2662 2991 
Q 2816 3141 2816 3419 
Q 2816 3697 2662 3845 
Q 2509 3994 2228 3994 
Q 1941 3994 1786 3844 
Q 1631 3694 1631 3419 
z
" transform="scale(0.015625)"/>
       </defs>
       <use xlink:href="#DejaVuSans-Bold-30"/>
       <use xlink:href="#DejaVuSans-Bold-2e" transform="translate(69.580078 0)"/>
       <use xlink:href="#DejaVuSans-Bold-38" transform="translate(107.568359 0)"/>
      </g>
     </g>
    </g>
    <g id="ytick_6">
     <g id="line2d_31">
      <path d="M 108 139.847987 
L 777.6 139.847987 
" clip-path="url(#pac6666a83e)" style="fill: none; stroke: #b0b0b0; stroke-opacity: 0.3; stroke-width: 0.8; stroke-linecap: square"/>
     </g>
     <g id="line2d_32">
      <g>
       <use xlink:href="#mdee613c0e2" x="108" y="139.847987" style="stroke: #000000; stroke-width: 0.8"/>
      </g>
     </g>
     <g id="text_27">
      <!-- 1.0 -->
      <g transform="translate(79.743125 144.40705) scale(0.12 -0.12)">
       <defs>
        <path id="DejaVuSans-Bold-31" d="M 750 831 
L 1813 831 
L 1813 3847 
L 722 3622 
L 722 4441 
L 1806 4666 
L 2950 4666 
L 2950 831 
L 4013 831 
L 4013 0 
L 750 0 
L 750 831 
z
" transform="scale(0.015625)"/>
       </defs>
       <use xlink:href="#DejaVuSans-Bold-31"/>
       <use xlink:href="#DejaVuSans-Bold-2e" transform="translate(69.580078 0)"/>
       <use xlink:href="#DejaVuSans-Bold-30" transform="translate(107.568359 0)"/>
      </g>
     </g>
    </g>
    <g id="ytick_7">
     <g id="line2d_33">
      <path d="M 108 90.921585 
L 777.6 90.921585 
" clip-path="url(#pac6666a83e)" style="fill: none; stroke: #b0b0b0; stroke-opacity: 0.3; stroke-width: 0.8; stroke-linecap: square"/>
     </g>
     <g id="line2d_34">
      <g>
       <use xlink:href="#mdee613c0e2" x="108" y="90.921585" style="stroke: #000000; stroke-width: 0.8"/>
      </g>
     </g>
     <g id="text_28">
      <!-- 1.2 -->
      <g transform="translate(79.743125 95.480647) scale(0.12 -0.12)">
       <use xlink:href="#DejaVuSans-Bold-31"/>
       <use xlink:href="#DejaVuSans-Bold-2e" transform="translate(69.580078 0)"/>
       <use xlink:href="#DejaVuSans-Bold-32" transform="translate(107.568359 0)"/>
      </g>
     </g>
    </g>
    <g id="text_29">
     <!-- Average DCS (95% CI) -->
     <g transform="translate(72.722187 304.895469) rotate(-90) scale(0.14 -0.14)">
      <defs>
       <path id="DejaVuSans-Bold-76" d="M 97 3500 
L 1216 3500 
L 2088 1081 
L 2956 3500 
L 4078 3500 
L 2700 0 
L 1472 0 
L 97 3500 
z
" transform="scale(0.015625)"/>
       <path id="DejaVuSans-Bold-72" d="M 3138 2547 
Q 2991 2616 2845 2648 
Q 2700 2681 2553 2681 
Q 2122 2681 1889 2404 
Q 1656 2128 1656 1613 
L 1656 0 
L 538 0 
L 538 3500 
L 1656 3500 
L 1656 2925 
Q 1872 3269 2151 3426 
Q 2431 3584 2822 3584 
Q 2878 3584 2943 3579 
Q 3009 3575 3134 3559 
L 3138 2547 
z
" transform="scale(0.015625)"/>
       <path id="DejaVuSans-Bold-61" d="M 2106 1575 
Q 1756 1575 1579 1456 
Q 1403 1338 1403 1106 
Q 1403 894 1545 773 
Q 1688 653 1941 653 
Q 2256 653 2472 879 
Q 2688 1106 2688 1447 
L 2688 1575 
L 2106 1575 
z
M 3816 1997 
L 3816 0 
L 2688 0 
L 2688 519 
Q 2463 200 2181 54 
Q 1900 -91 1497 -91 
Q 953 -91 614 226 
Q 275 544 275 1050 
Q 275 1666 698 1953 
Q 1122 2241 2028 2241 
L 2688 2241 
L 2688 2328 
Q 2688 2594 2478 2717 
Q 2269 2841 1825 2841 
Q 1466 2841 1156 2769 
Q 847 2697 581 2553 
L 581 3406 
Q 941 3494 1303 3539 
Q 1666 3584 2028 3584 
Q 2975 3584 3395 3211 
Q 3816 2838 3816 1997 
z
" transform="scale(0.015625)"/>
       <path id="DejaVuSans-Bold-67" d="M 2919 594 
Q 2688 288 2409 144 
Q 2131 0 1766 0 
Q 1125 0 706 504 
Q 288 1009 288 1791 
Q 288 2575 706 3076 
Q 1125 3578 1766 3578 
Q 2131 3578 2409 3434 
Q 2688 3291 2919 2981 
L 2919 3500 
L 4044 3500 
L 4044 353 
Q 4044 -491 3511 -936 
Q 2978 -1381 1966 -1381 
Q 1638 -1381 1331 -1331 
Q 1025 -1281 716 -1178 
L 716 -306 
Q 1009 -475 1290 -558 
Q 1572 -641 1856 -641 
Q 2406 -641 2662 -400 
Q 2919 -159 2919 353 
L 2919 594 
z
M 2181 2772 
Q 1834 2772 1640 2515 
Q 1447 2259 1447 1791 
Q 1447 1309 1634 1061 
Q 1822 813 2181 813 
Q 2531 813 2725 1069 
Q 2919 1325 2919 1791 
Q 2919 2259 2725 2515 
Q 2531 2772 2181 2772 
z
" transform="scale(0.015625)"/>
       <path id="DejaVuSans-Bold-28" d="M 2413 -844 
L 1484 -844 
Q 1006 -72 778 623 
Q 550 1319 550 2003 
Q 550 2688 779 3389 
Q 1009 4091 1484 4856 
L 2413 4856 
Q 2013 4116 1813 3408 
Q 1613 2700 1613 2009 
Q 1613 1319 1811 609 
Q 2009 -100 2413 -844 
z
" transform="scale(0.015625)"/>
       <path id="DejaVuSans-Bold-39" d="M 641 103 
L 641 966 
Q 928 831 1190 764 
Q 1453 697 1709 697 
Q 2247 697 2547 995 
Q 2847 1294 2900 1881 
Q 2688 1725 2447 1647 
Q 2206 1569 1925 1569 
Q 1209 1569 770 1986 
Q 331 2403 331 3084 
Q 331 3838 820 4291 
Q 1309 4744 2131 4744 
Q 3044 4744 3544 4128 
Q 4044 3513 4044 2388 
Q 4044 1231 3459 570 
Q 2875 -91 1856 -91 
Q 1528 -91 1228 -42 
Q 928 6 641 103 
z
M 2125 2350 
Q 2441 2350 2600 2554 
Q 2759 2759 2759 3169 
Q 2759 3575 2600 3781 
Q 2441 3988 2125 3988 
Q 1809 3988 1650 3781 
Q 1491 3575 1491 3169 
Q 1491 2759 1650 2554 
Q 1809 2350 2125 2350 
z
" transform="scale(0.015625)"/>
       <path id="DejaVuSans-Bold-35" d="M 678 4666 
L 3669 4666 
L 3669 3781 
L 1638 3781 
L 1638 3059 
Q 1775 3097 1914 3117 
Q 2053 3138 2203 3138 
Q 3056 3138 3531 2711 
Q 4006 2284 4006 1522 
Q 4006 766 3489 337 
Q 2972 -91 2053 -91 
Q 1656 -91 1267 -14 
Q 878 63 494 219 
L 494 1166 
Q 875 947 1217 837 
Q 1559 728 1863 728 
Q 2300 728 2551 942 
Q 2803 1156 2803 1522 
Q 2803 1891 2551 2103 
Q 2300 2316 1863 2316 
Q 1603 2316 1309 2248 
Q 1016 2181 678 2041 
L 678 4666 
z
" transform="scale(0.015625)"/>
       <path id="DejaVuSans-Bold-25" d="M 4959 1925 
Q 4738 1925 4616 1733 
Q 4494 1541 4494 1184 
Q 4494 825 4614 633 
Q 4734 441 4959 441 
Q 5184 441 5303 633 
Q 5422 825 5422 1184 
Q 5422 1541 5301 1733 
Q 5181 1925 4959 1925 
z
M 4959 2450 
Q 5541 2450 5875 2112 
Q 6209 1775 6209 1184 
Q 6209 594 5875 251 
Q 5541 -91 4959 -91 
Q 4378 -91 4042 251 
Q 3706 594 3706 1184 
Q 3706 1772 4042 2111 
Q 4378 2450 4959 2450 
z
M 2094 -91 
L 1403 -91 
L 4319 4750 
L 5013 4750 
L 2094 -91 
z
M 1453 4750 
Q 2034 4750 2367 4411 
Q 2700 4072 2700 3481 
Q 2700 2891 2367 2550 
Q 2034 2209 1453 2209 
Q 872 2209 539 2550 
Q 206 2891 206 3481 
Q 206 4072 539 4411 
Q 872 4750 1453 4750 
z
M 1453 4225 
Q 1228 4225 1106 4031 
Q 984 3838 984 3481 
Q 984 3122 1106 2926 
Q 1228 2731 1453 2731 
Q 1678 2731 1798 2926 
Q 1919 3122 1919 3481 
Q 1919 3838 1797 4031 
Q 1675 4225 1453 4225 
z
" transform="scale(0.015625)"/>
       <path id="DejaVuSans-Bold-29" d="M 513 -844 
Q 913 -100 1113 609 
Q 1313 1319 1313 2009 
Q 1313 2700 1113 3408 
Q 913 4116 513 4856 
L 1441 4856 
Q 1916 4091 2145 3389 
Q 2375 2688 2375 2003 
Q 2375 1319 2147 623 
Q 1919 -72 1441 -844 
L 513 -844 
z
" transform="scale(0.015625)"/>
      </defs>
      <use xlink:href="#DejaVuSans-Bold-41"/>
      <use xlink:href="#DejaVuSans-Bold-76" transform="translate(73.767578 0)"/>
      <use xlink:href="#DejaVuSans-Bold-65" transform="translate(138.953125 0)"/>
      <use xlink:href="#DejaVuSans-Bold-72" transform="translate(206.775391 0)"/>
      <use xlink:href="#DejaVuSans-Bold-61" transform="translate(256.091797 0)"/>
      <use xlink:href="#DejaVuSans-Bold-67" transform="translate(323.572266 0)"/>
      <use xlink:href="#DejaVuSans-Bold-65" transform="translate(395.154297 0)"/>
      <use xlink:href="#DejaVuSans-Bold-20" transform="translate(462.976562 0)"/>
      <use xlink:href="#DejaVuSans-Bold-44" transform="translate(497.791016 0)"/>
      <use xlink:href="#DejaVuSans-Bold-43" transform="translate(580.798828 0)"/>
      <use xlink:href="#DejaVuSans-Bold-53" transform="translate(656.0625 0)"/>
      <use xlink:href="#DejaVuSans-Bold-20" transform="translate(728.083984 0)"/>
      <use xlink:href="#DejaVuSans-Bold-28" transform="translate(762.898438 0)"/>
      <use xlink:href="#DejaVuSans-Bold-39" transform="translate(808.601562 0)"/>
      <use xlink:href="#DejaVuSans-Bold-35" transform="translate(878.181641 0)"/>
      <use xlink:href="#DejaVuSans-Bold-25" transform="translate(947.761719 0)"/>
      <use xlink:href="#DejaVuSans-Bold-20" transform="translate(1047.957031 0)"/>
      <use xlink:href="#DejaVuSans-Bold-43" transform="translate(1082.771484 0)"/>
      <use xlink:href="#DejaVuSans-Bold-49" transform="translate(1156.160156 0)"/>
      <use xlink:href="#DejaVuSans-Bold-29" transform="translate(1193.367188 0)"/>
     </g>
    </g>
   </g>
   <g id="line2d_35">
    <path d="M 123.066 194.937641 
L 126.414 194.937641 
M 124.74 194.937641 
L 124.74 68.571818 
M 123.066 68.571818 
L 126.414 68.571818 
" clip-path="url(#pac6666a83e)" style="fill: none; stroke: #424242; stroke-width: 2.25; stroke-linecap: square"/>
   </g>
   <g id="line2d_36">
    <path d="M 156.546 217.149277 
L 159.894 217.149277 
M 158.22 217.149277 
L 158.22 67.68 
M 156.546 67.68 
L 159.894 67.68 
" clip-path="url(#pac6666a83e)" style="fill: none; stroke: #424242; stroke-width: 2.25; stroke-linecap: square"/>
   </g>
   <g id="line2d_37">
    <path d="M 190.026 199.646887 
L 193.374 199.646887 
M 191.7 199.646887 
L 191.7 101.356376 
M 190.026 101.356376 
L 193.374 101.356376 
" clip-path="url(#pac6666a83e)" style="fill: none; stroke: #424242; stroke-width: 2.25; stroke-linecap: square"/>
   </g>
   <g id="line2d_38">
    <path d="M 223.506 242.314523 
L 226.854 242.314523 
M 225.18 242.314523 
L 225.18 110.632422 
M 223.506 110.632422 
L 226.854 110.632422 
" clip-path="url(#pac6666a83e)" style="fill: none; stroke: #424242; stroke-width: 2.25; stroke-linecap: square"/>
   </g>
   <g id="line2d_39">
    <path d="M 256.986 239.097103 
L 260.334 239.097103 
M 258.66 239.097103 
L 258.66 135.89796 
M 256.986 135.89796 
L 260.334 135.89796 
" clip-path="url(#pac6666a83e)" style="fill: none; stroke: #424242; stroke-width: 2.25; stroke-linecap: square"/>
   </g>
   <g id="line2d_40">
    <path d="M 290.466 252.992334 
L 293.814 252.992334 
M 292.14 252.992334 
L 292.14 177.441826 
M 290.466 177.441826 
L 293.814 177.441826 
" clip-path="url(#pac6666a83e)" style="fill: none; stroke: #424242; stroke-width: 2.25; stroke-linecap: square"/>
   </g>
   <g id="line2d_41">
    <path d="M 323.946 275.307677 
L 327.294 275.307677 
M 325.62 275.307677 
L 325.62 196.863368 
M 323.946 196.863368 
L 327.294 196.863368 
" clip-path="url(#pac6666a83e)" style="fill: none; stroke: #424242; stroke-width: 2.25; stroke-linecap: square"/>
   </g>
   <g id="line2d_42">
    <path d="M 357.426 291.224379 
L 360.774 291.224379 
M 359.1 291.224379 
L 359.1 179.374682 
M 357.426 179.374682 
L 360.774 179.374682 
" clip-path="url(#pac6666a83e)" style="fill: none; stroke: #424242; stroke-width: 2.25; stroke-linecap: square"/>
   </g>
   <g id="line2d_43">
    <path d="M 390.906 288.188602 
L 394.254 288.188602 
M 392.58 288.188602 
L 392.58 220.397733 
M 390.906 220.397733 
L 394.254 220.397733 
" clip-path="url(#pac6666a83e)" style="fill: none; stroke: #424242; stroke-width: 2.25; stroke-linecap: square"/>
   </g>
   <g id="line2d_44">
    <path d="M 424.386 291.277355 
L 427.734 291.277355 
M 426.06 291.277355 
L 426.06 216.617029 
M 424.386 216.617029 
L 427.734 216.617029 
" clip-path="url(#pac6666a83e)" style="fill: none; stroke: #424242; stroke-width: 2.25; stroke-linecap: square"/>
   </g>
   <g id="line2d_45">
    <path d="M 457.866 312.596724 
L 461.214 312.596724 
M 459.54 312.596724 
L 459.54 187.627885 
M 457.866 187.627885 
L 461.214 187.627885 
" clip-path="url(#pac6666a83e)" style="fill: none; stroke: #424242; stroke-width: 2.25; stroke-linecap: square"/>
   </g>
   <g id="line2d_46">
    <path d="M 491.346 297.033297 
L 494.694 297.033297 
M 493.02 297.033297 
L 493.02 219.636525 
M 491.346 219.636525 
L 494.694 219.636525 
" clip-path="url(#pac6666a83e)" style="fill: none; stroke: #424242; stroke-width: 2.25; stroke-linecap: square"/>
   </g>
   <g id="line2d_47">
    <path d="M 524.826 295.991006 
L 528.174 295.991006 
M 526.5 295.991006 
L 526.5 224.791381 
M 524.826 224.791381 
L 528.174 224.791381 
" clip-path="url(#pac6666a83e)" style="fill: none; stroke: #424242; stroke-width: 2.25; stroke-linecap: square"/>
   </g>
   <g id="line2d_48">
    <path d="M 558.306 289.301202 
L 561.654 289.301202 
M 559.98 289.301202 
L 559.98 245.803219 
M 558.306 245.803219 
L 561.654 245.803219 
" clip-path="url(#pac6666a83e)" style="fill: none; stroke: #424242; stroke-width: 2.25; stroke-linecap: square"/>
   </g>
   <g id="line2d_49">
    <path d="M 591.786 298.006097 
L 595.134 298.006097 
M 593.46 298.006097 
L 593.46 240.335175 
M 591.786 240.335175 
L 595.134 240.335175 
" clip-path="url(#pac6666a83e)" style="fill: none; stroke: #424242; stroke-width: 2.25; stroke-linecap: square"/>
   </g>
   <g id="line2d_50">
    <path d="M 625.266 296.600576 
L 628.614 296.600576 
M 626.94 296.600576 
L 626.94 250.192973 
M 625.266 250.192973 
L 628.614 250.192973 
" clip-path="url(#pac6666a83e)" style="fill: none; stroke: #424242; stroke-width: 2.25; stroke-linecap: square"/>
   </g>
   <g id="line2d_51">
    <path d="M 658.746 301.093049 
L 662.094 301.093049 
M 660.42 301.093049 
L 660.42 253.784305 
M 658.746 253.784305 
L 662.094 253.784305 
" clip-path="url(#pac6666a83e)" style="fill: none; stroke: #424242; stroke-width: 2.25; stroke-linecap: square"/>
   </g>
   <g id="line2d_52">
    <path d="M 692.226 327.074229 
L 695.574 327.074229 
M 693.9 327.074229 
L 693.9 218.021777 
M 692.226 218.021777 
L 695.574 218.021777 
" clip-path="url(#pac6666a83e)" style="fill: none; stroke: #424242; stroke-width: 2.25; stroke-linecap: square"/>
   </g>
   <g id="line2d_53">
    <path d="M 725.706 309.723728 
L 729.054 309.723728 
M 727.38 309.723728 
L 727.38 262.368144 
M 725.706 262.368144 
L 729.054 262.368144 
" clip-path="url(#pac6666a83e)" style="fill: none; stroke: #424242; stroke-width: 2.25; stroke-linecap: square"/>
   </g>
   <g id="line2d_54">
    <path d="M 759.186 329.886959 
L 762.534 329.886959 
M 760.86 329.886959 
L 760.86 263.865623 
M 759.186 263.865623 
L 762.534 263.865623 
" clip-path="url(#pac6666a83e)" style="fill: none; stroke: #424242; stroke-width: 2.25; stroke-linecap: square"/>
   </g>
   <g id="patch_23">
    <path d="M 108 384.48 
L 108 51.84 
" style="fill: none; stroke: #000000; stroke-width: 0.8; stroke-linejoin: miter; stroke-linecap: square"/>
   </g>
   <g id="patch_24">
    <path d="M 777.6 384.48 
L 777.6 51.84 
" style="fill: none; stroke: #000000; stroke-width: 0.8; stroke-linejoin: miter; stroke-linecap: square"/>
   </g>
   <g id="patch_25">
    <path d="M 108 384.48 
L 777.6 384.48 
" style="fill: none; stroke: #000000; stroke-width: 0.8; stroke-linejoin: miter; stroke-linecap: square"/>
   </g>
   <g id="patch_26">
    <path d="M 108 51.84 
L 777.6 51.84 
" style="fill: none; stroke: #000000; stroke-width: 0.8; stroke-linejoin: miter; stroke-linecap: square"/>
   </g>
   <g id="text_30">
    <!-- DCS Amino Acid Propensity -->
    <g transform="translate(327.171094 28.926094) scale(0.15 -0.15)">
     <defs>
      <path id="DejaVuSans-Bold-73" d="M 3272 3391 
L 3272 2541 
Q 2913 2691 2578 2766 
Q 2244 2841 1947 2841 
Q 1628 2841 1473 2761 
Q 1319 2681 1319 2516 
Q 1319 2381 1436 2309 
Q 1553 2238 1856 2203 
L 2053 2175 
Q 2913 2066 3209 1816 
Q 3506 1566 3506 1031 
Q 3506 472 3093 190 
Q 2681 -91 1863 -91 
Q 1516 -91 1145 -36 
Q 775 19 384 128 
L 384 978 
Q 719 816 1070 734 
Q 1422 653 1784 653 
Q 2113 653 2278 743 
Q 2444 834 2444 1013 
Q 2444 1163 2330 1236 
Q 2216 1309 1875 1350 
L 1678 1375 
Q 931 1469 631 1722 
Q 331 1975 331 2491 
Q 331 3047 712 3315 
Q 1094 3584 1881 3584 
Q 2191 3584 2531 3537 
Q 2872 3491 3272 3391 
z
" transform="scale(0.015625)"/>
      <path id="DejaVuSans-Bold-74" d="M 1759 4494 
L 1759 3500 
L 2913 3500 
L 2913 2700 
L 1759 2700 
L 1759 1216 
Q 1759 972 1856 886 
Q 1953 800 2241 800 
L 2816 800 
L 2816 0 
L 1856 0 
Q 1194 0 917 276 
Q 641 553 641 1216 
L 641 2700 
L 84 2700 
L 84 3500 
L 641 3500 
L 641 4494 
L 1759 4494 
z
" transform="scale(0.015625)"/>
     </defs>
     <use xlink:href="#DejaVuSans-Bold-44"/>
     <use xlink:href="#DejaVuSans-Bold-43" transform="translate(83.007812 0)"/>
     <use xlink:href="#DejaVuSans-Bold-53" transform="translate(158.271484 0)"/>
     <use xlink:href="#DejaVuSans-Bold-20" transform="translate(230.292969 0)"/>
     <use xlink:href="#DejaVuSans-Bold-41" transform="translate(265.107422 0)"/>
     <use xlink:href="#DejaVuSans-Bold-6d" transform="translate(342.5 0)"/>
     <use xlink:href="#DejaVuSans-Bold-69" transform="translate(446.699219 0)"/>
     <use xlink:href="#DejaVuSans-Bold-6e" transform="translate(480.976562 0)"/>
     <use xlink:href="#DejaVuSans-Bold-6f" transform="translate(552.167969 0)"/>
     <use xlink:href="#DejaVuSans-Bold-20" transform="translate(620.869141 0)"/>
     <use xlink:href="#DejaVuSans-Bold-41" transform="translate(655.683594 0)"/>
     <use xlink:href="#DejaVuSans-Bold-63" transform="translate(733.076172 0)"/>
     <use xlink:href="#DejaVuSans-Bold-69" transform="translate(792.353516 0)"/>
     <use xlink:href="#DejaVuSans-Bold-64" transform="translate(826.630859 0)"/>
     <use xlink:href="#DejaVuSans-Bold-20" transform="translate(898.212891 0)"/>
     <use xlink:href="#DejaVuSans-Bold-50" transform="translate(933.027344 0)"/>
     <use xlink:href="#DejaVuSans-Bold-72" transform="translate(1006.318359 0)"/>
     <use xlink:href="#DejaVuSans-Bold-6f" transform="translate(1055.634766 0)"/>
     <use xlink:href="#DejaVuSans-Bold-70" transform="translate(1124.335938 0)"/>
     <use xlink:href="#DejaVuSans-Bold-65" transform="translate(1195.917969 0)"/>
     <use xlink:href="#DejaVuSans-Bold-6e" transform="translate(1263.740234 0)"/>
     <use xlink:href="#DejaVuSans-Bold-73" transform="translate(1334.931641 0)"/>
     <use xlink:href="#DejaVuSans-Bold-69" transform="translate(1394.453125 0)"/>
     <use xlink:href="#DejaVuSans-Bold-74" transform="translate(1428.730469 0)"/>
     <use xlink:href="#DejaVuSans-Bold-79" transform="translate(1476.533203 0)"/>
    </g>
    <!-- (Kruskal-Wallis P &lt; 2.6e-23) -->
    <g transform="translate(324.461719 45.84) scale(0.15 -0.15)">
     <defs>
      <path id="DejaVuSans-Bold-75" d="M 500 1363 
L 500 3500 
L 1625 3500 
L 1625 3150 
Q 1625 2866 1622 2436 
Q 1619 2006 1619 1863 
Q 1619 1441 1641 1255 
Q 1663 1069 1716 984 
Q 1784 875 1895 815 
Q 2006 756 2150 756 
Q 2500 756 2700 1025 
Q 2900 1294 2900 1772 
L 2900 3500 
L 4019 3500 
L 4019 0 
L 2900 0 
L 2900 506 
Q 2647 200 2364 54 
Q 2081 -91 1741 -91 
Q 1134 -91 817 281 
Q 500 653 500 1363 
z
" transform="scale(0.015625)"/>
      <path id="DejaVuSans-Bold-6b" d="M 538 4863 
L 1656 4863 
L 1656 2216 
L 2944 3500 
L 4244 3500 
L 2534 1894 
L 4378 0 
L 3022 0 
L 1656 1459 
L 1656 0 
L 538 0 
L 538 4863 
z
" transform="scale(0.015625)"/>
      <path id="DejaVuSans-Bold-6c" d="M 538 4863 
L 1656 4863 
L 1656 0 
L 538 0 
L 538 4863 
z
" transform="scale(0.015625)"/>
      <path id="DejaVuSans-Bold-2d" d="M 347 2297 
L 2309 2297 
L 2309 1388 
L 347 1388 
L 347 2297 
z
" transform="scale(0.015625)"/>
      <path id="DejaVuSans-Bold-3c" d="M 4684 3041 
L 1672 2003 
L 4684 972 
L 4684 191 
L 678 1638 
L 678 2375 
L 4684 3822 
L 4684 3041 
z
" transform="scale(0.015625)"/>
      <path id="DejaVuSans-Bold-33" d="M 2981 2516 
Q 3453 2394 3698 2092 
Q 3944 1791 3944 1325 
Q 3944 631 3412 270 
Q 2881 -91 1863 -91 
Q 1503 -91 1142 -33 
Q 781 25 428 141 
L 428 1069 
Q 766 900 1098 814 
Q 1431 728 1753 728 
Q 2231 728 2486 893 
Q 2741 1059 2741 1369 
Q 2741 1688 2480 1852 
Q 2219 2016 1709 2016 
L 1228 2016 
L 1228 2791 
L 1734 2791 
Q 2188 2791 2409 2933 
Q 2631 3075 2631 3366 
Q 2631 3634 2415 3781 
Q 2200 3928 1806 3928 
Q 1516 3928 1219 3862 
Q 922 3797 628 3669 
L 628 4550 
Q 984 4650 1334 4700 
Q 1684 4750 2022 4750 
Q 2931 4750 3382 4451 
Q 3834 4153 3834 3553 
Q 3834 3144 3618 2883 
Q 3403 2622 2981 2516 
z
" transform="scale(0.015625)"/>
     </defs>
     <use xlink:href="#DejaVuSans-Bold-28"/>
     <use xlink:href="#DejaVuSans-Bold-4b" transform="translate(45.703125 0)"/>
     <use xlink:href="#DejaVuSans-Bold-72" transform="translate(123.193359 0)"/>
     <use xlink:href="#DejaVuSans-Bold-75" transform="translate(172.509766 0)"/>
     <use xlink:href="#DejaVuSans-Bold-73" transform="translate(243.701172 0)"/>
     <use xlink:href="#DejaVuSans-Bold-6b" transform="translate(303.222656 0)"/>
     <use xlink:href="#DejaVuSans-Bold-61" transform="translate(369.726562 0)"/>
     <use xlink:href="#DejaVuSans-Bold-6c" transform="translate(437.207031 0)"/>
     <use xlink:href="#DejaVuSans-Bold-2d" transform="translate(471.484375 0)"/>
     <use xlink:href="#DejaVuSans-Bold-57" transform="translate(508.488281 0)"/>
     <use xlink:href="#DejaVuSans-Bold-61" transform="translate(615.166016 0)"/>
     <use xlink:href="#DejaVuSans-Bold-6c" transform="translate(682.646484 0)"/>
     <use xlink:href="#DejaVuSans-Bold-6c" transform="translate(716.923828 0)"/>
     <use xlink:href="#DejaVuSans-Bold-69" transform="translate(751.201172 0)"/>
     <use xlink:href="#DejaVuSans-Bold-73" transform="translate(785.478516 0)"/>
     <use xlink:href="#DejaVuSans-Bold-20" transform="translate(845 0)"/>
     <use xlink:href="#DejaVuSans-Bold-50" transform="translate(879.814453 0)"/>
     <use xlink:href="#DejaVuSans-Bold-20" transform="translate(953.105469 0)"/>
     <use xlink:href="#DejaVuSans-Bold-3c" transform="translate(987.919922 0)"/>
     <use xlink:href="#DejaVuSans-Bold-20" transform="translate(1071.708984 0)"/>
     <use xlink:href="#DejaVuSans-Bold-32" transform="translate(1106.523438 0)"/>
     <use xlink:href="#DejaVuSans-Bold-2e" transform="translate(1176.103516 0)"/>
     <use xlink:href="#DejaVuSans-Bold-36" transform="translate(1214.091797 0)"/>
     <use xlink:href="#DejaVuSans-Bold-65" transform="translate(1283.671875 0)"/>
     <use xlink:href="#DejaVuSans-Bold-2d" transform="translate(1351.494141 0)"/>
     <use xlink:href="#DejaVuSans-Bold-32" transform="translate(1392.998047 0)"/>
     <use xlink:href="#DejaVuSans-Bold-33" transform="translate(1462.578125 0)"/>
     <use xlink:href="#DejaVuSans-Bold-29" transform="translate(1532.158203 0)"/>
    </g>
   </g>
  </g>
 </g>
 <defs>
  <clipPath id="pac6666a83e">
   <rect x="108" y="51.84" width="669.6" height="332.64"/>
  </clipPath>
 </defs>
</svg>
